<mxfile host="app.diagrams.net" modified="2023-11-01T09:43:18.019Z" agent="Mozilla/5.0 (Windows NT 10.0; Win64; x64) AppleWebKit/537.36 (KHTML, like Gecko) Chrome/117.0.0.0 Safari/537.36 OPR/103.0.0.0" etag="g8n0RqaIPvPAbQOpytnn" version="22.0.8" type="google">
  <diagram name="Page-1" id="nyMgovARVEpk_rl05Ugr">
    <mxGraphModel grid="1" page="1" gridSize="10" guides="1" tooltips="1" connect="1" arrows="1" fold="1" pageScale="1" pageWidth="850" pageHeight="1100" math="0" shadow="0">
      <root>
        <mxCell id="0" />
        <mxCell id="1" parent="0" />
        <mxCell id="GG8pMooJ2UvfW2ObNYX2-1" value="" style="shape=image;verticalLabelPosition=bottom;labelBackgroundColor=default;verticalAlign=top;aspect=fixed;imageAspect=0;image=data:image/png,iVBORw0KGgoAAAANSUhEUgAAA/QAAAJ1CAYAAAB3vrurAAAAAXNSR0IArs4c6QAAAARnQU1BAACxjwv8YQUAAAAJcEhZcwAADsMAAA7DAcdvqGQAAP+lSURBVHhe7J0HfBTFF8d/6QmBEHqVDgLSq/SiVAEpCihIURDsomKjKE39K6LYUXoHC0W60pv03juEngRCQnpu/+9t9shlb+9ydymkvO+HIVtmZ/d2Z968N+WNm0JAEARBEARBEARBEIQshbv2VxAEQRAEQRAEQRCELIQY9IIgCIIgCIIgCIKQBRGDXhAEQRAEQRAEQRCyIGLQC4IgCIIgCIIgCEIWRAx6QRAEQRAEQRAEQciCiEEvCIIgCIIgCIIgCFkQMegFQRAEQRAEQRAEIQsiBr0gCIIgCIIgCIIgZEHEoBcEQRAEQRAEQRCELIgY9IIgCIIgCIIgCIKQBRGDXhAEQRAEQRAEQRCyIGLQC4IgCIIgCIIgCEIWRAx6QRAEQRAEQRAEQciCiEEvCIIgCIIgCIIgCFkQMegFQRAEQRAEQRAEIQsiBr0gCIIgCIIgCIIgZEHEoBeS0bx5c3h7e2doePXVV7W7C1mdadOmWX3f119/XTsruEpcXByqVq364J0OGTJEO5P1yEgZ8+KLL2p3FYTMxTvvvGOVX1l+Zlfc3NysgvBwMJlMWLJkibZnn6tXr1rl0/Lly2tnHefMmTM4cuSItmefrl27Wt1zzZo12llBEIwQg15IRnx8vGo8ZGRISEjQ7i5kdVhRkO+b9kycOBEnTpzIFu80I2WM5D0hs8J5U59fWX4KQnpy+PBhtVF16NCh2pGU0edTDo4SGRmJUaNGoVq1ajh+/Lh21D5GdYSiKNpZQRCMEINeEAQhE8M9EyNHjtT2BEEQBME5wsLC8Pbbb6NOnTrYvn27djR9+fvvv/HYY49h/PjxiI2N1Y4KgpAeiEEvCIKQSTl16hR69+4tPXeCIAiCS0RFRaFy5cqYPHlyho1a+uSTT9ClSxdcvHhROyIIQnripsg4FsGCxo0bY+fOndpeIvXr18czzzyj7aU9NWvWRLt27bQ9ISvz22+/4eWXX9b2EuGhfT///LO2JzjK2bNn8eSTT+LSpUvakSReeuklTJ06VdvLWmSkjOHeoaeeekrbE4TMw1tvvYXvvvtO20vk119/xeDBg7W97IXRnHlRPzOG8PBwBAQEaHuJFC5cGDdv3tT2bMNz6EuWLKntJfLII4/g8uXL2p4xAwcOxMyZM7W9RBYuXIhevXppe7bp1KkTVq5cqe0lsmrVKnTo0EHbEwRBjxj0QjKMlG1WMFjREISUYCN0z5492l4iFSpUUA02wXH279+Pjh072lS4sptBLzJGyGmIQS8GfUaRGoOe58AvW7ZM20skV65cePrpp7U9Y8SgF4SMRYbcC4KQZrDx/txzzyULYsw7B3sfbtasmUPKliAIgiCkF2y86+v0lIx5QRAyHjHoBUEQMgF37txRezW6d++u9ooIgiAIgiAIQkqIQS8IgvCQ4V55XmdeP0RREARBEARBEOwhBr0guAj3oh45cgS7d+/Gvn37cP78+QzzRh4TE4ODBw+q971+/bp21DV4jVf2ps5pceBt7i3ODNy9e/fBs/Hc/KNHj2ZY7zXPOzx06JD6fXlOOzunS+s5n/y7OnfurPbK37hxQzuaRPHixfHGG29oe0JGEx0djWPHjql5YO/evThz5kyGeYnm+/C9+b4XLlzI9vONWXZyGWO5Zn7fXN65HGYE7PzLLGNYvrrKtWvX1LW+Oa0TJ05kWH5JKzjPnzx5UpV5u3btUmUU+0bheiKzwc/K75jzCj9nUFCQdibj4LrSnGcPHDig5qOMKqtcF/J34vsGBwdrR3MW/K7ZQR9/f84HnB8yMq+y/sXvn8s7y2tXlufjfGzWJfnvlStXxL+E4DTiFE9IRmZxWMUCbsWKFdpectq3b4/cuXNre47BQtdo7VX23vr4449reynDgvuXX35R0+KKQ2/A83Ox1/6uXbvixRdfRP78+bUzjrN582bcvn1b2wMKFSqEFi1aqNu8BMyHH36oru9qadjWrVtXNQrZw3zBggW1o7Y5d+4cli9fjvXr16v3i4iI0M4kwg6MeO47ewjv2bOnuuSNI3CjBisYlpQrV05d+9ZRWBmeN28e1q5dq27rRRQ/W8WKFVGrVi306NFDnc/n4+OjnXUdvs+OHTvUvP7ff/+pxpv+3oGBgahdu7bqkb1fv35O50NL+P3bm4vI9+E4//77rzoU35LUOsXjte3135ydJrVt21bbSz8ys1M8/t6sVM2ePVt972zI6Mu4n58fatSoob4rLm96D9COwHKEy6AZzr/csMOwgTBq1CjMnz8/WcMa53ku488++6xq4Fvi5eXl9LxWVj5ZhllSrFgxNGnSRNtzjA0bNiA0NFTbS4SXq/L29tb2jGH5xTKeZRmXcy5vvLyWEUWLFlVlEDvL6tu3L4oUKaKdSZmQkBBs3LhR20uEfVRwGvy9Z82ahS+//DLZu+CywPfq06eP6ojLyKGbJWz4Ll26VC2vx48f144mkjdvXjRv3hyDBg1Sv7E5rcziFI+NoT/++EPN72zIcx2jl3uMp6cnypQpo8pyzoOOfGNL0sop3q1bt1QnbZx3+Jn1DbylSpVC69at8d5776mrXJjh78t53hJ2PMpzxJ2BG3vYYdvcuXPVesKoQZ3rbK6f+D09//zz8Pf31844zurVq3H//n1tDyhduvQDfzRs9LEewL/fbEDy++Wyy3Ui5zVuZDA3EnO54vrKEs7j06ZN0/YS4e/J39USvlbvoI5loH71EL7Xtm3btD3gxx9/xKZNm7S9RHgdfL18adCggfrNLEnJKR7nGy7TfA/WxfT+ZvibNmzYUF0lZsiQIShQoIB2JmVYlrFMs4T1L/6mZrjR76efflL1p9OnT2tHE+FvzfKlW7duqg7I5caI+Ph49f1z2eP3xjqvJZUqVVJ1L06jbNmy2lFBsAMVDEF4QKNGjbiGTRZIwdDOZiwvvPCC1bNwePfdd7UYjkEKufLEE09YpePu7q5QhazFsg9VjkrTpk2t0rAXqNJT3nnnHYUUDi0Vx6DKI1k6rVq1Uo/v27dPoUo42Tl9IINTIQVDjW/EtWvXFDIO1d9udL1R4LhUqSikSGmp2IYUUqvrhw4dqp21DxlPht8ppUCKuUKVq/qdXWXLli0KKaqG6dsK/C3Gjh2rxMXFaak4x7x58wzT5Xzzv//9TyFFTY03Y8YMqzhk0KvnXKVChQpWaZLyq51NXzKTjLGEDHmFFGarZ7MXPDw8lN69eyukzGqpOMZrr72WLJ3ChQurx69evaqQ8pbsnD6Q8a4G/fFLly6paTjK008/bZVG+fLltbOOQUqoQgqsVRr2yiLLQzJGUpRltgL/djLWFDJ2tBTts3PnTqs01q1bpz4j5zv9OX0YNmyYlpI1/M7JADK8ziiQgaEEBQWp17755ptW51l+ZhSnTp1SyKBVyBC0eg5HQvHixRUyRhyWu0ZpOAMZQMqkSZOU3LlzG6alD/y7yIhVwsPD1evHjRtnFceZMsO/c+bMmWp9o0/HXsibN69aT5jluaNwObJMh38Ls3btWoUM72Tn9KFkyZJKu3btDM/ZC2T4qvewhPOrPt4jjzyinU1izZo1VvEcCVwP6nnqqaes4pFBr547ceKE8vjjj1udtxU4v3C+SUhIUK9PiV27dlmlsXHjRvXcvXv3lFdffdXhMlOrVi21nOnZvHmzUq1aNcNr9IH1gcmTJ6dKvxFyBmLQC8nITMr2nTt31IpJ/zysRLOB7ShGRiaHkSNHajFsw0KUhWlKFai9wIL7yJEjWoopY2TQnzt3ziFFokqVKjYF/8KFC1WD3+g6RwJX4seOHdNSM8ZVg/7ff/9V8uTJY3WtM6FHjx5KWFiYlqJjsDH+ySefONXAoQ9cZs6fP6+l6DhGBn3nzp3Vb22JGPTpC+cBbnhz1bDhUKhQIWX58uVaiiljZNBz3q1Zs2ay40YhV65cqmGoPz59+nQt9ZTh38yGhj4NDleuXNFipQyXW/319gzgHTt2KBUrVrS6xpVQqVIltQEkJWwZ9KNGjbI6bhRmzZqlpZScFStWKPny5TO8xl4oU6aMcubMmYdm0HP9MHHiRMXX19fq/q6El19+2SFjw+haRwkODlbatm1rmEZKgY0qNkpTY9Bzg52+XnY2cGPh6dOntRRTxsig37t3r1UDmlFo06aN2lhjdM5eyOwG/ZIlS1zWE7i8OZJPbRn0oaGhTjf4cihRokSyzpDff/9d8fT0NIxrL4wfP15LQRCMEYNeSEZmU7ZZ8dI/DwduoXWkxfXy5cuGFUDt2rWVmJgYLZYxLPyNlC5XAhvS3MPuCHrFoVmzZg5XJF988YWWSnL+/vvvVBmt5lCwYEHl6NGjWqrWuGLQcyOBq711+tCpUyeHKm2Ge3y4d9UoHWcD91axku4MlgY9jw7YsGGDdiY5YtCnH9zD7EwPq73ADQLTpk3TUraPkUFva0SSPvTt21f54YcfrI4///zzWuopw6MR9Nebw9y5c7VYKcOjpfTXm3uz9LCizI0R+vipCSwbUyrvRga90XMbBTaezD28lvDILqNREo4GVvL5e+mPZ4RBP3r0aKv7pjZwfkwJo+scgXu2+TsbXe9oKFeunPL2229bHXfEoOfGWm6E0V/rSuD68/Dhw1rK9tEb9N27d3f4ObgMZzeDftCgQalqdOUwYcIE7Q62MTLoly1bpjYM6Y87GrgxiuUUG/PcIWUUJ6XAv91RHVLImYhBLyQjsxn0DA9x0j8ThylTpmgxjGEB2r59e6vrfHx87BqlZj7//HOra80hf/78yuuvv64Keh4+xcbY4sWLlWeffdam4cxK+4ULF7TUbaM36PWVGBtjbLhv2rRJbbVmo5Tj8H3Nwzkt2b9/v81Wfb6Ge4VZAfjnn3/UoeeLFi1SnnnmGZujEvj5bCnRzhr0nI6txooGDRoow4cPV/7880/1t27dulVZvXq18vHHH6sjEYyu4TB//nwtdfvYa6wpWrSoem/uheN3wj2RnK49JYkVsNu3b2upp8yCBQvUBgj+TfYap8SgTz+MjCpz4DLORgCPbOG8x3mQZU6vXr1slnEuh0uXLtVSt43eoNeXcZYVH330kZrvOHBeZbnF57icXrx4MVl8DjyCJyXj1ow92caKs6NUrVo12bXcY200tJhHH5QqVSpZXHPgkQJsrHCvMQ8n5nfNMpXLBfeqcn7Rvx/LwO/DHkYGveX347T5m/Lwcb4vT98xG079+/fXUkmCyzgbNObr9YHrgL/++ktNa/369crXX3+tNGzY0DCuPqS3Qc/v1+i+HHjkBJdDHunB9dm2bdvUxhl+L1wHly5d2vA6DiwvuXHMHkbXOQKPnjG6lgM/07fffqv+Ln7fXB/ziAGjxhYjQyolg57zrT0jmmXmmDFj1HqC3xd3QPB0KSMZZw78rhxpSNAb9HqZw6N5vvvuuwe/21w3cQcGT0fJbga9PvAIk65duyq//PKLKps5sO7SrVs3mz3grNOkNALJyKDXyzmWGaxbckMWlxG+N4/kadKkSbJ4loGfk4fPWx7jhj3OP/zuWO6x3GB9SR/PHDp06KA9pSBYIwa9kIzMaNBHREQYGiDc633z5k0tljU8301/DQdWHFOClUAjJZLvycavPeWFlW02BIyu56FwKSnd9ob29ezZ03BOPg/FGzBggLaXBM/54t5jo7S4wrenWHDFx0a10bUrV67UYiXHWYOeGyT08bky48YRe/A75HsZKWlcqaYEK0D66zgUK1ZMNcjszYvnOXzsU8DoevM8R0dw1PgSgz594OGb+ufgwIoiG5L2pm+cPHlSneJhdD2PNrEnlxi9QW8Z2Pgz8lfBZZUbgHhkCVO9enWrax2d2mM0ZN8c2LBzBH4e/bV9+vTRziaHjVp9XA5sSIeEhGixbMNGha1n5sZHexgZ9ObADZ1sDOrhRgk2JPWjZrjMslJtlBbLU1u9r3wd984ZTSGzDOlp0PMzGMlzNnJ+/vnnFEe88fX8rtgg1afBgX+fPYyuSQk2cIyu48YrbniwNS+d6y5ucDe61jKkZFgPGTLE8Do28rlB1tY743fFDVJGZZRDy5Yt1Tj20Bv0luGNN94wrKO4QcE85YUbnvg9cOA6S58GG+/m8+ZgNIXFUYM+KioqWVrcsKW/7scff0wWh4ORL4yUDHo25Hn0pS34d9jqKPj000+1WMYYGfSWgb8pd5LYgvOF0XWWgXWcOXPm2NQz2J+Q0ffnhiqjEUOCwIhBLyQjMxr0zPbt2w17xXiYqhEs0I3mizdv3vyBQmwLrmgbN25sdS23pho5OLEFKxxGRj0Pf7eHLYOe54xypWkLIwXhyy+/NEzrrbfecmjKAjcI1K1b1+p69gtg9B6dNeiNRl9888032tmUYQVBfz0HeyMhWAnkd6m/pnLlyoYjHGzBoyT0aXBghSAtSQ+D/mGSGWQM++cwMky4F5yVYkfg8mY0jJdDSt/HlkHPjQH28qBlGeeRKvrrHSk73BiZ0vxpR+am82gF/XXcQ6aHlVaj3l32DZKSUWMJl1uW3/p0uBHOHvYMejZk7aF/Pu6FNUqHewXtNQKaYUXdni+U9DTouQ41umdK70AP14Hm0SKWwZ7vBEYfn4M9uH569NFHra7hYesp+XIxw/5v9NdbBnsGPfe8Gl3DjaGOlA+GGwVtNYqn1ABiy6Dn6Qf26m6jMsX1uD4dsyPOlHDUoNfDHQz663i0kyPYM+hZd3FEbnBDodGoIK5/7GHPoOdvf/fuXS2mbWw1+HNgo5xH/aUENw4adVjwaBBBMEIMeiEZRso2D8lmRSY9gq0WdiM++OADq2fjYNSLYjQvlr2dOuK8zKhXgBXg48ePazEcx2i+Irfw2sOWQc/P5QysYBr1znMPkyPGvBl2ZKVPg4NRxeKsQa/3LM8VWEpDNy3h/GPkFZwNfVsYNQJwb4UzxrwZNkT1afEojLQkJxj0aSljuDcqJWwp+o4qnGZY1hj5YeCGPHvTemwZ9DwywFGMyiUrwimhN1SMjDNHpq1wL5nlNayoGim7POzcMh4HHhLrqFFmCX8ffVoc7DV02jLouQHPGTnI8Agpo3Qc9bjP8PPYmkebngY9D0XX369evXopNnAbof/2HHjVBHvo43OwBzuZ1MfncuWIMWSJvSH79gx6o5EYPKXEWQeobFga1VHcy28v/9ky6Pfs2aPFcJzsYtDzMHdn8it7t9enwVOp7GHLoOcy66gzZh4+b5QGB0dGiJphXUJ/PU8FFAQjxKAXkmGkbKdncGS4pRk29IyGsHHFZ6lQcc+4Pg6HqVOnajHsw8Na9deyMuQK/FxGy+zYU2aNDHp2JuWMocuwwa1PhxUiHi7sLGxw6dN6//33tbNJOGvQ6xUdrjSdVTB5zqJlGpwf7PU6sRJrGZ8DN7y4Ai8RqB85wvuOLPHnKDnBoE/LwEM9U8IoD7DjIlfgoa1GZZx70G1hy6B3pDHCDJcT7q20vJ6HkKfUSMqre1hew42frNxbHuOhxvZgh6L632yrIYunz/CIGMvRSmwYuwJPvzKaH2uvvNky6EeMGKHFcAxurDBq/EhpepARPDdfnw6H9DToufFR/53ZP4kr8Hxhy3Q4mJdXtYU+Pgd7GC2ryI1nzsJ5Rv+7zcGWQc9e7Y0aXdhAdAVbU7zsNU4YGfTcCOBI77Se7GLQO7O6EcO6jlE69nzd2DLo2c+Ho3ADo5EPIpaBKU3HsoSd+OnTyAwjZoXMiTtlEEHIEpAyhdmzZ8PLy0s7ksi5c+fw0UcfqdtHjhwBKcvqtiVkpOPFF1/U9mwTHh6Of/75R9tLYtiwYdqWc5AhDqoItL0kSJHSthyjSZMm6u93huXLl2tbSZCShEcffVTbc5yBAwdqW4m/qWHDhiCFQDviOr6+vtpWIgkJCZg7d6625xidO3fGTz/9hO3bt4MUF5w9exZDhw7Vzibn8uXL2Lt3r7aXCL9XozzjCEWLFsWTTz6p7SVCCheWLl2q7QmZDVLyrPIAM3r0aG3LOcioxptvvqntJUGGHlss2l7KFCtWzKmySQYHSPHV9hK5f/8+SCHV9ozZsGGDtpVI69atUb9+fW0vkU2bNmlbxnBZI0NJ20uEZYsRzz77LE6dOqXKVn42Mlpdlqf+/v7ImzevtpdEfHy8tuU4/LudYfXq1YiJidH2EilZsqShfE+J999/X9vKOPi9kzEBMlaxdu1afPnll2jXrp121jmKFy+ubSXBsjut4Ly1cuVKbS8JV94b55m3335b23MMMjytfk+hQoVs1ispwXVU3bp1tb0kWEY4Q6tWrUBGobaXs6hRowZq1qyp7TlGpUqVULp0aW0viQsXLmhbjtOzZ09tK2VYr6levbq2l8Tjjz/ulN70yCOPaFtJsIwXBCPEoBeyFLVq1cInn3yi7SXx3XffYebMmaqCGxUVpR1NpECBAvjtt98cqghZ0dErbc2aNUPlypW1PedhhVaPUaOBPapUqaJtOc6hQ4e0rSTatm2rbTnHE088gd9//x2nT59Wjeb//vsP7777rnbWderVq6dtJcFK07x58xxWEPndvPLKK2jcuDHy5MmjHTVm2bJl2lYSbIikpnHimWee0baScPb7ChmHkbHKRnmjRo20Pefp2rWrtpUENyxxcBTOx84q69xQqefff//Vtqxho3r37t3aXiJs2OrLIRvgbPjZYs2aNdpWEmy02IMNqwYNGmDw4MGqYusq3JChxxWD3lmZeuDAAW0rCTawjJ4nJapWrYoyZcpoexlLkSJF1Hpg+PDh6jdxBU9PT20rCVe+gS24YV6fHhvUXP+7QocOHbQtx9i4caO2lQS/Mz8/P23PObhcGzV4rVq1SttyDFf0gOyCka6QEvzeudFNT3R0tLblOM7e30gXSUlG6tF3eDBpWc6E7IUY9EKW44MPPlB7iPVwL/KVK1e0vSSmTJmi9qQ6wuHDh7WtJFzp0bbEqDHgzJkz2pZjlCtXTttyDDaGWSnS07x5c23LOQICAlTDtWLFii4psLZo06aNtpUEV7Z9+/ZV3/uIESPU3sC0qsTS4/saKVnOfl8h42BjVU/Lli3h7u56dVinTh3DnmMeDeAozpZxho0M/Yglewb9li1bkpUlbsh47LHHrHroGY5rC+6ttoQNrVKlSml7aY9Zno0dOxZ37tzRjibhzEgIhhVlR+sEM0bylBsRXYVHXWU1uHdw3bp1+P7777UjSTj7Dexhq/HE1d5p7t3Nnz+/tpcyRjLC2REdeoyu555iZ4zL8uXLa1s5D1fraaNGmNjYWG3LMTjfGfWW28Oo0YtHDDiDs6MyhZyNGPRCinDLMvfqpEdgQ9FZWFDOmjXLodZyNgx79Oih7aWMUY/a33//rSq8rgajHnru/eLeMkdxtjeHpyFERkZqe4nky5cv07XwcyOBUQs6w7/hs88+Q9OmTVXDg7/j1KlTcfXqVS2G8xh93xkzZhh+N0eD0TBMNujTUsHN7qSljOE8Yw8jI5uNhdTAjVzcKKCHR7Q4iis9tiw/W7Rooe0lwsPabckW/XB7/t3ckMH5WI+tYfdBQUFWxm2XLl20rdTDw605/UWLFuG9995T32tgYKBqlPHorLi4OC2m6/C7dtY4NDLoUzOqIzWNAekNyy4enr9jxw78/PPP6nQ1fv+c33iY/l9//aXFTB8OHjyobSWRmvfFeZxH2jkC5y+jesKofDsDj07Rj4jg98z1nKM8rFEdmYGyZctqW86RmoZaM6yjeHt7a3uOYSRfeLqiM6TFsws5CBIogvAAI4dVmdUJR0pL0vAyc7w8lTOQYmuYVnoEUhC1uybHyCme3pN/Shg54eGl5tIbZ53iMbymPVVcVtfZCzVr1lQ+/PBD1au5M06C2JmPUXrpEew53nEGWbYubTFyNrVmzRrtrOu8+eabVum+8sor2tnkGDnF++6777SzzvHtt99apWVraSMuN5bxLJ1H6t9L1apVtTPJ+e2335LF47B3717trONERkaqHvDHjx+v9OvXT10q1JbzspSCPW/lRk7xeCkxZwgPD7dKg4MzTl31bNq0ySq99HSKZ4tr166pyw2yk1Nefo8dz5LhafVsKQUu1/YwusYWRssTsiO+1DBo0CCrNI3yzZkzZ6zicXDFGZ0eo+VS2Zu/EUZy6vTp09pZ58gOTvFSWu7XFuzsVJ/Wv//+q521xsgpXu3atbWzjmPkof6ff/7RzjoG/2Z9Gq46FBWyP9L8I2RZXn/9dbs9a9zzyj07zsC9EhmFM0PtnB3mbuQ4xdX5f+lNx44d1R4fo/litmD/AF988YXae89D8djBExnQ2lnbZNbvK2QcemdujLM9J0YYpaH352EPV6eyODqPnsuH3q+G5TBgvXPH48eP49atW9peEvrh9uwgjaccOMqePXvUkVM8J5p9c4wcOVJ1dsq9wUb3Sw+cfddGeYZxRmbpSYs85yo8hYF9znCvNX+/Xr16qTJ0yZIl6kiEh+14Sz+6jEnt+3K0/rMlH1wd7m/Jw5IR2YGH+dv105pcJS3ykCDYQgx6IcvCw5HYGDSCh0e5MqfT2blVqcGZeeHOVgRGvyM1ymd6w0OuWdHnobvO/lYe3s5+FXg44tdff21zqDsfz6zfV8g40qtsGKWRnmXcDM+r1U+lMTLo9UPo2ZBjnxhm9AY9o59Hz8OR9Wk7WmbZSOPVANj/CTu9dMVoZD8FaaHYO/uu9Y5SzaQm3zysBtYTJ06o8/fZ58y2bdu0o87BjmbTE6NpFakdfuyoUZaedefDkhFC6pCh70JWQHKpkGXh+am2lpriSrl///5pYlRxL9bzzz+f5iEtln1zhsxuYFarVk31Qs/zF9kDs7NOq9hg4Dm3PN/TUQ/5DDcKGX2f1AZX/EMI6Y+RQehMfrGFkdGXUU6N9N6Tjx49auWlfv369dpWIizXLA0EI6djmzdv1rYS2blzp7rKhSWOzJ9n453TZ2dqthrcjGB/KdwA8M4776i9x/ybjJwPpjdGDq6Y1MjUh9HjyP4V2F9CSksb6mH/K7yCDPunYD8V8+fP186kD0bvO7Ujnhy9Pr3kA2MkI5ydmy0IgmAIj7sXBDNZZQ59XFycQoqe1bPqAykg2hWOUapUKas0/vzzT+1sxmA0h37Lli3aWccghcsqDVfmgTmLK3PobcFzFg8ePKh88cUXChkDipeXl1XatoKt726Uxvbt27WzmROZQ5+2FC9e3Or+PJc7tbz99ttW6Tozh/6nn37SzjoPywd9enPnztXOJlKhQoVk56dPn66dSaJOnTrJ4uj9brDfCsvzPNc6KipKO2sMl2Oem215nVFg2du+fXtl2LBhqhzZunWrcv/+fS2VJMi4tLrW2Tn0PF/fGYKDg63S4OCsjxZL9u3bZ5Vees6hv3z5coo+Csi4VOfQ8zzdTz75RFmwYIFy7NgxhQxaLZVE1q5da3VtWs6hN5p/PHXqVO2saxjN6TbKN4cPH7aKx/VGWlC5cmWrtJ2ZQ3/+/HntrHNkhzn0q1at0s46R1rMoX/88ce1s45jlIft3dcImUMvOIP00AtZEp4/7UgvA3tFNlqqzBZGvcL21mPOrPBwWj225oFmVri3sGbNmupwevbOHRISoq448MYbb6S4hA0vb2U0Hze7fF/BdYyWHwoLC9O2XCc0NFTbSoJXZ8gIyJhSe1Et+eeff7QtgIw5K8/dRv5H9MPuuaff0jeFft1s9nie0nBk7lnnYAT37v/xxx9qrz8ZV+r8/EmTJqlr1bN/DKM5x0bDsUmX0bbSBx4VYPQ79aMVnMFonnh68u677xrKRB5JNGzYMPz333/qSAquL3mFgU8//RS9e/dW18zXDzlO729QoUIFbSuJ1C4FykvEOYLRqiv8e1P7vfj9GMmI9J6+IAhCzkAMeiHLsW/fPowZM0bbS4KVAP2QUa6I+/Xr5/Dcacs5pWaMlivK7PC8Wj28PI4zS+VlNvLkyaM6APvuu+/UpcfYQGHj3mhYMw+vtDRozGSX7yu4jpGxwEPJUws7ddPDS31lBDxEWe9PZO3atQ+MLP1ydbwElNESWOykTo/5Wja49Y2jjgy3nzBhgraVBA8zZkOep9jwcpRcth2By7XR3Pv0Nuj5/Rp9Sx5+7ipGyyemF7yu+u+//67tJcHGOn9TbkThqQ22phboMTJMTSaTtpV6jMro1q1btS3n4XzDDRaOwA1jRka2o9fb4vz584YNKtWrV9e2BEEQXEcMeiFLwR5hX3jhBau5i+xgaOXKleocaj3s2XncuHHann2MDD5WOtNSWckIuIdeb+jyb3B27qQl3MMzZMgQ/Pjjj6pylRa9mqmBGy3YuGfHXUbzHvVGDGP0fZcuXaptCTkBI2Nh48aN2pZr8NrsRmtX8wiTjELv7Z5HnpgNcH1ZsPRubwn3iuvn9Jobxnh0jCX2nJKaYQNm//792l4SI0aMUA15Z2HD1Mh4zwj5bOTJX+9jwBn0DgfTk3Xr1mlbSfD3YyO/dOnS2hHHYcd6etLyGxitOc9OU53xCG8JN7zYcmxoRHrICL1TSqZcuXION2YJgiDYQwx6IUvBiqCRMvG///0PlSpVwvjx41G7dm3taBKff/65Q70p7DBIz/Xr11PVE8MKaHr3IOlhZa1u3braXhJGvYiOwM/PjpB+/fVXdbnA5s2bq0sC8tJWrsK9PKzksFE+aNAgNGjQAGvWrNHOOg5fxx6b9fB302P0fQ8ePOjwcEwjMvrbCqmDeyL1sNF59+5dbc95jJR9f39/w5Ey6QUPf9c3bHF54vypd4hna7lPHuLOHtAtYYOe01i+fLl2JBE2unjpOXvYGvnw9ttva1vOoV92z0xWNOhTc62zGMl9zi/cQ+8KRt8hLb8By/QiRYpoe4nwaDv9komO4myjrZGMMGogdgaj6zOywU8QhOyNGPRCloGV5m+++UbbS4J7m1577TV1m3uXZs2aZbVEDXupZa/3KbXw85BTI+/kv/zyi7blPDwfkYfwsRH86quv4qefflJ7Z9JbCe3atau2lcTChQtdui8/r36uee7cuQ17Mhzl448/Vg2Lt956C9OmTVN7YFzttTJqxDGChwgbLUEzZcoUbct5Jk+erK5YwPmQl+XiRo/UDs8U0g/+TvoyzmXC1TzAxu4PP/yg7SXBQ7SN8lp6wUOFeV1xS9ig59VArl27ph1JxJZBz+iH3fP8e27w0PcwOjLc3tacbVdWgOD3PGPGDG0vORlh0Bu9M56u40pZ52v4vWYUln4QzBj5knAEHo1i1OOflt+Ay41R/cUN9s42oN68edPp+rt79+7aVhLcKMKNv67A5e/PP//U9pKoVauWtiUIgpA6xKAXsgQ8vHvAgAHaXhKsGLKSZ6k485w0o+XseM7iyJEjtT1jeJi6fgkohhsJ2OB0Fnakww7a7ty5ow5T//nnn9XGh6FDh1rN909rjBQiHt3gyhBzHgGhh4f4pmbJnccff1zbSoKNKlccTV29elXbSsLIuRH3KLZs2VLbS4IbitjHgLOwo76vvvpKVZi5wYmX5eJpCTySRMiccBnXD09nvvzyS8O5wSnBPddGI3j69OmjbWUc+t+1fft2dcqQJZUrVzZ0mmnGaD16nm6jd4TmiEFvJB+4UdWZ4c9m+HcYDVtmMsKg58ZLI6Oe6xpnjEyOyw7nMhKjNdhdGZHCz85Lihot15fW34BHcegbxA4cOICJEydqeynDDfnsYNHZofo89cRo9Ak3QjvboMDwlD99nuf6n5c3zQiMGhbTu8w8jHsKQk5GDHohS8C9uEY9Gtw7WqpUKW0vCfaMbjREkg23lHqBuZfViF69ehkO47YHp2U0RYC9B6e3Qc/zxY2Ucx4yb2QA24J7k4yGOvL7SA3cE6gfIswGFX9TZ2BHf0a9qx06dNC2kmM03JedJj7zzDNOKbmsnPCoD33vJ5PadyOkLyxP9HDee+655ww9eNuC582/9NJL2l4S3FvOeSOj0TdG8m/hBidLbM2fN8NTdfRrveuHh/P0ppRWmmDy58+vbSXBz+TsOubbtm2za/xklMd4I9nBUxKcMTJZVrHDwozE6DuwT4Tg4GBtL2XYkP3www/VUV5GpPU34IYnLo963n//fUyfPl3bsw3LZy6bet8PjsD1Ejtc1cP1oL48pQS/L6MRAlxWUzPCzRmMGnSckXOu8DDuKQg5GTHohUwPL3nEPeR6uIfIltLMlcnMmTOtKhVWSrin394Sbjx/jx3v6eF51i1atHBovjUrE9wqz0PJ9fBQR1uNBmkN9zrqGw64UYINfSNDVA+vKGDUm8lDBR3pobMHvwej98y9V7Nnz9b27MMKwssvv6z2lFvCS0wZNWYw/HuMzvFwyjZt2qhDNFOC78tGITti1FOtWrWHYsw5A0/7YO/jloGnCuQUuIwb9aDzUGLO1/r8ZAQ7mOTRHkZxeblMnpKS0bChrXf8qDfa7A23Z9jTeUpxHC37nI6R0y9epYSHbqcEy+sFCxbgqaeestvL6kiZTQvYCDNqKGYjk8tUSr233JBhnh6WkRiN1uL3+c477zjUa8qNptwQzPWJLdLjG/AQe6P8w4Z627Zt1Xnp+nfOjbM8ao/lsJHe4Cg8KsVolBd3FnD55t5/e/BzsSHPq+zo4QYD9uuTUfBIGf175FGPzjToOIvRkp2ujIITBMFBSOgIwgMaNWrEtWOyULlyZWXIkCHpGv7880/tCZJz48YNhSoGq2cqUKCAQoapFss2pBBYXcth6NChWgxjSNlU72F0LSm8St++fZX9+/drsZOgSlJZunSp0rBhQ8NrOfz7779abGNatGhhdc2WLVu0s84zePBgq/Q4+Pj4qO/hzJkzWswkjhw5opDiosbRX+fm5qasX79ei5kcMgqt4tt716dOnVLc3d2truHQu3dvZdWqVQopnlrsJO7cuaP88ccfSv369Q2v/fjjj7WYxhw9elTx8/MzvNbX11fNkydOnNBiJ0HGm7Jw4UKFlEXDa728vJSDBw9qsdMGUk6t7kMKrXbWNSpUqGCV5mOPPaadTV+MZAzn0Yzm8uXLSr58+ayehUOJEiWUyZMnq+VZDymlyhtvvKF+a6NrW7durZBRocU2how6q+vIINTOpo5hw4ZZpW0Zbt++rcW0zffff294rTk4I49effVVwzSKFSumzJkzRwkNDdViJnHr1i1l8eLFSpMmTQyv1QcuI7bYuXOnVfzGjRtrZ53n2LFjChlHVmlyqFu3rrJy5UqFjGQttqJus7xs2bKl4TWWgeVnehATE6MUKVLE8J7t2rVTNm3apMTFxWmxE+HnPn78uDJx4kSlaNGihtfqw/3797WrrTGK7whz5841vNYcatWqpdYVL774otKjRw+17BrFMwqXLl3S7mIM1zFG13F4/PHHleXLl1uVdTL01fLRoUMHw+s4TJgwQYttm/Lly1tdd/78ee2s8zz66KNW6bEcio+P12IohnKLdSH9dY888oh21jY//vij1XX8bSx/A+cxo3s+9dRTVteyLuAKbdu2tUrLng62a9cuq/j8rZ2lTZs2VumkpPvp+fvvv63S6Nmzp3ZWEJIjBr2QDCNlOyPC8OHDtSdIgoV9586dDeP//vvvWiz7sJLCSpZRGmvWrNFiGcOVMht3RteaQ9WqVVVFjSuNevXqqca+UTxzeOutt7TUbZPWBj0bxPa+KxvUrBSxIfLEE08YVvyWYezYsVrK1jhr0DNsfOuvsQz+/v6qAs7vmJ+Pv6eHh4dhXA78TSIjI7XUbbNkyRKbjQnmUKNGDaVVq1Zq5czviBszjOKZw+eff66lnnaIQZ9+sCFj1GhlDvy9+b2Y817JkiUN45kDN+SFh4drqdsmPQ36DRs2WKVtDjVr1tRi2Ycbs4yu58ANnXrjzx6HDx82TMccuCw3aNDgwTvm8msUj0Pu3LmV9u3bWx3/8MMPtbtZk9YGPcOGnD1ZwMYY1wssO2zJ027dulkdSy+DnhkxYoTV/SwDN25x3cMGPj+7rQYADiyDy5Yta3XcXmOmPi4HRxk1apTh9Y4Gbvj19va2Os7GakqMGTPG6jrLwDoCl3t+b02bNlUCAgIM45nDu+++m6zBxxZpbdBz2dKnx6F06dJq/cZymcuXvgHdVYN+2bJlVtdx4O/QvHlz9XlKlSqlfP3119oVSYhBn4gY9IIziEEvJCMzGfTTpk0zjPv8889rMRyDe5uNetO4tZh7eu2xdu1aJW/evFbXuhL69Olj2NusJ60NeoZ7weyNGnA0sCHCPRC2cMWg5x6Crl27Wl3nSqhevXqKvS6WLFiwIMVGG0fD22+/nay3I60Qgz594TKekhLuSGBjmUdwOEJ6GvTc42VLZnEedQQ2OGz1dPbv31+L5TifffaZYVrOBC7bLMv/+usvq3NsONsiPQx65quvvrJK19HQvXt3ZePGjVbH09Ogj4iIUA0T/T2dDQMHDlR74tmw0J+bMmWKdjdr9HE5OAPrA7ZGxdgLzz77rHL37l3DhjseAZgSXBY++eQTq2tdCTzyyxFjnklrg37SpElW6RmFQ4cOaVck4qpBz+88V65cVtfqg1FdJgZ9ImLQC84gc+iFTAnPUzdyXMXemY2WiLIHz6XjOW962DGc0T0socoAhw8fTnFOqT147hrPr5wzZ446t/thwE66tmzZos7/08+pdwSeD8y/gb24G3mvTQ08n/D33393eW1qMzy/lZ1nGTlJtAU7J+QludgRmKvwXEGe58sOF/m3CFkLcxln/xiuwHPO2VkYr7lu5Hwso2G/Ie3bt9f2kpOSQzwzLCOe0C1fZ8YV3xn8flz17M7zf3mlkL1796qynJRrq3LG5d4ZR59pwXvvvaeucGA0V9geLKdYXnC+yUj8/f1Vnx/swd0VypQpozrzY4d0ZKhZLZHILF68WNtKe1588UXVpws7HHWkDmOHczyHnpeNZSePZEhrZ5LgspISfC/Ou2SMoUSJEtpR5+BlTfmb8yo3rtS/aQH7mnFkedfjx49rW6mD37k9nwtm0up+gpDTEYNeSAYbQ+y9OKODfomYL774Qq089fHYyRwbp87Chiwrufr02LFVSusI8zvhypzXkWXl31HYSy8bqezl/pVXXnG4Ijf6Bn5+ftpZ12HFmN8rL7HVt29fh5ac43c9ZMgQdS1rR34DV+L6Zy9SpIh21jas3LJBzIYVK2ysMDpKu3btVE/TvKyVK+tbV6lSRTXGuMHFGWW3Zs2a+Oijj9TlELlhIL0weqdFixbVzrpGuXLlrNIsW7asdjZ9Mcrfqf09qaV06dJYv369qvyzoztH4LIxcOBAnDp1SnVw5UwZ5TKhfweBgYHa2dTz7LPPWqXPoXnz5lqMlGHDXX991apVnZKBZlhucKMqy1pHn4Hz/auvvopjx45h1KhRD+RVsWLF1KXILJ+L8zM7TzWCG1Et43JwptHPHmycc/l/7bXXUmzMYaOO6y9+Tv4tnF/0z8W/OT3hZ+Sl/9iwNHL4ZgQ/F688cvTo0WTfnh2a8hKxls8fFBSUro7P+H7sNf7MmTOqwzk28uvVq6fKcG7s4UYodlC4atUqtVyyQzpznWXkxM6ZeobT5nfAKxqUL19eO2oflqnsHJffCdcRzhjzRjLakQYIW3CDDnvpt9VQZ0ZvYHPdrH8OR38/lwvOO/ZkI99PUQdwJMF5U39Pfn5XMErL3nc3khdcPzgLO/3Vp+NMfmP4N+vTsLfkqJCzceNuem1bEAQHuHTpkmoUs/HJxvr9+/fVComFLxuUTZo0URWftFIa0wteO53Xqea1fVlpZs//3PPFIwq40mBv8NwLkxolwlViY2PVHjle250rfPbIzMsi8egAfs+svLEix8GRBgNnYGWR783fl5VCvi8rYnxfNrrYIOHv+7CNUCH94OXouIzzygfcmMX5jxVbHqnCXs5ZKebeLhmR4Ro3btxQjS4eNXTv3j1VhrKc4YZdbiirUaMGGjdu/NBGNLkCr81uXvf/4sWL6m/y8fFRG0G4kYhlqatGSXrAddahQ4fUZd24HmP5Hx0drb5zNtj4O/DIJZa1zhiimRH+Nvp6jA29K1euaHvOwb39e/bsUetOfoecDtdZ/O64oY+/NcuIjGokdQb+7jt27FDLHo9O4/LH74ZlG6+SwQ3krMOkJebyzjKVlx/mxhUuC9w499hjj6mjBzJ6xIogZDfEoBcEQRAEQRCyJdxAp1/OkRtZuMFYEAQhOyBD7gVBEARBEIRMA88553XmQ0JCtCOuwyPQ9Dg6bFwQBCErIAa9IAiCIAiCkGlgfy88bJ2dDvLw+I4dOyI8PFw76xwrVqzQtpIQg14QhOyEGPSCIAiCIAhCpoG96pvhFQzYoRs79HMWnuM+c+ZMbS+Jhg0baluCIAhZHzHoBUEQBEEQhEwDO+PTM3r0aMPl52zBjgkHDBigOsWzhJ3VObqahSAIQlZADHpBEARBEAQh08BLL+rhVSf4OK/QkhI8b56XIeVr9Hz88cfqiimCIAjZBfFyLwiCIAiCIGQqeA49O8bTw0urtmnTBq1bt1aXkeT1vXkptDt37qhLB/I1/FffM89wz/w///wjy6QJgpCtEINeEARBEARByFTwmuW8Fn5wcLB2JHXwvHk25rlBQBAEITshY44EQRAEQRCETEWpUqWwZs0a1ct9amncuLHqWE+MeUEQsiNi0AuCIAiCIAiZDu6hZ0/1Q4cOhZeXl3bUcYoWLYqffvoJW7ZsQb58+bSjgiAI2QsZci8IgiAIgiBkaoKCgjB//nxs3LgRW7duVb3YG1GpUiU0adIEzZs3R69eveDn56edEQRByJ6IQS8IgiAIgiBkGeLi4nD69GlEREQgMjISHh4e8PX1VdevL1y4sBZLEAQhZyAGvSAIgiAIgiAIgiBkQWQOvSAIgiAIgiAIgiBkQcSgFwRBEARBEARBEIQsiBj0giAIgiAIgiAIgpAFEYNeEARBEARBEARBELIgYtALgiAIgiAIgiAIQhZEDHpBEARBEARBEARByIKIQS8IgiAIgiAIgiAIWRAx6AVBEARBEARBEAQhCyIGvSAIgiAIgiAIgiBkQcSgFwRBEARBEARBEIQsiBj0giAIgiAIgiAIgpAFEYNeEARBEARBEARBELIgYtALgiAIgiAIgiAIQhZEDHpBEARBEARBEARByIKIQS8IgiAIgiAIgiAIWRAx6AVBEARBEARBEAQhCyIGvSAIgiAIgiAIgiBkQcSgFwRBEARBEARBEIQsiBj0giAIgiAIgiAIgpAFEYNeEARBEARBEARBELIgYtALgiAIgiAIgiAIQhZEDHpBEARBEARBEARByIKIQS8IgiAIgiAIgiAIWRAx6AVBEARBEARBEAQhCyIGvSAIgiAIgiAIgiBkQcSgFwRBEARBEARBEIQsiBj0giAIgiAIgiAIgpAFEYNeEARBEARBEARBELIgYtALgiAIgiAIgiAIQhZEDHpBEARBEARBEARByIKIQS8IgiAIgiAIgiAIWRAx6AVBEARBEARBEAQhCyIGvSAIgiAIgiAIgiBkQcSgFwRBEARBEARBEIQsiBj0giAIgiAIgiAIgpAFEYNeEARBEARBEARBELIgYtALgiAIgiAIgiAIQhZEDHpBEARBEARBEARByIKIQS8IgiAIgiAIgiAIWRAx6AVBEARBEARBEAQhCyIGvSAIgiAIgiAIgiBkQcSgFwRBEARBEARBEIQsiBj0giAIgiAIgiAIgpAFEYNeEARBEARBEARBELIgYtALgiAIgiAIgiAIQhZEDHpBEARBEARBEARByIKIQS8IgiAIgiAIgiAIWRAx6AVBEARBEARBEAQhCyIGvSAIgiAIgiAIgiBkQcSgFwRBEARBEARBEIQsiBj0giAIgiAIgiAIgpAFEYNeEARBEARBEARBELIgYtALgiAIgiAIgiAIQhbETSG0bUEQUkHMHaDaLuCsts94+AH/NgVaemgHBEHIcYhsEAQhwyHt/te9wJAQbd8GbhQ86D8/T6CAN/BoANCxGPBiISA3nxQEIdMjPfSCkEZsCALOa9tmEqKAqcHajiAIORKRDYIgZFa4Vy+e/guPAy7eB9ZeB97aDzxGYU98YhxBEDI3YtALQhqgxAIzbgImbd+S5VeA6zIORhByJCIbBEHIily+DXQ5AlwRGSUImR4x6AUhDbhGCvsqGy3ZESHAvEhtRxCEHIXIBkEQsio3SH6NlZFEgpDpEYNeEFKLAswPAsx6uZsb0KMwYJ4ay14qZlwF4rR9QRByCCIbBEHIRHjnB4LakexpnxhMtB3fFoh6ErjeFJheCgjU4ppZdgOI1rYFQciciEEvCKkk/h4wi4J5VJpXXmBcWaCChTOZU9eAzQnajiAIOQKRDYIgZGa4kdGDLAFfT6BobmBgFWAkWfQWIgr3ooBQsxATBCFTIga9IKSSbVeBkxaVXd0iQCVS3Lvl0g4QCdHAb7eSFHtBELI/IhsEQchSkCX/mH9yg97dA8hleUAQhEyHGPSCkBrigRk3SCnXdrm1uxsPqaWS9Qwp757acWZlEHBVtHZByBmIbBAEIathAnbfS+7Es1o+II+2LQhC5kQMekFIBbduAstitR3CKwDoqvW+1SSl/VGLVu3IUGDOfW1HEIRsjcgGQRCyAuzLIyYeuBQGfHUY+CJcO0G4ewFvFk/y+yEIQuZEDHpBcBWqBBdfBe5pu0xtUtTLaYq6Zx6gu3/iNsOV5swgwELHFwQhOyKyQRCETEhsKFByLeC2Jim4077vv0CZncD7N4AoLa4bWQgDqwHP+2oHBEHItIhBLwguknCflPA7qu6uwkNqu5PS/qAl22Bo7dnrwL82lrASBCF7ILJBEISsjDsJpw/qAr+SnBJDQRAyP1JOBcFF9lwFDpk1dsJySK2Zx4oC1SyG1ppigKniAEsQsjUiGwRByMqY4oGvDgC9zwM3LCfUC4KQKRGDXhBcIQGYeU31e/WAWkWA8hYKOuORG+hBwZI1QcAl0doFIXsiskEQhGxAAgmx308DzY8B10UuCUKmxk0htG1BEBzkzg2g4kEgRNt3Bh5++2ljYLS4jRWEbIfIBkEQMgWk3f+6FxhiIYy88wPn6wMlLEcHUbzYBCAsFjh9D/j5LLAwIvlooQF1gOmFSUZp+4IgZC6kh94hEhCybybe6TUGm9LDa5HpDg7M+RjPtaiC4vlywdc/P0pWfwL9x/6BExHS3pLpoE/yVxAQqu06CzehzaLro7V9IbORzuU9GbHY/VFVeJEl5+bmiTJvbdGOC1kSkQ3Zj4QQ7Jv5DnqN2ZQuTgtNoYeweMJgPNWgIorm9YOPbx4ULFUDrZ//CNN33kCcFk8Q0gt3stJ9PYEiuYBmRYG59YDOlg4+iD91Tj6FrE9CyD7MfKcXxqSLohONyxt/wYd9W6N6qULI4+uLPAXLoHa7FzHuj2MIE9MmzRGDPgVirqzHpP718WjDFzF5YxBitONpRtx5zO9XH4/3/xwLt5zE9btRiIm8g6tHN2D2Jz1Rr9Fr+PuaeSVjITNgigRmhCRvvXaWi9eBteIAK9OR7uVdR/y5qRj5y6lkw7OFrIvIhuxEDK6sn4T+9R9FwxcnY2NQWksDBWE7v0CH6vXRe+RUrNpzFjfvRSM2JgIhV45g44IvMKhZLbQbvw13RPkVMhB3H6C5bjpQNMm2y5IPswcxV7B+Un/Uf7QhXpy8EWkv2m5h3fBmqPHkK/jfvI04eiUYETExiAi5hIPrZmB0z/po0G8ezkprZZoiBr1dYrBuRA+8N/sAQhLSQ5LF4eikvnh5/jnEGiavIPLoFPQfOBUXxClJpuHINWBXKrODKRaYeiN1ir+Q1qR3eU+OErwRH/d6H//elcKdXRDZkI2IWYcRPd7D7AMhSA9xoAQvx5s9R2LdtTib31pJuImNn/TEK4tvSH4QMgwlHjhIBnwy3AAvbVPI2sSsG4Ee783GgZCEdJArCm798Rb6TdqLMFuqjRKF0/MG4dlxe2Q0WhoiBv3DJGwVvpy0C/fVEuUGn8ovYt7REITf2o8pz5aCpzpZyYQ76/+Hb7ZKts8UkIDSO7zyLwhcbUcyqr3tYGoNdNMNYfs3CDgnWloOREHYgV/Rr0VnTNx3XxT17ILIBsFhEnB25v+w6Ko2+s7NF5VfmIpdVyMQc/869s0ejOq5tNnKphv464tfcVQG6gnpCE/3iYoDToYC7+0HFuhGYRcMAMrIBHohJUznMXfyEtxSjXk3eJXtjknrz+JO1H1c3/0LepX1TPTDoETj8M/fYW0E7whpgRj0D5Hw9YuxMlhrwnILROdPv8Jzj+VH7kK1Meibj9HKT5OeCZexZPGOdB/+K6RMeDCwMErb0XiyGFAshYrOzRsYWDh5gYsOA2bJpLQcRdzN3Zj9YSfUaTIUc4+LMZ+dENkgOAwZ6f+u2f9gZJ5H8Rfw7c8voUFxf3jnKoo6L0zGN/1LwkM9qyDuxBZsuynSQkg9sWSwl1xLcmdN8uBOx3KtB6rsBibd4SanJNhZ5/MlAF9tXxBsEncXflU6oW2TmihfrCSe/WIq3m5dHoG+uVC0/iCMHVoX5vZrU9gpnAiSlsq0Qgx6G8SuHYzCHr7oMifsgdJtuj0V7X3YeZUvnpoZCiV2A14t4UH7fMzB4NMKP1xhIz4Oh7buTBqS4l0HrZvle+BB1L3Yk2hX0zzAKQE3d27HGcn3DxfKCH9fBW5qu4w7faI+Dnp+bUMVYiltW4XSmxME6GwA4SHgUHlHLDa8WgIeRuXaZvBBqx+uaCnGYuOoLhj4v1U4H5V4F/c8eZGHPRIJWRuRDdmIWKwdXBgevl0w54HnJhNuT20PHy7Tvk9hZihJgw2vooSHvrzbDz6tfkhMTomAX7nWaN6gOiqWLIh8jVuhkX/iqUR8UL5Sac2gJ0xhuGtz/KogpC9ligMfBmo7QtYldi0GF/aAb5c5SU7pTLcxtb2PKp98n5qJUCWVeo5PXbzy2x9Ys+0gzl67jHk9k+watmXuhNx9oGO5eRZAofxihqYV8iYfFkoYTp289qAV1D1PaZQtaKH6uRdH2dLeDwpC/LkTOJMejigFhzFFAzNuq7r2AwoVAto7OLHMNx/wfDKlDbhyA1gpjkFyJO75GuHjP74C1aVCFkdkg+AUHo9iwK+rsGnXYZy+chu3Fz+HAO1UIrE4f+bSA/3AzZ0U3wKirgkZT+ViJIeqApbqqSA4h4LYuxewbeprGPLTaW1amjsKdxmIzoUkY6UVUkM8LEw3cO1GUou7W2B+BCbL1x7IG5jngUGvRF/HtRBpoX+YnL4ObNF9gq7FAYeXjKbS9kIJwFvbZUyksLMDLCEn4Y48j/XDb1v+wbgW+R3qwRUyNyIbhLTEdO13fL/46gOD3rNKEzxeQCSFkPZwrmJDwJs2/D3IcCchVIEEVxeSR781AA7UBKo8GCoiCM5iwsVvWyBPvnJoNngqDvFS3G7uyN/oQ8z/4VkUFrGWZohBbwPvdr/hVkI0lr+Q94HC7V5oENbEKFCUaKwckEpF3HQPYeEWBr2fH3yTJegGH1/fpHso4RTfsv9HyGgqlwNidA6tfimonXQQozTWPKKdFB4a6V7eNbyL1McL/1uJw3tn4cVqui5ZIcsisiE74Y12v91CQvRyvJD3gTRAoUFrEKOQPIheiQH500Ia2OD+QUx64W0sf+Bfxx9NX+qDqmJUCc5C2fTl+sllij6YKCRQiGkHRLQBbrcGzjQBllUHBuWXefPZCu92+O1WAqKXv4Ak0VYIg9bEkJ6jIHrlAKS9aEtA0KWgB42TnCm9S3fFp5PfQQsZ9pGmiEGfGrxb46erCWpBcDjEbMTrj/Brj0echTtkN3dPeOjytruHxedRKL4MvxSEh4g3Wv90FQlG5dpmiMHG181WmTdajvsbM99vjzKiJQlClsa79U+4mmBU5m2HmI2va1fbIPIofurdER9uDOVFEwg3+FR7A5+9WE6UNUEQMoDU6jl6YnD1yk1NnjEKYi/+hbcaVUGrTzYjVPop0wypIx4anvC0WKpIMSXApMvYpgQLL3hunvBycD6mIAiCIAhZiIgD+LZHG7y58vqDde/d8jTEiOmj8HiuxH1BEISshTdafXUMtyMjEXpmHb7sXBpebmTzJNzG1vG9MHTRjWS+ZwTXEYM+NaTGy717bgTktuiSj4lG8pXmFURHRSdldLc8yJtHhqcIwsMjtV7uBUHILqTKy70O5d5ufNGlLd5dcyPJmPeriiHz/sKIemLNC4KQUaS1nuONwmXLoICfH/JVaIPh86dgYElt/pDpFpb9MB/nk7rvhVQgBv3Dwr0wihVOmhRnCruTtISdSjzuhIY/MOjdfIuhuHi5FQRBEITsQ8Q+TOz2FEZsDH4wLNUt12N4ecFa/NC5mChpgiBkH3I3Qav65hW8FMQdPYBjMp04TZC64mHhlh8VKhZ88AFMdy/h0l2LgScJQbhwOfaBQe9ZvioqWrpAFgRBEAQh6xJ3FtP6dsZHlsZ87lp4849/8dPTJZPWoRcEQcgCxB+dhTf7dsWTjaqjXPG6GLnHwlmYSjxi45Sk0cc8B1/bFFKHGPQp4OZm8YpMCRaeGlOLF2o1qodc5lH0sbuxdn3og4yt3NqCjUfNBcEDRRs3QcVsULvHnPgdG3o3xuRC/hjnF4iJVVthyYSlCL6vRbAiArd/H4XfG1fAl/4+GB9YHD+0GoAtS0/D3rL8c/bRG94K7NEP5aH9Mdvpu64FPgrTjjkKfY7fzwCNNwP+dH3gRqDVYWCpzWfXoI+6jOL50vPssJWB6LnepXTd1tBzbwMO6Z/bAoV++HMbgDr0LJHaMSFtSL/ynkOIOIFjo3pjaoVCmODjh8+LV8XMARNw4rSdQuLCNWFXAT8bZfjwWSpDVI4qn1KLrFNERACjDgIV1gM+64DiVGYHnANOp5DQ7ZtAaXqe9+9oBwzYfhLwpOdi2fPpPe2gDW7fAIrR/Ufd1Q4IDwE3Xl3pAcl82qQJEdj5aU+8udxizrx/Tbz551pM6lBUlLOMwAXZ47wOk37y6gTJid7/AYVIVvj9C1TdDUwgWZSSSmIlr0jf6PNPov6hDx4UL4D0jXp7gc+N0qa8+zvJTH/Sq3ZLhZk1cHOzkC8mpKVoc8MVbFu8DOv/O4oL1w9j6V8HEKOdY5SQf7FmV5L27lmxCipa+BMTXEfqDLu4wdvHPDSEMmL4SRw8HYHIWydw8hplyFR5uXdDvrY98GSAlroShr8/fQ/zj4XifvBBTH/3M/wbqdXyHqXQ7dlG8Ency7LE7BqHuY17Y8uinbgTHImE6DCqTzfh0MgemNpuAoJImU5OBILGtcO03uNxbOc5REbGIj7sOoI3zcKGHg0xZ8Lu5IKCPsk/VEHx6n68lqoHBV7j8gYpz5tTquFSgmracVSh9SblfmcUGdJ0jzC6+aZrQI+dVInaUbyDbwGvXwe6VwQa2WiUiQqlSpHSZeLpPcywk54b/a6x5cjIuAB8Jgp/GpJCeU9z76/ZjIhd2NyuMf4YvwhB54IRFxuNmOsncHHWSCxu2A5bdlsVcOeuoTK3Pxg4T2XRl8oAL/pXlP7GUDlcQ+XHUha4QgSVpXakHI8nJflcHBBLSu51khuzzgANqezvtqFts9x57zjdvygpyIHaQT2kMM2ldFW9iX7HHFLwk/tMSU6hIsAHeYGJx0RJfmiQoPXhxblVFISfPIjTEZG4deIkEqv/1Hm5j9nzBYZMPKjWJSruBdD+6z8xsW1hUcwyAhfklVM6TDrLq11ngcZkSC8iucUrHEbTfU5QuiMPkBwjPcVA2qo4JK8sYGfN4XTNPvotH1PaT5A8DNfOqVARYd2mbiTwMt1XU2OETIybtw+SRFs4Th48jYjIWzhx8hpiU6nneFTphh41zHpUPI5/2xcDftqKS2FRCDu7BhOefxOLb2s9Vm6+qNvrGTwqQ5HSBKk37OKBYiWLPhj2psTuxIjqeeBfpCYGzr+c6t47t8LP4qPXa8BHzfkKYk/PRN9qBZC7UG0MWnAB8WpF7458T3yAt5tl8XWuonZg88BxuBLmgbxPf4kXzoRixP1beOWvkShbxA3RO8ZixcQDyVqo43aMwdJxOxHtURqPfrkOb4RG4uNbR9BrZGv4u4Xhytgh2HGADa1ELpJx3XkXUHwL8A0Z8SRj8Mp2oNQOoBdVNKlhB1We46ji9KDP8GU9ILQNcKsJVZ756TvSQ48lxfuAUa86nRt/iircAGBUYbXuM+RfenbS8dE4H8CLGSwK0lWaOiqWBAb6AN+epErc6L6CC6Rvec/eROHymIHYvDMMbqWfRpt1Z/BB5H0MP/IXmrcm6zSMyv+QibieVFwJ564xkab49j7K+xuBthcTjy2hcldiE/AUKbb/WAoPZ6GPO+YIsJPSKE3ldF0zIJLK+JHaQGtSwsOo7A+5wO6CrNlCsmV+HDCsPGBrWd3wEOAvsuADSYGuSXEuXk/heSnO4Aoky0grf+ey8z13QhrgUQwliz6QBojdOQLV8/ijSM2BmH85ldJAuY0/Pv8RR2PN1jxhCsHqoRXgZeVwioJ3HYw/KhIo7XBBXjmpw6SnvIq6Q/U/yZ0wkhNPVwLOPAHcb00yhmQQPb2qr0y0MQrIrryi/Y8aUfa0WKc+ri1wszmwuFxi2rvPkw6kG2ng4U/yswRw7BLwo62WBCHT4FGsJJJEWyx2jqiOPP5FUHPgfKRWtMGjKl77fBAqsCt7Qok+jYWvNUeZwFwIrNgBo9aZRyS5IVetdzDp1Ucf6FxC6hCD3i4eqNypC6o8aMoyY8K1K9d4lFIq8UWD0X9i6vPl4au/hQpl+McGY+aMQSibpb+Ugshl32D/qTi4V3gN3ecPR/kK+eCVqxCKdBuHXvOGIp97LG7+PBnnzJWBEoKT30xDSJwH8r82Bz2Gt0GBfH7wLlQNVcYtQY+h5eAWexh7J6990NJdiozcrXWAT6jW4XRiI4HbecigrgasokrPVbhF+xsysOPoG71WAxheEMhHEqgQpT2O7jfUj+5F1vfkYO0CC87Rdb/Rc3QpA1S28Q05/Tm36C+dp6yAx+g+N2l/mZH1YMYTeKsUKfpkaEzga7XDQmpI7/KefVFCluG/aadg8qiABnPmo0mbCvDzywX/at3Qesk81CvnjoTDP+O/tUnanrPXuFM5m/M4MI0MXX8qU7x+7REqI4MqAsvrAk+kQisIoTI07T7lgFx0j5pAG1JQ/Si9aiRLltA+6bI4fAVYq1PCTfQcn9DxvIXJAOcuOCPoOVddA1g81CsGdMtN19FzT0+h3PrnJ3mTF9h5gX6fPVkgpA8eldGpS5Wkniwzpmu4ci110kC5vQLz14aJ3H5IOC+vnNdh0k1eUTrLLgKn6G8F0gHmk3Cq4AXk8ibZQmnPo2PudO5nipMkbRNxSF7p8CS9pDDJxWcp7S8K0QFK+/cb1o2MLUoDDalYTDyX+FuFzItH5U7oUiVpNKIZ07UrSKVoI9wQ2OZrLJvyHCo9mFOsxx35GryNxcvHopGD+VBIGTHoU8CrzggsWTwKPR8vh/x+3vANKIyyddqiY90kh3apwrs8+s7Zh13zRqFPy6ooHkhGq18gildthb6fLMSenT+jS/FM2H6VEIJrcz/Bkra18U1Bf4z19ML4wBL4oWUfbFhwBNHJBPp9XFqxAdEmLxTpNwiP6Fbh8W35CmrV8IISvAYnt2kDtu5vxekNd6F41UDNQY1BdZUFASjzygAU8TIhcs0yXNYu8SAjtz5VODVIIF2n7dpUoV4ga78DKdF1jAY40DMeuQq03wbkWUeV1hbgudPAIZ3Hzft3gA1Ue3mRAT8on3bQDN3nlRKJveprbnK7vwUJwHeXgGgfYAA9ly3RdosU+zWcfgA9CynxrPArtD/9OglYLY4R5eh3taSs8SdV3GekAk0T0r28ZyFMIftw6JP+mF27DP7n740xXn74vERVzOgzCkeO3EtmjMRuXYELd01wr9EPdRrrCnhAS9QfUAPupmCcXbYN5uLl9DVUgEqTgduZyuFFKtc16G8EFbiiVLaeouN+BgUsPBx4ey/F+YfK+Hqg6UFSeHn0jnbezFYqg3fpb43iQGOduA2gMjmA7sVG+DLdHPmtVL63USHtSjIgv40Czg12c2/TXzrfnp61e5FEebE2CLhsr9xS/N6Urh9dP5HklPTPZjReqDNiCRaP6onHy+WHn7cvAgqXRZ22HVG3YOqkQdyBHdibvJIUUkUCIvfNxcb+bfFLmYKY4O2JsaRHfV21Jf4ctQA37yV/187LKxd0mPSSVyQIVoSSPKLr+5UkQ147bKblI3QvOhccTLJJJzQckVc2ofg1SUdh8XiLfo9eHrnTg/QvQOdID5oeqR0UMidedTBiyWKM6vk4yuUnm8M3AIXL1kHbjnWRStGm4YsqA+di776/8PngDqhDZdLf2wt+gcVRpdmzePfnjTiyZRKeMi9fJ6QJYtCniA/KPT0Gi3aeQ0hkDKLCbuL8vlX4uV/VtBsm4pYXNZ4bi7kbj+HqnUjERN7B1WMbMOfTnqiaGdeeT7iAQ8/XxbR+Y3Hon4MIC4mEKSEe8WHXELx5Prb0aYp5Xx1OasGNP4cbh6lWci+EEo0qWmc6j4ooWb8A3EyhuL73nGrEJpw7oFbCboUa4hEDb4DuFRuiRAF3KKH7ce1cUtVy6RpVKpeBqqWBlY8C3lTx9Txl0GJM+0fIEG5xhBTrCKpo6aa3qRJaeJ4U+l3AOosesXP06Dx6rRBVwhUNPkfFQIDqMYRSpHMW97lHFepCqsALFaRK1pbTD4r/Jz0zt6TXKQyUoZfTiwx1bsDYRkr8Cf1zW+DuQ8YB3TsmDJjJDyikARlQ3i3x6YFFkSZtHlo8Lk5urp14uJguzMGfdRtjydjZOH/wEqIi46DERyPm2glcmj8efzbtiO2HzYUkHncOHEaM4g7/ho2Q3+pFeSB/w/rI5W5C1P69CFWLqyvXkFyg8jToMHA+NzCrLvAslZcPePiqRXk1E02FqguVZR45c5OujyDNfPsN4IX/SGmmYw+KFpX9A6RI837DfIkKazKozDekss9yaz+VtQfShgTctOt0HRXWHmT02+IKKbjr6SJusOvsR7KpKJV1SjP6Dhn6+i40HcVI+W9CN95Dxr/hlB4hffEph6fHLMLOcyGIjIlC2M3z2LfqZ/Srmjpp4N3uN8qT+nmodkLsfoysli4SKBuQgDtznseUxv2wefY/uHEpBHFxCTBFhyH8xGYcGd8H0zt+hRsPZIQLsscFHYZJD3kVT3rKYZI97iR3jHo3efh7fS8Sa3T9XkvD2kF5ZRN6gBP0jPw6KtHvsVJpSKZ1KkJFhn78dNJdHuh/QqbEp9zTGLNoJ86R/h4TFYab5/dh1c/9kErRZoEb8lTuig9/XYV9F24jIiYWkXeu4viWxZg4tDlKZHWnYJkQK7kkCPZRcH/xcKz54zJMxdqj1fJDeOdeDEbHR+GDy/vRe2x75HG/h6BJk3HBXJmYghB2laoBj1LIV8pIWnggoHQJKv4JCL+cOLRZCbqMcLrErVRZ5DW8pCTylqATCVcRdo2rmETy5QGeJAP6qzKkDFPl8lnxxF5vfwNDfCVVlgUoDs+XjWpDlaQ2XzaKKq0hZxKNeCYoOrESK0XKuOGj+AIlKP2EGOCahQG+mRR5qofRlJ6HLjUkgd7RXO71o5LYnwx5Tr8i/W1O+3FkZMzkbkNb0D1bFqCKle65jO4lFaiQJii3cWz4MBy/nIA87cfhuUNX8VFMPEZH3cGw/UvRqn1xuN3biZ2T12tzyk24d/kq/e+BvGVLGVYq7iVLIw9lbuVqYrl27Ro6Ropqe8rzbz4K1KRy91lF4AkqX+UNGswu3SZDmMrz15rPi5uazwvS0/HjseRzWC9T2eXyVNaGq5KSWtm/qskC5n4osIZeQO58tp1dshK8+Bop67TZvARQge7BCnd/Vqjp3CxSfA10+we4kdLzBMk0VuKXkjwQBCE5yu3FWDfsD4QlFEOFccsx9Oo9jIyPx4g7lzFk6VhUKO6OmJ2TsGv9A4XEednjgg7DpIe8MpEwuUqyg/WOUgZ6Dcux0izHKI4q1zQcklcGKHT/UHp1i0knepf0DHbK+xbpVUZJFKbn5dEBZyjeYfNLEAQhQzCSZYJgGyUEZxasQRQC8eiXs9G8cw0E5PGGO9Uufo/URuUPR+Kx0h5QQo/jFleATGwYotmVr3sAfAOMspwbvAPy0P8KYsISh/ImhN1FHG24BQTCx/CS3PDh0QtKOGLuJdUcAQHAHKoQW3GFSacH1AC+Kcr9rtbwUNqV2nxZX6qdqpNxv6wWUImu457+JVplGBan1o0IoMrZ8FHoWtK51WHyD0b20SNtJEOdh8U1pGeyxfHrwF66Ji9V8s9oxoQ7/R3IQ/Tp+AJS+O056C+bN9FRzVm6V5D53oKQCpSQ1TjCbpgDu6DN7BF4tEZx+Hh7UL4MRN7aT6PpyF4I9DAh6vhRzdCORfRdVpbd4RMYwMXOmtwBqvNPJTwMMWpxdeUaKhNUrodQmf2Sh8QQ7DdjVRWgnEHB5HL5ZV3gHSpb7POiMBVS9nnxBpV37jn7gZROtchQ2nc1URVooGgzuek4P2M4lXGztDkYQoou/a1CZZDLvxEJEcA8diBF1w8gOaQ+JiX0LBn3dBnOUfnn6Tw2obj1eXQAPegWlifaYUEQGAWRqxfgLBVE3y5fotuIzihaPA88PTzgFfgIij39IZr3Kq32nN8+ykY844LscUGHUY+mg7yKJXmhPj2lbUu1CNDkWJiFbHFEXvENPt9Jz2KxbJ37OqDAFqDXeUrPD5hIz9Rb01X0eND5+mTwcwPkFm7FFAQhwzCSTIJgG7eCqLU8Ap8mhKJ3n0JQ7t9EyP7NOLXgF2z94CXMb9wb+y5yDRiFOLNAj4tTlz7hpl2PRJf+OtzoONUCXJvEx6uVliku8S8vr+FheIk3PNlbkaLAFK9p407SrQwZ77oSwK3XPF9WoSTXcs85wQ0LjDfFNXwUOq49vbYyAW3HAofp93Ml/aiNyo+1i/mk0PMcvS6k4D/wOEt/O9M+G+rXqRJfYacLj3v7eBoA9+Yf1e4tCKnBrWA/PB9hwiehf6FGIRNib57Ftc0rcOSXL/DPS10wrfcU3FWLeJQ2KoTKt5rxuRz7GJcRczlW4mFSi6sr1zgHL/32IpWPZJCiO5TKlhdtbglOVIxVsZP4KMaNh4S57JO4Seyhp79HqMzxdkW6BxVzQ/ZdSyyXhQtTGWchoVGQ9rvSvikGmM7z67XjRnD6rJ8fvZcoKwRBMOMG/37LMYIExId/9YG/6T4izu7HxRULsOeLD7CsS2P8MeWiWr7ioh4oJM7LHhd0GGdxVF6xPqI+Cskkw0chzMfN+ghf4Ii8Sgl+F3tDgZu2fiDdtwr/Bjp/MIXpRIIgpC021BdBsEc8wrdMxvKW5fBFYDF8X7clFjz/CtZ/OR2n9wYhjms+xUT/NKnv5QV3tXKMQ4LlMj0PUJAQw1arG9w4Lm25e3mqFa0SF6stcaGDLOZ4TotqNY7rNJR4PTLcraDjNek4P8M5Vdunx+cHIeLIiDF8FDqe+PQUVytRPPw+iP56+ABFtev1xNwFFrFnbT9gYEHtoEaeAkAvOs7z4KbdUG1/Q3hIX1G6JzdAXLZj+AuCU8TfwMXJgzGjXD58Uawifm3ZGX++8hG2T/8b14IiVcOWtTv1L6mb7p6cyakcx8Yal5HYmMRyTBmWnVe6do1zVM1r7TCKKUvlm3vHI6l889BVLrjao6hrzxvBx9VH4bh8gHbY0RVfa3MuIF0zT/MGzT3yycQNJTJQm2KzigSF+hw2KOibOMLoPtkjwXbiCUJOJeHGFvw3uCW+zReIiRXrYmbn57Hyoy9x4O+9uBfJhVqhOpJ0EjW2C7LHBR3GWRyVV6yPqI9C24aPQsRox826C//IFOUVQ+f1y9aZ2gJ3WwJbagBP0A9bcJr+nqRjRvem64tT+nzbK9JDLwgZiityR8jRKLi/8nXMaDsM+zdfQGyCN3zL1ESpTn3R4NMf0XPzQtQvr2v/9Q6Eby62OsMRE25UCyiIvRdO/7vBJ5CrLlJ0AwMTjePwe8aVlhKRmJZbAHzzmmstJ6BLzMPS9JiH15qH+QZqQ+15uK3ho5AxzdNbeXhd4tNTJUhx1cejV5HbxuNtvAZcor88nK7VPxTXYpibG+1PpuPM5qt2vNjz79Be973E7lJBSB1KME6/3hxzhk3FpQsRMHnnQ2DNZqjU9w20/PEPDFj4qjokNAmSAYG5KCuay7EBEfdUJVOdQqOWB1eucY48VB6NKjguk2onEpVv1dE4RQo0lyHuwjIgQiv7PO3G/Cjm8mZLjtwPAf7QyvAPe+g6y/JNoQUVfr5dZCgZ/nbm1bibn5dlSuIhQRA0lOCVWNW8LdZM3Yy7EQnwyFcGRZp1Qo03PkXHPzbjmVfLPyizibgge1zQYZzFUXnlTTKIDX978sAsmyynEKUkr2zBIwHy+gLNigN/1gaq0/s4cRn4xYbMspyeJAhCxmEkPwTBNnF7sfO9aQiN9UBg98kYeDkUH1w4iBf/noOOn7yKqo8X0rRkC9xLIm9JymoJQbgbZKQxJ+DepatUGXogT6kSaqZ0K1kaPFXNFHTRWMmmtBKd1JRIdI7nLPSI920o71zx8S/gCpYpSZUZP1MQKeeGjxKd5KSGneOZMW/q3kYiccDcm2onXorE3gNm2fFib07D4taC4DIJe7/GumlnkeBRBlUmb8aw0BC8fXALnp/zHVq+2gMlqYg/GMqp4o6A0iUp/1E5vhhkmN9NQZcSnVyWKKU1QLlyjXNw+TZMl8o3jwZlQ9m8iEhp7rWiyBdt9CqZy34JKuPmRzGXN/NAJD3rrgE3tG17cE/bLIprbzi9egu6oZRxQbAkDte+fg8HzsbCvUx3tN98GR+EXMArW/5G9+8+QYMej5Pxqy/ULsgeF3QYZ3FUXrGPnZL0l/UOQ785dOwS/2SKU4rimjHLDlvyyhF88wCdciXKrC02HPYmjtoSWSUIGY0rckfIwZgubcbF81TDeLdAk+/fQOmS3NKdhBJyFiEhLNEVtUVZxbMCitUIoBroOq7tvmhtxCacRtCeECjugShSq4yaKT0q1EaRADco1/fg6kXrCtR0eheuhpjgFlgDRcu4oO3TIx43amGm4/vIeOZn5LlmTAV6dHY+cz2MFH6tsrLkNFVsIfQ3kCq7MtrLYIc1qs8+rowNrgm+DawgDZ4bATa2oXgWQ9wehLbA6NwUma6fF6Rb494MnUt0TAbkdbLlXRCsMeHu5s24Qxa7R4sP0OGNZsibK1kJR9TZM4jiPE2aW2LW9kT+2jXg45aA8D27HziYSyIBIbv2INLkDt8atbTecFeucY4zpAUbGcmnqXxz+1gAle9i/NNI4NSmssube6gsWz0K/chdVPZZJrAYMz+KubyZy58l7ENjDpVxvub1+rRvVL4pHCifOIT/NBn0WwzSYRJIhrCoYoXelhMsQciRmC7h4ubzZKR6o/QH36Nhs5Jg1zoPUEIQeoZ0C3X7gULivOxxQYdxFkfllScZ1DVIaPC0vt0GSkECCYs9lBDrILX8tIOEPXnlDObLbU1PMo9mMneICIKQMYhBLzhHgnneLGFZcapE4fqU33BZncAVh4QHtZMfSnVoCV+3eFybMQVBOkM6evMvOHQ4Dm7526BSE60G8muKCi3zAvH7cGDKf7qlne7h4i+zcDPOHX5tOqnLybnCX2Qk6527hAYDM8KpYHgB7QMTj/nlS1xHPp5q1Sn6VmmqvH7RetfaFEpano4N9dL0V7+UnQrtL6FruJIuWxRobMtYodLZt0Ti/NmgG8Aqg9reRC/mGlWsXHmXsXC6JQiuwXNNqYxre9ZFfD/2/rY1sYee/VskHoVX0w4ok9cNpn0zsPc/XQG/txl7Zx2GyT0/yndqojp4Yly5xhmu3gSW8bxRC9jQ/u5qYnltXTCxbDFNqezyQNl9dO4/KtOW3AsFZmkyoZMmE/jFlOPCTu/hiu4eDDuzXEfpeJDy/RzJD1tULw7Up7S4t22aDed4t+gcy78Aul8Bqw8iCDkYhWTVAyc71oUjbv8U7N+aWEATYpMqUOdljws6jJM4LK9IL+iQn34t/ewZVxIb+yzZTMcO07n8FL+JWbdIQV45SjTJwVWab6Eq3Nmgh9IPovT5i5Rx7TUIguAiYtALTuFeug6KFqJsE7sZ216djIsX7yE+Nhzhx//F3rfaYd74fYnKvuk+Yu/zBuOGXE+/jhrlPGA6ORm/PzMep0+GIi4qGLeWjcaiPr8g1OSNQoPfQkXz9DO3Aqj8+gvI5xGP4Mm9sHj8StwOjUZc8HGcHN0df/1yDop3VdR5qyMsRpU5xY3rQJcTwG5SmGNI+WaP1E8dBi7SuaqP0DnNiuB1V1/ndVfp50w+CIy/RYY/WTLBEcDo/WTQUwXnTZXbW2QUmHGja2tShcadAse0CtCMKQqYS0aCQpVsr2I8o8825XlNeqqU2TnedKrwzW/UTBzV5qfooFceoJoo+0Kq8UDeOrXhT0U8YfPnWDl5M+7ci0V8+A3c+ncKVrd7Clv28XhOyov3Ix6sAOFW4Gk0eKEc3ONPYlevZ7B55UlERkfh/vFl2NC9D/aeM8Gj6mA07Jg0v9SVa5yCFMshVD5n3wUiqBxeCwPe2UfliMofl9d3CtMzaFEL0PYLVF7jqTz1ojK+ksp2NJXx41Tmuh8CzlEclgkdzS0LdGF1KnPcCXWKlNxknV70Tn4nWcLF/tGiQAM7tSwb/LwmPT/HiiCSSfoCTpyiZ+E2hmr0GqTTSxAs8CiNYrULUfmJxaXPX8V/my8iOjYWMTeO49yUtzDnqfG4pk4BNCEuIsn0dV72uKDDOIuj8or+e7oUGej09+Ql4Jmz9JcM/ygKy84AfS7Tr6Vzg0snNlKq0L5NeeUAcSSADpIsfJ5kI6/a4UNpvWhu3LSEzh2l1+xG96tDcQRByDjcFELbTpGYq1sx98ffsGjtdhw6cxWhkQnw9C+AEhVqoFHbZzH4tX5oXtLc55Ec5d5RLPzfOPzw+yYcuXwPbvlKo2br5/D26PfQ/VF/LZaQ+SED+4f2mPbWekTph1y5+SLfs/9D7fhPsGFJNCpOu4LnBxZMrIRI0kdtHoE5nb/ANSunMu7wbToOL6z5GCUss4JyBxdHtMX8L/ZaO8Zzz4dS49ai78f17RrEVtAzj9kJfEpK8iukoM+myk/fwl2cDPO1tUiBtug5V8igHrEH+OKeWmclg3vHx9UHPtZV5KuPAJ2ukhFQHVheQq1TVU6eJ2P/NKVDFd7+xikY4nSz+VSJ9qXK1Jsq0GMNyci3iH+UKvM6FB6rAOylYKuzXxAcJv4UdrVvjDXrQ63yOnzL47H/vQjTJyNxIroDnr6yArW19RaVO5uxvm1nbNtLGqMOt3xN0WrtGjSvn1zWu3JNShym8lCXQjMq3/fIsN6n0149qYqaXA94Vadw3gkF2pICvddA281HZW8tXVPfwqKOug2UpfgRJC8u1kladpLXnm+0HSBxgbFUvkeloNgG0zNWPAyE0fUTm5Hizh6vzNAHGLcDGE1pjqG0RouSLAjJSDj1A+Y2fgsXQq0UEniWfxZPvhiPTSOXIL7DNAxbMRD+Wjl1Xva4oMM4gEvyim6/mYz3zqRLWD890LQisKZ8ojM9M7bklQq9uj7rSddwwNLnkUqf0/O8b9BwkUAPU5/k1dHc9DtIXrEDPUEQMgaPTwlt2w4Kbq0djjath2LKv4dw7vod3I9NgEkxIT7mPu5cP4/D2/7G7BlrEV77abSp4P/AeGGU0E348Mkn8e7iA7gSeh+xCfGIiQjB5SOb8Me8LfBo+azNhgAhs+GOXPW7okLZWIRfDsL90CggdxEUaNwNDb6cg26jOyL/jdXYu/YiIvM0Rv3ulbVeJTd4lWmNxzpXhlvINYTfvIO4OE/4lW2ASq9/je6/DEFRfUXo5ofA1r1RqbIHoq5dw/0795HgmQ+BDTqjwddz0GlITeeMeYYrwiBgUyzwel3gLcp2p8miv00VWkEeHkuV4LzKQAWdZcyeZlsXA+gUrkWT8k8VnydVbA0KA1/XAIYYTG4t7g5Mv06VJ137alFtuBzd57vjwEa6f/0ywAf5+Y3agQpSGU7nBin8MUAg3a+VuajQb1lIisAqOv5qFaClFCEhLXAviBJd2yMw9hrCgm7ycvPwLlIJj3R7HW3mzESLjhUQsfonnL0YDJ/Gr6BK5cSM5+ZXBmV7d0ZBjxCEX6Pr7sfBPV9ZlOj8OtrO+QX1a1pruq5ckxI3yTD/lULV0sDvFG5T+eYlHbm8NqcyPKUm0NMgWT8/oDeVL484KuNUpniAUT461pnSmPMYUFPXPe5FP/vkVTLc6f08XgqoohXkw5fIkKf7e5LC+2O5lIfJ56J7nCCZdIhkynW6x+ACSTLBRLLmE1Lcr5GC/C3JpsKiIAtCMtwL1kfl9mWRcO0y7lHhj0Nu+FdqjMqvf4luM0ejYoUbOPPTWtwNzoNHXumOglo96bzscUGHcQCX5BXrBaQ7dCa5EEKy6ibJrDg6VpZkzuukpPxC8kh/iS15pUKy7q8LwBH6q4dFjg/pMKXoXh1LkP5SnYx/2jbiCuk7nwTTb6H0R1jIMUEQ0h+HeuiVG/PwbI1++JOtnhRwL9AZ0w4sxYBHzEX5Pja+UQNtfzyv84xshoTkYx9g697P0dDVsdOCkBkhBf3d7aSIU2X7ewugu84gSC2mSDLutwJ78wFH61Nlns2V/Zs3b+Lw4cNwYlCRkErc3NzQsGFDBASIOzYjtp8EWlwEetUC5hXVDqYhFyntynSPRlWA9aTsi4KciMlkwq5duxAebtQ/KeQ0ChYsiDp16mh7gi3SVV5RtTx5NzAsjP42Bd6wHGmUA9m3bx9CQthdsiCkHYGBgWjQoIG2p4MNevskKJe+b6n48KKdFN09f2PlrVlblTPBkUpcfIwSdmWf8seIVkph98TzgJdSe+wRJV672hQ8X+kRyO476JxbbqX+8DXKpXthyrmlrynVfbXj7oWVfsvvaVcIQvbhzAVF8V+tKJ2uUFnQjqUVh88oihel3e9G2qed2Vi2bJni6empyRgJGRny5s2rrF5NGU2wIiFCUZqvU5SAvYpyPa0LYYKijN2mKO4bFGVprHZMUMiYV8h4M8yrEnJuaNWqlZo3BNukp7yKIxW+9hpFKXZIUUJz+Gfo3LmzYR6VICEtQr169ZTYWGulwIEG/wRcPndJ6113g3+bdzChX1NUKOAHTw9vBJSsgx5jZ+PTVn7q0ByeY31iz4EH83qitq/GxnvqxXAv0BUfj2qHUnkCUK7LGHzQISDxGlMw/l29R+fJXBCyPhVKAgP9gHWXgWMpD3BxnHjgxyDAKxD4yOwsJxvz7bffIj6eXYMJGU1YWBh++eUXbU+wxN0f+LQEcD8YmBahHUwjIkKBqVSRPl4G6GR2xidgw4YN2L9/v7YnCIls3LgRu3fv1vYEI9JTXm0gHecwKSLvlAPyZXeFxA4nT57E33//re0JQtqzd+9erF+/XttLwgGD3h2FixXWIiqIWPYB+oxZhF1BkWpTgYp7SbzybyRMvC6xYkLU8heQ6AAzAecPHUG4Zsh4VmuIuuaJPW6BaNCoija/2oTgw4cQlJYGjyBkBiiDj3oUKECK+Re3EpvX0oJzZMzPjQHeoLQr54DK8/bt29qW8DC4c+eOtiXoaVke6OkN/HAeCEmrAk7pTD8H3MgNTCwlzi4tEVkg2ELkVMqkh7zi6X+fXSNdpDTwqo359TmF4OBgbUsQ0g8jWefQHPqEs5PxRK1h2PxgGTK60D0XilZrjJatWuGJNu3RsXVtFPPTWxaxWDOoJJ6adptMdjf49/odwQt7PFhmLGzu0yj6wnLwIkgeZd7CxtPfoplFT8SRI0ewZMkSRLFXJiHDKFWqFPr16wd/f71bFcElqNj8eRjocw/Y2BholErtnNem7bsdOFYc2EYGfU6oP6tXr46jR49qe8BXX32lbQnpxfDhw7UtoHnz5ti8ebO2J+i5cQNocAh4rgHwPzvrzjvKbUqvJsmM/vWBz9MgvezEwoUL8dxzz2l7QNWqVTFw4EBtT8hJfPPNN7h2jSxJjdWrV6N9+/banmCLNJVXpN/8wbIqAvinIdA4jX0FZTW2bduGZs2aaXtQ/c+MGjVK2xME15g5cyaOHTum7QHz589PVg+qqAPvUyRGOflbV6Wklzbn3Sq4KZ6BlZWOw6Yre0MStGuY+8qiHn683DbFcVcKvriaUkoi+s/eir82N98tX3/l72jtBHHz5k3F19fX4h4SMjKQAaV9CUF4+FSrVu1B3ixWrJh2VEhPfHx8HrxzMui1o4LwcFmwYMGDfMlh+vTp2hkhpzFp0qRkeUF8fQgPm61btybLk2PHjtXOCILrzJgxI1m+IoNeO5OEg05zvfHooN+xZ/33eKV1OeRx1/fEK4i/exKrvnkJTR9/CX9cMS9mmYC4eEW9O+Phqeua9PBIGvMfF4s4bZP566+/EB3NfffCw4BHR1y6dEnbEwRBEARBEARBEDIbDhr0jCeKNnsNP60/g+sX/sPSKePwRq9WeKywL9we2PcKos/MxtC3F+KGasV7wMvT7YHDLlOC2dDXSIjnlb0S8fKGpd+fmJgYbUt4WMTGiptCQRAEQRAEQRCEzIpDc+jtYrqPS9sX4sv3huOX3XfAfu3c/Dpg6sWVeLFwHFa/VAKdpgerc+hzP/cngud3g0/ilbg7uwuK9f/bcA795MmT8fbbbyfuEOPGjUPHjh21PSE9eP3117Fz505tDzh9+jQqVqyo7QnCw8NyDn2xYsWSzZsU0gdfX98HDasyh17ILOjn0E+fPl3m0OdQeA79O++8o+3JHHrh4aOfQz927FiZQy+kGp5Db1nPuTSH3nT1J6W1tzZu37Oy8tGeOO1McuIOjlaqeybF+3A3x4tTDo6urnjyMQo+T/ysXH2wPmW8cuqLBgrZ7+o57yaTlHMW0++//fbbxLS0sHLlSu2MkF689tpryd45GfTaGUF4uMgc+oxH5tALmRGZQy+YkTn0QmZD5tAL6UGazKF3K1wH9cpobivjz2Dez2sQysnpiAwKQqh52Tk3X+RSPd57onz1qsiljbmPO7IDe81rXyph2LvrJC+nTbijYI0aKOnEBABBEARBEARBEARByMmkbEJ71kHPZx+Fl2qUJ+DyzAF46s1p2HImBNEJCYi5cxG7Fn6M7oNn45pm0HsUbYTGFRId4Pk3eRKNNYvedPsvjB+3FlciwnFhxaf435pwtakB7gXwRLsG8FZjCYIgCIIgCIIgCIKQEg70iXuhzlvj8XxJj0TndqYQ/PfDILSoVBB+np7wzV8Wjz/3OdZfj080zt3yotl7b6Oltti8W9Fn8FrPElDNe+U+9nzVHqXyBKBcl+9xOIqvcIPXowPxSrs8HEMQBEEQBEEQBEEQBAdwaJC7W6Gu+GHpRLQv4fXAY70h7nlR5/U5mPtapUQDnnELxFNfzcI7dfMYXuse+DhGTBuBx7UGAEEQBEEQBEEQBEEQUsbhWeu567yNFUf2YtFnQ9GlUWUUD/SFp7s7vPwCUaxSfbTvPwLTNh/Dju86o4RuuXm3Aq3xv027sGhUbzSpWAi5fXyQu3BFNHluNBbuWIfRjQLsNxQIgiAIgiAIgiAIgpAMp9zQueergWc/+hnLdpzA1TtRiEtIQGzkHVw7tRurZ47Hi01LPFiSTo9b7ip4duwCbDt9C+HR0Qi/eRrb5o/Bs1VyizEvCIIgCIIgCIIgCE7ilEEvCIIgCIIgCIIgCELmQAx6QRAEKyJw4vdR6N24Agr5+8AvsDiqthqACUtP474Ww3Xu47+Pa8HX3QeNvz4H82qfyTEhePc0vNutIcoXyg0fn9woVOFx9Hh/JvYbrRsqCEKOIObiOnw9tCPqli2oTl/0z/8Iqrfui1HzDiQtHSwIgpBpicHFdV9jaMe6KFuQ9Rt/5H+kOlr3HYV5B0Jt6ERCSohBLwiCkIwI7BrXDo17j8einecQHBmL6LDrOLFpFkb2aIh2E3ZTDNeJ2DYGgycdRoxNu9yE68uGoEmLwZi0dDfOB99HbOx9BJ/bhb++ehFNm72KFTfFqBeEnEbEni/Qrl4HDJ+yGvsvhuB+bCwi7wTh6MZ5GP9CYzToOxtn47TIgiAImY4I7PmiHep1GI4pq/fjYgjrN5G4E3QUG+eNxwuNG6Dv7LMQMeY8YtA7jQlXZ3dDIa+yGLbNtSwXceJ3jOrdGBUK+cPHLxDFq7bCgAlLcTr1XX+CIKSSqB1jMHDcToR5lMbTX67DmdBI3L91BH+NbI0ibmHYMXYIJh6I1WI7yb3NGP3yZByzbc1DCVuJj1+djtMxXij/zCT8e+YOomPu4uy/X6N7WS9EH/8VQz74G3fEpheEnEPUDozpPxpbQoD8jd7CrB0XcTc6BuFBe7Ho4ydR3CMG5xa+ioHfn0KCdokgCEJmgvWr/qO3IAT50eitWdhx8S7pN+EI2rsIHz9ZHB4x57Dw1YH4/pRIMWcRg95J7h/4Gi8MW45gF5XpiF3j0K5xb4xftBPngiMRGx2G6yc2YdbIHmjYbgJ2p6brL6sScQLHRvXG1AqFMMHHD58Xr4qZAybghEstHAqijyzAhj4t8EPxQIyn9L4oVRtzX/0eF6/Ha3F0xAFd1gFVTgE2Yqgnfj8DNN4M+K8FAjcCrQ4DS117ROwOArrtBAr9A/hQqEDb79MxGU39kFFCsOybaTgV54EKr83B/OFtUCGfH3IVqoZu45Zg3tBycI89jJ8nr3W+l14Jw/qRL+OHU74oWiyPTeEbs+1P/H3DBM9Kb2D2nGF4okIgfLzzovwT72DunNdR0ZN78BdhU6R2QXYi5iLWfT0UHeuWRcHcPvDxz49HqrdG31HzcEDGEws5mHtrf8LMU3Fwf6Q/Zq74Bv0alUZeH2/kLlEXPScsx/KPa8OHp/PMWoCjNisyIXXIUGFBcJ17WPvTTNKv3PFI/5lY8U0/NCqdl/Sb3ChRtycmLF+Oj2v7kKH1H2YtOGpbHxcMEYPeYUwI2f4Zunb4CJtcVSy5hX3gOOwM80Dpp7/EujOhiLx/C0f+GonWRdwQtmMshkw8ABf7/rImEbuwuV1j/DF+EYLOBSMuNhox10/g4qyRWNywHbY41cIRj7A/B+G3Bn2wZf4WBF8PQzylF33lIM7+/BZmP94Hhy8mtfrdDgO2kVFk8gAKUihEcsSNPu2B28Bpy09MUmXcXqD3OWBnFBBJRndYDLDpGtCDDPEJd7V4jkDXLjsGtDgKLKX7B9PjxFI4R9tf0bFmxwEZTf0Qub8VKzbchcmrBvoNaoxc2uFEAtDylQGo4WVC8Jpl2EZ5wXEU3PnnIwz9+SwC2n+OL3oUsLG6h4KIm7cQQfnP87F6qOWrHdbwq9sYtX3coERew7U72Ux9jNiDL9rVQ4fhU7B6/0WE3I9VV1EJOroR88a/gMYN+mK2jCcWciRxOLxlB+5QZVW252C0y6+XHn6o1asHqnkCCUGXECSdW+mADBUWhFQRdxhbdtwhnbsseg5uB2sxVgu9elSDJxIQdClIRho5iRj0jhB1AavGdkG9J0di/W0v+Pq6stCegpBl32DaqTh4VHgNc+YPR5sK+eCXqxCqdRuHJfOGopx7LA7/PBlrc0wvfRQujxmIzTvD4Fb6abRZdwYfRN7H8CN/oXnrImQ178DmIRNx3cEWDtOpH/DXizMQEuOPwi9MRr9TIRgRHYa3d8xAvboBUC7/gTUfLVENcjas558Emm8BKuwBDtKhGzeB2huBuvuAz4LVJFV2nCWDnox2DzKuvqwHhLYBbjUBRuYH3MjYH0sG+gEHbauw28CrQUAMZaFnKgNnnqBtCv8+CpSlY8evAB/cUh9PeAjEnzuAw/cUuBdqiEYVPbSjSXhUbIj6BdxhCt2Pveccr26UkNX44JXfcD5fJ0z8+UWUI8XbGDcElC6DgiSZ447swf5o7bBG7LH96nB99zylUCp/dhLfUdgxpj9GJ44nxluzduDi3WjEhAdh76KP8WRxD8ScW4hXB34PGYkn5Dy80HTSecQr8TgzsRHtWRN7/SpuUz3kUbQEilmLLiGVyFBhQUglXk0x6Xw8lPgzmNjIUIrh+tXbMMEDRUsUo/8FZxCDPiUSzuDbdtXR6ZNVuOxbC4Nn/I6PahtlxJS4j60rNuCuyQs1+g1C4+Rdfwho+QoG1PCCKXgNljnX9ZdlUUKW4b9pp2DyqIAGc+ajSZsK8PPLBf9q3dB6yTzUK+eOhMM/4z+HWjgicG7iV7h8zx15ek1D35lvolyl/PDyCUBgowHouOhTPOKnIHLVH7jAyZHx/GIN4O9qQDeSGsfigHN0vHpJYGodMugLJKaqxALfkAEeR/Ffo/jDCwL5uDc/Dxn5FG+oH4mgcGCyRQOAPbbdAOgfKpUG5pQBKlBW8qbwRFnap2Ns5y2jCNlxNHVWwBR0GVdJH/MoVRaljGoTj5IoXYJOJFzF5WsOKm5KMFYMfxXTLxZA10k/op9hwkl4NxuC1xrkhunsjxg44HtsuhCGuLhwXNo2BYNe+AbHEnxR7eVX8KROhmRp7q3FTzNPIc79EfSfuQLf9GuE0nl94J27BOr2nIDlyz9G4ki8WVgg44kFIRlK6EaMHj4TV0x+qN23N2rYbDAUXEOGCgtC+qIgdONoDJ95BSa/2ujbu4aqDwuOIwZ9SihRCIsMQJ1+X+OfI/9hSt8qumG4DhJ/DgcO34PiXggNG1W0bnnyqIiG9QvA3RSK/XvP5YihJrFbV+DCXRPca/RDHesWDtQfUIPeRzDOLtuW8jC2yC04tvwGFJ9GaDz+GQTocrZ7+bfxYqQJn4YtxGNkjDN5yBjvWJieIwrITcdKUy18k+rk5+lYce0D3b8DbKDjXnR+UL7EYw8gafNKCe47Adbc5D7GFFAo/VievAE8lhfQjaZG3UCAbo/IGIjDs4dEbNhddQSHe0CgVR5SccuNgDxu9C3DEXbPkWEZCm4tfQevzb6Cws98i++fL5my0PWuiQ+WrcT/nq2A27+/hVblAuHtHYAyzYZi7uUSeGr0Uqwc+zgo+2Yb4g5vwY47JniU7YnB7fJbTUfwq9ULPRLHE+OSjCcWhAeYbq7D++27YdKBaORrOQ5Th/GQVSFNkaHCgpCOmHBz3fto320SDkTnQ8txUzGM63vBKcSgTwnPinhj7VnsmTUMrUt6awddwBSEy4ldfyhr3PWHkqVL0P8JuHr5Wg6oEOJx5wAv3eUO/4aNkN+6hQP5G9ZHLncTovbvRWgKLyTh5A5cDTXBvWZnVCzjYLYmw232UeDnSGBYdeCrosCmU8DwYPWUyrl73DYPFCIDvKK+EicqkhHOnfmhFOlcSkY4XV+arDB+uiNhgG40NY5RGmTLIw9Z+lYKg5AhxMXFq9/ezdsHPkbfwM0bPt50QlEQH59yKVVu/IG335iPa0V7YfLkXijuUNaMxoXtq7HxwBVE0H2SEXUTp/Zuw8Gg7OVpw6vpJJyPp3d6ZiKMR+Jdx9XE8cQoIeOJBUFFub0Ww9p0w9d7wpG38Ugs/fMd1NC3FAupR4YKC0I6oeD22mFo0+1r7AnPi8Yjl+LPd2pYdXgJKSMGfYr4IX+BXDYcWDlBbBjuJnb9IdC46w+5A/LQ/wrCw+6pvbjZGxPuXb6qVoB5y5YyzIjuJUsjD9WMytXLCE/JoD97GncT3OBVqTLyxpzCibEvYEblovjMLxe+KFMfC4fPwnWDbu+aBYF2ZYA3A4BulYDnyTpvlUu1vVWCyOrmW5ciQ9ywGYakTgmKnECW+LWUDHqi2SNAA0ro7CVgAIULcWRExgPbLgMvXKR06EW8XAqujQIRUo2Xl6f67ZW4WMQafU8lFjF8ws1djWsX0zUsfPMtLLpRHH1++BbPFHVEilDltuxVPNnzf1hzKT86jPkLB66GIybmHoL2L8G4LoVxZdUEdH/ydax0damNrIYSio2jh2PmFRP8avdFbxlPLAhULm7hjzcH4Icj0cjXfCxWr/oUzfKlWlMRnEaGCguCqyi3/sCbA37Akeh8aD52NVZ92gwixlxDDPqMIi4O8ax/cw+fcdcfvH28VYNeiY/PAT30sYi+yzPF3eETGPDAgE5G7gC1l1QJD0OM3RYOE6Ju3YZJcYevxxFsbNkAiz6Zi0unbiI2OgrRl/bi5MSBmN50KE5es0iI0q5FxvPKR9l/OT0JGe2z6wHdLazpMDK4+bMFeBkXFjcyznkEv0JG+T0H7CtvutGyusCz/sDvJ4By6+nYv4ne7S/7AqNrA2MDtchChuMdGIhc9KGV8HsIN/qeSgTu8Qm3AATmtVfrmBA073UM+/MWSvX/CV8/Xdg4j+tJOImp4ynvJvij2Wer8OeobqhVPDe8vfOgRO2uGPH7OkxqmxcJ52di5E9Hs7+cMN3Euvfbo9ukA4jO1xLjpg5TPXkLQk7HdGkBflhyE8jfCZMWfISGduWRkD7IUGFBcB0TLi34AYlibBIWfNQQIsZcRwz6jMLLC56cUZU4xBp3/SE2Jpb+d4M7x9WOZl/iYEps4YCHj4+hscPDnj3UdxYPk13LRUFcZBT9b0L4vE+x83gJVPtmDV67FYmR969j6NIxqFjKE3HHp2LZq3Ph0NRnjTjtU3lTSTF8RjrOEzE4mvpzUoJ+x/bbwIGoxGssiYoB9t4FgrL/8IxMC48KKUnfNCHoovHSTzyHW506UwKl2DmeTe5hw++rcZMy7sXpnVHI3Q1ububgjWbfXqSsEIud71WgPO4Gv27zE9e1jzyA3cfioXg/juefr6zmrWR4lkOf/q3gS+XnxPb/EOJInsuqKLexdlgbdPt6D8LzNsbIpX/iHRlPLAgqcUf24VAs4NP0WTzt2FweIU2RocKCkDricGTfIdKEfND02acdnJIo2EJeX0bhHYjAxK6/xB4+KxRE3Aun/90QEJjX0HjMXnjBPbGFAwmx3JBhjRIbgwQ+4e4FjxRaONhQ4rRMpkBU+nEtur/dDoUK+cEzV1EUfXo0ei4bieI+CqJW/4TDZx3v1/TSPkQcGdmGz0jHeTYzR/NKqTRRAsuOAz0vAJfIUhtTG7j6JBBDYT9td6Fjq84BT1KcnDKaOrPhWaE2agS4IeH6Huy+aJ1PEk7vwp4QE9wDa6BWGXsGvYuYEmDib08ZS/1rgLuHhyq4bU4LyBYouPXHmxjwwxFE52uOsatX4dNm+XKAXBQEx4gOC0OMQvpCkcIyReshIEOFBSG1RCMsLAaKWwCKFBYpllrEoM8o3EuidGLXHy4ad/0h6NJV+t8DJUqxc7zsjjd8A9k3gYJYtSHDgIh7pLCQsRwQaOyg7AHu8A7IrSr7bgU6oW7PR6wytleNfqjRwIss86O4dlDvjs42gdpQ+/B41R63QqFPGU5/3TyBvImHbJJwHxh/jf7Sx/2sLjCqCFCcrvOmUJu2f68PtKXt81eBnxxZqU9Ie/yaokPLvHCL34cZU/4DfTIL7mHzL7NwOM4d+dt0QhO7buYD0W95FBRFMQix2Pp2GSrj3mg08SwS6FjUkueRmy/zr4YaFSiDxP2HefNPWq/uYArCn/M3IVLxQNFq1VA4u0pw0yUs+GEJbiI/Ok1agI8a5oRGTkFwnLx9lyGKKqAbv7a1HskjpDMyVFgQUk9e9F1GelLCDfzaVqRYahGDPqPwrIDaNQLglnAde3bzcFsdCaexa08ITO6BqFGLlf3sjjsCSpckJT0B9y4GGRrLpqBLqjM8txKlEGD3hbjBr2QJsPNxt3yFkcvICa17IfgXouyuxCM2wvF1/kv6JhaSILrEsBkmGrhKD292jmePyHvAMYrrHQg8768dtMAzF9A/P21QnO13E48JGYxbATz9+gso5xGPk5N74ZnxK3EyNBpRwcexbHR39PnlHEzeVTH4rY4pNuC4hGdNDHylJaUdiR0jn0KPsb9j96UwxMRF4tbxNfi2Xzu8vjwYil9dDB3cJPsq8nFHsC9xPDGefbq4VFSCIGQiZKiwIAiZCxFDGYYfmnYgRd0tHvtmTMF/ybv+cG/zL5h1OA7u+dugk/2uv2yCJ/LXrgEftwSE79mNu9YtHAjZtQeRJnf41qiFwBRaONyr10VhLzeYrh5HsNEi7gnXcI/nPrvnRu4ial+oQ1QISHSYdz0MuGiQ7GkyvEPob2AeoEwKBj0PoeYkFO2vEarPAIKH+AsPB/+WYzBteF3kTriKNaM6oUoBP+Qq9Bi6jluPG0ogmnwyHSMaWM6UjMPmN0vD080Nvh2m4batj+sQ7ig3ZDqmD3oM/rEX8PcnPdGwTCB8vf1R5LEOGDbvOO77lEevn+fi3eopzEPJykSHISxGgVtAEchIPEHQk4AjY2vDm2SOd90JOG7U2iykIzJUWBBSTcIRjK3trfoVqjvhuGGnmeA4YtBnGG4o8PTreKGcB+JPTkavZ8Zj5clQREcF4/iy0eje5xecM3mj6uC30DFduv4yH15NO6BMXjLC983AXusWDuyddRgm9/wo36kJjDrdLXEv0R6V6noDkf9i908HrIYqx+6ZhkP744HcTVG2gY92NGX88gEtyW6KvwdM0feaU3K/XGNzDmhTiJts7ONPRn8FMtjjKJ35up/LmKLpeGiisV+NXecLDwe3fGgxYT12zB+Bno3Ko6C/N7z8CqJ8414YtWgH1nxcHwYDLNIOj0fQfcpO7P5jPAa2qYlH8vnBy8sPgSUeQ8s+ozBn527M618xew+zzdsXy6IUJNz4FTISTxCEzIUMFRYEIXMhBn2aY6e3zr8lxkwbjrq5E3B1zSh0qlIAfrkK4bGu47D+hoLAJp9g+ogGOcZLqluBp9HghXJwjz+JXb2eweaVJxEZHYX7x5dhQ/c+2HvOBI+qg9HQkRYOjwqo/X4v5HGPxrXxXbDg4wUIuhKO+KhbuLn0Uyx65mvcivdA/v5voXKhFLrSLXCjuvr14pQ8fcfJB4Hxt4DQBCA4Ahi9nwz6SMA7N/AWGfQp4UlG+is8pN4EjNwHjL0BXOJ16Cm947eBfnuA5bTvRz93sCxd93BxC0C13uOxaMdZ3I6IQWzkbZzdvhBjn6lsYMx7ocV3lxCvKIhe/RJSzl5eaPrNBYofgx3vljcWwm55UKX7CExfdxCXQyMRGxuJO0FHsXHuWPSplV8EtyDkaDxQffQBxJLMid03AlWz/xw9QRCyGx7VMfpArOpXaN+IqjlgqnH6InphhuKGfC0mYP2O+RjRsxHKF/SHt5cfCpZvjF6jFmHHmo9RP127/jIb/igzZhoa180N09U12NipCr70y4WvHuuKLevJ2g1sghbTR6jz2B8QtxmrSnviUzdfzJ1222LouhtyPT0Zz37aHH6mqzj/+fOYWioA43MVwc/dxuDcVRN8G41E1/Et4Xj/fCItKwLDA4CEGGAUGfEF/gEKbQPGcW+6J/BJdaCBThJtPk4G/BrAdy+SGnXI0BtSDRiUG4iNousOAmV4HXpK7zEy8OfdB3z8gJ9rANWzYckMDQ1Fly5dMGfOHISFhWlHBcGahCNjUdvbDW7edTFBxhNnS2bMmIG33noLW7duhckkc4yELIQMFc72rFixAi+//DLWrVuH+Ph47aggZF7EoHcW9/J4d0cMlPgL+Kap0UDwlHrr3BBQrTfGL9qBs7cjEBMbidtnt2Ph2GdQOUcZ84m45WuBJ9bvQI8RPVGyfEF4eXvBs2B5PNJrFJ7ZsQbNnWnhcAtEqZH/YOi6b1CvY23kzZ8LHrnyI6B6G9T5cjkG//MJSgU43jtvxo0+84QGwPxyQCMyuP0pCT861rgosOhx4GMnpkh40PVT6Jo/KgJt8gD5qATycnclyMjvUx7Y2Qjon03zQUJCAv7++2/069cPhQsXxlNPPaUq9Xfu3NFiCIKQU7hx4wa+++47NG/eHCVLlsTrr7+OTZs2iXEvCMJDh/WS3377De3atUORIkXw4osvYvXq1YiLs1p7RhAyBWLQCw8dt4BqqD5+EQadvY0RMbEYefssXlo4Fo8ZtXB4tUDHS/H4VIlG35cKcae3Dm/kfeJtdFq5H8NC7mPU/RC8c3gdugx/CgVS4buGl6XrXQnY0QKIaAdEPgFsrwU8Y8O/XouqQHx7ILoerBp1OK3uZLyvawKEtgViKQQ1BeaSkV8rh0zHi42NxapVq9RKkitLrjS58gwODtZiCDkZj+qjcSBWgRK7DyNkPHG25/r16/jxxx/RqlUrFC9eHEOHDsW///6rNgIKQqZDhgrnKHh0IXc+dOzYUe2M6N+/v9o5ERMTo8UQhIePGPSCIDxUuMWbh7Xx8LaiRYviiSeewM8//4ybN29qMQRByClwuZ8yZQratGmjyoNBgwZhzZo10jMmCMJD5+7du5g9e7Y6fZCN+z59+mDJkiWIjo7WYgjCw0EMekEQMg3cI7dhwwa8+uqrak9dy5Yt8cMPP4gyLwg5EB6xM23aNHTo0EEdyTNw4EDs379fOysIgvDwuHfvHubPn4/u3bujUKFC6NWrFzZu3KidFYSMxU0htO1MxeTJk/H2229re8DKlSvV4S5C+sFzGHnYoxkfHx+4u0ubj5A2sKhJi1bsYsWK4dq1a9qekF74+vo+GFLIcoDlgSCkFdxIlxbOpqZPn64a+kLO45tvvsE777yj7QHe3t7w8JAB8ELqYdmUFh0JY8eOxahRo7Q9QXCNmTNnJqvnuCHpueee0/YSEYNeeIDeoD906BAqVKig7QlC6rh9+zbKlCmj7TkG57+ePXti0aJFOHfunHpMDPqMwdKgb9KkiTotQhDSiq+++gqffvqptpcynp6e6hx7liHsb8OMGPQ5F71Bz0Of27Ztq+0JguuwwTR48GBtL2Xc3NzUerJu3bqq/WJGDHohLXDEoOdes0zJt99+yw0NDwIZ9NoZIb147bXXkr3z06dPa2cEIfXcunUrWf6yFcqVK6d8+OGHyv79+7UrFaVatWoPzpNBrx0V0hMfH58H77x58+baUUFIGz777LMH+ctW8PDwUJ544gllypQpyu3bt9XrFixYkCwOGfTqcSHnMWnSpGR5YfXq1doZQUgds2fPTpa3jAIZ8Urjxo1VeyUoKEi9buvWrcnikEGvHheE1DBjxoxk+YoMeu1MEjKeWhCEhw73ug0fPhx79uxRe+I///xz1K5dWzsrCEJOgad3cE88O8Zk7/fs7Z4dZhYsWFCLIQiC8PBo2LAhJk2ahMuXL2P79u146623UKJECe2sIDwcxKAXbMLDGkNCQrQ9QUhbSpUqhXfffRe7du3ChQsX8OWXX6JevXraWSEzceTIEXWZHlkjXEgP2Ihv0aKFOuWLp9OwY0xeuo4dTQmCLfQ+WdLCJ4MgGFG/fn11mtDFixfx33//YdiwYShZsqR2VhAePmLQCzbhntKKFStiwIABas+pIKQWrgC5Ity5c6daMU6cOBENGjTQzgqZFV6eZ8KECShfvjz+97//qd7HBSE1sBHftGlTfP/997h69So2bdqkrm7B3uwFwRHYz4cl/fr1w+jRo9X8JAipgefE83x4ru+4w2H37t147733ULp0aS2GIGQuxKAXbPLFF1/g7NmzqFatGnr37q0aXrNmzZL1NgWX4CGzPESNh6o9/vjjaoUpZA3YyOJeiT/++AOnTp1SG/r69++vKjmC4AqsHG/dulV1xsrrzQtCamHji9cJr1GjBp555hlZQkxwGXY4tnfvXrz//vtOO/MVhIdBlvFyzy2x4uU+ffnrr7+0rUROnz6tKu4MD7Vds2aNOiSSe+vZ2+Irr7wigk7IEKpXr46jR49qe1DXfRXSF0t50Lx5c2zevFnbA0JDQ1Xv4jzPOX/+/HjttdfURj99j5kgpDULFy608u4r8iBnotdZVq9ejfbt2yMiIgJz585V9RXWXXjkB/fe58mTR4spCOnDtm3b0KxZM20vEZFPQmrRy7os7eVeQsYHW17uz507p7z33ntKwYIFlU6dOqmeZanS1M4KQtpj6eVeQsYHW17uExIS1BVIOnbsqBQqVEgZPny4cv78ee2sIKQ9ei/3EiSYg5GX+82bNys9e/ZU8ufPr5Bhrxw7dkw7Iwhpj97LvQQJ6RGylJd76fl9uAQEBKjrfRtRrlw51TkID5/mlseRI0eiUqVK6lDqO3fuaLEEIe0QefBwefTRR7Wt5PA8aB45RUa9OiSf6hR1ak6nTp3U3jLeF4S0RGSBYATLIvOIQkt4dNGiRYvUEV7sC6RNmzbqKgo8fUic6AlpDTv7lemEQnpjqJOpZn0mJDY2Vunfv7/i5eVl1TIhIX1DYGCg8v3332tfwjFImVdeeOEFJV++fMpLL72UbA1xQUgtu3btUurUqWOYXyWkb6hevbpy6tQp7UukTGRkpLo2eN26dZXy5csrEydOVEJDQ7WzgpB63nzzTcXPz88wv0rIeYHzwvvvv6/lDvvExcUpixcvVlq0aKGUKFFCGTNmjHL9+nXtrCCknnHjxil58+Y1zKsSJKQmeHt7K0OGDNFyWnIy7Rx6M+yAjQSwtidkBFQ5wtPTU9tzjtu3b2PatGn45ZdfULx4cXXuWs+ePUGZUIshCK7DcyMzucjKVnBPQ+7cubU95+ElCXke64oVK9CtWzd1rn2dOnW0s4LgOrGxsYiJidH2hJyMj4+PSzoG99r/9NNPql+Gtm3bqvJJP/9ZEFyB7RZxIC2kNSznWN4ZkekNeiFrwo5oWIlnZf7QoUN46aWX1HWFH3nkES2GIAg5BcuGPp7Kw4qzNPQJgpAZuHfvHmbPnq0a99yZwfKpb9++8Pf312IIgiBkbsSgF9KdM2fOqBXlnDlz1NZv7rV/8sknZZ6RIOQw9A19L774otrQx/MOBUEQHjYbNmxQ5ROv6tGnTx9VX7HlQ0QQBCGzIAa9kGFERkZi3rx5amXJQ5G4ouS1rPPmzavFEAQhp2DZ0Ne0aVO1V0wa+gRByAwEBQVhypQpmDp1KqpVq6bKp86dO8PDw0OLIQiCkHkQg154KGzfvl017Hltex56y5UlrzUuCELOQt/Q98orr2DAgAHS0CcIwkOHfTX8+eefqny6cuUKhgwZgkGDBqke8wVBEDILmXbZOiF706RJE8yfPx8nTpxAyZIl1aWveDg+Ly8jThAFIeeQK1cuDB48GAcPHlTn2bMjvbJly6qK8+HDh7VYgiAIGQ/7+Xjuueewbds2LF++HBcvXkTlypXVOfY7d+7UYgmCIDxcpIdeyBQkJCRg2bJlais4G/ncAs4KfYkSJbQYgiDkFG7evInffvtNHfLK647zCJ4ePXrAy8tLiyEIgvBwuHv3LmbOnKlOGeJVQFg+Pf/88+oKQYIgCA8DMeiFTAcb9FxRcg9+q1at8Prrr6Nly5baWUEQcgrS0CcIQmaF1ed//vlHlU87duxAv3791ClDFSpU0GIIgiBkDGLQC5kWXnOcHWZxZclwRckVZp48edR9QRByDvqGPu4V47+CIAgPm0uXLqnLck6fPh116tRR5RNPJXR3l5mtgiCkP2LQC1kCXkKGDfv169ejd+/eamVZtWpV7awgCDkFy4Y+rr54tQxp6BMEITMQExODxYsXq/KJpw5xR8RLL72EAgUKaDEEQRDSHjHohSzFtWvX8Ouvv6rza3ltWFbmu3btCk9PTy2GIAg5BWnoEwQhs7Jv3z5VPi1duhRdunRR5VP9+vW1s4IgCGmHGPRCloQ94S9ZskStLM+dO4eXX35ZDUWLFtViCIKQU7Bs6KtUqZKqOEtDnyAImYHQ0FB1KP7PP/+s9tSzfOrVqxd8fX21GIIgCKlDDHohy3P06FHVsOcl79q2batWlrwEniAIOQtp6BMEIbNiMpmwZs0aVT7t2bMHAwcOVIfk80oegiAIqUG8dQhZnmrVqqkt37w+LK9vzwp8zZo11SWv7t+/r8USBCG7w8va9ezZUx2Kz4rz9evX1SH4PBx/69atWixBEISMhx3ksaO8lStX4r///lMNfB6C37lzZ1VeSf+aIAiuIj30QraE59RyK/iWLVvQp08fda49z7kXBCFnce/ePcyaNUv1kO/t7a3Kgr59+8Lf31+LIQiC8HCIiorCwoULVX0lLCxM7bHnnvt8+fJpMQRBEFJGDHohW3PlyhW1p37q1KmoXr26OhyfW8M9PDy0GIIg5BSkoU8QhMzKrl27VPm0YsUKdO/eXdVXateurZ0VBEGwjQy5z4TEnPgdG3o3xuRC/hjnF4iJVVthyYSlCHZw9Ljp6mwsLOSFb4dtQ4J2zIg5+wCvrcAek3bADO2P2Q64rQU+CtOOucjVq0AhSmfYHe2ALRRg2WHAl55nh62Hpud6dzM91xp67m3AIf1zW0Lp/X4QqHz5EXQZMx6XL19WW72/+uorlCtXDp999hlu376tRc4CRJzAsVG9MbVCIUzw8cPnxati5oAJOHE6DaYU3P8P/9byxac+jbHjnO2XajO/WHDiBtD7P/rm6wC/f4Gqu4EJN+kW2nmHoe935BrwHKVV9B/KFxTK7wDevgRcsffdszupzQemqzjYrRDGlh2GS3HaMQPCqNz62Sj/h89SPqAyWPkUEK8dcwWHZQNxm/JQaYr7vp24208CnvRcLLc+vacd1PHEE0/grz//wrjlN/FTs65o3KYF2rRpo3qhTkiwJy0zEzG4uO5rDO1YF2UL5oaPjz/yP1IdrfuOwrwDoSwmBSHdEP0k8VAMyaQAljcGwYvSLEK6SscjwNKIxPjJ0PQTf/oduy1eQsOGDTF79mycOnUKFSpUQLdu3dC4cWPMnTsXsbGxWqzMjsgnQXgYiEGfyYjZNQ5zG/fGlkU7cSc4EgnRYaTDb8KhkT0wtd0EBBlVDpbcP4CdLwzDqWCqMQxQqE74hyqvcDpd0BvwoFDYDbhBCvDmNLANLblPab5ASraNR0lG8C3g9etA94pAIxud51GhVAlGJW7H03uYcTdx2xD6TZxW3Ujg5XNAgrc3nn/+eWzfvh3Lli3DhQsX1J45Hnq7c+dO7aJMSsQubG7XGH+MX4Sgc8GIi41GzPUTuDhrJBY3bIctu1PKFPaIwKUxg7HzcIy2nxxn8ssuMvQak5KyiL5LMNXa0WTtnaBvNvIA0I6+gcNPSfdafQJ4nBSohZTWTVJ4Yiicp3tOpuN19wIH7GmC2ZVU54P7uP71C1i7PJhfsTV0cH8wvWf6br70nXlAelH6G0NZYw19R+Mc4hrOyAbOg+8dp/sXJYM+UDuoh/LD3BvqH/V3zCFFPVo9YQDl35dreqBR3lYosfYK+uga+m7dImGUaYnAni/aoV6H4Ziyej8uhtwnRT8Sd4KOYuO88XihcQP0nX0WdtpqBMFlRD+xrZ9YEk9p3iJdZTXJoR6kXnyibzDQ6SeaWvOAQoUK4cMPP8T58+fVv3PmzEGpUqUwYsQIddRh5kXkkyA8LMSgz0xE7cDmgeNwJcwDeZ/+Ei+cCcWI+7fwyl8jUbaIG6J3jMWKiQds9oqZQrZjS9cO+HdTqLHCTly8BnTeBRTfAnxDFZpCWvor24FSO4BeVLGkFSFUgXUlw2uTI5KbftD4U1RpBgCjCqt1nSH/0rNT/YjG+QAv+rsoiCp+9YwxHmSRjCkBHLsE/GihaNSqVUtd3oory7p166Jfv37q32nTpqnz2TIXUbg8ZiA27wyDW+mn0WbdGXwQeR/Dj/yF5q2LAGGUZ4ZMxHUXG++jN4/G35OPIcFGhnE0v0TR9x5I+2H08Z6uBJx5ghSm1sBf5QF6SuwgY38iXe8Id28Dgy7Ts9FHHladnoHSimsDHK4NPEEKXjAZl4Mvpq53OOuRynxgCsHlz7pi7kebEGWji8REWf/tfUDFjUBber/MkmNAiU3AUwdJ0U6jF+6UbCC2UL6aT3GHUV4qaEM4hIdQXiMLPpAM/poU5yIp3/ae1ywbTgR5IbhL8oa+ypUrZ9qGvqgdY9B/9BaEID8avTULOy7eRXRMOIL2LsLHTxaHR8w5LHx1IL4/lRNbvIR0RfQTQ/3Ek2TJnrb0rO210I7qrieBc48DI/JTBCqKn5Mc3a+Tu7b0E0vYiR6vX7927VrVqWdkZKQ6BJ977v/5559M50RP5JMgPDzEoM80KIhc9g32n4qDe4XX0H3+cJSvkA9euQqhSLdx6DVvKPK5x+Lmz5Nxzkr4R+HOqrFYUO9JbFh/Gx521jYtVRLYWgf4hGwATic2EridhyqsasAqMsRSDcnpVWS81dsDrCfjwteBHHaODPPf6Dm6lAEq24jPLfdzbtFfOv88KfaPUa16k/aXpWDItigNNKSKdCIpA6G6ui+QtP9hw4bh9OnTas8cK/TcCv7uu++qS15lBpSQZfhv2imYPCqgwZz5aNKmAvz8csG/Wje0XjIP9cq5I+Hwz/hvbUpdI9YoYeux4eUfEOJbFLnzGL94h/ILvddlZACeor8VSpHxVY7+kjGei4zvbhWBeXTMnc79THFSfEqKt5LyA9lj6Pgo8DUpPKUpLU8PoDo9w8LKALsKOnQDOJ6Dxu6lJh/EXViFTV3qYfbI9Yj08oWnDaPY3Y/KGCmh0yoA/vSdubwcofI1iL7h8rrAE6l1O+GCbDDRc3xyBchLivRgHjJgBD3nKjIEgmmzXjHKc7npOkp/OsuLxBiG6GWDvqGvf//+qFOnTiZq6LuHtT/NxKk4dzzSfyZWfNMPjUrnhY93bpSo2xMTli/Hx7V9wFNoZi04msMavIT0RfQTe/pJMki++ngC5QKBcTWpHiO5GXcfWGzQoG1PP9FTsWJFfPPNN+r0QfaUP3z4cFSpUgXfffed6kzv4SPySRAeJo6IJ8FVEkJwbe4nWNK2Nr4p6I+xnl4YH1gCP7Tsgw0LjiA6mQC/j0srNiDa5IUi/QbhkVzaYQ3flq+gVg0vKMFrcHKbpXKZgJBv2+GnTp/gzGVfFB08A89+VBu2dG8PqmjqFwJqUCVynbZrkxJ/IQboQIpwHaN6lp7xyFWg/TYgzzqg8BbgudNkUBm1bFPcb/cCnajCvEw5a3B14KMA7ZwtqIL97hIQTXJ+AD2XDVsDPAp2DdUAXpRe+/yJSrtC+9PJ8rNn17nTe+xfgK6/SXGpUjbCzc0N7dq1w3KqcHhtWF76iuetdejQQXVOw0vLPCxit67AhbsmuNfohzqNdZkioCXqD6gBd1Mwzi7b5twwNuUOzn00FHvPBqDC51+gagHjN+9QfqFvuCKUvgMl0Y8UMt1TouUjdD2dCyaLaxvFtQvF60MKnak98DelpX+qQFLuHqGDbLCFaMeyJgmI3DcXG/u3xS9lCmKCtyfG+gXi66ot8eeoBbh5L7l252o+MJ35FnOqd8KmVZfhWWswnv79IxTl4S1G0Hsl/Qud6R1fpG9cg/5GkKgpSt//KTrup/8YRHg48DaVefZzkGc90PQgMI971rTzD3BFNhBbSTZso7zXtQSQ3+D+DDf2zb1Nf+l8e3rW7mQM8E9cS4r4ZasHScKWbDA39PE81i+++EKVC5mioS/uMLbsuAOTR1n0HNzO+n341UKvHtXgSXkr6FIQF0tBsIMzMkj0E3v6iS3cSBDxb+B73yA5pccR/URPrly5MHjwYBw8eFBtbOTl78qWLYuhQ4fiyJEjWqyHgMgnQXioiEGfXiRcwKHn62Jav7E49M9BhIVEwpQQj/iwawjePB9b+jTFvK8OJ7VSxp/DjcOkCbsXQolGFa0/jEdFlKxfAG6mUFzfe87CiFUQFxYJnzr90O6fIxg0pS8K6S0qHZeuUSVyGahaGlj5KOBNxljPUwYtxFxZXgRaUB3BHX8RdNPbVOksPA803gWs01dQFD+MpHSd4sA/TYEp9DeFR8E9MvIWUv1fqCAZflSBG0Lp/knPzA3/dQoDZejl9KIK3pv2t1FlfkL/3JZQpdKJFHwfevbpFDelVuEyZcqoSjy3gj/33HMYN26c6pzmyy+/REhIRpuQ8bhz4DBiFHf4N2yE/FZakAfyN6yPXO4mRO3fi1CHa0gFkas/wMrfzsO300Q89WI5u4IgpfwST3niML1Yd/ogjQx6UXloYX1SbEykZO11UGmxxfW7wHm6r29uoJKz2lWmIQF35jyPKY37YfPsf3DjUgji4hJgig5D+InNODK+D6Z3/MpCAXQ9HyhRYYgLqIOaX/+DV/6bghpV7JfIBCqLgw7TO6b3O6su8CxljA94uL2BMhpNBbILyYHJVIbZz0EEfd/tN4AX/iMjn44lK5a046xs4MI67TpdSvmqBw9dtcEVUobXU9rc2NeZlOeqRek+lDei75Chb9VbaEEKsoEb+tq2bauO3Nm7d6+65N1DbejzaopJ5+OhxJ/BxEZGrTKxuH71NtUNHihaophNo0kQnJZBop/Y1k/swJ0Ox6JZltDvMRph5KR+oqdJkyaYP38+Tpw4gZIlS6o9982aNcOiRYvoezrVxJ96RD4JwkPFnh4vuIyC+4uHY80fl2Eq1h6tlh/CO/diMDo+Ch9c3o/eY9sjj/s9BE2ajAtmA8cUhLCrVNt4lEK+UkaizgMBpUuQ/E9A+OVrFhWmJwq8sRZv7pmFRq1L0l7K5MsDPEkV1FdlgGJUmXxGFRv3evsbGEgrSUEvQHHWNQOitHnMrUnBjqIKdMgZHmRlAeWmN+oBe2pQHNuj6pKxmZRxqjPRlJ6HG7KNSKB3NJeUc06/Pxny/HYq0t/mtB8XDsy05xyPKEy/jXuIz9C9Djuog/v4+Khz63kZmcWLF6sVJg95GzBggNqLnzGYcO/yVbUCzFu2lGFhdS9ZGnnohShXLyOcso8jKMErsO7V6bhboCva/dgPgSnUrCnlFxMpLFdJWfKgb17KIA+x0lKa8wPFuRyTeMgp6Lo7pFT9eQ7ocJIUN3oRr5UHShjdKwug3F6MdcP+IOWyGCqMW46hV+9hZHw8Rty5jCFLx6JCcXfE7JyEXesfCAeX84FHxTfwwtk96DasNfJyC1gKuJMe1r4A8CYp0jXpm31WEXiCvn15A8Fy6TaVdUrzayrzoSQbbjYBRlK+cKcy9uMx3Rx2emhnZcN9UuTXkFKeO58dR1SUNxaTAcAO8JqXACpQnuAGpP7cAEDnZpGSbNAW8QBHZUPp0qXx+eefqw197Fxz/PjxD7GhzwgFoRtHY/jMKzD51Ubf3jUcqguEnInTMkj0E5v6iRHx9KouhgGjDgLLSA4WoWd8wUbrgSv6iZ4idIORI0fi4sWL6uiiX3/9VZVZo0ePxlV25f/QEfkkCOmNkW4opBYlBGcWrEEUAvHol7PRvHMNBOTxhjtZPH6P1EblD0fisdIeUEKP4xZXkkxsGKIjSQN1D4BvgNFncYN3QB76X0FM2D3WVR/glb8AvJ0wbgICgDlUsbViiUrXDaAK7puiZMQmnk5GAFU2K2sCbUhJ9qV6nOcxL6uV2DvKLelLdAZafqpMHX4Uqrw2kqHOQ7Ub2hn6dvw6sJd+cF6qVJ/RKmJ3+juQh8DR8QVUX9lzgOtBNXF9ei7uSd5i0/W1berVq4cZM2bgzJkzeOyxx9CrVy80aNAAs2bNQgy7AE83YhF9lxUqd/gEBhi/19wB8KETSngYYv7P3nkAVlHsXfzchBR66FU6IihIERSkW5BuQUEEe+9YPzuC7T1F5alP8amAShMsqCCglCBF6YLSu6H3mn7vN2dzB5fLTUhCElLODya7Ozu7d3Z3dvZ/pqbHGPDtxurHHsAff5dHg3ffQ8Oqp88CTpdeEozB4sTS7E/tMZbwf70PZbQKwlzTk78aoy3aPHtjoK0yXgOM0fY6BVuehK0jxmC9EauRPf6Na57rjoqVi6NQaCjCos5BpZ7/h7a9qzs1XXv+pIgnZ5AOCpdGkSJBjwiKxzyne8z7/m8j6gn7tE6uD9QKkkw8Jj/4dzPgMfNeljLr5Y0hPripMZpNXsGa/veNgerOpzKUNxiWGZ1sbhPqlwTMqYOSbAz3Uew+auJ9q0mTTjTNj1xvxL05DBtM3jEjjTSX0byBBX39+/d3mrmOHz8eq1evPgsFfYF4sWvaU7jqmrexNK4U2g/+BAMu8L9wQpxCJvIg2SepkmSMj+bTzHnd09b9DNScD7xq7nH18iZO5wOVUvnhM7VP3ISaZ8j566dPn+64AwcOoFGjRujVqxdmzZrlD5XTKH8SIic4vTUvMo6nLBp/fxQDk/ejz03l4Du2C/uWRGPNmI/w69N3YHSrPli8mZ/JWCTaDDwxEV5+BT3hCKVlfgoe429yfX4qk5JO+mBmJ9fUMB/HgFTCGrNbjYXtSwamsuY8k7Dv63Jz/RQG9VIrMTe3abQxytl4rIcx0k+Mcm2W3c22+X5jhxEOP6ZVDWfC1mdzN3PTlqXVBPc0lClTxhmIZv369XjppZecZm3sW/v00087JeNZj0kTnP/GefYRQQ0RT3gEQrnDlwSvq2Y2OD4cmfAoJo/ejmK9h+Kq3pWzJANINFF0YmlOFjTpGqy/czkZwYTnyPkXGoOqurEBmObeWwE8bp55RssGcgceFL35ezxnHtb/fXMTinqP4ej6Jdj84xgsfONpTOzRChOGbXbuZ2Lsicwhi9NB1lDOvHy3871yY57Rvea9ZIPL2XtTCnoyhbncFUfYMBioa37DZBFBWWyM9j9N2PLGaO7B7NFPWbN9tdn2GoP+M/av9/ufgrlnmc0bOHDeZ5995uQHF1xwAfr06XOioC8u7gwt83Tjw56pA3DFNUOw8EhJtHr+O3z9WCOkswJSFEgykQfJPsk0x8w5og+n5GVBOYM8KC04YN57772HLVu24LLLLsODDz7o5FMffPABjnDwkxxB+ZMQOYUEfbaRhCOzh+L79rXwRlQlvNesPcb0vQ/T//0Z1i6KQSK/jj6v+e//9IWFIcQxyBORnBDsc+hDcjxVqwcehk3xzF5MfC4KVjVm/C80/ozDhkxb7OYDZ4ztGLMMjQAqBrMRDPEHgXHHUkqxbyvr9/RTvAzQ2/izb/anOx3tHxxz7srmN/gTf2eBnc2pZLp27YrJkydj3rx5SE5ORvPmzdG9e3dMmTIlC6eSMc/ZGZLcPPuEhKBGki8hPmXKuZAwZ0ChtPBuH4ufHhmHo5VvQpd3e6F4Kvc8o4SZ8zixNPEImnQN8X5/hs0Qxpj6uA2wtBWwuSMwpTYQZV6D//wB/CunbJJsIHnnbPx2V3u8WyoKb9VthhHd+2LSM//G0h8W4fBxpmSfMUhN/uCEztp0kFU0KBm8D2pNkzewdvy4yRvYFSNTmOM4MB8TVpVgVXPE3KZR5r1nwQ5r5E/Kqsw9uM3fPWeyyWRSjYc5/5nmDaVLl8YTTzzhtOAZOHCg00Unewv6/sG3ewIevvV9rIgrhbaDfsLkgW1QKqPvmCiQZCgPkn2SKqdMW2ccp1nd3trkT+Z7FWm+U08vBp7Yx7sUBHPurLRPAilWrBjuu+8+/Pnnn46Yj46OdsYKeuCBB7By5Up/qOxB+ZMQOYcEfbbgw7FJD2L4lQOwJHoTEpLDEVnjQlTr1g8tBn6AG6LHonntgDqn8ChEFjGPw3cE8UeCfzATDh8xfz2IiKK5nAOYjNc2lQ6kmPFnvpyuZt6p4DWWOC+VJeDFUsnkZ24Htpglm/B2+NmEdTVr85jtocafRG8D1gX9WqZg43ski6t1a9eujbfeesvpW8u5YZ977jmce+65ePvtt53mbmeGSTdRRUy87bMPwtHDjlj2lIhKtXbcwRuDFQ8OwKrd1dD4v0NwXvm0AmeM8LAUYccBgFLT2If99z3qTMSmeT2urAMMKW+u16S7/xlrK4eH/ckSfHsnYXLbKzHlk2gcPJqM0FI1UKFNNzR6aCC6TIhGr/trO2n1H7IwHWQhxc2zDPYB4fvsVDiZZ3TyTB4Zw6aZ1PKgY8ZAnuB//99faH7XnTcY185kHKwVO77fGNZp9MnJqryBBX0clGrSpElOk3wOmpc9BX0WL7aMeR/f7gJKd3sbY565GCVz6NmLvE2G8yDZJxmC06xWKgb0rWvyqJpm28Tjv2uA1alkAdllnwTSrl07p8CRo+GXK1cOV1xxBTp27IgJEyYgKSmrf1z5kxA5iQR9dpC4CPOf+BT7E0IRde1Q3LZ1P57etAy3//AFurx0PxpcUu5USzekKkqyP3NyDA7GBGuclYzDW7aZD2YoilerkjMPzkTxWCrtxGhs8wpo1J8JNn8P+p0zau1L8zFIzzc54TAw8qQRcE7G2tLZ9T0pXLgwbr/9dixevBhffPEFli5d6oj9O++801nPHCEoUb2qibN59ptjgt4jb8wWZxA0T5VqKBFQRnQSh2fgr592wZe8GUu7l8PLHg8GWhfeBr9tNidJmI9pdUKNX2GMHZ3+tn8cz6CqubHJcUBMsEgavy2seTBhqp1pWztzjg5lnApY7DQi7WDQhJObScT2IU9g6foEhNS4FldFb8XT+zbhvtk/4Nr/vIQW112CIs4Qb26yMB1kIcwbgsbF5A1MPSEmHmfSCsQeahsxBTJtu0kD/vW04Ls/0oRNrfAnO/KGWrVq4c0333QK+tinlQNWZV1BnyURKxb/gQREoPX1PVFZX3ORLjKRB8k+yTSNK6QM1skBfOenkgllt30SSOXKlZ3WRGxBxOnu2DSftfaDBg3Czp3pyVXTg/InIXISvWLZgHdLNDZvNF+U8Ha49L2HUL0qa9f+wbdvPfbtYw7uc2qxHArVQaVGJcx3cQe2L9h8qohNXouYhfvgC4lChcY1cuyDuTJYzZbxX2zEM+PI/q2ZhYOo0eBnze7RIF/MvXuAH80HkKOnz7zChHM1aTvhrgReLGYCm+NHxXBUguAczaIPfHq45JJLHFHPeawp6llzz+muRo0ahYSEtDr7B1IIpZs0QoQnGUcWLsDBU4yXZOz7fSGOe0MQ2ajxaUerzy4KFQEamfvKJooLgjyAZJOGFprnyOfduLDfMzVMorpzujFspgJvplKretCci88yxLwEGRlsKVfg3YLN0RuNSA1H9affw8Vtqp58Db592L/OvOfO+onMIVemg3VGtQezT9eavIFlayVM3pDaQFDpoaT/XQ02ewP7t35h8gfeoQebm+1geYNxS2unFP6sNYJ+dirGf3bmDSzou+2225xp77788ktn7ugzL+izxOHQoXj4PCVQoXywzg9CBCEzeZDskzOCceEpUmsxkJP2iZuwsDDccMMNTjN8tiLasWMHGjRo4IwH8uuvv/pDZRblT0LkJBL02UFy8okS11OLXGOxY9j/sNXpVJyI5BMWcWFU69wekZ4kbB8+DDEBH6q46I/wx/JEeEpfgXMvPZ0qyjq+MSJ5V8DHbP9eYPgRk3g4xVWU3zMTUKhXN0sKwe0Bv8Gv27fGCKcwqFkRaJWaSDEpuF+VlBFwY3YCk4MpDHOuGPMb/IkaOXfrnCZtzzzzDDZs2OD0p+VgWexby2b5f//9tz9U2oS17owaJT3wLh6ORb8FJIrD0Vg0cjm8IaVRu9ulzkBkqRJ1M/rG+jDQJMxTXMKvuKSGucHhLXHl+mTjF4s+fVlKkk7MM+hc2iR1c4OHm8sKtLGijd9ys690WeDS04lN8760LfXPuQK7QPrM8/3QpAtj/6CRSXsZiGXuwGfyBqezOzlV7SYuGYYlv7LzuHkvEv5JzFmWDrKQbbuAiSlRPQGF9n+2pQj9juZ5p9b9/bSYW1OL76q5VX8H/AbhQJjTTCIINXbijSa9pEbDykBzcy62Hvk02OB4xiOn8oaLL74Yn3/+uVPQxynvMl/QZymJfhNjTXraiY+vdI0IKERaZCoPkn2SWZaZvGqjOZ598RsEe03NvrNhnwTCAfM+/PBDp9ae89vffffduPDCCzFs2DAcOxb4VU8Pyp+EyEkk6LOBkOpNUbGcubUJ0Zhz/1CTQR5GUsIRHFn5CxY90gmjXlmcMtq39xgSjtkvhQdFej6IRrVC4V09FON7vYK1q/cjMXYvdk98EeNu+gj7veEod9cjqJtDXdTIzh1Aj1XAAmMQxxsDmqNKd10OcKinBueYfWegHjzm2AvNB4yVAH8FKDdvLPDlfrPP2Bu9K7EXcerU5pz0RihycLzPzMfT3tETGI8/zffIY87VNNggOtkMp5Lp2bMnpk2bhtmzZzsfxyZNmjgG/S+//OIPFRxPmZ5o0b8WQpJW4/fevRA9aTWOx8Xi2MqJmHHtTVi0wYvQBnfh4i45mCgCMfe1ZzUjwMxy9Rag13qzNPok1riJ64CbtppnY/bdZayj08bShLvWhKvtP9d15lzLjbGTZNLIBpMeHlgEfGTSSogxjp6qau6t/7A8Q2h1VGpSzlxmAra8fj9+i96MOCPm4neuxIZhj+CLrq9gu9Mdx4vEo/8YUbkyHZjncs8S4PODwFHzfLYfAh5bbN5B8+6GFzPrHOvAHzTDmAMbmneVFVZrjHF+UuW6uT3jTT7ELKNeRaBFGl8xCn7OSc94/GiM/52BmcNZyBtY0Pd///d/TkEflxT5GS3oEyLTZCoPkn2SIcztO2Li9P1GoM+mlALOhlWAVsHyqrOQB6VFiRIl8NBDD2HVqlVOF6GpU6c6c9o/8sgjTmGkECJ3IkGfHUR2QMtnOqCwJwmHvhuAETVL4pWIEhhy/hX48b2FCL/uXXS8Nspk5HtxcPMh5ucpFG2PDp8+icrFknFkygsYXb8MXi1SDv+9ejA2GUs08tKX0PO5FjlWA0cr+B4j1P4yguziWeayjPa8yHwsfzNfp8rlgDEcwdUfNFOY1Ne+lFmYG/D7Yee7doK1O83vmA9pmBEGfdKYA5ZQ3N1a1okuphujnaXhbtjke5GJcyFzrjaZrjLMGtiP9t1333X61nbu3BmPP/44zjvvPPznP//B4cNsjxBIUdR4+VO0alYM3m1TMLNbffy7cBG8ef7VmD3d3KSoS9Hus+dQ9aQHkYjND1d3+skP7vwpTpQZZSNFjWj6tCZQzPzWFCPC688Aihh39YaUfs6X1gGeC6gtiV5pnskUk4aMSN/jimOxMsDoukBZ/7kunGnSwTSgzgLgQyMaQ8KBwY2Ba/JkoX8kagx4BjVKe+Dd+h2mtq+JNyIi8Hql8/HFve9he7HrcNWr1yLS48PxTcbQPnFfMpMOspd2xmCuddQI5t+A4ub5VJkPvMvnY96xdy40ecYZlrY0MmmK0+GvMec84EoffJ9HHTT5hXnh+1RKEf2pYsJcZwxpaoyj+0yeFdAl5GzmDSzo69Gjh2Mws6Dv+PHjJxX0nXYQveQVGNQk3AiBcDR7deXJhR5CpEom8yDZJ0EJNg89u4yVMHHquRbYYA4sa/KyT8z3Mdi9yU32SSCc7u6bb75xugcVL17cGVSPA+l99913zuw+aaL8SYgcRYI+WyiEsg98g1uGP4Z6Tc9BZEQYCpWshHId+qP9V4tx79gH0bBtQ4QiAdtmzDV/LR4Ubvcqbp43Gm1uaIlSZYsiNKwwitRuhfNfGIc7pjyLKmfQJywzXGyE2NTzgNaFgcImtVQ0v3+X2V7QBLggC6pH21ZMmUt+3l5jcKd4sWIAo7fDuS9NjcFen0o9Lcz+7pWB8mY13hj/nwcMtR5jDPmV5qN6vvmhBqc7Vw5RpEgRp0nbH3/8gU8++QTz5893BqXhADUcgdaNp1Q7XDZ9Hq577gZUrV0WYeEmPZWtjXN6v4Be86agbfMcThTBMPe1nRHh84yQu8EI97ImbYSZ9FLbrL9gxDenm8tILJvXAhZeBNxtFF1Vo9g43R274V1bA5jZCniGzfL9YfMaofUeQO8Zw9GyR1OUiIpASGRJFGvQAY1e/gp3Lx2LFn3boryx/JIXzMDfrrEJc1s6KGqe7U/mGd1qlqXNsy4eDlxe1eQXLYH7s6CmqbB5xt2MgRtrxPuvLmtwxQ5gqXmfw0sAvY0RfDo4Jz3nqKc+HrEtpbuGJbfkDSzoe+edd5yCPo6Uz2nwOI80C/oOHTKZmhBZSObyINkn6YVZCfPDxkbIP9XA5Fcmn2yWSsljbrRPAjnnnHPwyiuvOPkTxwThgJ8c+PO1117Dnj17/KGEEGcTjy/r59IRIv0YQ/3xucC7icD4dkawZfWgMCZ1D10ADDA28dDWwEO5eGyWXbt24eOPP3b6rPFjyXliOUI2B64RoiAydzXQbrMR7o2BUca4zlJyed4wd+5cZ95oDlbFgauYHzRs2NC/VwiR7cg+SRUO8Mn86euvv3YKIZk/tWzZ0r9XCJHTSNCLs856Y7A3NoZ7hwuA76umlG5nFUlHgBbzgJ2VgL+MLVwqD1Trcj7YiRMn4r///a/Tj+2uu+7CPffc40w1I0RBwnvM5Avm/V1WGljTFKiYhe9vXskbWND3v//9zynoq1mzpgr6hMhBZJ+kzcGDBzF8+HBnQD02y7///vvRt29fZ4YPIUTOoSb34qxTx3wkbzN5/7St5qPm9XtmETPMOZebj+RjtfLOx7JQoUK47rrrMH36dMft27fPqZm7/vrrMWvWLH8oIfI/IUWBgVWAY3uBTzPS5jUd5JW8oUKFCs489ps2bcKjjz7qtOLhIFUvvfQStm/f7g8lhMgOZJ+kTVRUFAYMGOAMmMcm+KyM4CCfHB+IA38KIXIG1dCLXMHunUDjP4COFwJfVMyaUnDvcXO+ucDeasCCekAeas12CkeOHHHmtmetPWEp+M0334xixdLRiViIPIwvHrhpHjCzNPBnI6BMFmQOeT1vYMsd5gWjR49Gx44dnVr79u3b+/cKIbIS2ScZg1PfffTRR07NfdOmTZ38ic3yQ0JUhyhEdiFBL3IHJhV+vdwY7odTBj1reaYD2pjzTTDnu+Uo8PPFQKus7vt2FomOjsb777+PGTNm4MYbb3Q+lhxAS4j8yk5jULcwBvWNLYB/pTHvfLrIR3nD0aNHnYI+9mUlLOjr37+/0/RVCJFFyD7JFPHx8Rg3bpyTP3HwPA76e8cdd6BMGc5fIoTISiTohcijbNu2zWl+y1Hy69Wr5wh7znfPJvtCiIIFC/poOLObDgv6KO4bNGjg3yuEEGePRYsWOfkTm+Rzuk7aK82bN/fvFUKcKRL0QuRxEhMT8e233zq19uxny+nw6Nj3VghRsGC/ehb00Z133nkq6BNC5Bo4JtBnn33mDKJXtmxZJ3/q06cPIiJy2ST8QuQxJOiFyEdwDnv2rWUzt06dOjkfy9atW/v3CiEKCragj7ViGzdudAr5OGNGxYpZPf+fEEJkDK/Xi59++snJnxYvXoxbb70V9913H2rUqOEPIYTICBqhQoh8BEfDZ8k3B6Vp1aqVY8A3btzYqa07duyYP5QQIr/Dae04fz2b4k+ePNmpuWcTfDbHnzNnjj+UEELkPBwgr2vXrk7eNH/+fEfgswl+9+7dMWXKFKiuUYiMoRp6IfI57FPLUvDZs2ejX79+Tt/ac889179XCFFQOHz4MEaOHOm04gkPD3da8Nx0000oWrSoP4QQQpwdYmNjMXbsWMdeOXTokFNjf9ttt6FUqTMdCVWI/I8EvRAFhL///hvDhg1zBtFr1KiRY8x369YNoaFnOmSvECKvoYI+IURu5ffff3fypx9//BHXXnutY680adLEv1cIEYgEvRAFjISEBEyYMMH5WHKk/HvuuQd33nknypUr5w8hhCgoqKBPCJFb4XR3n376qTOvfeXKlZ386frrr3daGAkh/kGCXogCzNKlS53mt19//bXTn40fy0suucS/VwhRUHAX9MXExDhzRqugTwiRG0hOTsakSZOc/OmPP/5w5rNnHnXOOef4QwhRsMnQoHjx237Fp8/ejCub1UaFEpEIKxSGwiUrok6zK9H/mf9hdky8P2RaeLHp/Y4oFuKBxxOJriP2+/2FEDkNm7D973//c0bBbtq0Kfr3749mzZo508qwP5sQomDAGq++ffti7ty5zlzRzBPq1avn5Am//fabP5QQQuQ8bDHE+eunTp3qdBM6fvy4Y79cc801+OWXX/yhhCi4pLOG3ofdU59Etz7vYNFBr9kKTkhUcwwY+yPe7FQeHr9fIHEr30PPdo9i2l6v2YpAl+HbMenW0ik7hRBnFWYH06ZNc0rBOfLsLbfc4gxMU7t2bX8IIURB4eDBgxg+fLjTiqdEiRJOCx6Okl+4cGF/CCGEODtQ1I8aNcqxV+Li4pxxQDj9HfMqIQoa6aqh9+0cjfv7v4OFaYh54j24EO/cdCdG/k2xHkgitk0fhB6XP4afHTEvhMhteDweZ/7677//HgsXLkShQoWc6e+6dOniNHfj1DJCiIJBVFQUBgwYgLVr1+K1117Dd999h2rVquGJJ57Ahg0b/KGEECLnKVKkiDM177Jly5x+9mxJxHns2RR/xYoV/lBCFAzSIei9+HvCJ/jRL8JDSrfCIyN/xbq9x5GYFI9Dfy/GhOc6oLz/TN59U/CfESuRnLJp8OLQ6h8x5LaWaNRpIH7ekZRmoYAQInfAD+Mbb7yBLVu2oE+fPhg0aBDq1q2LN998E/v27fOHEkLkd1TQJ4TIzVx66aUYPXo0Vq1ahapVqzp5U9u2bTFu3DgkJib6QwmRf0lHk/tEzBlQD+3f3WREugfFe4/HjrHX4aRZa70x+PDKc/HA9Fgj1j2I7D4SO77vjyjuS1qM5y68BK+tTHKChpSsjVqRm7F+FyW/mtwLkZdYtGiR07yNfWx79uzpNMG96KKL/HuFEAWF+Ph4x1hmfsCRqNk15/bbb0eZMmX8IYQQ4uyQlJTkFEAyf6LIZ00+Z/ThSPlC5EfSUUMfgvKVyvsD+nB04tO46eVx+D3m+D817SFVcd8vx+H1+eDzeRFrxfxJhKBEo1vxv5nf4P66mg5HiLwIxTv71K5btw4NGjTADTfcgIsvvhiff/65Y+BnhCVLlvjXhBB5jYiICNx8883OfNFfffUVVq5c6bTgue2225yCv4zA6TN37drl3xJCiDODrYg4f/306dMdt3//fjRs2NCZ8m7WrFn+UOnj8OHDWL9+vX9LiNxJOgR9KGpfeyNaFU0Z5s4XtwETB/ZBy+rlUOXCK9D30dfw6aQl2BGbWkV/KEqe2wkPfTATKxcOx+0XFk91wDwhRN6AtXBPPvmk85F78cUXMXbsWKdv7f/93/85TfRPx4EDB9CmTRs89dRTzkB8Qoi8y5kW9L333nvOdJksFBBCiKykfv36Th5D26Rjx4548MEHccEFFziDfR49etQfKnWYj7Vs2RLz5s3z+wiR+0jnKPcJWPNJb1x+/0TEJAYL7kGhqHq48ranMOj5W9CsdBrlBN5NeLfdeRgwJ8FsqMm9EPkFDpL14YcfYuTIkc7Hj83xr7zySqf/bSBDhgxxBtYiLDHnBzMyMtLZFkLkbdin/qeffnKau7K2nrX2bJLPcTkC4fz37PPKZvschO/rr792jG4hhMguoqOjnfyJtfecuYP2CoV/MM4//3ynsJE2Cu0bFlgKkdtIRw09CUe9O8dj4fT3cF/HWigeEmig+5B0cDUmv3MHWl9yByb8/c+QeEKIggGntnvrrbewdetWXH311Xj22WedeazfeecdZ/orC419loxbxo8fj8svv1wD7QmRTwgJCUHXrl0xefJkZ/rL5ORkNG/eHN27d8eUKVNOapUzYcIER8wT5hNXXXUVRowY4WwLIUR20K5dO6erEEfDL1u2LC677DKnIJEFiux/b+Gc97blEKfG4wDBHCxYiNxGOmvo3XhxbOsi/DJlGqbPmIEZM+dj5Z4484H270YIylz7Of6ccBMqBmtbrxp6IQoMnEaGpeAcCfu6665zSsFjYmIcwz6Qc8891xEAmvNeiPxHbGwsxowZ4+QH7JPKGnvW3Pfo0QNz5szxh/qH559/HoMHD/ZvCSFE9sGR8L/99lsnf9q4cSPuvvtuZyA9TtvJLoWB3HnnnU6LRPbVFyI3kAlBH4D3GLbMHYt/P/EkPlpwwMh9c9LCnfHJ5km4vXwQRS9BL0SBgzVwn3zyCT766COnzxoHqAlGuXLlnJFp2Z9WCJE/sQV9fNcp7lOjb9+++Oyzz5wB+IQQIidgrT1bEbIAkvYKWxgFg10K2cKwRIkSfh8hzh6nFfS+7R/i8pr3Ywb1d6Hz8Mz8FXjtolNLpJL+eAlNLxqEFWypYsL937wVeL15kJKrDAh69lXhC8WSfZFzVK9eHY8//jguvPBCv48QZw4Hwrv11lsdIz4tChcujFGjRjml5OyHqzlkcxYOasYBD2vVquX3ESLr4ZzRb775JpYtW+b3CQ4Hzxw6dKhTGLh69Wq/rxD/wCbTDz30ENq3b+/3EeLMmDp1KgYNGnTagfA4cj61Ch3zsjOtIxUiLTjODFu3sWvaKVDQp0nib76nzi3EFGpcqK/a7T/49nn9+1wc+vF2X5UQZyY7H8Ia+watSPLvCSB5o++d1uH+80X4ugzf599xMitXrvR5PB5/OLmcdhUrVvQlJaXyDIXIBLt37w6a1oI5vftn17Vo0cL/1ITIHl566aWgaS+YK1asWFB/OTnrwsPDfXv37vWnLiHOjBEjRgRNZ8FckSJFgvrLyWWHo328adMmf0r9h9MPileoKW64vh7CnNbzydg64lZ0ffhTzF63D3HJyYg/sBm/j30W1971Obazvb0htGJLtKpzZnPN//zzzyrpOovs3LkTJsH4t4Q4c44dO+ZfOz16988uCxYsSLWZoRBZwelq5t2kZ2opUbDhbAmcUUGIrGD58uX+tdNz/Phx/5oQ2Q/tY3ZbCyRdfeh9e77Dbc164fO/k53igTTxlET7dxfgl4fPRVBJn84m92xi9+ijj/q3UggPD/evieyAH0Q3a9euRd26df1bQpwZbF7Leeczi97/7CXw/WdXBw34I7KLypUrY8eOHf6tjKG8QJDAPItdtII2RRUigzRu3Bh//PGHfytjKH8SWU1gXscua5xu8SQo6NPDkcXv+DpXCfN5zCE8LKgLKelr+tD3vpi0Wmqns8n9u+++e9K5J02a5N8jsosHHnjgpHtuBL1/jxBnzqBBg05KXxlxDRs2dJrsi+yjS5cuJ91zI+j9e4TIWtg0ulmzZielt4y4119/3X8mUZB5++23T0oXRtD79wiReeLj430dOnQ4KW1lxD3yyCO+5ORk/9mEOHOGDx9+Uhozgt6/5x8yNMq998ByfP3Rh/jyh1lYtGozdh9OgCeiBMqeUxcXtrwS1995H25qXQVpjkebyRp6TntlDE7/lsgOHnzwQWfkYQtLKDlAmRBZAWt8M9skMiwszBmkjXNY16hRw+8rshI7b7iFz4vzgnNaMSGyGk5f+ffff/u3Mkbx4sWdaTCNkeP3EQWRd955B4899ph/CzjvvPNQqlQp/5YQmYcz86xfv96/lTGKFi3qDNA4ceJEhIaeWfdjIciIESOcaV4twWroz3zaumxCgj7nCRT0nHvznHPO8W8JcWZwlPtu3br5tzLGv/71L9x7772aHiYbCSbovV6v+qWKbOHzzz/HsGHD/Fvpp1KlSpgwYQJatmwJjyfI1LiiwBAo6IcMGaIpT0WWwMqDwYMH+7fST7FixfDdd985gl5iXmQVEvQiQwQKevWhF1kJS7zLly/v30qdIkWKOP1r3aXjK1euRP369f1bIjsIJujVh15kF6+//jqeffZZ/1bq1KxZ06nNZ3okrVq1wty5c511UbAJFPTqQy+yii+++AI333yzfyt1WMDIqbXZmo1Uq1YNW7ZscdaFyCrSI+hPP8q9EEJkMyzV7tOnj1PzRuFPcSmEKJiwIPmZZ57B4sWLsXHjRg0yJYTINbDl6iOPPIJff/0V27ZtQ4UKFfx7hDh7SNALIc4KJUuWRL9+/ZzmaRTxY8aMcfrFsoZeCFGwYAucF154wRlZmq3DXnvtNTRt2tS/Vwghzh4cu+fxxx/H/PnznRr4d999F61bt1a3H5FrkKAXQuQYHLDo1ltvxY8//ojdu3c7zdp69uyJyMhIfwghREGAhvAFF1yAgQMH4q+//nK61QwaNAiNGjXyhxBCiLNHnTp18PTTT2PhwoXYtGkT3nrrLWeMBol4kRuRoBdC5AhlypTBrl27nJGp2aRezWiFKLhwjJwVK1bgpZdeQoMGDfy+IlXiN2PakHvRpVlNlC0WgYiipXFOw47o98IoLN3v9QcSQmQFN9xwA9atW4c33ngDF110kd9XnCnxm6dhyL1d0KxmWRSLiEDR0uegYcd+eGHUUigbOzMk6IUQOUJISIgz/ZwQQqhVTgY4uhBvdLoInZ8chp+WbMa+YwlIOH4AMX/OxKhX+qNVi374fH3KoIFCiDMnwohNkbUcXfgGOl3UGU8O+wlLNu/DsYQEHD8Qgz9njsIr/VuhRb/PoWws80jQCyGEEELkSmIx7+Vb8OLsfUDplnhk5DxsPhiH+CMxWDTuWVxeORTxG8bi/tvew5pk/yFCCJGbiJ2Hl295ESnZ2CMYOW8zDsbF40jMIox79nJUDo3HhrH347b31kDZWOaQoBe5Cu+2zzG2XBjeHTAncy/10VX464U++KROObwaURivV26AEbe+ilVrj/kDBCER6DENqL8GSPJ7nYLZMX4d0CoaKDoViJoJdFgOfJfGaVPDZ35vzFqgza9ACXOu4tOBFkuAD0xGF+8PI0SBRM2KhTiZw1Px3xFrkBhyDm4Z8SPeubklqpeMQHixKmh2w6v4/vtn0SQCOPbbSIz5M9UvmMgS4rF52hDc26UZapYthoiIoih9TkN07PcCRi3dD+VQQgTn8NT/YsSaRISccwtG/PgObm5ZHSUjwlGsSjPc8Or3+P7ZJojAMfw2cgyUjWUOCfp0cRSrxr+APq3qoFzRCBSOqowGHW7Fq9+tNckv4xxdNR4v9GmFOuWKIqJwFCo36IBbX/0OaWnOAsGxpZjffwDW7PX5PTLI0d8R3akVJrwyDjEb9iIxIQ7xO1Zh88jn8dXFnTB7wVF/wBT2HALmHAe8oUBZ48oZo8hjvshL9wBr3V9mk7kMXgT02QDMjwWOm+gdMsp71nbguvnAqynTj6YLnznu4d+Bmzaa3zbP+4g511Ej8BfuBh5aCHTdZM7vDytylmx7L73b8Pk15RBWcwDmpNGcLG7TVLx9X1dcVKscikVGoEipKji/Qz+8NO5PHMrkK5GnULNiIU4hcflszDvgRWjNG3BXp9IIHI6rcOPeuO6CQkByDLbEqG4r+ziKhW90wkWdn8Swn5Zg875jSEg4jgMxf2LmqFfQv1UL9Pt8PesHhBAnkYjls+fhgDG2a95wFzqVPiUXQ+Pe1yElG9sCZWOZQ4L+tBzF74M7oVWfVzBu/gbsPZ6AuEM7sGrWSDx/3cXo9OoCEyL9HP19MDq16oNXxs3Hhr3HkRB3CDtWzcLI56/DxZ1eRYDmLDB4983F7Ks745dZ+5E57RKLrS/fhuj5h+Cp3hNXTFuHp48fw5MrvkHbjhWMAp+H6Hvewo4Ef3DzI6NXA21nA3WMkF5mvHbuAprMBJotBl7bmxKMzFtvBL0R7aGRwL8vAvZfAey+FHi+NOAxYn/QX8DS9BTNm9/8cS3wX/OMy0QBn18CHLzSCPgOwLe1gfImyAyz/50jKcFFzpF97+UxLB3SHwO+35tGuvbhyO+v4MqLuuCJjyZj8aa9OBafgNiD27Fy1igMuvEStH7gB+zI19U/alYsRDDCWr+NjUk+JK17Cy2DDUGSsAPb9pjMIbQiqlQK9XuKrCZ23su45cXZ2IfSaPnISMzbfBBx8UcQs2gcnr28MkLjN2Ds/bfhPWVQQgQQhtZvb0SSLwnr3mpptk4lYcc2pGRjVaBsLHNI0J8GZuK3DZ6PQ6HV0fPf07Bu/3Ec270C3zzfERU8hzBv0D14a6lViaeBfUhuG4z5h0JRvee/MW3dfhw/thsrvnkeHSt4jOYchHveWop0ni2fEIsDkwdhzEWXY8b0PUY0Z26gJN++ifjt0zXwhtZBiy9G49Ir6qBw4SIoesE16PjtKFxUKwTJyz/Eb1P9yswD3N4I+OEC4BqTefyVCGwwuxpWBT5pagR9mZRgPvMw3okBEk34B0z4J8sCpVibX9yIfBPu3sImIzICfKirACA12NT+s51maY5/swnQ34j6kuYNLBwBXF3H/E4FEy2j+sbvSqPpv8h6suu99O7D3NeuRudnZqU9emvsbxh828uYcyAUVTu/hK8Xx+BwfDyObFuM8c9ehkohx/HnsDvwyFe7M1nYlQdQs2IhMo5vP2a++CRG/O1F4Sb90KdRIf8OkbUcxtT/jsCaxBCcc8sI/PjOzWhZvSQiwouhSrMb8Or33+PZlAwKI8f8qe+3EBnAt38mXnxyBP72FkaTfn2gbCxzSNCnhW8fJr7zqcnEQ1HngS8w+skrUKdUYRQpdwGuGfwtRt1bCyEJy/Hh0KnpqKX3Yd/Ed/DpmkSE1nkAX4x+ElfUKYXCRcrhgmsG49tR96JWSAKWfzgUVnPmf5Kx791O+G+3l7BuayQq3jUc1z/TBJkpnEv49UdsOuhFSKOb0bRVEb+vnxLt0fzWRgjx7sX6iXNONIkrbsR4l/Lm2FigmBHo1c1XeJf5Jvc1fpX9kTh2AJhh/MPM/jtLpfidwGQ691Vh2SMwxYhwc5o08YQD315hdJ5xt5rfOQkPcL75Db6Qe+NNmBRfke1kz3sZu2kyBvW4CJc/Px17wiIRGdjCzMXxmf/D52uSENrgMYz/eiCubVoFxcPDUaxyU/R69TuMfehcFDJp98fhE7Ernyp6NSsWIoN4d2HaU1fhmreXIq5Uewz+ZIDTZFVkA4nLMXveAXhDa+KGuzrh1BbDjdH7uguMSZCMmC0xGtRLiHTi3TUNT111Dd5eGodS7QfjkwF8j0RmkKBPi2O/4scZB+ENa4Sb72yFk2ViCbS/71Y0CvNi75SJmHM6NYdj+PXHGTjoDUOjm+/EqZrzPtzaKAzevVMw8fQnyyf4kHjoOCKa3oxOP6/AncP6oVzAfUkfSTiwdDnifSEoenFLlD6lRCAUpS9ujiIhXsQuWYT99mtrxNHnfwIfHgcGNATerAjMWgM8udfZ5bDhMMvmgXIlgbpBRFndKICV+ftNoA1nIrbMsb8dYBEH0MAIe2VoOUXWv5fJ695Fp4bd8NLkrYhsfBeGj38GTVKdrS8Ja39bhH3eUNTofDWaFvZ7n6AYWl7XGVVDfUjYuBab82nVj5oVC5EBfHswdcAVuGbIQhwp2QrPf/c1HmukaQCzjbDWeHtjEnxJ6/BW8AwKO7btgdfYGhWrVMpUpYQQBQ3fnqkYcMU1GLLwCEq2eh7fff0YlI1lHgn6NEjasBTLD/sQUu5itKx7ahYdWvdiNC8TAu/+JVi04TRlskkbsHT5YfhCyuHilnVPzfBD6+Li5mUQ4t2PJYs2FJAS3kIo89BUPLxwJFp2rHoGItaLw1u3OR/TkjWrBU3UIVWro7i56b5tW3HEdXMvLAt0qgE8XAK45lygr1HnHYyos9o9Ji5FZFczQivYR5r96quYwMnxwPZMCHqvOfmWQ8DrfwCP7wMiiwHPV9aLmWNkw3vpiz2E4yWa4uYhP2PFb8PQr35apVSF0HjQciSyb9mblwTtW+Y9fhxxJm2FFCuOogUxYahZsRAufNg94WHc+v4KxJVqi0E/TcbANqVOadUicgof9s98EU+O+Bvewk3Qr08jFcgLcTp8uzHh4Vvx/oo4lGo7CD9NHog2pZSLnQnSDWngjdmKbcaCD61WE9WCqrmqqF7F7Ejehq3bT2Pqe2OwNeVkqBn8ZKhavYr5m4xtW7cXEEEPhJUug/AzfocTEHeQY8OHICKqRHDDplgJRJgdviOHEG/bs5vtxtWASfXY3sIcbUT75xcB17r016FEfq7NfqO0gr0sHvMoi5ul0WM4nEFBn3gAqPcLUGM+8OxOc34TiW+aA21lDeQc2fBeFqr7EKauX4iRAzqiarjfM7P4DuLnsZOwxxuKSpe2wbnBopifUbNiIU7GuwVj3v8Wu1Aa3d4eg2cuLikxf9bwYte0p3DVNW9jaVwptB/8CQYogxLitHi3jMH73+4CSnfD22OewcUllYudKRL0aZBw6KAzRVlIiSiUCKrmiqFEcUcl4tDh0/R6TjiEgyknQ1TwkxnNWdz89eHIocPqQ50hEuFNopr2IDQiIqhx4wmPQCh3GOXNWvH0kugX6eHmkQU9r/GnZmMwJwoZICnByMUiQNNiQJQ5+eHDwC1LgW81b13OkR3vZeHSKFMkWGrJKD7sm/YsHv9yO7xFW+LhB9sicOiFfI2aFQtxKokrsPgP8/GIaI3re1aWEXfW8GHP1AG44pohWHikJFo9/x2+fqwRlEMJcXoSVyxGSjZ2PXpWVi6WFegupkFiYpIj1CgGWbt7Cp5wRLB62edDUtJpVGJiYorg4zHBT4bwiHBHOPiSkgpMDX3WEIaQQrynPiQnJDjPLBBfQjySuSMkDKEZKEAP8z+qRKPkgp7X+HP0cwYLy+DbVLgCsLoNsLg1sLMt8GJpYO9B4KZlwHKV6OQMufi9PLro37j+pmFYm1wKHV8bhofOK0jV82pWLERQ4g7hULwPnhIVUD6t3jwiW/HtnoCHb30fK+JKoe2gnzB5YBuoxbAQ6SPu0CHE+zwoUaF8wPhkIrNI0KdBWFghx4D0JSYgIbhKRDx3eEKcsGkSFoYUzZmIhOAnQ0I8xajHaE4T1u8r0kM4IqOKOKIr4fAR8zcIRw+bzMM8qhJRwQtnUiHK39T+SBKf0Kn4jMLjtPEe88BKpnhliojCwMALgR7mPLGHgU+NsBc5QK58L304MP9V9Oj8LGbuL4qLHh+PsQ81cFqCFBjUrFiI4JTsh4mxPiTv/BhXFqhMITfhxZYx7yOlxfDbGPPMxVCLYSHST8l+ExFrDOidH19ZsGybbESCPg3Co6JQxNwh35HDOBLU1j+Kw9zhKYGo0+Xm4VGISjlZyjGn4DOak2LUgxJRMl4zRghKVK9q7lkyDm+OMffwVLwxW5zB8DxVqqFEBio6q0amvCQxsSmD4wWSHAdsMz9oB8c7Ezit3eXszG9YcyxlKbKZXPdeJuHv7x/BZZ1eMGK+FFq/8COm/Ksjyha0DEHNioUQuZZErFj8BxIQgdbX94RaDAshzjbKhtKAI6NXNXcoOWYzgk59zDmRnQG1qqAaB8dLi5CqqJ5yMmwOfjLEbNlm/oaiSjUOwiXSTyGUbtIIEZ5kHFm4AAdPub3J2Pf7Qhz3hiCyUWNEZeDm1jECmxp7xyFgcxC9t/YgsM8so4oDNU4juuL3AOWnGA05H1gXTDsa9vsnyY9UAsgZctV7eRR//Pd6YyC+j2UJNdDrw5mY8nJblCmIpXtqVixEUJJXDEKTcA884c3w6spgeZbIfuJw6FA8fJ4SqKAMSogMkowVg5og3ONBeLNXoWwsa5CgT4NCdZqgUQkPkncsxILNp6a45LW/Y+E+L0KiGqFxjdOY+oXqoEmjEvAk78DCBZtNcg4geS1+X7gP3pAoNGpcQ4I+g4S17owaJT3wLh6ORb8FVG8fjsaikcvNvS2N2t0uDTo1WGoULgW0LwQkHQaGBTaDTwI+2s6yeuCKciZsim+qhJcEWpoHy3N9HKRJ/YF9wBdHAZPHoZW/pl5kM7nlvfQdwm+vdsNlD32HmCIt8Ph3czD27oYo6t9d4FCzYiFErqUk+k2MhS95Jz5WBiWEyAVI0KdF4dbo3L4kPEmLMXzYbzhZJh5G9EcjsTwxBKWv6IZLT6fmjNxr3bk9SnqSsHj4MJyqOT/CyOWJCCl9Bbqd/mQiAE+ZnmjRvxZCklbj9969ED1pNY7HxeLYyomYce1NWLTBi9AGd+HiLhnr6c5m8A9WBkJ9wNBlwCu7gf1G9e01wvvFJUbQHzdCvRjwiBH0p4PnerRKyrneNed6eRewy5wrPhGI/hu4yvix5r5yReC2Aqvkcprc8F7GY+UHN6DHi7NxsEJnDJn+M/59VWUV6gkhTiG04YtYmuCDL2ExnmugXEIIkdcIRcMXlyLB50PC4uegbCxrkKBPC08Z9HywP2qFJmH10N7o9cokrN4fh9i9KzHxxWtx00cb4A1vgLse6ZKOAdE8KNPzQfSvFYqk1UPRu9crmLR6P+Ji92LlxBdx7U0fYYM3HA3uegQZ1JwFi8RoTK5eCAM9kfjy0z2u/vJFUePlT9GqWTF4t03BzG718e/CRfDm+Vdj9vSdQNSlaPfZc06f+IzSvi7wZAkgOR54wYj4Mj8D5eYAg/cDvkLASw2BFgEZUvRKoNAUIHIRsMfVvL7DucArpc1x5lwDlwIVzbkip5vf+AtYkARUMPvGNzDnL4jNrM8KZ/+9TFj2b9zy1M/YG9EYT00Yh0ebcpq8go2aFQshci3JKzCoSTg8nnA0e3XlqS27hBAih5GgPw1F27+MT59shmLJ2zDlhW6oX6YwipQ7H1cPno6dvihc+tJneK6FWyUmIvrh6ijk8SCy86cniTlzMrz86ZNoViwZ26a8gG71y6BwkXI4/+rBmL7TZzTnS/jsuRaaxzSTeEq1w2XT5+G6525A1dplERYehkJla+Oc3i+g17wpaNs8c9XenjDg1RbA6FpAy8LmMRq1Vdj4taoIjLsEeDYjQq8Q8PRFwOR6wJWcf968gRGhQN0o4DEj5JeafS0z0idAnDmZeS8To/Fw9ULGoItE55MKljKI7wAmvjEUS2J98MUuxeuXljDnNEI2iCtU7SHM8o+xIIQQQgghBJGgPx2eUmj36nTMG/0cbmhZG2WLhiOscFnUbtUbL4ybhynPNs9AP1cPSrV7FdPnjcZzN7RE7bJFER5WGGVrt0LvF8Zh3pRnkUnNmU8IQenH5+EFXxIefad18CbHYe3QZUsSBvri0O+OcqfUZHpKXICGr4zDnev34Ln4BDy/Zz3uGDsI5593ZjeW09L1OReY1w442gk4fhkwtzHQy4jyYLQz4jzpKiDOCPRTatvNW3dlTWBqa+DAlSbMFcDaS4Ah1YBKeiPPAmfxvUxcgpm/HoDXvylSULNiIUSuJbQhXlyaAJ8vAYufa6DuUUKIs47kQ3rwlMAFfV7BuHnrsedoPBKO78H6uWMxqNd5QcR8GNr9ZwuSfD7E/XRHkKbTHpS4oA9eGTcP6/ccRXzCcexZPxdjB/XCGWpOIUSmyeB7GdYO/9mSZAy6OPwUpGDJTUjtxzEv3oekTe+gdWDri/DL8N9tyeY8RryexiVtfQ/t1XpDCCGEEEK4kKAXQgghhBBCCCHyIBL0QgghhBBCCCFEHsTjY1vOXMjQoUPx6KOP+reASZMmoUuXLv4tkR08+OCD+OCDD/xbwNq1a1G3bl3/lhA5B9995gGWlStXon79+v4tkR107doVkydP9m8BiYmJKFSokH9LiLNHsWLFcOxYypySlSpVwty5c511UbB555138N577/m3gJ9++glXXXWVf0uInOG8887DmjVr/FvAxo0b/WtCZA0jRozAoEGD/FvA6NGjceONN/q3UpCgFyeQoBe5BQn6nEeCXuRW3IJeiNSQoBdng0BBL0R2E0zQq8m9EEIIIXItKlgS6SEsTKOGipxH+ZPIaYLldRL0QgghhMi1XHnllf41IYJTsWJFtG7d2r8lRM6h/EnkJCVKlAia5tTkXpxATe5FbkFN7nMeNbkXuZXY2FiMHDkSS5cu9fsI8Q+lSpVCv379cMEFF/h9hMg5kpKSMHbsWMyZM8eZYlaI7KJ48eJOU/tmzZr5ff5Bgl6cQIJe5BYk6HMeCXohhBBCiLyHmtwLIYQQQgghhBB5EAl6IYQQQgghhBAiD5JnmtyTVq1a+ddEdjBv3jz/Wgpqci/OFoFN7gnnnxbZx44dO/xrKajJvRBCCCFE7idPCXqRs0jQi7PFgAED8O677/q3xNmAA/2Ehob6t4QQQgghRG4k1za5r1evnn9NnA3Kli2LqlWr+reEyFmaNm3qXxNng0svvVRiXgghhBAiD5Bra+iTk5Px3HPP4bPPPsOxY8f8viInYNPmQYMGoW/fvn4fIXKW+Ph4p5UOp4JJSEjw+4qcoHbt2hg4cCCaNGni9xFCCCGEELkWCnohzgbJMSN9V5ct5Kvx6K++BL9f6iT7YkZe7StbqIbv0V9TD/35Ip+v0Gyfb0Gy38NitgfO8fkwxef7v4N+v0wSE+PzlTXneXS/3yM1vD7fd3/4fBEmPnOT/H6BmHg9NsvE6ycT7199vmWB8Xbhjff5+kz3+Zqs9fmO+f2EyD2k7x39h1zyTpv3dORi8xvmPfw1jffPIYvfaZ7vq6U+XxFzHb+ndj4hRN4hOcY38uqyvkI1HvWlLxtMR3jj332qz3feap8v0e9lSTzs811o8sCgeWRGyEA+SFvklpk+X30Tn+N+v2+X+Xwek+cx33M7+kVM8/lqz/X57ljv860OvADD7h0+X0Vzfc8f8HsIITKMRrkXZ4djSzGk/wB8vzd9DUSOLR2C/gO+R7DgvgTg5wPAEbOvbDgQalx5D7DzMBCdxY07jplz9l+NoPEIZO9u4MEdwLV1gZaptF6O3Q+Mj01ZTzoKDD+Ysh4Mj7muQbWAtZuA19IIJ8TZIK13NBi55Z1eat6nAeZdTU+0s/qdhrkmnqvZceDuDeZYv7cQIi9yDEuH9MeA7/emKz85Xfg9h4A5Jm/wmrymrHHlIkyW4TV51h5jB5hlVpLufNAE+N7YQKPM7w+qCRT2e6cGzxefDGwwefen64AWC4H5SSn7LOUqAE+XBN76C1hgwgohMo4EvchxvPvm4rWrO+OZWftx+m+SF/vmvoarOz+DWfuDh968Hej+O1B5NvCO+Wj44oH75gLV5gG9jZGcVewzAuPqRcCsRL9HWpgP1itrjAAoAbxQ3rHbg/KLifs2s2xVCggzy3ExRsQ4e4JTtypwm/mov2s+qKuy+IMuROY4/Tt6MrnknTaW5lxzrs5rAaPBT082vdOhRYGXqwB/bQE+OOr3FELkLbz7MPe1q9H5mVlIXzZ4mvAmfxptvvNtTR5Yx4jgZcZr5y6gyUyg2WLgtb0pwc6YDOaDR40d9NQOE4caxh4K93u6qF8LSLzKnNbvvFcChzsAvzcGLjPhDx8C7tlkwvjDO5jM9K46Jr83+d9jW52sVgiRQSToRQ4Si02TB6HHRZfj+el7EBYZmapR7BC7CZMH9cBFlz+P6XvCEBkZPHQ1I3J/bQq8VAHYYD4ICceBPcWN8X0BMPlcf6AzIdmcZz1wkfmoTk8AItPx1mwwRvz/TDx6mI/eeamEZy3kFywRN/v71gbON5e3y2xPTKvLeCHgkWrmg3cQeDWdtYpCZBvpfEdPkEve6VhzvkFLgMvXmfOa9y/S758W2fZOG9pVBy42Rv1bxrDer5daiDxF7KbJGNTjIlz+/HTsCYvE6bPBdIQ3frc3An4wed41ocBfRgEzL2xo8sZPTN74Whl/uDMgw/mgyZtYy77e2CGPmXikZ1JTjzlv8QigRUVglMm7TTaOVTuBpQGFGEVLAw+UBOYbsf/9afJLIcSppGKWCHEakvdh8Zcv4ZYrm6BG2aIILxSGwlFV0KD9TXhhzAocPsUoTca6dzuhYbeXMHlrJBrfNRzjn2ni1GAFJXkd3u3UEN1emoytkY1x1/DxeKZJ8NCh5qvSvBzQyHwgdpj1JoWBTfFA50pA02BfKBO3FduAq+aYj8s0oPxs4Ma1wB/Bat5N2HcXAd2MoN9q3pa7GgLPlPDvS41k4D9bgDjzEbvVxCu1b/tuY+hPSQLCzPmuMh+za4qZnzPbn+1gHWbq1DLX1d584L/eDKyT8S+yioy+0xl4Rx1yyTudfAzoNBd4aY8xYI11ObyxOf9pDPDsfqdDigC3GAN99y4T1hjZQoizQ/K+xfjypVtwZZMaKFs0HIXCCiOqSgO0v+kFjFlx+JRC9OR176JTw254afJWRDa+C8PHP4O0s8H0hy9u8r0u5YGEWKCYyauqm7xkl8mD+hq/ykG6/PhMPvX5KuCCGUDhn4FzfwOe2w4cDGInZCYfjDsADDWugvn9rkFq509HGZMvVje/kWzycvOzJ2P8+1Qx8TZi/i2Tl6vlvRAZQ4JeZJzkTfiibzO0unkQPv95GbbsO47E5CTEHdqOVdGj8cpNrdHlzeU4uZDVh9hDx1Gi6c0Y8vMK/DasH+obIzZVfLE4dLwEmt48BD+v+A3D+tVHWsG3mI/WLVuBBtWBSfWA8P3ADWuC1HbR8DdCuN0KYOpR4KixsvcYA3rsRqDV78C0wJJhE/6Q+bI0rQz83BoYZpZpxYMc3mvOZz7A5coa4Z1aEbY579cmziYKaGo+jjXMm9jbiBV+I+eYj9mqIB9gS4j5oF8bBcQfAkYc9nsKcSZk5p3O4DuaW95pn9l/3LyXN59njmsJ9DOi+3Rk9ztNY7ZbBSDCxO0zE9bY7UKIHCZ50xfo26wVbh70OX5etgX7jiciOSkOh7avQvToV3BT6y54c3mAZRN7CMdLNMXNQ37Git+GoV+ahk0Gw5s84/M/gQ9NfjagIfBmRWCWyQOfNPnRKdmgsVPeWQzctgX4y0QxzmyvOwi8thxoG2Tcn8zkg1NjTL5slp1NPIqmeGWIgyZzjDHxCDMH1w1SeFCpHHCpyTcXmt8JrMEXQqSNBL3IID7s+epJDJiwFcmVrsLg7//AtsPxSEqKxYGtS/DdoKtQOeQw5r89FNNPqmkqhLoPTcX6hSMxoGNVx8hNk0J18dDU9Vg4cgA6Vj19UXCp4sDlxth+s4b5KBjD+DUjvFlDVjTIR2PSTqCMCTOtDRB7BbC8CdDR/ESs+djcs84Y7/5wDuYNeegi84FpZMKkp12uIXqX+XiaZWsTn9QGjEk29+bLA2bFnP8WY/SzsL2uWbY124lHjFA/zUBa7cuYW2Q+jBPNb8n4F2dGJt/pDL6jueWdLmTs56ltgZHmvFXT+QXM9nfaUN5cWyNzbevMby2XMStEzuLbg6+eHIAJW5NR6arB+P6PbTgcn4Sk2APYuuQ7DLqqMkIOz8fbQ6fj5GzwIUxdvxAjB3RE+rLBjIW/0OQ5nUxe9XAJ4Jpzgb7m29/B5GGB2WByHDDuEHBtPWDtZcCxDsA3tQGjvbHCqPAX9qWEs2Q4HzSGxjd7zG0yGdsVUX6/9GDslNgEY0PtAPqsBkwU0bM6UCdIPu6JAC4z+X6SucHfpTXwiBDiFNJpzgjhx7cPP42Zgv2IQo9/f47nujdC5eLhCA2NRNQ5TdDz/55H7+qh8O5fiT+3ndxoqnDpMigSJBMPTmGULlMk1aatgZQwH7svjPDuwNozc9CtRoC/Y75k5vtwCiWM4TzpQvNRKgpEmo9TQyMEJjYGzjXHsVbw23h/QD+lzUc33dE2hvhMY9R7zQEXmzilxkrzcVtkPnQlzce6l7+gIMQsb2NzXuM/ZhvHv02dmiUBE22sN7/FEm8hMk2m3+mMvaO55p02+8tQbaeXHHqnQwsDzU1eQ2N2tjHOhRA5h2/fTxgzZT8Q1QP//vw5dG9UGcXDQxEaGYVzmvTE/z3fG9VDvdi/8k+cnA2WRpn0GzYZC2+CNa6W0kKJWU+IySM+N3nitalU6ncw4UbXBOqGAUVMRnlNXSPyjXhmFjraiPrdblshg/kgCyXnJJpzFQOapdZKybBqIxA2xUTduqkmLjOAFn8AM5KMmD8P+LhSKuLDXG9zY9uEmHjOZp7r9xZCnB4JepExPGVx8/dH4U3ej29uKgfvsV1YvyQaP475CG88fQd6tOqDYZuZDcciNpcapdfUMIZ+QMovVsoIhuLmo24+1FNZy5ZJOCjWcnPdHvOhrJdajb65PaON8c/uvT2qAGXtt90su5ttCvUdu4AfA5oKu+HI2Gyyxo/snxL04kzQO50mOfVOM2x9tmM17/MyttsXQuQYnrI34/ujXiTv/wY3lfPi2K71WBL9I8Z89AaevqMHWvUZhpRsMBa5MRsMCQcerZoys4abS89J6Rt/xOSBc06uY8kQe4ytsc0sixYBzrH5W0Yxedvfh0z+lkY+WNfkgSwv+PNwSn4qhEgfEvQiEyRh5+yhuKt9LZSKqoS6zdqje9/78My/P8MPi2Jw3GtybZ/5MHKZ2zAfoouMkX8Kxv9C488XYoO7PV0G4WAvMWYZGgFUTOWjF38QGHcspUbutrJ+Tz/FywC9jb/XfMk+3Zl6CXWI+WpXNJGlWNmalkgQIl3onU6NnHqnGd/K5jf4E3/n0oITIfI1STsxe+hdaF+rFKIq1UWz9t3R975n8O/PfsCimONIyQaTnWVugzXnjYPUuIcaAd7QKGTaCusDWh9mhG2xJi80ywqRKYI7NQKnrfN1AmIvA1a1AJ43eeGKHUDnBcCMVNR6WXN+tsI6ZvLAwH7/QojUkaAXGcSHvZMeRNsrB+CT6E04mhyOUjUuRJtu/fDQwA8wIXos7q+dgXZcOY2xlkuk8jUqZvxpTMenanGfHm8ScMR8hFibVywV43/m9pSBZZLNB7LDzyasu3ma2R5q/En0tjRGsed1+G/zYXWiF2eE3um0yLF32mDje0TvtBA5i28vJj3YFlcO+ATRm44iObwUalzYBt36PYSBH0xA9Nj7kZuzwRATt+Kp5E/F/fGOPYN8kHYGD7d5VLoxgSPDgPNKA4OaAE8WM/nxMeD//vbvD4DX4TRUYr6b4iWESAcS9CJjJC7CkCc+xfqEUNS4diiit+7Hvk3LMPuHL/Cfl+7HdZeUA+JycbGqidqxVJqd8YPFmBdPRRykF/uxC3oXEoEvd6VRS+ci4TAw0j2aVwD2HBn6uAoRiN7p05JT77TP/wN6p4XIWRIXDcETn65HQmgNXDs0Glv378OmZbPxwxf/wUv3X4fcng16TR54PJX4caYeYisBMsOJPPBM7oH5/WvKOwss35/iFQznJ8wPKh8UIv1I0IsM4d0SjeiNSfCFt8PT7z2ENlVPHuTKt2891u1jduxzpkXJdZiorQw2MpXxX2wMbUaZfbgyS4gRDiwlZ+ny0SAfvr17gB+NAAiNBGZeYcK5m6ZZdyXwIqeQMcePimHP5SCYfUf8H+mSZyhWRMFG73Ta5Ng7bTiaRQUQQoiM4MWW6GhsTPIhvN3TeO+hNqh60sB1Puxbvw4p2aAvXYV3OQ1n2VgbJH/ifPNLTb7CfKwe27JnkhJhKYLhqLE7gvxMujnRXSGVm5hs4srsnDX1aYxBKoQIQIJeZAhfcjKSbYbs/t45xGLJsP/h13gGSERCKn2kzjbfGIN6V8AXaf9eYPgR80KYj9ZVGZmSJQAa9dXNkv1utwd+9cz2t9tTptCqWRFolVppuXkr+1VJ6UcWsxOYHOQ+ehPM+c0HkR/pGumY+kaI1NA7nTY59U7zXDHmN/gTNQqneAkhcgIfkk0+aF/vU7PBJRj2v1+Rkg0m5MrB2jht3ce7U/KPE5iNqVtSBs6NKgO0PAOLv5rJk5i97TS/k+nrTwYm7nEWKM8CziDsNufnsEAlzO+VOeVBCCFSQ4JeZIjQ6k3RpJxJNgnReP3+oYjefBgJCUewc+UvGPZIJ3R9ZXFKszTvMRw9dtKnJdewcwfQYxWwwHw44pOAxcYg77oc2Gz2NTjH7DMCILN4zLEXmg8RazL/ChiIyxsLfLnf7DMfqd6VkOZc/LU5f7X5enIgrc92BXykDYnHgDXGM6w4cIE+euIM0DudNjn1TtPjT/Nee8y5mgYb5E8IkU2EonrTJkjJBl/H/UOjsflwAhKO7MTKX4bhkU5d8criOOed9R47ityYDdIM+OpP4OFtQAxruU1eOGo10D/GxNnsvKcGUOoMbIXSJk+qbo6PNXnUxgxeP/PObYeBN/4A3uIMHuY8t1dN2RfIGrPfRB8XlEx78D0hxMlI0IuMEdkBA57pgNKeJGz9bgDa1yyJiIgSqHT+Fbj3vYUodt27ePXaKHh8e7Fp86FTjdazDT9s1YxhvhW4eJa5nF+Ai4zh/5sxsiuXA8bUNn7+oJnCvFHtS5mFufDfzQfMff1rd5rfMR+2sGJAn9O0JQuJAG4tm/KRnm4+yIEf0HUHAXZBq18aqHQGH2kh9E6fhhx6p9k0dpGJM0erbnMGTWOFEBknssMAPNOhNDxJW/HdgPaoWTICESUq4fwr7sV7C4vhundfxbVRHvj2bsLmQ7kuF0S4sQXuKwJ8sAI4x+SBxUxe2G8LcMBkOF3rAy+cQSslUsgI+tZhRmz786nUOGUeeuNCpgFV5wHP7E6pfW9fF3gyWH7JPPZQSgGEk+f6vYUQp0fvi8gghVDvgW8wY/hj6NH0HERFhCGyZCU06NAfL3+1GEvHPoi+bRsizGTbC2bMRW6cTvniOsDU88zHqTBQ2LwBFYsCd5ntBU2AC1JrMpsB2lZMmXd63l78c/3G6B+9PeVj1rSSEeKnE+Fmf/fKQHmzGm8+cJ+7h3s1H70Z+8yH1YS51vxQFkRZFGj0Tp+ObH+nDTHmnV5p3u3zzQ81ON25hBBZS6F6eOCbGRj+WA80PScKEWGRKFmpATr0fxlfLV6KsQ/2RduGRtEmLMCMubkwFzT53MCLgHeqALVNNCPNdoMywBDj9001ky/6g2Uac75e5Uw2lgxMO+D3SyehJj8rbyJwmcknP2wB/FQrZST7QLxxwC/m1rKA9NpUmuQLIYLj8Rn860KIrMB88B6fC7ybCIxvZz5MWdxuzHsc6PArsKgU8GdzoKaMfyGyl2x+p1lIN3QBMMAI/aGtgYeK+P2FECKXEGeEfKPfgf1GmG+8MOsHrdu8GThvNdCyPjC9umochcgIel+EyGpCgftYIm6M/+E7T26imxX8tR2Yb07ay3zwakjMC5H9ZPM7nXQUGHkQqFgR6HfGVWlCCJH1REYBD5QCDuwGvon3e2YVXuCLbUBiBPBoZYkTITKK3hkhsoE6VYHbjGE+basR4OZDlWUkAR/EAGHmw/pMeacVrxAiB8i2d9oww5xzuXmZH6t1ZgNXCSFEtmHypjvqADWSgfeNHcLB67KKo/uBT44Al9QAup3BIKZCFFQk6IXIDgoBL9QDypgP1BuBU8mcARvMR/TLeOAhc+7zZPgLkXNk0zvNLjSvbTfvc3XgfvUbFULkYoqVNvlfJeCPLcD3HEAkKzCZ6WcbgJ0m/3urmtMgSgiRQSTohcgmylcA3qsITFgH/MaJV88Qn/l4vrgJqFMDeL6U31MIkWNk9TtNQ/Ybc66FRYCPawPqOi+EyNV4gF7nAb2NenjB2COxfu8zYc8u4I1DwGPnAy2l5oXIFBoUTwghhBBCCCGEyIOohl4IIYQQQgghhMiDSNALIYQQQgghhBB5EAl6IYQQQgghhBAiDyJBL4QQQgghhBBC5EEk6IUQQgghhBBCiDyIBL0QQgghhBBCCJEHkaAXQgghhBBCCCHyIBL0QgghhBBCCCFEHkSCXgghhBBCCCGEyINI0AshhBBCCCGEEHkQCXohhBBCCCGEECIPIkEvhBBCCCGEEELkQSTohRBCCCGEEEKIPIjHZ/Cv50oWLFiA3bt3+7eEEEKIU2ndujWioqL8W0IIIYQQBYNcLegPHTrkGGhdu3b1+wghhBAnM2vWLNx777146623/D5CCCGEEAWDXC3o9+3bh3PPPddZCiGEEMEYOnQoNm7c6CyFEEIIIQoS6kMvhBBCCCGEEELkQSTohRBCCCGEEEKIPIgEvRBCCCGEEEIIkQeRoBdCCCGEEEIIIfIgEvRCCCGEEEIIIUQeRIJeCCGEEEIIIYTIg0jQCyGEEEIIIYQQeRAJeiGEEEIIIYQQIg8iQS+EEEIIIYQQQuRBJOiFEEIIIYQQQog8iAS9EEIIIYQQQgiRB5GgF0IIIYQQQggh8iC5XtB7vV7/mhBCCCGEEEIIISyqoRdCCJHn2b59u39NCCGEEKLgIEEvhBBCCCGEEELkQSTohRBCCCGEEEKIPIgEvRBCCCGEEEIIkQeRoBdCCCGEEEIIIfIgEvQFCN+uEeheIgQej8e4MDR8cSmS/PuEEEIIIYQQQuQtJOgLDF5sGTcC04/6/NtJWDXyf5h13L8phBBCCCGEECJPIUFfUEhehS9HzkOc1fOG5Jhx+PiHfXB5CSGEEEIIIYTII0jQFxASFn2OL5cnGvEehsa33olLCnsA7wFM+ngctnr9gYQQQgghhBBC5Bkk6AsEsZg9YgzWJwGe8Kbo8/SreLRbKfPwfYj99X8Y+ad60gshhBBCCCFEXkOCviBwaApGfL0NyfAgvEVvXH9ueXS7sxcqhwK+xBUY/skcI/mFEEIIIYQQQuQlJOjzPT7snjgCP+z1Ap6iaNf/etQwT71o+9twY+1CZn8yto79GJMPpNWTPgGTby+LUI8HYY1fxvIkHw7+OQGv3dUVzetUQPGIcESWrIBaTTvjjoFfYOGeNGr847Zi1v+exS2dW+DcSiVROKwQwouUQuVzL8KV/Z7Ef35cjcOuqHj//gAdC3Nk/hAU6zYCe4JG8wi+vrEUQjh6f0hhXDlsR/BxAY58i5vKhJpzhaLsTd/6PV0k7sT8ES/izm4mblXKoFhkJIqXOwfnt70ejwz5AWtODCgYSDy+7Vvc+f3wi/+FNcmxWDVmADqdVw7FipZClfMuRa/Hx2BVIsMmYcHT9RDmzDRQCNUfjnbOIIQQQgghhBAZRYI+v+Pdiq9G/IwjRouGlL8W9/eumvLQw5vjzruaI5Jd6fd+j4+/2oZ0daX3HcWy969B44tuwHOfTMaiDbtxNCER8Yd3Y9PSKfjs5VvQqlFXvLP01OHzvdt/wEMtG+Kyu1/H51MWYt3Ow4hLSkZi7EHsWLcYP496C4/0uBDnd30Hi4+mHBNSpTO6NwuDx0j04/OmYrbf/yTif8fPsw+niHhfPBbMmGMk/qnEzpmE6QdZsFECHXt28PumELv6c9ze9Fy0vn0wPp1k4rZ9P47Fx+Po3his/HUC/vNETzSq3wVvzDsQvLDgBF7snng/Ot88FNPW7MWx4wexfc18TF6yD0VC/UGEEEIIIYQQIguQoM/nJK8ZhZFz44wILYRzbzFCs6R/B0JR99aH0a2USQK+45j1v8+xOtm/Kw2S13yAex7/HlviU5O1PiTt/BnP3DkEy90V9d6t+OzOW/DfZYfh9RRBzQ634qnXhuKjTz7FJx+9i1ce74tLq0bC40tAzJSncfOrvyOex4VUR5duF5rYmzMfisa0+XH0PYmkZT9j5m5bHOHDkbkzsNA52E08fps0DU5DheLt0fOyEzcCCav/i2vb3YYRfx6BN1W17kNCzBQ8e9VVGPhbsFKFFHyHf8FLj36BLUmuE3mKokP/Xqimt00IIYQQQgiRhUhi5GsSseTzL7AswQdP4Za45+7mCPfvIZ6yV+Ph/jWNtDdiddln+GT+KSr4FHzxsYgzojiyeic89dkMrNxxBPFxh7Dtj0l4u39DFPc4oRC//EuMWqxYEU4AAP/0SURBVPKPok/eMA6f/HIAXvNrde6biCXTh+NfzzyMe+64HXfc8wiee2sUfl0+GQ+eZ6S7LxFrRn2J+Qk80oTv2g0NwsyqdzdmTFtqrspNMtZNn45NzoB/EQhni4NdszHzr4Bm/4lLMGnqdmccgSJteuKK0k5EWUKB9+9+GlN3e02sKfYb4PrBYzF33e6UGvrda/HrqIG4pl5Rc6SJ2pGFeOOu17Dg1HIFh6TVMzBzWzE0u/czzNtyGHFxh7F3+3qM6lfROR4ohBb/WoNEnw8+XxK2/Ked4yuEEEIIIYQQGUWCPj8TOxsjRq9DknnMpbvdj361Ah93JFrdfy9asN198iaM/ngKDvn3pEVojf4YPX8y/nVbB9SvWAzhESVQuVEXDBgxCW9dWSJFuCZtwcpV/zR8927biu1OJboHYUWKIMyvp914SnXAf1YlGqHrQ9LW99DeX/oQWr8rutZN6e+/ZfrPJ7ck8O7AzF/+NNcYiuq9b0bHIubESesxK/rvk7oQJK2YhCmbzYGewmjdsxPK+X8/Lvo/GDrvqCPmQ6LaYPD03zDu+d5oVaccioSHo2i5umjd9yV8ba73yaZFTOx9SFj5Md75MbWm9x6UuOLf+OaD29CyWnFERBRHmYoVEOUuSRFCCCGEEEKILECCPh9zeNpITIgxIja0Ovre3xNlg4jo0Lq34KGunMLOi93ffYyvd6Ta5jwFTzguefgl9KwUJOmEVEHXHheBlemspT965J+m6aHVa6N6KCOQhNVvd0Hzbg/ilWFfI/rPHTjmVt7BKNQI3brUMJLdHL3yZ0x3TZzvOxiNnxcmwBdSCu2uvQ/tz6fwT8SymbOx/8SlJGPtT1OwlrX4EZegR+cK/tryRCz64SdsYwGBJwwXDvgATzUv7t93Mp5SbfHC4BvhXLb3AH7+IZWZATxF0K7vdThHb5YQQgghhBAim5HsyK/49mDi8O+xh9o3eRPe61AEHmdk9QAXUh59v97v1Gb7jk7Hx1+sNfI3DUKqo1XLc1JJOCEoW6mC0+ydJCX9c6aQGn3w0DUVneN83kNYNekDvHBvL7RvWAWly5+H9n0exb++mIE1BwKayjuEoVm3zqjqTLO3BNNm7DlRO3587jTMOc4uBa1wWZvzcemlVZ0uBLHzZ2C+VdzezZgyeQWSjFQPb9EDXSr7Y2/u0YoVbIZvCK2Dq7rU9xdGBKdYmyvRii0AzN06vHwZNga7UaG10OTCkkELBYQQQgghhBAiK5Ggz6d4/x6PEdP8I7+nF188Fn/6KRY6fddTIbQsKpRLY7h29mP3r5oT+pcGT0Vc//EPGHpDPRQ7Se36kLBvDaLHDcX/3XwZ6leujkvv/AC/7Ts55uEXd8dVFUxy9cVi3rTZOOz4JmDRz7NwwOtBWNOOaFMqHE07tgXH+fMe+BUzl6T0tvdun4pJZt3nCUPT7l3/GZwueQ927fGr8qRVeL15WPBCD+tK9MYE/9R1ybt3YHcwQR9SDhXK6rUSQgghhBBCZD9SHvmSZKwdPQJz4jIk5x2S1n+Jj38ONumbJQxhaVVjp4GnRDM8OG4FNi2biPf/72ZccUEFRBqh7MYXtx3zPn0Il3d6Cb+7Z76LbIXuV5Y1CdaHI9FTU2rfk/7ELzNYwx6Keh3ao6pJzYVbXY5LWYueHIPoWWxt4MPeaZPwG0flL9QI3bvVdCV6L7yna+6fGokJCFru4SmEQoVUPy+EEEIIIYTIfiTo8yOJS/HF50uRYDSsJ6oXxu73OgPNpe682DWyB0pQh3p34puPv8WujJcFpJMwlG3UAw+8PhLTVuzA/u3LMWP8MLzx5O3odlEVFHa0sA/HlryNl8fsdI5IoSja9rgcUSbFevfOxLQlifBumYUZ65KA0Mpo37G+M7WdJ6otLnPmrU/CX7NmY2fyQUyfNAex5nrCzu+ObnVdrQtCSqE0q/MNnsLdMfK09+kfl7z7E1ylge6EEEIIIYQQZxEJ+nxI3JyRGMUR4MzjLXVVb3QqdboaYw/Kde+Hzo649eHwtI8xakOw9uRZjQeFK16ADr3uxtP//hQ/LNyA5e9f5TSZZ9P6ZQv/TAnmp1j77ujIefGS/8bM6auwZ+4s/JForrJkG3Rs5lfXIVXQrkN9px99wqKZmLNzFiZHcxT7Qji3W3fUd/cWCKmEBudxQEDzc/HzMGnafhNOCCGEEEIIIfIGEvT5jsOYNmI8/qYeDymNLr2vRFTKjjTxlOqMfj3KpYjbuN/xyWeB872fCQmY8cA5KMR+6GEX4P9OakvvJgIVqldCpLPuQaEw1rn/gyfqcnRvy/ngk7Dyl8n4esbviPV5ENnyMlxa1B/ISPn6HdunDKB3ZC5+evc7TD/gBQrVRrfuDZ1a/H+IwCVdrkAZXrR3P755dgDGbwk2KB9Jxt/j+qJ6oRB4PCEodf1Y1yj6QgghhBBCCJHzSNDnM3x7f8CIibudUetDynZF78tLpOw4LcVwWb9rUcWpwU7C2s8/xoxjzo4sIBwXX90t5dxJKzGkZyc8+MEPWLhhN44meOFLjsehbX9i+qePofudn2OnE/mSaNX2QufoE3jK4Irul6Kwx4fEBR/gX1P3mesMQ+OO7VDG1QghrNllaOuMjLcD4z74yjlfaPWu6N7kZDlPSnR+GHc1CAfnl0/a+CVuatEGd739DX5bvwfHEr1Ijt2PLUt/wrDHOqHVzWOxNdmo+NBa6H9/N5Q+XcMHIYQQQgghhMhGJOjzFV7EjB+BqYdZdRyCCt17o0OxlD3poXCbfrihZkqb9OTtE/DxxH+mhztTinZ8As9cXtrEygjnXXPwwYM90KJOBRSPCEVIoUhEVW2Iy+98B9E7OYydB8VamPA9S/mPtnhQ4aruuDjCyO/4GGw1YVGoDjq0r3ZyQuYUdq0KOyI9LjbO/A1F1S49cFGwwfwimuOZ/z2D5mzKz7jt/g2fPH4dWtYtj2LhoShUpAxqNO2Ce9+ZjhhnUIJw1Lv7fbzUPgM39iSSsODpeghzRs4vhOoPR/v9hRBCCCGEECJjSNDnJ5LXYfTI2c4AcOwf3qN3e5xoiZ4ewlvgpj4pg8vBdxA/fTwGmzM7CnwgobVx9+fj8OQlpRCSVs22JxRlLnkMYyc8hQuDDDoXUqUzujuD3vm3K7ZDx/MDat49pdC2Y1Mjmv3bIRXRucfFiPBvBlLskpcwadKr6FI94sR5g+EJLY3mD43D1KFXndQiQAghhBBCCCHOBhL0+YikP77AF4sTQD0fWrUnbmhTOGVHuimERn37orGjhH2Infs/DP8jtT7lGSek/OV4I/ovzBn+Eu7odgnOq1oaRcJCEBIaiZKV66Flj3vwyugFWP3rW+ia0vb/VEKqo0u3C/194T0o0foyND9FqYegavuOOM9/ipDyV6FHq5Se+cHxoGybZ/DjX3/ipw+exE2XN0HNcsURERqK8KKlUOW8luh+92B8OX8V5g29GtUzOW2fEEIIIYQQQmQlHh/n4Mql7Nu3D3Xq1MGBAwf8PkIIIcTJDB06FHPmzMH48eP9PkIIIYQQBQPV0AshhBBCCCGEEHkQCXohhBBCCCGEECIPIkEvhBBCCCGEEELkQSTohRBCCCHE2eHoKvz1Qh98UqccXo0ojNcrN8CIW1/FqrXH/AFOJX7VeMzo0wpDyxXF4MJReKtBB3z76nfYm/ohogDj3fY5xpYLw7sD5iDZ75cWGQ0vxNlGgl4IIUSBgmPBWpecnGKu2XUuvV6vsxRCZDNHf0d0p1aY8Mo4xGzYi8SEOMTvWIXNI5/HVxd3wuwFR/0B/yH+98H4slUfzB43Hwf2Hkdy3CEcXTULfzx/HT7p9CpiTj1EFGSOLcX8/gOwZm868/SMhhciCNbGSGs9K5GgF0IIUaCgYKd4p0tKSnI+rvRLSEhw1q2wl5OTy053HFsH3oroeQfhqdYDl09di6eOHcUTy79Gmw7lgYNzMevuN7E93nXMceN36yD8fTAEJXv8C/3W7sOzR3fhvq+fQw1zSNzcl/HDm0uQdNLvyBVU5907B7N7XoVfZu6H8Qkaxu0yGl5OLphz2xnc5rqtKHCHyUok6IUQQhQoQkJCHOfxeBAaGuqIehIWFuYsLdwvJyeXPQ77v8dvn62Ft1BdtPhyDFpfWRdFihRFsYbX4rLvRuOi2qHwrvgIv0875j8GiP3+XSxdm4SQug/i2jFPoU7d0ggvWh4Vrn0FfUbfh1Khidj90X+w4dipvydXkFwcDv40GGOaX4EZM/YitHAkc/Qg4azLaHg5udSdtR8o3Cnqrb1hRb0Nk5Xk+nnoq1WrhmPH1ClKCCFEcDgP/cSJE40hNsPvkzb8wFr+/vtvfPbZZzh8+PCJ0nR+fHPxp1GIXIoXnt3rEPnHaoRv34PQY/HGygyDr0RZJNa+ALFN6yI53GXIbpyGUpPXwlPuYhy6vjmST6pi8iJ04Vco+fte+Op3x4HLqhu/BIRNG4niaxORfHFvHGpeJiWoxbsPhb8ahyJ7IxDX/RYcq17Iv0PkbTKYrkz4kGXfImrODrMejuTz2+J4sT9R/Pdd8F54DQ62qZwS7AQZDS9E+nALd4p5UrVqVTz66KOIjGShUdaR6wV9nTp1cODAAb+PEEIIcTIU9HPmzMH48eP9Pmljm9mTP//8E3fddRfatWuHqKiobCk5FyL/44Vv2Xgkf/cnUh1FrNqVCL2tDTyOzk6Gb/qHSJ61G2h+C0J71Ebgm+dbPxHJny8CKl6G0HvbG4N1B5I//Ai+3UXhueUxhNYOFOxJ8E4cAu+i48Bl9yO0fQVzzDF4v3gT3nXpGNospBJC7r8XIRXUeDX3kNF0RUzamvExkteUR0iny+GpVRyY8wmSp8YALe9AaJfqAWktA+GVnkQGcdfMb9y4EevWrcPUqVNRrFgxf4isQYJeCCFEniajgp6fPdbG8yO7Zs0aPPTQQxg+fDjOOeccx4/N8FlLL4RIH749YzC+fj+sOlgRtQd+hCtub4+yFYrAd2Q79kSPwPT7X8aGnWXR+MeN6Nm5iDkiAWtvq4QxI4+gyr/+wu1P1j2lD6h31Wv45MLnsaPUnej398eojUn4rlJ3/HHkYlz+1xxcWjfUH9KSjD2vXYyPnl+KyDt/wmMfG6Hn24ulXavi+ykJ/jBpUKgxOixZiLYXBJ5XnC0ynq5SSNy/DyhVBmGOEvdi/5DW+ODJBSj+yCw89E5rBD7hdIdXehIZgPYEHUU97Y7o6Gi8/vrrTovCrBb0sliEEEIUOCjYCxUqdELch4eHO/5W6NNxn5yc3OmcF8cnj8H6/UBkj3/h6me7oXylYs47FlqyKir2eBpteleHx7cfe1bEINk5Jh5xB4/zTUREyeIsZXOdL8WhaHE4LamPHEJcsvGLP4g455ASiCyeYiCf7ICw4uZc8CHh0CF46YcyaDwpFi+a9/q0Ln4x2pyf0t1GLje4zKSrFFeoVGmY3N11LpMsHNx+/7h0h1d6ksuAI7ZywC3s7b6sRIJeCCFEgYIfVXfTervOD29ERITzsbVh5OTkTudCUPSW7/GsNxlPf9MPxXzHcWzDUmyZNBaL//V/+L7npfh62GYjhoCkuHj/MUnwJtHHg9DISIScck7jIiIRylfTlwSf12wnmWOcQ8JRKDJlkKmTXYjxD3eaR/uSkuE7Zb9c3nKZSVepORPIIdi+YM4fPN3h5eT+ccQt3OlH+4Ki3m5nNRL0QgghChT8yPLDamvjrZ/9+LLmXgiRMbw7Z+O3u9pjaKkoDDn3IozscRMmPfsmlv24GEdi+W6Zdyw55X0DwhBayJHe8HK6yBTPk0mIRzJ3hIQhhK9kmFk6hyQiOSHYET4kx6ecy8OwKZ4ij5OxdCXE2cct5K1twVl0aFvYwXezGuV3QgghChT8mPJDa4W7FfUsQae/LU236/nBBRK4zx0m0D+nnMWuu40i6xe4tNgwcmfHYd9kTG7XCVM/nY2Dx7wILVUDFdp0Q6OHBqLLhGj0up+D3plwDOscE4HIUkWd2vSEI0f9fic7HDsC9lT2lCyFSKPkPRGlULgozdajiHcOCTwGSOS5jGkbacSf44d9WNq1MF427/NpXUQzzP4rpVmsXO5wGU9XaTj+C+afmgsWXulJLh2O9gMd4XeM4/JYEhMTndl1OEAe3aZNm04st27diuPH2a8o40jQCyGEKFC4P7Zu4Z4foTFhnW2VYEf5d/vZbe6jn91nCztyAhsHd1zccXPHy/q5t8XZIhHbhzyBpesTEFLjWlwVvRVP79uE+2b/gGv/8xJaXHcJiiDOH9YSghLVqxqBlIzDm2OC1tB7Y7bgSLLRaVWqoQTt4ZCqKFnVvLfJMTgYE2yUcXOuLdvMuUJRvFoVGbh5nsykKyHOPtamoJC3FQf2G3Xw4EF89913mDBhgjOQr3v5ww8/YNeuXU64jKL8TgghhMinuAsqaFxYA8MtholdsoDDCmmu23DZDX/DGkH299hEkdgCCCvcGTdiw4uzjHcLNkdvhNcXjupPv4eL21RNGczO4tuH/ev2pYh2ny0gKoTSTRohwpOMIwsX4OAp+jwZ+35fiOPeEEQ2aowoCvpCdVCpUQmzawe2L9iMU4qaktciZqH5nZAoVGhcI8XA9ZRF08lxGGjSzWldwhK004jkuYdMpatsRulJZJDAbxS/Y7GxsUFdXFzcie9bRpGgF0IIIfIxVghbMUyBHGhksBkgw9kWC/aYnBLMjBMdf5dxoSPulhS2IMLWeFjDh342vuIs4Es2/+29PzW9JC4ZhiW/xjvryQkpz5WEte6MGiVNWls8HIt+O+b39XM4GotGLoc3pDRqd7sUKUU7hVGtc3tEepKwffgwxAQcEhf9Ef5YnghP6Stw7qWF/b4iz5LJdCVEQUSCXgghhMinWJFLwXv48GHs2LED27ZtQ0xMjNNfb/v27diyZQv27NmDY8eOOULazsPPYyjoc0LU8zf5O/Hx8U6TRMaT8WNc7Tr7Ha5du9bpY8i4WUHPY8VZJLQ6KjUpZyRXAra8fj9+i96MuIQExO9ciQ3DHsEXXV/B9jimQy8Sj/6jwj1leqJF/1oISVqN33v3QvSk1TgeF4tjKydixrU3YdEGL0Ib3IWLu5S0R6BIzwfRqFYovKuHYnyvV7B29X4kxu7F7okvYtxNH2G/Nxzl7noEde0hIu+SyXQlREHEYz72tvgr17Fv3z7UqVMHBw4c8PsIIYQQJzN06FDMmTPH6YeWEfj5W7FiBR544AGMHTsWlStX9u8xH8ccqpnObmxzdX5HR48e7fTd47XRzzpSvHhx3HjjjbjiiitQrlw55zgrsq3LTijOKdLXrFmDb775xnmebH5om/3b2vkSJUrg0UcfRZs2bZzw3G9r8fPLM8uLJK95H1+2egSb9gc2ffagUO3rcfntSZj1/LdI6vwpBvx4G4r6H5XvQDSmX9kdcxYdSfFw4SnVGh2mTkHb5kX9PsSH2Ojn8EX3N7D9SKD5GoLI1oPRf8qzqOI+RORZMpuuTsaL/UNa44MnFqD4o7Pw0DutkXYRYEbDC5E29js7a9Ys3Hfffbj++utPfNNs4TmXRYsWRc+ePR3tm1FUQy+EEELkU6zItaK3du3aePPNNzFkyBC8++67juP6q6++issvvxxRUSmjg1PMWyMkJ4Qy48ffrF69Ovr27evE5+2338Y777zjuH/961945JFHHIOHsACAx9jrYs2+rbEXOU9ovQfQe8ZwtOzRFCWiIhASWRLFGnRAo5e/wt1Lx6JF37YoH2ae24IZ+JsD0fvxlGqHy6bPw3XP3YCqtcsiLDwMhcrWxjm9X0CveYFinnhQuN2ruHneaLS5oSVKlS2K0LDCKFK7Fc5/YRzukJjPV2Q2XQlR0FANvRBCiDyNauhTx4pcNrcfNWqUMzXOv//97xM1A/Y6uZ2QkODUzIeHh5/op879OXEv+PvW2d9zx401GOwm8Pzzz+O2225zaugJB85jOCvwcyKuQgghRHrhN4yohl4IIYQQGcYaCxTrXI+IiDhhRHBpDQ1uUxxzPw0Nt5i2YbIT/l6gs3Cdtfd07ONP8e7en1NxFEIIIXIjEvRCCCFEPsWKYS4peincuc0lHbFi2PpT/HMQul9//RWffPIJJk2ahL1796YpnOnPggPrbFg2hf/9999x1113oU+fPk5rivnz5zsD21nYKsCKdBsnC/2sIzaOXLpbEQQel5ux94fY+5QZWLhhj7djJZDUzufen1qYjOA+j11nPHh9bj+mATtrgQ3DpYXPPjD+1hGez7Y0oR/TJ5fu+yhyFvt8gjk+F5sGiPW36/Z5E4ZzP3t3+jkd9rz2WIt7m+fi79lz8vzcDpbmbGGhPSePset0Nt3REbtfiNyABL0QQgiRj7EC2BqfVhzbpTVSabDSoN24cSMWLlzoDKBHQb948WJnjtz0Yg1ojpzPc/z8888477zz0L59e+d3Pv74Y/z22284cuSII/YY1saFcN26QNz+7v2phc+N2Hja+87rd4sHKzi4bsMFC2MLMbhOuN+OJcB193ns8XRZdZ+CxYtx4m8yvdh4Mu3xN60gsvGmoLJCn/ttvBnGCi+u2/12nccznD1W5Dx8Hm7HZ8Nn4n5mXAY6wvCE4blu0wOx6zZsemBYpgVbGGDjQ+f+LcaN225nw3E/XSDcx3TrPi/PY8W/ELkFCXohhBCigGINW2INYPbj4+B05cuXd/rec7T502GNYsJz0AhetWqVI+hppPfq1cvp+96xY0enaf/kyZOxbt26EwZyQTKO3fecuLd5Pyz2ntIF+rvhsVY0B3P2ePf56H+muM9hz29/k7j3U2zZ7cCaUfoz/u5tphku3edlGuGxRGLq7OFOT3SEz4eOWD/3fi7tcXy2VrjbY/hcKZJt+NPhPjdx/zbTBn/LLrnPin3ut7/DONjwDGPTHMMxPJ31J/S357NLIXILEvRCCCFEAYfGq+07X7VqVTRp0gTNmjVDyZIZm9CbBjLd/v37HdHO5aWXXooyZco4oo0FBZ06dcKyZcswd+5cp+m9FaMFBd4fKy6sYLDXb5f2PpJgYbhtBUbgPjr7G9bP/XvufWeCPZ8bK444sCJ/w+7nks/ZCnGKKvrZgaHsddhrYViu2302vD0f9/PYjIhAkbXYZ8HnYx397DO0zm5zP58/n5f7mdGfMAxJz/MMDMvfcOcjXNp1d/yI9SfWn8fbLjxumL64z16DXRa0PEvkfiTohRBCiAKONbQJDVVrvNLfGsJpYY1chqURvGXLFsycOdOZ375WrVooVqyYc34azWx+f+zYMacv/Y4dOxy/YMZ0QSJQxLifBZ8D7ysLP3bt2oX169fjjz/+wLx585yuC3/99ZfT2oFdHNiagscGc8QKErudVfCchAU406dPd7pqjBw5EgsWLHC6AfD52t9kOnHHycbHOl4r0x0d93HJMRx4rv/9738YM2aM0y2E4ew5RM7BNGSfk30G9jnwedGP7/fOnTudtLpkyRKnCw+77nBWkQ0bNjhplWH4bHk+69KbNt1hbDwIj+c7wN/mOzFhwgTnXeHvWBFu8xqbvui4znPYbTp2CeLsKUzLn376Kf7888+Tuo2kJ55C5BQS9EIIIUQBhoapFVlc2j6j1kg+He6wPJ4CjoKL4o5TAVoxRyOZ+8uWLesYxDTyN2/e7BjTBc04tqKB8Nrd1897Y+8ZRcXq1asxdepUR1S8//77J+blp+MUhHRvvfUWPvjgA3zxxRf45ZdfHDHD50D4bHhO3nu2xLAi6kxxXwPP+/fff2P27NmYMWOG82wXLVqEn376yRlc8dChQ048GAceY0WVTTfue+FectpiOyXl999/jylTpjgFGPRnGDttocg57DPj0q7zubLAae3atU7LHI6T8d5772HIkCFOOn3ttdec5Ztvvol3330XH374IT777DPneW7btg1Hjx49JS2kBZ+9FeRWXHObceCAniws/Oijj/Dcc885LYFsC4/A9MV409njuWQ8OG020y0LzdiaiAN7/vDDD1i5cqVTEMH0bs8hRG5Agj6/k7gHO75+Cz/deCWG1a2MfxWPxKCwSLxWrjo+aN0T37/0KTZtTv9gR0IIIfIPNErpaNRaEWkNVRrKdOk1sAnD0nhmzTvX2Xyfoov7uc11NsfmOufE3717t2NIFyR47dbZ+20FNtd5Pyjk16xZ4wjiYcOGYfDgwRg4cKAjkIYPH45vvvkG0dHRTm34uHHjMGLECEcsvfjii3jllVecYyiWOI4Bayyt6LGCnutZgT0PBTbjyt9s27atE9+nn34a55xzjjOOAmtprWCz2LRln7+Noz0nC4RYQEDhR1FWt25dPPvss45r3Lixk16z8lpE+rD32wrhgwcPOoUsP/74oyOi+eyZDlnwxHQ5ceJEJ21wP2vMWTDFAiimZwp9huHAmSzcoyBPz/NkuuHvW2zaYd7DNM5t5i98j+w+m/64Tj/rT7jO8/G8LNBcvny5I+iZzgYNGuSkOY4twmthYaWtqRcityBBn2/xIW7JMHx7UV183OtJ/D72Z+xYvwOxR+PhTYpHwt6t2DP3eywZdCdG1q+PLwdPxxGNMSOEEAUKaxi7Dd7IyEjHj9vpMVqtMWyPp1HNJrU8lkYwhRd/h45hChcu7Ih6G5YGeEHCfU/tfSEUpxQ0bKb87bff4tVXX8WTTz7p1MqzuTkHKOT9Ys07lwxLsc57ymPpRxHMWsX//Oc/eOKJJxxxz5pFihDu57O1Qjir4PNbunSpU8jAa2vVqpUzoCILc7p06eI0l2fze5smiBVPTDvEfU+4zq4FFICjR4924vzQQw/hlltuccZ1YPcNK8a4tPdP5Az2mbGmmqKZz50C/rHHHnPSKpvWM20ynVL42vRqC5Pox3W22mDNNwUz0+rbb7/tpFV212GYtHC/NzbtMF1HRUWhYcOG6Nq1qzMIJwuU+NuMsy1Y5Pti3xlu09m0SL+YmBhHuNOvTZs2KFeunNPSqHv37pg1a5ZTyMT423xTiNyABH2+xIj5OS/giw734Y/lh8zWaYjbgvUvdcOIe77D4ZML0IUQQuRzaJTSOHWLI7ehG4jdZx2NYxuWS56HQt4u3dCP8BiGt8Z1foL3wOJet7jvmYXbFOPsp8saeNZcsuny9u3bnXAsAOEAhdWqVXMEC2sOOXAh3fnnn49zzz33xMwEViyzKTObqdtaffYlpgjjMwgUI3Y9cHk6GI7xZhN71tRyAESOm8Dfp6MYpxhiDT0LFSju7HMnXLfx5bkYN4ZhM2eKKm7fd999jpDnMdym6LLpiMeJrIXPwf1OutMqlxSzbCLPQibWtrPwiC0zmA4I0yq71dSsWdMZL8OdXi+44AKnpQULe0qUKHGicIkimoU+LMRitxE2bU+ttt7Gj8vA9OMOHxER4aQTxteG5+8xPB3XuZ+O++k43SK7uLCggfG0hQAMy+vhO8YCN14rf9OmQyHONkqJ+RDfoWn4uf8b2HbYZmwehJ3XCx3GzsXDe47hhYTjeHLtLPR8tC2Khvo/hr447Bt+B34YvgXS9EIIUTAINILtOo1bGqvctsauhes0ku2x3KZRzqXdpsHMJY1ya2xzyXAUlaw1s+Hs7+QH7D1xO3tf3I73gc6ucxAvNk0fMGCA08eY4peiiYKYtYwUyvfff7/TL5nhKPZZE8/+5VxnU2Y2Y6b4vfjiix3hT2FFcUwhz33PPPPMiZkHGCcbr8Bnx2V64HGEfZbZ5LpIkSJOgQKP57PmuSiqKIy4zppbNoHmuhVZdLb2lnCbgurLL790aumvu+46NG3a1LkWdzqxx4msh/fYNim36zaNcMnuNKxJZ5cKinl2DWEYPmsK3ssvvxwPP/yw00+eYx+wOT27TLAJO4U/W12wJr9///5OWq1UqZLzfK2Yfv311/H8888740bYLjk2LjYOXLrFNNfpmO6IFdsMG5jH2DB2m0t7POPA8SeYHhkvHmtr+CnqOVsHC6f4vtrjhcgNSNDnO7w4PHYIlm+xzelMplbvfvSZ8xXa9W6F0mWLIDSsMIrWbYcm7/yEvs83QyFbwO3djw1v/hfb9Y0UQogCAY1bK76INXzdhjENWfq5DViGs3C/re3ieWgE00BneDYTp3Fsf4NLKxBY+8VaZxs2P8Dr433g0n3P7LoVIrx23hfeCwpXNrHnQGLsu2vDlCpVyqmZfvDBB51a9kcffdTpn16lSpUT940iik2C69SpgyuvvBL33nuvE5Zi66KLLnKaIPPZMD4cpI7Nmllrzz7vhGIlmDBm+NPB8xIWELA5PePCFhn2WKYDXjMLJfi82Z+fgol+Nr0QWwvKMLwfFP4My4IAXhfPzQH3WIvLVgCEceZxvFc8VmQdfH58lryvdO7nw2dNQc5CJz4j+64zrbZu3RpPPfWUM0jj3Xff7TRX5zMsXbq0082G6YDrrKVv166dI9p5nttvv90ptOE5+Lv8HY4PYWv+mVbpx2dtn7dNO2cCz8V3kOez7wCXzLMYVxZQ8V7YMHSMP7sKME2yu4sQuQUJ+nxHHLbN+h2J9vvmKY66z72EWmWCfZyLoPL996B6+D/7vBtnY8uJwgAhhBAFAbfB7F632zSg7TqNXG5bI9ftT6FGUcfmqTTOKQC4j9hw9ONxbIJboUIFRxTQ5Sd4fYT3yTp739z3lE3q2c+dI4Czlps16hQ/FDiPPPKIUyN/zz33oH79+o7gYf9x3mPeW57P/gbvH49jDTmPvfnmm51B8u68807nWfAYtoxg7eLQoUOdgeY4krd9Zla0EIoau54eKG5Ya0thx2fPY62z6YHrrNXkud3Pm7/P37Z+rO1nqwPeB053yJYKvDd9+vTBrbfe6kwhRnHP43hOe19F1sC0yUIV3luu897S8T6zCwebxXPqQHYNsd0nGjRo4KRVCvl+/fqhXr16TiET04P7WfN8PA8LCJh+KY7ZHJ/95//73/86hQDsOsL9PDenZKTgZxN8OxuGPZ/NU84Ee110TKc8J6+bSzq+b9xn3zWu8/1jGmb8GFaI3IIEfb6jCBqMOYSBJqNxnPcQbuxfDql97jxFSyIizL9BfMcQf1SZlBBCFBRorFqj24ok1qTSsLa1c9Z4ZVhiw3Hb7nPXvLNmjoKMg2ZRSLrFAWvAaECz9rlixYonjs8vBLtfbux+inn2bZ82bZojrnnvKB5atmx5YhA49kG2NYUUEhS/DGfXrUiiI9zms6S4b9SokdP0mbX1LVq0cM7N/ZxajCPjs1UAWwcwvH3O9pnyN9IDwzMeFDj2PPYc1vE3eT4+c4u9B3Q8juF4HtZ+0lE4sXCC4pDdENjq4MILL3TmoKfI40B79tw8h8gaeE/t87Bpiu810ydr5nn/mWb4PDlWAgdA5GB4LDiqXbu2I+J5rDv9cJvw+dPxmVn4W0zfFPLsUsIafrYsYTimcaZVFj5x4D3buoPYuJ0JjJeNG2Gc6ZgOCePG32MYG2emc+7nu8T9QuQWJOgLNEk4MGYkNh13fQyL1kP5Gv98dIUQQuR/rGFLg5bGMo1sGtR0NGZpxDKMW6xZ45dGLvt7c537KerYLJxNwFmrxwHOrOBjH2o2/WYNHvfXqFHD+V23kZ8fsPeIUBS4hSf9KZJY28k+xmxKzvtDkdCrVy+8/PLLzoja7MPL+8lnwGN4X3kP6bhO0WN/x/0bXPIY7meBSY8ePfB///d/6NSpkyP0CQcdY203+96z6TCP42/xWB7H9fTA32Z8eAzh8TaNEKYRO8e4Dce4Bd4TwuM45gKFGwfSY0sDikS73rdvX6dVB6fqYyEIw9nfEVmHvadc8hmx8OSrr75yBsCjwGba5bO89tprT6QrDoJna7Lp+CxtOuDz5jHEpiv7G4S/wW0+586dOzvpn3kDm73zOPbR//rrr52uIuxTzzTjPj6z8Bx0Ni3ynSKML6/FNqlnGrbwXjCfY/5o07wQuQEJ+gLLMez+9GZ88dBkxFo7ylMIpW++H3Wj/NtCCCHyNTRmabBySWObhjq3KaxoPNOgZjNo1tBxncasNYCtsc9aZg7GRqFlhT9HsG7fvr1TS8zRsFlTz/7PnPaJA7Nx4CyKNBuHrDDQcwtWKBBem70+68dCDdaO07EpMe8jxcH111/v1KhTtNqR4u0+rvPeWuc+n/v5WRFlnyXhs2BNKvsqc3A97md4inrWurKJO0U3oT/PZ8+dFgxL8UNxw+bJLJRwT6Nnw9jzsT8/4+UWQjYc/RnWpi8KRAo8ijruo8Di4IBsos0WH+xnz9/iedMTV5F+eP/p7HOcNGmSM0gh8wHec6Ynvr9sXn/JJZc42xamOXscl4TPj87C52ULBYhNE/RngRNr6Flbzz749GeaYFpl03sOsMe4ZdUzt+mHceCS6YwFaSwsYksRYuPP32WrGrYc4TW7r0mIs41SY0EkfgP+eqAtPr17DPbH2dJx88G85Hlc82p7RPh9hBBC5G+sMes2klmjzqavHJSKNewcnZrNallDx+a2FHE02Gls0zDfsGEDVqxY4QxeRSOe52LTWza75yBtrCXm+SgAKMRuuOEG9OzZ06mlt4Z0foLXb+G6vUauU4xyHmvWjnP6K95L3ivWzNu+8gxLEcPj6KzIpQCyjvef/oGiiY7Ye8rjGIbCmALJCiWegwKc/fZZIMMBznhOe7z7GlKDv0FH4c3RzZkWeH32t+2S4ohphd0HGA97nL0WG45QKLGAgNdG8cilDc99FPU8HwuYiI2vyBrsc+HzZyEP84KPPvrIGX3epiPWyDMdUXjbFh88zv0seA5u2/Px+fN4Pk/i7prBJd8D7mc4Pn8WQHEQyMsuu8wJy7TAqeTYooV5DcOfKbxG9zvEc/J6OA0k48T58PmOMI4MwzTH8Rs4ZgALnOhnjxXibKOcsIDhOzgfs7u0woQPlyD+RM18CIq0G4i+P76Ic4rnL8NKCCFE2lijmgYuHcXZTTfdhMGDBzu1YhTynPKsQ4cOJ2qmbHjWVrHml9NQ0fimQc7zEdZ20fhl01wa5xT3bDbN5uQ8jmGJDZ/f4HXZa6Phz1YPHDyOApoFGxQLFPNdunRxBnxjawYKCityKbC5tPeUjvfdLq1oorO/4RYYfD4My3CE/dI5ujj7O1MwcR9FOAsYRowY4bSg4PH2N04HwzIcu1cwzVBo20IdwvhTJHEwPJ6TtescIM8WRhD3bzGeHCiNI/izFQNrSO29IDwvxR3PwcIirvM8vE6RNfBe2nvK5vWc7pC14yyoYdrs2LGjU/DElh7ctveeS7tun6nbj9v2OXLJ58rfoeO2PYZLOop6/gbTKlsBMDzfHxYusoCBLVuyCqYrxpO/wbTFbh58FzkgI98PpmEu2TWGaZyCn+nUnTaFONtI0BckEldj4Q09MHMG+yD5/TzFUO7Wkbj9pxdQvbQyJiGESA80AK0haAWK9eM21+ncgsOGtfusn3X2fNZlJfbchEvGw8aF0DC1hjZrzlmLe9VVVzli0zoasnaUdYazhjf9KRSrVq16wt+ej6KLtapsostzcMoqzuVsa+jc4dPCxplLHsMl762F2/ZaziY2HnS85xQANk1QwLOJO2sa6c9rbt68uTMiPQcI5HUxrL0n1gXeU7rA7UBn99vj7TnYlJ9dIViAwMIWPgd2reCc37/88oszYCHjGexe2uuw++z5mV5YW8tzcb5xd+0phTm7W7AbAVsfsJDHxsniTpts7sx7wW07vzl/k2FYS8taUhYqcf5y/p69XpF+eG+t470N9kyZBn788UcnrfJ5cj8LgVggx64yTEcMZ8Pb9dQcsc/dvW0d8xR7Di4J0wrzIRYuMo8hLFhg1x6+R3z/bdqhC8xrGW9em/Xnue1+Hse0xBr/QYMGObX+Ni5Mz2yFwPfCjubPmRz4u3x3OHUk80EbXyFyAxL0BQYfjo79P8z4Za9Z81OoMuq8OR23f9oPZVNaTQkhhEgnNA6tQWkNOy7tOg1J9zrDWugf7Fj6BYY9E3h+66wwIvwtt7PYdbcfsdvWiLWOBK5bAv2tMU9nz5MRo5jheG+s4LTHcT2r7teZwjjR2XvOa2bcbE24nQOe+ziCO6djozilSHWLHS7d98ae164Hw4Zxhwtcp2PtIoUJW05QQPOesuXA2LFjMX/+fOd3CeNN5043hOv2/nOdwou1qDwnz0MRSCHP7hkU+Lw2drNgM2VeI4/lM/zqq6+cEfhZ68ptno+1viz8YWEDpy3j+AsUZhTzFF10jDdFJeNp4yrSh02Xbrht8xw6iualS5c6I8tzjAyKbaYTCmuKWdZiu9MTXbD32O5z4952P7/A4+2xbK1BcX3NNdc44zTQj+mK43BwCka+V/Z6eA7GnwVBr732Gj744ANHlE+cONGZUm/58uXO8UxPNh9hepoxY4ZzTnv9dvR+tkbg+/Diiy86I+1zH+8B0ybvCc8ReC+FOFsoJywwHMHm72fgRJd5TyQqPTsRNzzeAoVPzm+FEEKcBmtwUuwQa5hag9n6c8lthiXWaLSGoPXnNv3teelsmDOFhif7w3L+dzZj5rbFxjO3w3tDA5w122waTqPcfY8CBcHZxj5jil2us/kuaxU53gDjzqb2HEfgiiuucAQ2426vISuee7Bz8NzWsctD165dnVYYhOmA4pnTkllh5Ibns8dy3ToLx0m47rrrHBHEEeg5tz7HYGA/5N69ezs1rfYdYfqjo2hkIQIFmC2kIWzyzLixb/4PP/yA5557zmn6zf7cnFP/xhtvRIUKFZwaepE57L3m87TQj+mATcs51zzHeGBBClvhMJ2ywIaFMjmB+11glw6mB3bp4fvEtMLuAJwlgnF1w3TLMDyG8eUc9ywM4Gwa7P9v4bk5SCMLC9gViNPm2XvC32b64rvBFjQ8luM/sKCJhXAsdLLYY4Q42+R6QR/4URGZJHk7DmxJmYLDodCFuKBfE4T7N4UQQqQfGr4UJdbwtALObSCzNpLYcBaGs2F5XKCoZlj6Z8X3j78R6KwRmteMUd5P1thRDBNei73vJLddD+PHZ8tCCDbXZc01az/5fNlEnYKB3RS4zbhndfxTOx/jxRpGihOKHYoVbrOghLXlrPlkDTvjZR3htfCcPJ7Y89vzsUk9u1VwyVpc1qiyppPCit0sbO08w9PRn7MjsL+yfaaE52J/+6uvvtpZch/FGLtrcPwF9te3rRn4bmX1fcvP8J7xfvG9ca/bZ8y0Gh0d7RTKsOCJ95ktSNgqgoU2NlxOwLjx9xgHCm7GgemB8WV/+pkzZzq160wD9LP5KNMHu5RQzD/00EN45JFHcNttt6FOnTonrptpjGmU/fRZQETRbq+NYbifaZbjhjzwwANOCxP+tu3mYdMc14XIDeTcm5lJcjLzyN+YDM89KGhIGRQpo3srhBCZgQadNTitUWeNPPrRcZvGKKGRSAINQIbhPi6toWj9sgKeh3Fhn08aqBTENErt79n45XZ4DawpZH98XgdFnvt+0eUWbFwYZ9Ymrlu3zmlqzxYSvN+8Bo74T4FK4WDD22VgGjkT0rovvJ+NGzd2hDPTBwURm1izdpZTlDHtBIp4LnldFvsMbHplrTqn32MzZc6M0Lp16xM16TyO4XjNfH4USwMGDHBqQbntvg+MGwsG2MSZzafZNJ+1xBRrPI8VbyLrYFrlrBZsScLCHcLnQnHcokUL5zm6n3124s7/uM4CHXbroKhnQRHTEAdbZAsOLln4QGx+Zpc2bdq427Rs0y2x7yDDcUnHpvzcpuN+G859HiFyE1J0BYXQC9BuaQIGmkzIcXGT0ESD4AkhRKagcUfnFhbWKKRhzOmN2AeVgy6xDyeXX3/9tbOcMGGC47jNacOs8eg2EmmQZoXxbA1U4jZkrbHq/s3cDuNKgRF4X3hN9OPybGPvt73P7OrAWkT21WW6YDzZ/JzOzhgQ+FyyG/t7dIwDa8rZJ52iiHFkLT37r3PbphOGdd93blu4zveAjunWFhhZUWUJTG88H8PY4+0+btPZ+8F9Nh6Ex9GPYfgOcinSD+8X7yHvr72HhAMistsFZ2Dgs2fTcg5Gx37zFNGsCSc5cb/ts+fSviPsJsJCIBYAcZu19By0jmmVLQuYluwx7muz10c/Qn/3uk1j9re4tNs2zdltLm3aoxMityBBL4QQQmQQGnd0dt0akuxzumjRImdAJk7ndssttzgjQ7OmkY4jmnObg6Gx7yYHd6KIsuewxmtWG4z2/HQ8L3/H/lZegPG04o3XwqV1dju3YO8tnyv7h3O0cAp7wtp5NnNnTbY73lYwZNV12HtzuvPxnnIEejZ9Z+sNhqewYy0tRwHnNq+FcGnTkRv68Ty2j7J9F9zh7LXZmniKQ25bEcbj7fnp7P2wz9w2rec6sXGy4cSZwXvIcR5YyEgxz37obA3BKersYIb23ucEtjDINqdn/OjH6Qrt+8P4sHaehaQc/I7h3O8RHdfpuI/OXoM9J9OR+/x2nYUZTHv2uoOlN3suIXIDEvQFheSVmN0sHANNBpTiIjD8P1uR/XUBQgiR/6AxR2OPzhp4NPa2b9/u1BixRpaDe7F5+IUXXuj0Q2WfZQ6AxqbE3GYTYoop1pLyHDyeBiXhtj3vmWDPw/jSQKWz0C8vGaX2WujcBrn1yw3Y+8n4sL88a+cp6vlsKXg5sBbTA/vv0o/Ohs/pa7C/ydpXpkM6xotTdLG/P2s/2Zee18T7bdMmses2Ddnrtv5WAPH8gcdxHwWTFVNc8nh7/VZY8d7Y87rfNfrb5y4yB++dvX+81yxw4iCFLIykP/MJNnFnH3Ouu59FTsA4sKUHn7ltGWDTDbuJsCsHWzbRcfR6xpvheIxNj3Q8hnHn+bhOx3MSXjcdw9lWJQzL/VzaNGjD0TEc7wePsecVIjcgQS+EEEJkEhp51lhkzSZritiEmaOFf/jhh07N55QpUzBnzhy88cYbzuBKw4cPx6xZs/Dll1/iyiuvdM5DI5K1l8QaojwfjVVOncTpv3gOt6Mf3bx585wlw/H3GR/r3CKeNW/WOLYGb16C8eV9sgY5ry83XgfjxXvNqbC+/fbbE/2RWePJ/uW2dpHiwAoGPnv6cTsn4G9ZcUPHgqdevXo5A59xH4USu4ps3rzZiZMVLzyG+236CoT7rbO/wfRnj+W1Em5z3Ya164wLj7PpluHsPaE/nYXH2PAifbifGe8f7x2XnI3gp59+cqZU5HNgISNbEnG6Oh7DZ2HDus+R3fB3+Z7YdMLnzcHtODii7UvPQtQvvvjCmTKR8bNxpGOcrQgndh/PZdONXee5WejGbaZ/68clj7fnsNdv4yVEbkApUQghhMggNOpoHLqNPk6DxFpODnZG4UwjuVmzZk7zVW6z1pNNrmkk8xgag3TWWOS6PRcdm8CyUOCll17CM888g2efffbEku755593lpzWi/4MxxHKGTcrFC32d7jkubkk1jjNK1iD3H0NdpkbsOmCNdus8aQg5rPn3Nac0o2tNigE7HNm2rBCwaaDnMDG0z5/1nyybzJH36c/7+kvv/ziDOhHccN4Mb42TXHdOoalC1x3p2V7vF0yDNdtWOtvHY+174hbkLmPs8eI9ON+5lynY+08x/KYPXu286w5ICHzMbYkYkGTfY42XeTEPbfpgM79m1yyawhnRuBAfUwDjPOqVauc94196d3HEns8l/ZabPqx2264j8LehuPShnH7CZGbkKAXQgghMogVRITi2W0gckkjmeLaGsUcNZwGJ6cps/OOn84o5DRJrNVn7RNrer/77jtnyZpTO9Aet9nvlQPwcU5vNkVl3BgPOpHzMC1wUEQ+D9bUMz2wxrNdu3ZOraIbdxpIT5rIKvg7jCfTsE2/rPns37+/s06Bz5YFHJ3/0KFDJ+LFwgkek1PxJIG/lZO/nd9gnsDnS8d1PnvWbLPwhl1ECOdgZ0sSttpggRNhnpJb7jvjzjh269bNiSOvgWn0559/dloYZAVKYyKvIUFfUAhtgLaLXaPc++Jx28PVlACEECITWIOYULBR5FC8sYaIRuXKlSsdQc7aLg6OxhowzvfNfvQUSzSQbU1ZavD8rNllAQAdWwCwdopLCkP6cUk/rnPJmiV77vT8hshaKAT4vPn8ly1b5qQJFuiwPzL7/jI95CaYjhlnpl+mS6ZZpiPGm+mYIokDj1HIM5y7kIjHirwHBTCfL+GSLYHYhYfPl2mVc7Jz1gNuMyzTBvMRPnv65QY41gPfKY5Fwjjb2Rk2bNjgpFXlfaKgodxYCCGEyAQ0GK2xSyOSwp6Cmv3YKeZocLKGi82vWQNGI7lKlSpOeCuk0sKKKvbFZi0a5wjnyOMctIx+XNLRn9sUXjRseV7Gxxq2Iuvg/TzdPeXYB+xewcIdwjnee/To4Uy7RYGUG56JLYDikmmRjsKINZ69e/d2RjZnPJne2JyZ10SsqEvPfRC5Ez4/+8zZCmPhwoVOP3TmXyxAZM03uwXZ/InhSG567owT81JOY0eY7zEv5JR7nM5OiIKGBL0QQgiRSWjkWkcBTeHDEZdZc04BxxpZ1tZS4NFI5jb7fKZHbHOkfPaNv+OOO9CvXz9HaHG6Ow6sd+ONNzp+3KY/t++++26nlornpXGem2rUCgp8rizQobDgc+azYFrgfN4s3KEQyQ3PhHFgGrFp1wo1Os6+QEFvhVx0dPSJWnrut8fQibwHnysdn2VMTIxTO8+CJsKWPnz+zKcYxp2HsPCHLjfAuLOWnn3pWQjFeDJ9clYJvn9E6VMUJCTohRBCiAxCg9IuaQzT+GVtF2vi2b+9QYMGTo0nYZNW7qMxzNojTgdm5/hOC/ZpfuCBB5zB7wYPHozXXnvthHvllVfw8ssvO0u7zUHxOCUaz2vFmI2nyH54rzl2wtq1a53ZCVhDTzHftWtXpzDHds3IDc+EaSQw/TFeHICOXUMolAjjy8HSOLifFXTBjhV5Az5jOj5Hpk8Oemi7hlAgcxBPjvNhn68Nz/yEfrmlkJBxYBeRmjVrOlPrcZ15KwtBOV4JC9OEKEhI0AshhBCZgIauNXIp5CjmP//8c7Rs2fLEYHg0nNmvkwNOUZQPGTLEqall01buSws7mjPP16pVK6cJP0d2dm/bJY1a7uNgUYwT4yayHt7bYILGCh8W1FAgMT3w+bLG87LLLnMEB7G14rkBG2fCONmCKQ7gxxH5GWfGl905Vq9e7QhApnV7nD1W5B3ceQPTKlsP2cJGTlnIwid2G2LBjk2n7medW9IuYVrkeCJt27Z1Cs5YKEFRv2DBAueahChISNALIYQQmYDGrRVCbJLMZtZsWn3NNdc4zUApjmgI16pVyxFHNDpZA1atWjVnO6PGMcPbmjK7nRbusCJ7saKHNdmTJk1yCnMoivisOVUdRRJFkxVGuQXGxxYsMb1wnSKJhUY2/VIoccYG9lEm9lqVtvI2bG7P/vOEz5p5FvMvmw4In7NNB9blFhgXvmNsDcX3jPGkoGcLKZtWhSgoSNALIYQQGcSKa+vKlSvn9G2/5557nGagtmkqhV2XLl3w9ttvO/PFd+7c2akB5THpFUTusFy3uP3sOpfWWawR7vZzi0trvBM7aBv9bJ9p6wj9uC9wP+HSntc697kpDK0/cS/tuhu3nw3Da2CtMdd5bhvfnMRev40DHZ8Ba7DZ3J5dLAhbWLDlBGvp3c8tt8B7adOOva/cZuEDRzpnKxMWPPG5sdn9li1bEBcX5z/65HQj8g5Mt7a5PbuGcJuFjWztw3E/bLogdmnTCF1uwL57TLNMq3zP2PKJTe35/jGtcqA8Yt9RHhPohMgvSNALIYQQmcAauDR6KdrY9P3cc891xLyF66w94ijnF110kSPyrIhKD/b86cXGKRAKXzsYH3GHoWHrFttuQ9caw4T+PI7nouO6O6yFfvYYYo1pHsN1Gxeu83e5TQLP5Y6j/S0KER7DbeuCxSE74e8F+03Ohb1+/foT18iBxTitFpeMp33udLkBd5zstvWjOOII4kzXvN/btm1z+ibz/nO/+ziRt+BzYxcgPk82uycU9GyVwcJGmwZseiDu9dyAjQvzM8adU0Ky8JTx5vvHgjUOUGrzHot9dwP9hcjrSNALIYQQ+RRr+FKIsV8p+3YHCmiGca/T2CU0jok1fnkcl27DPnDdfQyx+3kcCzfc52AYOvc5bDwCYTjWDv/999/OKNb2Gs6WsLS/yaW9FvY154CH9hopjjjAHONor4vL1K4xt8ECKja/t7BGl9MokrxyDeJkbNrkVJcsfOI6a7n5nFkYaQfyzO0w3jaPYYuSunXrOoP68V1kYeEff/zhFLARvn82X7LY91aI/IIEvRBCCJGPoeHL5qdW0HPbGsR2SYOXS2vo0t8ax3/99ReGDx+ON998E5MnT8b+/fudfQxPbHjruG27HFh4Hgpx9i//6KOPnMEDOb0f/Yk9F+E5AqEfw7KmmL9v487fcP9OThD4m1y3ceO9Yo02W2Kwby+nf+P+YNeU22Hf/+rVqzsij9cwf/58pykzRaH7eYm8A9Mhn92aNWucweMIhTAFMWdiCBS+uRmmSeYzjDMH9KtXr96JZvccz4T5jfu9c+cZPIZLIfILEvRCCCFEPobGKw1Zino2UXWLbS65j36Bxi9r8X788UfMmjXLGQ2bo/VznvuZM2c64pXh3cLObvOcdLY2kH48duzYsY6I4IjpHGRt/PjxmDdv3ola37QMbF4D48haep7XLTzsb7jjn50EEwNsAcGBEW3rAQr51q1bO2FZA2rvSbBjcyusteU0iHaEfhZWcNA/CqbAAhuRN+BzY4HTpk2bnBYXfGc4GB6fs63hzgswnrwWC9MoxwBgmuU1bd++3Rn0j3ket23ewOPo3H5C5Ack6IUQQoh8ituQda9buG4Fp92mOKYonTt3Lj755BPH/+mnn3Zq1mk0//zzz05N/ZEjR5x9bsPYrnNpB81jwcDo0aOd2nlOh/avf/0Ljz/+uCNuR40a5Yy0TZFB+Pvu+FmsH+PG4+iCXc/Zgq0f2B3AXnOxYsXQtGlTZ587fox/XoEiiX2TOQYAr4mFKSzIYf9rYu+/yDvwmTGtsu+8fdc4oKcd3T4vPlNeA9Mop/hkmuU7xveQhU9skUR4XfZ6uW6dEPkFCXohhBAin3I649W939Zy01GEU7izGS5rmlnzRWOY/ao5h/6MGTOcmnb38dxPUUCs8czaXI6kPWXKFGckatYEss8rm8j26tXLERZTp051atTcYtd9Xvc2seG4zXX7u1xmNzYeNi6EcWDNPGs8GQ8WkHCgLo4YHmw+b/exuRk2teeMDXawMTo+J/ZNtq0vRN6CaZFTurE1iS3I4/vM58xnSpcXsO8R4884M21WqVLF2eY6Cwg5RgALn7hNf3uMTbf0EyK/IEEvhBBC5FNotLqdNW7d61xSlNoBsdhM9ffff0d0dLTTL5Wj9NMIpuFMkcpaWwoCinSOJE2skWzPRdgkloKdTespAjnKPweKIwzHfrsUvmzGv3TpUqdWzR7rhudmPHk+t0DmOSz297Mb/jZ/y8aJjnFmE+Zly5Y5caJAYm0hC0EYX+5nOO6js/HP7bA/cq1atZzuA0wbLJxh32sO/mevXeQ9WPDE943vMwvXKlSo4DimU3cz9twO4880aAucWPjIMR9YW89r4RgdTKu2kMKdXpV+RX5Dgl4IIYTIx1gBatdp7Nptwm0rpulP4UZBTxHOfrWsybNinzVfNP4p9jg1FJtg0zC24tr+lv2dHTt2OP3kCQeK47kYluej4K1atapTu83aNP6uPdYa21y3S56PcGnXbficxP6mjRPjzRYNrL3mfaRIsgN0MQwFBV1Ox/NM4TOgOOK12P7V7FbgHpRQ5G5sOrXwubEpOt9dplUWqLHwic/XFj7lBZgWGV/COHObBWlt2rQ50UWE43bwnbTz0eelwjQhMooEvRBCCJFPoQFL45bGLPuX0gi2Bj6X1hhmzRwNfMJB6th/nn1taRxzH8NSjHOd56FopeCnuLPns8Yyl3QUuhTr7HvNml7W7lvhb+Nl40PDm6KYWFFBf1u7Rj9uMz6s5bdxtXGzv53d2N+y4oDbHEuALRFY2GHjSJFkBYctxMhr2Ots2LChM3AahRHnLmdrBDsfvcjd8L2x7w7hO8sm93w3+XzZ+oIFNnyP+DyZVvMKvCabVxC+b7wW5k3MN5jvsCURl8S+u3ZdiPyEcmMhhBAin2KNWNbA0XhnLTkNd+tvRRnXrbimQLWjQ1O8szad+624pqDmoG8UsBQGxNZA08DmOsNz206TZ4U3HeGSfhT5rFnjuSjSGR+3UOR5CP0YP4blNdhmtsSGySnstdFxnddIkWTFBePJe22v2U1Ox/VMYFzp2IyZz5vrfEa8XlvrKXIfbgHPd8SmOfrz2dnBLJk+mS9wPAv7LgWm19wM48prstfIJVv8sEDNbrNQkoLe3gMeQ397vULkF5SihRBCiHyKNe4pgCmEKcy4bcW5xRq4XNLQpwFMF9gU173PGtTE+gXuO378uHMMm+mz5ozn5z4KQ8bB1l7bbXt84DkJw9FYZ5zseejcYbKbYHFiKwXWWjMuvB7eY14v9xH3MTbOeQHGk8+kRo0azn238WZLCo6dkFeuo6DB52Lfe3da5TZb31Dk2m0WkHEwOUteeqa8LpsP8HqZx7Fwgtv2OtiixD0bh/V3rwuRH5CgF0IIIfIpbmM+GBRsdp/tw05RasUnhbYVBzSe6c/m1nRu3OLVGtl0LAwgPIet9ed+G55N1e1I1IT73Ut3/HkOi9224c4mFLhbtmxx4kPhe84555yo0bb30S6JvabcDuPL58/m9rYwho4DjVlRKHI/Nh3SsfCJ6dW+SxT0HMvCklfSpoXxtXmYbXHA62E6pT/HCghMq7khzxAiq5GgF0IIIfIpVoTRgKeByyWNYPpxacUm99n+s9xn+9tTuLM5PP0IBR79KM5pQFvBzvNYkWDPy30cdItQRFjDm87GyzaJpQDmbxIbhtjftXEm3Be4bcNnN/a3rOO9ocDlGAC8vtKlSzt9zm3ciL1uLvMSvMd8hraLhX2uvFY+N26L3Aefi3V8Xm747DhQJd9dink2Ued7Z9OrO93mZuz7x2u0rXwIr4WzabA1Et83DrbJQkP77tlw9v4IkV/IG2+uEEIIITKNNWCtERu4tMYxlxRw9evXd2plKVjdQp1CwNbQ02imgLXnsFhjm2KQ+3mejRs3Ov137W8QFgpw0Co2iaW4oAs8F7HhCePijo91ZwP+LrsUuJug857Url37hIgnXFqXl+B9tvG++OKLUblyZUc8/fXXX06LhLx2PQWFwHfCPie+y5ylgDNTkHLlyjlTR+YVER8Me53uZYMGDZy8hLBFAgcCZEGkDWPTtBD5CQl6IYQQIp9iDVca7XRuo5brdBSf3Ec/rtMY5vRPNPhZ+0zRamu4KPJYy8flBRdc4Mz9zHPY8xP3b/IcTZs2dcQE++/yPAzPMDS2eW6KChYgsLmsPdaGsdvEvW3XGY7YZXbD36Gz95IFGxQMvB/cZg0hm6jzem2cbFhiRXJegHFmAQ6viWKefZQpjFgAw2u2AyKK3IN9J+hsOuM63zumVb5zLFjjPjZNZ/cQwm3r8gLua+S18b0iXPL9Y1pl2uU2W5PYUf0teek9FCI9SNALIYQQ+ZzTGew0dmnk2uarLVu2xHnnnYfVq1c7NdD0434KgjVr1ji1+JdccolTA094Xu63wp/n4zEcxb5z585OLT2bv7ImmzA8m/5S0PM8F1544QkDPDCubkOc8WM44g5zNuBvM/4cA4AwnrxOCgrG095TC+PtFvd5AcaV8eZzpLDnNVPU87o10n3uxP1O2LRmBT2FLZ8n/fk82aLE/R65j80LML72veK7RiHPGSb4/lmhzyb3vHZuMzyvPS+9g0KkBwl6IYQQIp9ijVe3Act1GsB23QpkC7dZ837VVVchJiYGs2fPdmq5WCvLdYq5yy+/HI0bN3bC0mimuJszZw6ee+45TJw40QlDA5q17q1atXLCT5s2DX/++adjXG/evBlfffWVM8J2z549Ua1atRNiN9ARu27Fh3sfySkhYn+f8PfZ/5/XY+NDIcEWDu4wdklnCyzyAjbufC4suLGFFIw/CzHs/N4id2GFLLFpje8pa+bprLDlAI5W0PO55rXCJsK483oYbzpeJ98/Xgv3cZvvJ1vM2PDW5bVrFSItJOiFEEKIfI41eC2B625HY5g1XVdccYVTu84m9m+99RYGDhyIxYsXo23btrj66qudmmgrDlhry5r7r7/+Gr/++qsj+OhPYcHm2rfccotTCz9lyhQMHjwYo0aNcvb36tULLVq0cH7P/rY7HoFYY/xsY6+ZAomtDmycKXrtAHLE+tv1vASfLaEoYosMXpu99xL0eQO+f0ynhIVsdPYZ8p2z4pdpMy8VNlnc75R911hIERERceKa2KrIPRd9XrxOIU6HBL0QQghRgKGBS6xhzyUNXtae33TTTejYsaMzrzrdpZde6tS22763NjwHwKNgv/fee539tnk2HYUgR36/4447nAGraHDXrFkTffv2dc5nB7DKC1hRYAWBW9ATNrlnqwQrfu29tdh7nBew8eSShRR8xrwmXgMFkp2GUOQe+KxYAEPcz4brLIRhbbVNgxT0fK7EptO88jwZTxtXm1/R8b1j4RP9eE10diYN4r4+97oQeR0JeiGEEKKAY41fGrnWQOY2RTxr5B988EE89dRTTo09a+YJRQEda3JpSLMJ/gMPPOCEoVBwn4sio3r16rjhhhvw+OOPOwUFjRo1coQ/91kRktvhtdARXhuFAkU9oUBiX3MuiQ1nsduB/rkVPhPGlc+YhS68Lvpxm4UYduwAkbvg87G43y0OZsi0ap8pn6cdiJLvOv2YpvMS7nfKOsJr5rXQMa26BT2vk86GFSI/IEEvhBBCFGCscUuj3t3MmlgD2C4tNJQZxh5n/djU1W6zRtdCP4alnz2OjsfwvPaY3I47now/B9zi4H6EBR316tU7cX28Lnt99nrzGvYZ2VYHvBamEdZ6StDnfvj82OSe6ZbN7VlDb9MhBb0tfOJzpctL2DzFvmMWbrPwkIWKTKubNm06MRinDZcXr1eItMj1gl7TogghhDgdFFYic9AoprMi3opWbtM45j76WSOY69aYJhR6buFqCwUs9LP77Hm4zmPo7O/lBRhfwvjTMd1xLn1CAcERtu29sMtgLi/hjrd9fiQvPbeCAp+JfS72eRG+oxT2HByO6ZYFayyksc/VXciWF2A8mc/Qcd1eB2G3F3bxYdN77t+yZcspgt4eI0R+IdcLelt6KIQQQqSGbQYuMocV17ZW3Rr3VhAEin0awxQINJi5bsPac1hDm9tcEu6nP4+z5yNczyvGNePJ6+A1cZ2VDuxLznWKJSuY7PVw3bq8co0W+6wJ10uVKuWIJT5fXqcqXHIvTG+E7x/FPGFLkj179jjrzC85RgbTpA1L8koa5XVRH9hrc79fzGNYuGZblPD9tO+l+1rd60LkddTkXgghhCjgWMPebRhzaQW5FXfctmGtWLCGsQ1LgtXu0wCnGKQQpB+dFf55BcbV3hcr4K1woB/HBOC6DWud3eY12+3cDp+Nhc+zRo0ajqjnNWzduhW7du3y7xW5BaY964hNb1z+/fffJ1qTREVFOVNTEu7LawS+VywkdF8330umX6ZbW0hJGJZh3HmVEPkBCXohhBAin0PjlUbu7t27sWjRopPcggUL8McffzjGPsU2jV23IOC2bS1Hw5lY45n7bHi3s8YyDWoea/3obH9sOls7T0c4aNfGjRuxZMkSJ26cJs/Gc/ny5c7gVoECJKcNc3u9doR73lfeFzt6P/db7LVZl5egEOK12PtdtWpV5xqZRtavX++kl5y+9yJ92DRqnw+3+e7YPvRsaWFnl7Dpks85L4l7Xoe9TnsN9GN+Y/McinpbQ2/zMhue60LkF5SahRBCiHwKDVxr1NOgpXB/7LHH8OijjzpuwIABzuj1L774ImbOnIlDhw454ShQrQFsDV8KcCvy6KwYJ9ZAtsayrbW22P3uY4gNzzjy9ziA1YgRI/DEE0848eSI+Daer732mmOg8zw2vHuZE9j4WueG8XD7Bwtn71FegfeVcSZ8dhb659Q9F+mHacs+Gzo+M/d7aR3fb4pc7rPPNy+lTcbTpkeuu1vJ0J+D4rHgkO8kOXDggFOYYVH6FfkNCXohhBAin2INVzaVvvnmmzFq1Ch89dVXjuP6+PHjMW7cOPz3v/9Ft27dTjSptiI50OjNLoPf/k7dunVx3333Yfjw4U4cR48ejTFjxjjxpHvvvffQsmVLJx48xhrs2RUvIfIyqb0Xge91XifwOgMLFFkQaPMK8Q/L1wNhU4Dz1gApba8yhzcOuGY6UHMVkOj3EzmLBL0QQgiRT2GNFY13d5Nwzi1fsWJFZ870cuXKOescIIs1WjR8aQjbmniSE8a/Nb5piDNO55xzzol4Vq5c2YkrR5CnH8PaeLqvTwa7EELkMEnAkOXA91LyZxUJeiGEECIfQ+FLocymqBS/bGrrS/bhjcWRCJseiqf2xPtDpoRlOBs2NTG/aifQ5zeg3DSg8C9AgwXAq7uAzM5Mzt+1Ap3O9n2lSOc2l7wGOs51Tz+KeHsM/bkUQgiRM3gTgNeWAs/sN+t+P3F20NdPCCGEyMe4hbJ1bqEeGpYygBRFvB0RmgKaYazQdvP7eqDVMmDcQWCvseLikozANwbd88aw67QBOOoPlxH4W/Y3CQU6B7ayIp1x4H73VGnuawiMoxBCiOxj0x6gx3yT7+8Dwkw2rRz47CJBL4QQQuRTKHqtWGatdzC83pS54QkFtBXxVvi7hXPsAeA2I9oPGeut57nAusuAYx2Bb2oDFcz+eUbsv3U4JWxGseLdHVf7+9xHxwIHGx+uMxzjTueOpxBCiPRz5Ajw6CKg4s9A8elA62XAKJOXB8tV120GGi4GJscCjasC42uZ/Ni/T5wdJOiFEEKIfMr/s3cWAHoV19s/65Jk4+7u7iQ4wYK7e2hp4UNaCpS2lBpS+m9pCxQKFHe3hEACAQJJiLu7ezayvvud38x7dm+WjW/CBubZTGbu3Lmj5973PKNlkdxish67jo/3U+wBBJkp+dgWrhj6wLuqyM1Ru1UTkZdUiWulWlx6ssjZrVX5U794vfeYhtnXUXrSw5CeTfm3jgXKwMg8hmvCActbNHxAQEBAwL4hWz/YZ4wVeXi9yBr9vG7LExm9WuTyMUry1a/0r0hWvkhGhsjfeouM6STSvuQAjO+gKFfk1I/1d2fYnk3y6NhDAfuMQOgDAgICAgJ+oIDk2lR2CDDX2M4dC8O96Svj5JTRcVJ1RLw0+CZRLp0fJxOzS+0MrYreB6yV1AevaKREPuZtOKaxSBe9t14VwK/KngywS1ieorC08YewMw2f/Bt5Z1S+rOcCAgICAvYeS9aJfJusBL2XyMZBSuoHiPymhn579RP8yAyRT0ptgd+6icj8/iK31lQSHvML+H4RfgUDAgICAgJ+oIgSeAzXGBCPXSQyfWm8HD09Tj7eJrJd2fr6HXHy2uJ4OXJCgnySVxI+f4fIVFXs4lWD61/Jee2EBPXrnaREPE9kvIYFezs6kzA8XlK/8SqJpWd5xdiGeLiN0JdVpoMNOj8wtkSBdLnGJn8/VFBGOlisng9lnQfsG6xdTFYxhrKumfGCfTi1Kfm1Dj+zrWyUwdyAa07wiL6f0fsBWkcJIg/2FLmtlkh1ddepIvLHHiI36Te9IEvk32u0zmJhQZr+BqTvpajEadiPTtLnT96zyR0QeyhgnxEIfUBAQEBAwA8YRnzLRpx8tDpOatUVGX6kSNYgJe3dRY5LjpPsbXFyw4J4sSXxnDW8QrW6hFSRJmUpc+rXVO+h+S0t2Th/n2CEAtvIelnAH2J/qEG6RgQgCLaJIP4QC3bm/6EQBcphZMnKB2gXyv591H/ArkF70dFEO1nbYZvM2jtj3wMMYfC39jVyX9FBfoHlFdvKzpKh9evXF2+gSVgIPe+q1Yn5B3jU1u//NaU7aRNFftrQr43/Yr1IrI82oIIiEPqAgICAgIAfMTJqiHzYVWSQKnSpytE6q3L3bjeRNqrvLlkp8naMnOfme6UuXhW9DO/1HWTEBsG2xKZo/lBHZyBGaWlpkpqaWtzxsGPHDtm4ceNhQYj2FpTFygNJ2r59uytrvXr1pHr16oEUVSDsri0gssAIPYAA84xdGw6XNiWfVi5k1NzYyCrEnrJxzzqgeMbk+XAp56FAh6rfXUIFmlcR0Vv6bfOduQEVF4HQBwQEBAQE/IhxdjMl76W0gcrVRa5SZa6oQOTjTd4vTxU6dLo4DZuyC13Y/PN/oMpflEAw4sfRegB/Rue3bdtWTBh+CDBCxMjtggULHFHCr0WLFlK/fv1YqICKgujMCSOsyCZtWLduXalRo4ZrSzqeVq5cWUxwMbij09IrOizPwPKObJrMAgsTNQYLEyBSRZu9LELIVHwG7ov0s5e9n9UVNsU7NAiEPiAgICAg4McK1W97KXH/DtS/q/qjJCyIzbVMUj/UYfTg3F0odzkxf8L+UGGkAKJkI5648d8dSeDe4UQiyGuUHG7YsEGysrLcdZUqVdw05oCKBdrMZNGIrW0e2apVK2ncuLHzW7NmjSxZssS5CYvhucMF5Btj8knerbwYptvTcUG5MjIyJCUlxbmB2QEl2F6gdRpzR1GYL+7Eknit5iqh2io0AqEPCAgICAj4sUKVNJsmXxqV1R8dLiem5ydzRJ3aRarkbfVe30FmbKp9tVicP7TRmdJkALJQp04dRyaY4rtlyxZHJH4oMMIHYaJc1nlxOJG/HxNoLwPtRnth03bMJmGJCNfIKssnrH2xD7c2NbnEBpQBA5lftGiRmy1D+Zs1a+beUysnsHoJ8JinrD0v5o5ibqZ+09XOqCRSfz+rK2yKd2gQCH1AQEBAQMCPFarfMjpTFiDnqL9MxwTxqSKNVKkryBZZXtZwjvot0Xv0AjRhc7wfKCARRoRYS96kSRNHEDZt2iTz58935MmIQxSHG4Ew0kNZIEe2sz/+6enpbtQzoGKB9rI2M4LOVHS7tvuMbOPHjAu7Z+ZwAGUA1nlmskq58Fu8eLErG/68o8hrNNzhVNZDgRVrRN4ttZEpnbH/XOGJ/nG1RMLbXrERCH1AQEBAQMCPFco7Z26PuaNQ/wmZSl7V2To2szpRdeIuSu4LVPEb52de74QCjedb1f7YNK9bmvf7IY7OQIAwEANG/mxzuMzMTEckIL4WpjSMiBwOsPxDkCD07BFgG43VrFlTKleu7O4HVBxE5Q7Cap1L7PfQsGFDqVWrlrtGRmnTrVu3umvCIptGkA8HRN8lKzP5Z4R+8+bNxe8hZWZmAm6ewT6cynlIoN/0n0wUeW6zyDb96K/cInLbBJGn9TufrK/5bXW0vmNBAyomAqEPCAgICAj4EeOt5SJrSnHPjetF/rdVlYQkkZOrxTxVYzilhip2GvZ/y0RK9wOMUr+peq9GLZEBfmnrDw4QAtt8CxJk5ADyYKOekN6ywL3DCVY+DG4b3aS82LZ+OaDiwNoI0D7WRrQZpB5jYZBZ/K2NuXc4bYpn76J1XGBD5llKYNeUi/0eIPTAykodYAI8jm4s0mKbyJVjRKoMF2n4jcg/lNTHp4j8vatI3/CqV3gEaQ4ICAgICPgRY/UqkTNmiYzLFsnJF5mwUmTwVJHFeq+DKnpn+KPW3RDNmU1U8VN79hKR8+arnSuSpebdeSKXLlUSqPeGNPVHHf0YwM7hTLkHkIjs7Gy3gziAOAAjFkaeDhdAmCy/q1evdmUzv6pVq7oReiOPARUH0XZD9gDEntkktJkRYI5ZZJkIxNaI8eHWntHykXc6JZh1YGXBQOhtUzyrl6g7QKRSNZGhvUSuUruGMsMqySInNBL5uL/Iz8raNDWgwiEQ+oCAgICAgB8rVH//ifLRGUrG+34ukvqpSC8l82PyRBrUFnm5pfrFgoJKNUSeai5SWXXhYUro248USVdz1gIlfXp/QCuRu21E/wcISIARIgwjf+z2buSBEUKmMnPPSEOUyB9OJAKiR35tsz+m3Fs5KTPn8AdULJh80UZRcM06coyN2tNBQ7saKTZ5PVxAvpllYCPtln/WzuMPKKuVmfcQWSYMbgvzY0YX/V7nnSzyfkOR2tVF/tdPZMOJIpnHiXzSSeS4vdwLpaX+JuRoPIvai1j/b8ChRSD0AQEBAQEBP2L0VaXu43YiA5WfpalWUK+SyBC9HtddpFPpqZbKE45uLfJ1V5ELlLjX0vtJ+kxLdf+2m5L8lv7c4h8qjChBECASEFtGq/FnF3FIL8e7QRyiRJ77hDfycTiAvFt+mXXAiC5lgkhB5sOmeBUPtBnG5NRILkBWaTOILP42m4Q2joY/nFA635SNvSyw7R3l7H3Kjhs/wuI22Q4I+CEgSHNAQEBAQMB+YEueyKrsw9TkilzfU2Tl0SInFoq0qCfyWl+RBUeJTOwtcq9ex2uYMp/NEalZXeQfSuCnHimyRJ/5Ut03KKnPLCt8OZpt3/OgGmQ2Spog8Rj8GZ2HJDGN2ab4YiARwJ47XGDknU4KiB/lAzYrgenNARUbRnQB7UZHDPKIsc4ngFxyfTjJJ2VjqUB0pB338uXLnaza+xY9hx4Sb/6B0Af8kBCnQl1h314+NK1atXI/jgEBAQEBAWXh4Ycflq+++kpef/31mM/egZ+/adOmyc9//nN55ZVXpEGDBrE7OyvCZeGDtSLnTBLJO3z03x8EmEEw7yiRht/TsXjIDETXAIF4/vnn5ZZbbnFknvX0V111lfzud79zYQGyBDE2mcLek3xVBFj+161bJ7fffru89tprjij16dNH7rnnHjnppJMOi3L8GBGVPeQVGz++c/fdd5/MnTvXkdxLLrlEHnvsMSefFt46oCoyrHzYvIPWucT6+d/+9rfy8ssvy/r1690eF48//rgMHjy4WFatA4COuIqOMyeKfLwudhFwSBCvYvKn1iK3NY95lANMXj///HO54YYb5Pzzz3edUfjTscT7h01H6Zlnnum4774iEPqAgICAgMMa3wehf3ChyB1zvXvAD3jNeEXC6M3eHtFb5Lia3v19ALkxUo+cDBs2TO644w5Hklive9RRR8mrr75aPHJvo4LYJld7kq+KACOC8+bNk5tvvllGjhzp/M877zz5xS9+IT179nTXP3hsmyUzHrhXvnl5hKxZtk3iazaX+ideKn1/fYu0b7MXC0wKV8jkc7vJe5Mvkyvn/l2aHoKJDdEOpKia/9lnn8n999/viAVhTjvtNHnuuecckSAcZP5wGbkmvxjKiaE88IULLrhAxowZ4zqfeBf/8pe/uE6oaJ3YMxUdCcO0LdVuEFa3HBKsjJ3Ff4L+vnyivzPlBXsHA6EPhD4gICAgYBf4Pgn9fzr4TeUCDj6GTBd5cvn3S+iRGQxkFxulbMKECfKHP/xBPv30Uzf617VrV/n444+lWrVqTo4IZ2QeNzgcyIQR+rFjx8pdd90lo0ePdvm/8cYb3TuDfnY4lOOAsG2sjDrpZPn8681SWlmOqzZAjv14mBzVZ3fn8W+XVX89XZ678zPJbnKLXHUICL3JGMBNG2EgDZMmTXIj9O+88467f/zxx8sTTzwhjRo1cmGR58MFpd8l3r3FixfLWWedJXPmzHHv3LXXXiu33nqrtG7d2pUfRGW2ossvhL5Jmsiio2MeAQcVC3eItPzi8CT0YQFJQEBAQEBAQMBeIEoiUMAAm+LRGYQfJJhdthmIYIQwShjKIhQVGdYJwZR7ymRlr127tivzDx9ZsvTeq2XUN1skrumZMmj4PLljx3a5fdpbctRxdUW2fC2jfvKQ24+iTBRukKV/OUteuOtzyfJNf0hg7YRtHU+GWrVqOYMfbUu72jGLh4tcAvJv5bL18rxfa9asKd4LAIOssrQAN+XDQPwxh1N5AwL2hEDoAwICAgIC9hOFRX6TtNmzZ7t1xkxFZkSIKcqsq8b+1a9+5aZ9QoxM8TSFE7ddmxtzqGDpRmF52xUgCRjL977CSIalHXVjUNC/+OILue2221z9WV1+88037vn/Pvlfeffdd90a2WgchwJGAiC7ttYYclunTh13Dz92uF+5cmVxeXz5rNzukT2AQAdmipxc7t4UFvpjvCyP1i5mA+4tXbrUrU22stesWdOd7Q182UraLnp9uKNow7sy5qk5UpjQSvo8/5IMGNRK0tLSpVKns+W4t1+UXi3ipWDqYzLm422xJ0qQt+gj+fyMXvLcb0bIjqRUSTyE3JF2MmOdMubPju+0n7UT7bpkyRLXXtzfu3b7rrztu9k9ojKF4bqggOMicZfcNyDHfDeQVQi93WMNPZsBWnkxVje4DxdMnz5d/vWvf7nfF76F9htj38aHHnpIFi5c6MpNPWDzHpd+l6Nuu8Y+VLD0o3WP2/IazQv+Fs7ya+5oubDxK8uO3jc/zIwZM+SRRx6RX/7yl+53xn63mWkFFi9ZLCtWrHAdP/a8weKoaAiEPiAgICAgYB+hP+kxlydqKMUffPCB2xgNgofSbKZ69eqOAKFcoxiY4mKKgikIuE1xiLoPJSwvmChsVCuaJ65RHvcWVm5Txsxdupwo24yqMWXd6hAigh/I3JLpFLLt27e7a2BxHgqUTqdy5cqO0LNmnnsc78bUX9wWVoukKNlhe88gzMEzkPmCAjYH8/mxtrXRzmgemWpP5wntwkwEDCQJ8AyGewZ7tnS7VgQUbpggU+65Up7r3kweqJQs9yalyX0NO8j/Lv2tTJuW6WrHkPvlB7Joc6HEd7lCehyRHvONIeMY6X1VF4kvXC/z3/1K8mLeoHDeP+T5zqfJ5x8tlcRuQ+TM1++SeofwQABrC2w6mKLXtBuj1nyTaKfVq1fL+PHj3fuz9yiRo/03u4fl2WQTg5t84tYQxZ0V1rGG7C5YsMAReutwa9iwofv28qzJJf4Yu67oIJ/8vvDN4/eFXfutYwab7ySnF1BmXzcevH9WZ7jtHccv+m7ijl4fTJC2dbjgpiPG/M22/EXdALu0nFo4+/5b+Ki8YBvMTfuz3wl1Rx1ieCeqVvMzjzZu2ChbtmwpTjuKaHwVCYHQBwQEBAQE7CPKUhJQHllf/Jvf/EbuvvtuZ2MYoWfdHOvjTCFBETUDiAM3ShkorYgcLFgeSMuM+ds1eYkqNpZHC7s3sLhMAYsauw9MEe/Vq5erQwy7VlOP3bt3d2EGHjnQhbE87k9+9heWhqUNIEmMBELq8du2bZt8++23TnGl7iysWvsAAu/KHAh8HHFx1FnJMV60C3UKsFGIyTudE1OnTnVLCNhJvFu3bk7OrR3NNnCNAfhH733fKFz0vLzZ8wh5+w/PycLJSyRrR54U5WdLzspZsuSlP8mbA0+V0VOtgypfNk2aKjlF8VKpb3+p8Z2N3xOkRt/ekh5fKFkTx8vGCM8oytoieRk9pOvfPpEbxjwuXdqX6gyIomi9TDw1VX6vwrFHk9xDRk3fF+L9XdC2TZs2lZYtWzq5ZK+qmTNnuqn3XNu7tO8oLaN7MnsG+Ym5VKZK3jutNLW9OypryOqUKVNcRx/lbNasmdSrV6+4I5Cy2TOEL4m/4oO8sw/AkCFD3DeRPS3s24hhrwD2QaBsrM0mPHVg7Vn6HcXf7lEPh+o9JR2rf7vGkJcoCbcw0baya2Bth5/d31XngF0D3MTBGvXLLrusuB5//etfu9+YG39+owuHzNgpCMQdTS96XZGwv29uQEBAQEDAjxbxjhD5H3gUKH7gURQYrUU5McXBFBIjSYSz8PgDU1JMwQK4eeZQIJoX3KSNbddWRsuPKVxc48/1nkB4K5/ZPI8hfhs9wlj8pI1teTNQ95BmC4uJ5vlggrxY/oHVF6PWbdq0ceVhFI3NFjdv3lxcN74c1MHeKIPc35PZPUhj1wZlnrpPVCU43027tqn3kHbLMzZLB6xtKBukgRFCaxP8KD/X1lZ271C1yV6haJ3MuP1Wmbm0QKqc/Ee5eMoKuSsnX36XtUlunfiOHHtyA4nL/Ea+eXiEeEpfKJlLV+j/CVK1eZMyleX4Rk2lir4SRSuWytbIK5DQ+ia5fP63cvatx0nVCnYyGm1Ch0zz5s2dG0CEo8uB9h2lZXNvzO6B7Hm5898ejMkXMsU9wlieuWYvAJY+UR7C9+/ff6f9AixsNJ7DAeSTPPOO2jtl5cBEy2HfU/PHBrjtWWzCWB2a38GG1bl1sHDN98byaO0JCGffFkBeQbR82BjbMwFYuS1enseOxo1NPMgIYS2uaB1YHdlzhMM2d0XEwW/BgICAgICAHyhQBkxhwLYpy6ZImFKCm5Fc3KYk4IdtsOuy7h1soKSYsfTNUAZgebJw5ofZHSw+nqH8KFKAejDYPYsft/mXThMwehJV+AhzKGDpAcsbZWMksEuXLs6P68zMTDdN1hRL/BMTbZrvvpiDA+p+7dq17nivN9980+3UT96sPLQRsjxr1iynMFPXPMN0bQi9taHVAcbalrC+nBUHRRuGyrRhG0WqnSGDnrtb2nZpICnJKj+p1aRq9zNl4G8ulGoJhZI1c3qMnOdK9uYdasdLSrWMsilo5QxJ0RtFW7dITvQVSKsh6el7qfTH1ZIeH2XL77W+9mhyJ8rRnQ6sk492qV+/vjRu3Lj4/WNEm6nqYO/ajbJFzf4gKuNR42H5oAMsOztL1qxZ7WT1ww8/dGvFrQMK+cONzftGWUwOO3fu7Kbbcw8QHtj3rKLJ6K5APu27Y23G948yUiYMhJdyEs7KCex+tKzEQXjqzeI7lLB8kqdovmzZgMHKTXgLi4mWk2srB99aC8u1uQFuDCidtt3j2sJE7xui9yoiSmouICAgICAgYK+gP/fORjk0hQqgXPCDjx9Khf344zZlxfy5xqCYYRMX5AnFlM2dDiVKKzKWb4AbRZl14UwlxyxatMj58ZyRu70BI+vLli2Tr7/+2h3hQ1xsPkSdmPJp9WIKG+5oniyM2eTB7IMN0iidDvli3wSmMjPirdmSrKwcmT9//k5t7aSmiGsUbspihmsUa29KNq4raYudDWmigO7a7AlMtebosr/+9a/uXPKXXnqpmBiZTDMNm40ImWlAuqwxZWQXQs99UDpvlBcQD9cVBXG1rpBLthXKPRvfki61CyV3zXxZOeoDmfaf++WTa8+Qpy56XDZTJC1z7E2Wwnzyr/WRklImbY1LTpEEbhRpmx96XrTfYL0wMy0YKaW92Bl+3rx57p6R3d2DQpc2+wqT/bKMFHcMIWd8d9gE84EH7pff/OZudzwk/hA4k7F8/f6yxpxOKP+u+R39ba8Hwpk/z5q8Hi6gPmgvbN4tKwPAZj24+VFv9v5RR0Z08eebTVszmwH/Q/XdjMLyTdr23efbs3z5cpk4caJ8+eWXbhNAOykEkFfyz7OWX3MzKw6beJAD5IVjbDH8vrD/R/T3hecsDzyH4Zp7Bq7JX7Qu7ZmKikDoAwICAgIC9hHRH3fcKFqmPKEIYFDATBng2mwLY0CRQOFAGWHKKLvvPv/8827q6KFQIiwNbFNqyDfKDIDQQb7J0//93//J3/72N/nPf/7j/JiuHVWEdgXIISTy/ffflxdffFH++c9/uriwn3nmGUfwuW91QV5IH8M1+SmGOhmhMj/L96Gqq2g65IG2ZCSQUXrb/X39+nVapm9cuRMT/Sh9fn50aQBxmNkdDkaZ2GRrsWvPkSNHyLJlS2Xo0I9k2rSpLr+WL6ZhMyqKsg3Y16Bt27au7qP1jexTLpNh7lHGQ9Ee+4T81bL44SHyvxbV5f76reWJY06XN2+4S0Y//b6sXM67pmGUmfts6zvqtqYvkgJm3eBVCkW5OVLAjXglG4fJ8e20CySXjhnakmvaedy4cbvcBKxsUPD9MVHs3j8/38sd5O7xx/8jH3/8sZtJMGzYMFm7dk2xDDKyS0ch3yPrfGJPC9bQs2+JobQ8+vfw8ADvIO+WlQE3MIJv/kZAeRetc9nANWT5H//4h773Ix1ZtrCl6+ZgwdoMY98JOrHZx+GVV16Rv//97/LAAw/IU0895Tpu6NgmfyaX0d9NYP7YyABy/Lvf/c6d837iiSfKxRdfLP/+979dZw91Zm1u8RB3NP4oCIuxvEb9KiIqPKEvq5IDAgICAgK+T9gaemAkBoXJlCh+9PEzRckID8YQVU5w2wZkH330kRtdYKT+YP8GmrKCbXk1pYW8QvA+++wzeeyxx5zi/Oc//9kdwceI9BtvvOFGcEsrjqVBXCiejL4899xzjhDed9998uSTT7pjg1BCX3/9dXfflCXSJk7qFsXT5S+i+HOfOsMfG2PPHgqQFmlTd6RN+dgUr0uXzs69des2mTx5imRm+rX+GLLnyvGdEfqd666kGGXf3xuUNWrvjU+/ceNGcvzxx0rlymzU6NfRc1Tgxo3redqFsSnMtC+AALIrNHEYccBN+zCaxjID/KmPgy23+4yi9TL3xqPk+VuflCWLtE2Sq0u1rkdKm8tukmMeeUOueuVnUn2nwelkSa2WLlpCyc3cWnYLbMuUHL0Rl1HNTb3fLxziTfFoL94d9nxo3769a0PecUZt7ZiuPaMs+d1bA8ryxwDvRv6Sklg7nyBt2rSSbt26qj/vUb7rgICg2beUPLN8ZO7cuc5NhymdT3SwRb8J9h7ScYi8Hi6gDPZO0X5cG5EH3MMfG9i3kXogjBk6bCD0Q4cOdd9tTjiwOMw+mCCN6LeBtuJ6zpw58tprr7n7HMP36KOPypFHHiljx451JzBA1CmftR/lw+BHPRAH3x1k+JNPPnGdPsxAYeM77tFhzGwkyk94i4v0uMZEv2cGC4dNPNzHVFRUeEJPJQYEBAQEBFQkRMklipMpWGZMaTFlAz9THvBDSTADuM9oBIQeYsSUdpQvNliLIvqM2eUF8hAFIydMg3ziiSccATj11FPd7tiMfJ1++umu3E8//bTLd+k8lc4bShmj8y1atJBBgwYV70DNuvPBgwc7hZyRNxRt6gsDsJnp4IhGLMqkxKTiqZiAfJNeeddHWdhdGqxNRhElv0ZyacfcXL8GnU3oTC7KAlFb9JTJ/vTK+TPCn5OdI1uVYG7cuEnWrFkrq1etUcV8jXerbWbduvWyefMWlaWtsmNHlrZlrnveULNmLTn66KOle/ceLm7CMGI/atQolzb5ZF09U3Ope8rNLtt23j7XyDHlZAPAt99+2z1LeO7xvLVhRUDB+L/J8KfmS0FCM2n/8Ci5deMGuWXyF3LJ8/+UY352rjSqrfW7U9PGS0bTRlrzBZK5eHnkbS9B4fIlbr19XMMmklFxirpbWLuxMR6Eh7Y0WYUQReWztKzvfM0X0L9z5r+TO3ZtcNeY6P2YAXibG5Q8WyTNmjd334nkZJYIFMmqVStd55N7R9TQ6cQoPoQtSuhZIsK1EVziZP09supH+de6ey6VaF4j7ooIykx5aCv7DnLtvpExN2EAZcEQFuLMMiB+XzgNgPcWf8IeqjKTN74L5BU3nYUQbvZGOPbYY107N2nSRE455RTXacz+HvwOkk8j3hYH19Z+dEpRtj59+riZHMzWoI3ZuZ6OaI6U5beMclocVjfRsuMPqBN7F3CXrs+KiMCWAwICAgIC9hGeaOmPqNsx3CtTpgAAUzoMKASmLICo4oCCgGID+WPK9rnnnutGkUaMGOGUTlMiiN9GJ3CXTnN/YPkinmg62ADFmXwxmgepB4SHvDKtldEQpsvbKL09Sx4tDvzoHGAEjXKhhFq5gdUVz5Qe7edZwtpoEyAcz1jegV0fbETTwG1tTD6Z3stUZlsOgJKJ4kzZuQ858eGJA4XSE3VuFRYygwPSjh/yVCjZ2XmydesOlYH1snDBYlXAZ8o333yryukweffdD+T5516Sp556Rp595gVnnn7qWb1+1rlff+0tGTZ0uHw87BMl2l/Jt+MmyuxZc5Tsr1Wiz672+dKiRSvXuQJRQpYYsWPWBfmlDSDoED3qljW6dMJgc4/ymczSqfP73//eLcNgKq89X3FQKJspizL2hKPvkFNuOlKq7rRpXZFkzZ8nWWRZ8+1znig1uneRlLgC2frtONlc0hcSQ4FsGPut7NB2S+3STartL6E/xJvi0ZYY9kGgQ433CjBVfdKkScVth7xiou8x7e2+PUXqX6jfocJ8yS/MU6Ok2fkVSl6BfpM0eEGBks18DaNufYM1Lmb8qMyoXPMm6G01cUIfUwHyrg+552Jx66vBC+aukbm27duqaSMJSfGyZu1q+WaMX85CHpFRlobQ+UleeQ/5XvEttQ5Uvjl0WDz77LNuSROdlMyEspMozETLXJFkmLzY98byhZtvjX37KKvds3IYcPMtGjhwoOt0pOOY9eXUocV9qGDl4JvDKRp8MyDydDLZngd0ijIjiN8/ZhPwu2EwGcZQZuKjrU877TQ57rjjnGzzPL9XZ599tnTt2tVtAokf9QJ4xurNjF1HgZ/VqdVT6TAVBYHQBwQEBAQEfA8wpQuzatUqN+2Zc75POukkp+AwooASFg0bJZCmrJYHUFbMEDc2mwm99957biouI7O2PhyFhg2nUJpRolHIUKqBKUWWT0B8KJ69e/d2I2l0EkAeKQ8kgU25GJVhxJhOAtLmHiA+no8qUUa5KgLIK6AtqB9IL8fX4U+dvPzyS64dPXwnBuWxc7UhPpB3rnNzCyRbFew1a9YpeZ8hn4/6Qgn2W/L7e34vl19+pVx//U/ljjvulEcefVTGKZlkVH779h0qN9tl48bNmt4W2bplm2zbluVG8CdNmirPPPOc3HnnXXLLLbfKddddLzfffIsS8P/J0KEfq5K8UTp06CT9+vWT1LQ098woTfPLL79yI5m0FUSIEa6TTz7ZTWOlHQHtxrpXpse++uqrTjFH8YYwQRaMKFQMqMSoPFluvqOOZ02U8f/90o/Q5+W6rQlB0sBTpFlVJaMT/ifjx2yP+caQOUrGPztVCuNrSMvTBoinxYcHeJdoUwhTjx49HNHh2wMpjs624d3jPTSZ5Z3GZokGpBs3telJj4+XDk5kA5nGLzcnz80q4TvBMpRt27bLls2ZbubI1sxt+o3ZIFu2ZKrcEyZHn82XXDW8FzwP6cvVNmnZspX06dPXzc6hQ4HnIKR0QJBnlgWRLuSfMlnHGiAOlvOwzAciz0j15MmT3Ugue5Ywwm/fGcIC3Mh+xZHhskGdk0faiTIA6gTgb23HRqTc79mzpxv9hjwzQs8pFoSxch9MWF6cnGhe+EbQLsgGG4oih1YOvqd0ONE5Q6chv0E8h4nCrnmG7y/hScfang4CfrtYT098Vic/RARCHxAQEBAQ8D3AFDCAksm0dIg8inbfvn0dSUJpRbFEWTXYc+WpmBCnxYfijqLEFFZGsCDv7IyNPwqXKWWM7vEcxBXyb8qSxWM2YZk+yQgKSte//vUvN70b0ohCDQHs3r27I/SmVFt+sK28FQGUBWNlA5ZPlEiWFDB1lOukpAQlMX75hI0mcgZ8XByjShAfCJGSJmWS27ZmybKlK+WTT76QP9z7oPzshl/IA/f/Qz7/fKxkZNSTCy+8Um65+Q658cZfys9/9gsl4ccqaemg7dJIldbqUrlyLcmoUleJubZTfGV9pr7KUVe54IIr5LZbfy0/+9ltcsklV0uXzn1VOd4g//vfS0r0fycvvfyG5jNd856uRCletu/Ilffe/1DeefcDR3QgB5A/2gc5oOy0D7MtHn/8cXnrrbfcFF7KyxRnys9oGM8QLlpP3x8SpGqP7lJJxahg1H3y4cOjZFNmruRvXS1rP31chp40WL6Y4Je2FG3fJnmxLMfVPFP6XN5C4vNny9gLz5NRH86WHdlZsn3muzLynEtl/AIluR2GSN9Tq/oHDgPQHtYukF6+M8gl3xg6nlizzLfGZNzkHQO8v76Tcew6zkwUvgmihDzXdSTt2JGj342tsnzZapkwfpp8NnK0jBzxtQwbNkqee/YVeerJ5+XJ/z4v/338Oed+6cU35f13P5ZPPxklnw7/XJ+ZKrNnLdB3YZV+V7ZKvr4jiZpOndr1pEXz1iqrKe692bRps9sADdnjO8J3iu8Thg4qZJG88t5BWtkYjbXjfKvwr1mzput8YxQXWTXwPLJMGNyHG2hLvkPk30g6fsy2gexSZtqc5RbsBs+sBdoZAn0oQL4MEHk6FUifvTm4R14BbvJLWeiw4bdwb0Bc1gnF94u9FpCHo446yo3cW9v+EBEIfUBAQEBAwPcElAuUadYeM5qAgglxateundv8idFsph2aIoIShB0l1wcCFB9T4EnDpjBC5Gw9NGTeplpbPkgXks655CjNjPDhTxiMxW3PoJhRpptuuskp25DBX/3qV27tJJ0YzErAn7B0FBC/dWIQb0VBtHwGrq0dqBOUZdqS/Nt0YNzx8QlS6LZF9+vhaT9GKT/7bJTcd9/9custt8oz/3tWkhJT5dxzL5BrrrlejjnmWKlSpZrGs8VNnf/Pf56Qv/3fw/KPf/xL/vvf/8mzzz4vL7z4krzwwivy4kuvyKuvviFvvf2ePPPM8/Loo0/IY4894Z756KNhsnr1Om1fprJ2kLPPPlfOPPMs6da1u5sqrZRN88ea1EJ5+6135L33PtB69yoibQJRpzOGclAedqJmej4yClhff+ONNzrDLAvaEBmtKG2XdOytMvDYGhKXv1Rm33qMPFw1Rf6UUV8eHfRTGfttZenwjz9L+2oqv+sXyeYt1r5KgO59So7oWVkKVwyTz05rLw+mpctfO54lX4xYLVJtgBz99N3SyM8SPixg7yPyyneGGUG8m/jRlqw9NllGPq39zE04vxeEEqf8QslSAr9yxSqZOnW6DB/+icrlwzJkyPVuRsmtt/xS5foBef31t2TsmG9l1aq1smbNejcDZf26DXq9RtaoTM6dO1++HTde/vnPR+Tm/3eL/OT6n8qVV16j34c75cUXX5bx4ye4b2DDho2kc+euFELfh41uVB6yDlnluwiB5TvFTCBsvmGQfXZOZ3o93yjyT7nZ/fy6665z31u+edSLySvxUAcVSX73BN5LykA7Adw24s0MKAgxs6D4XvMu44bQ8y5z/1CUkzQwJl/UMzO1sJFBvhkY+55a/fM7ROcy/pjdwcpBW9OB88ILL7i46TCg7ff0/OGMQOgDAgICAgK+RzC1mdF5RuZRwiBOTBtlpJeRb0bNGG1A8UHhASir5aVwEg+KDnGZwoOSS3p0NkBSIaiWloUlryhLXBMWv9L5sfiwKRdTH2+99VZ3djA7+Q8fPtxNB0WBQ+EiXfKDMUXbFMCKAvJk5bIyW7lRHNmRu0OHDq6tUEaZ2otCCungufy8fNmwYYu8+cZ7ctNNv5R77vmzLF2yRo45+mQ55eSzpFkzOnOy5e23h8sjjz4n77//mSxYsEZJSh3p1+94Of+8K+XiS67XZ++SO+74o9zxqz/J7bf/Qe6840/q/qP88he/k1tu+a2Sqp/L2WddqXJ0pirwHSUzs1C++HKCEvxn5ZVX35c5c5ep3BXK4MHny89/frs0btJS0itVV/K0RWVynssv7cBmiHTGkHdmU7BWnk2mGBWljJD5iy66SC644AK3aSLtaMSiwiCxrfR5a6ScedsZUr9xNUlISpWU+h2k2eX3yvkTJsl5N14iTTvru5U7ThaN3hZ7SNu3+tFy/Iiv5dy7L5BGLWtJUnKSJNZqKY0v/K2c9/UwOap3ybFohwOQU3vPeKchd2wkhh/fINbRQ4J57/Hj3aMtTd55z9lgccXyVfLJJ58pgX9E/t//+6Xcdusd8tyzr8qWzdnSv+9xcuEFl8uVlw+RSy++Ro4aOEg6tu8pjRu2lto1G0vN6o2letWGklG5vtSr3UKaNukg7dv3kvPOuVyGXHeLXHfNTTLo+MFSv14zmTF9ofz5T3+TIUP+n5Kz1/TlS5I4SdV8xLtp2JB63i9OCGFEt3Pnzm4UGrlkdJZTOeg0ZCSfMrP3x5VXXilXX321c9t7G32HD0fYd9i+2/Y9xo9OD6bYM62d95l64reFumL2ELNtDtX7Sn5MlkgTmQP8liBv0TagLLSj/Q5Fn90ViJPfFDoWaXs6HTlmlWPw6DxAnvcUx+GKQOgDAgICAgK+J6CAoHChaNjaa8DIEaQeIgh5ghgawQUoZuWhhKFAEZcpfyhPAOXK/O0eMJv7bFSEUm0onZ+ocmbxMH2Ssvz85z+Xq666yo1gcy4yIynsI0BHBUSS+I1QVCRYOYDVRdQPm5kGkCQUZ+qE0bHRo0cXz2R4++23lHzfKe++84HUq99ILrv0Chk48Cg3VXnYsOHyzjvvy7x5C6VevUZKts+Uiy++TEn1GWpOlzPPPE+V8UFy7DEnSO/e/aRr157SrVtP6dWrn/TtO9DZnTp1l04du8rRRx0nRx99nJx88mly+ulnOfuCCy6Ws88+XwlUJ01vu3w+6kvNz3sya/Y8GTToZLniiqukVeu2UhRTD6l/dgxnZI+OJaYus1kjHUyUH/J0ySWXuI0cIQ0mQ9SD1U9FQVxGV+n2t3flJ0s3yW9zs+SulTPkqud+Jx07VJG4+GbS74sc+X3BOjnnTL9XhCEuo5N0/tOrct38dXK3ktnfrJsv177yB+nYbu/IfHzLX8h1OUVyz6K/S9PvebE9bWLvKe83I7VHHHGEay/ajQ5E9kKAaBHW3kPCMoLP0qD/PPaY3HHHXfLYY4/LooWLpXevPioDlzn5adyoqb7D+bJQ/b/44iuV5ffkyaeekScef0qefeZ5eeGll+W1V9+UVzGvvSHPPv+CPP3kM242ySuvvC5vvfmujBs3Ud+VPKlSuaq0atlWBqvcn3XG2dpOnZS4pmjONT/xSW7UHjLPd4i8QwoHDBjgOiAZff7nP//p7tPxRPkYmb/88svlsssuc8tCIIt8Uw2Ul3D4Ud7DBeQZ8O3EbeWyzhh2iae8dGBQLu517NjRdcTRgWNn0h/s95X4rY4xuGk38oQhrxj77lt+cO/t7wDx0vnIbwudNsgDHVTPPfeck2ubSfZDRMLv2Zq0goIfP17IO++8M+YTEBAQEBCwMzivFqLICOG+AqWQ6ZjnnXeeG0E27OlHf/QmkU83iJxWW6RHRpE7MgfSxnFurM80pWV3QJlB8WRTMfLA9Md3333XXWNDoFjXirIDqUL5RslB4WGKJYrZ3qSzOxCfjcYBU6iIH4LNaAfkjd3QWXNrShZpsv6RETIUZTZNg/QZLD5AWOJjJgLknY4L6okyQXqJB2WL0W0UTRRSIx3RMr63VmTS1jg5QVZI4coFbl036yIPNaL1TX1YnZgN6eCouhEjPnUKJGVBIa1cOUPe/+BDN8W+Zs06SqQGSuVKVWXctxPkqy+/ke1bsxwh6tGjv/Ttd5SS9V7SoUNnadq0lSP31arVktTUKkpmUrRe0jQ9yAhT25UlFlFn5MuOUMRO1TAJkpZaSeupmtZ1VY2nobRt006V+TbSoGETadSoictvpuZzypSpbkp09569pW+f/tpmWyVXSQIkj46b119/3c2qgCBRVpYWQI4YnWek15RyU9Apc1QOAioOkGHaBhIMeWc9Ou1qU7fZDZ2OKb5RdMDxLWKkExkoUllr0KCZdOnUTerVb+jWz8+cOVu+/maczJ2zULZvy5HUlMpSrWotqd+gkbRq3k7at++oxH+A9OjeW3p066My3kef7y7du/WSrl16OLlv1LCpVEqvojJeSXKyc2XSxKkyceJk4QhGiYuXOnXqKTFtJg3qN3LfpLVrV7i8UQ7kjg4liBydoHAHOwaTstJByjceQg+R5RvDc0YW7RsDjDxWBNn9w3yRqvp6D86b736ryDvf22jeLO/4mY2h7diD5cUXX3QnkVAftB9HweFmw1Xea5ZUQXxtHfvBgsVt+aWdmPFDJxHLJPj220g97cnMLZaAwAXZvb5Tp047lbssEC8dOnyP6GxkE0BkhL0CqDvIPr/zuyrnpjyRfy4RqbJ9nVzV2O8LYvUKdvXc3oLfe2aMUFYrC3HyzmEz04I80ib7ivClDQgICAgI+B7AjzhnfaOIsp4TpYWpkExLZwM5Rj7PPPNMR6hQbAgPUQL8+OM+UAWD51EsTKFA0bV0WAvNtFw6FcgDCiJhMSj++DE6xnpVFB/LD4Y4MCjH2LamEQUbxYqdh+mgOP/88+VnP/uZU7IgDbZfAHFZWQFxVARYeaycUXBN3tPT05SIt3cjn7aWHoWa0e3Fi5ZI9+49pXmzFlreiTJyBCcEbFElroOccspgbe+zVQ4GqcLXVUlIIyXi1bVNUjVd2oj6SJB4JfBsrCdFqsKpn0pCyT1NnyPCUO8g+ElJyUrstU31+fh4hofpAEjR9qrp1tIzgn/aaWfKGWecJSeccJKm20WWLl0uM2fMUvLV3ZEgZAIllA4r2ps6YPouZJ5ONNqRMJQ/SpSwAyom7P00AsG3BzDKy4whdh+HcEG2HnvsMXnwwQedHNOJxuwOOoimTJku77//oesIQiYh7Ucfpd+vQafoN+xklefTZPCpZ8pZZ53rZpgws2TQ8ac4+7hjT5RBJ5wiJ594mnOfdOKpcsbpZ8tZZ56rz54iRx11nLP79Rvg3gH2f/jm67FuLT5yfET/gU42mTZunUgs46Fj98knn3QdpMgqMkhHI2vmkVc6oejwMnDfjH1jcNs37HCA5dM6P61DAtABx2/KOeecI8cff7wzJ5xwgr7vZ7j6YMM4iDO/Q9TjwYZ9M8kz30ZbymMba2IA7Ym8URZ+H/ktsmf3BMLxW0W7Q5z5PaWTnY5r4tvbeA43hK9tQEBAQEDAfkLV4l0qfvhH76FkYMyfzYgYPWB69rXXXuumCDLCNGTIEEfwr7nmGkfoIbmMlDOChtKFQgJxwr2rtPcFRsaICxulB4XKNs3CjzywTtXCoPhD6CEEKNUoTKYIW1zEY4ayMvUTJS46E4KjhM466yyndFIe4gSm2O0K3C+PspcG7cn/uwJlI5+UCWAXFeHmSRRivVeUK3Xr15YTT+KMdyXjRYmyaXOWtn2SKqfttYz5MmLkRFm+cps0b9VdzjrncrnksiHSb+DxUqdBc0lJrazpcCRhoptajGFDPeCU3jgUX61nNRKHLKml1ZWQiJ/lHk9tR/UjLKBNeR69PT+PgImSlJAudes0kc6d+siF518tl14yRHp0HSh16rRQMrdGFW2Rjp36SZu2PTVfNaSgMFnq12+qZOoiOV/JfLPmzSQuQWWmiGPhtB40Py5P6t5DEx4yICdRWYleY1tbGnybltyP2vYOR8E9M9FnKzbIr5fdho0ayJFHDsDH/a1ctUqeePIpeehv/5SH/u/fsmLVJmndtrt07tpfklNqK0mcLN+MmSHbsxKlefOuMuDIU+W005CHq2Xw6RdKn37HSItWnaReg2ZSvWYDSatcTZJSK0lhXILk09GEQVRUvvVrorITp9+FylJJw9Wp21gaNWopbdp01m/CKXLuOZfJOWdfroT/HOnV82ipV7eVbM1kU7x8yc5Ok06dBsipgy9yecvJiZMXXnhVhn78iZ9Fon+du3SWG25gk70r3L4WfH/898nXATLq5RSix7fNz4Cyb1hFgMmWfRPtOgq7NvlDRiHqlINj6vht4TeG3xVsflvwY8d7OkHoMOYbbzM0Sr8T5YFovNiMxjPqDqyj0MqITecvHcEsF+DITGBx2G9fND6uDVxbBwcdjnQ6c5oBv1f7Ap43WTBTUVFBPrcBAQEBAQGHJ+xHnh9+g7mNwEfJt10zHZIp54xSWHhsU1IYceIe570zNZL1jkaqjVRE0zwQROMxhRYlCKLN2ks7J9/C0RGBwsVGfkzPJSz55j75szIQF9fWaYCSGe2YAEz1hNhD9AkXHZknnmhYYPUYVerM70ChsTkiQGxRYyhdPrIFKcovyFVHoSO2eqXPYDSMkhimth9z9InSsmVnmTlziUyfsUSqZNSXM866TM2l0r3HkVKzdiMpilPyLynKvJOVtDPyzq7z1GGiJDIqr38+UW8SEpjJoOTe2Sie/jaKLH7x8TEllOB0AGgA6jYxkV3NmaZP/HQQpKoymCapKdWkft1mSqAulcuU2Ldv31sJfZHMmrlMiVANOe64wdK9ez9VjDMkNa2y+ilJ0/hpB84GLyjMVxu59B0bO9fc9weTDWzeG4zJlckQfq4c6k89YXCbbJnb4rFre878MQZzE87SqQiw/FtHVKX0VOnQsb306t3LEV5GS78a/bV8OXqMykmqNGveTmrUbCRjxk6TseNmqDDpd6l9TzlbyfaVV/9cjjn2NGnSrINUrVZfEpKqKHFPcabImWTJL0yQApW1IpVjpWzOVgFVmUxwZB5iH68yzywUlorE6TOi70F8fLpkZNSRpk3bSbduR7jNGy+++Bo5/vjTpFXLLlqn6fodylOZztDvUA8l9b1k2/Yc/UZma3wJbjT+0ssulauuulLvt3HvSrQdXKdYHO3tyTxc0t4h2t/IZUWByZzlHztaHtwY8s4+JMwKohMDMsw3obQM0gnbtWtXN5LNciiMwWSb8JD80s/uL4jD3i8INr8ftpaf3xM6iglD+mzYR77Jo50hb2W0MCBqW/w8B3BTDmSBtPhN3VtYGhYnpiIjEPqAgICAgICDAFMETAGBTGFQkFhzD6GHwDKd0MKiQBAeG6UERQbCzDXrHydPnlwcd5T4HihMWcEmXuJnNMPOh2caLmsuURSZisv0a0bdIfxMa7T8sx6Xo/Zee+01N1UfoBgz2n/kkUe6EXj2CrAp/JSLTYvoqGCNPlPxrUMBQ7xWf56aKpGFDOg9C3eoYYq+lRlobqk89RTZtnWHDP1ouIwYMUrJem8ZMOAoVaqbycZNmVo/O/T6SLnsssulV49eUr1qtZiyjfLo69/FGIsuavyN7/qXZSAr5DNal8V5VTtadxaOes7Ly3drUBkVu+Lyq+S8c8+X9PQqsmTJcqlWtYYcddQx0kPzPW3qDHcc2aJFSzRbTLGHzBI3HTjEq23nYv/+QdloK1POd2q3SL0YSl9HQVthCGPvKfEVy2jMgNLuigHy5AkQbeWPJkyQBvUby0knniIpKelutLx5s1ZuH4Uunbu7tv569Df6aJz069tfrrzyajn7rLOLCRJ1wTfDZpEUYxfV6KVj94jKJ3a8GpaO1Ktbz31HLrzwQrnggoukZavWkpm53R2fx1KSnj37Sv/+R0qDBk2kUnqG1K1Tz8+ScUXm+0rnjZFTy4XlCFPxaVFUrgxRmUUWIcgQetZi00bUJ7BnMfz20GEMYeYbzDIFvtk8T3yE4beqPGHxYiMz/C6woSa/Baynp7OXNfP8PjJzgNlrnCFvHcbkh7K9/PLLzqYDAPDMO++84zZBpCOA+AhLeYgXmWGTWTqsSH9vYHVK+Oi7vrfPH2qETfECAgICAg5rfJ+b4g2uVSQ9qhTJggULdtoUD/DDjyKFImDxoRiwHhmFBEIPQWbqIZu7oXjxjIWFMHPGMtMhOVqINPBDEYJ0mTK9p7zuCdE0DZZn8sUID5sKoRwxU4DjoDCQPtbAs54aUFaOBmLN7SuvvOKmUxKG8hEXyhsj+4z0M1JPJwHKFjaKZ//+/d1GRlHlE7ddvx/bFO/E+FVStHqhO7+eejAcaD04xOrC/2mcMRMF902p83XHaLmSGfXauHGTEvnP5bFH/itpaVWkf7+jVEndpvK5RuuppQwefJb0P2KA2xQPXpUYI0Kc6c1UeitCAmVWtxtZV6cfTSTtvTM+/M5G78Rswnibdk5MZNSeTpyS0S6QmBDvpqu2aN7SlXPGDEbw4qRH924uftZOr1+3XmrVqeVmWbi20swyEuqn3mt6FYQg8d4B8mj1gTsqY1YnwLdryTVua/Oo27W7wq5Lh6E+y4r/+wP5o8y+vSG3WVmsm58rX3z5laxatU46Konv0rWn5OYUyswZcyQ3r0BJXw+58IKLlTD3lmrVa0tiErvN+/JSNl8Pvq0ppzMxeSvLELIsfzPIF/k0eSQNfcIZ7qUkJ0mdunX1G9NRGjZs7Nf+6zeJGTF8j5q5TRqTZOmSZa6zsEaNmu5bRjyU29pD/xXH6/PvPCoM3KZ4iX5TPE4ZsE3xrJ6A2ZQJQsxeJf/73/9c5y/3ILH8JvEdBvYsvyn8tkCMGZ3nNA46a+FefPN5zn8f/K7/ls6Bwt4ReydZI89vGSSeTePINxul8k056ST29ejowpE+v5dsGsvmqtQDvzGUi1klDzzwgCP0S5Yscb9T/M4QH53MxxxzTPG0fWv7slB6Uzx+l7zM+DwD3FaH+4qwKV5AQEBAQEAFhP2wl/5x59oUBxvRA4wcoEBBfPnRxmbkm+mGphwTHptRbMLyLCMMEF4ULHaWZwo8cUUVjf0BzxOnxYMbY0oMaaN8/PSnP3XknNF1yDw71HOeM1MZCYvCR3iUQKZ5klcULosTf3a3v/nmm90mRShvn376qdsbAFA+lhag0ETLZHGTD6tD4kOxwy5/kEa0LclLibH6sbxg+VFpUaVyq7bNF+44uvr1G0vfvgNUuVwmCxcudaPabDzXtUs3JfqVpLDAl7GggFGn2GaDbpp8giPzxAtxUedONlPrsSH5uzeEiZhY/fn8+jj8NP2dySkGRZvRLaZC52TnO8J0ztnnyrHHHC+rVq5xMw/YdZ/N/SZPniavvvK6LFyw2C0TyNdnTVH38HF/37BymrF2NBmyOiAc+cfgZ8+59lFjz5ufATdh7d3lPoimW2HgZMCXecuWTPl23Hh56aVXZfbMeTJwwNHSo3sfyc7Kc2S+hpL3a6+5Xk4//WypW7eBykey63wqZBG8Fony8VdUqBfUiQofM2gYUXdyi13KuGf2YLwsltSv+QHel9zYyHFKcqq0b9dBzjj9LLnwgks0byLz5i3WfNeR0087S7MU745l/PDDoY7cU2Y6r3w6xOD+q9CwOjFZxQ0oC25sk1d+R9gIDzedcYy8z5w505FawprMEhcdtNyDTLPOnhFsyDAd5HZsIfKMjTlQWDmIC5sZAoAZaozSt2zZ0nUs0InN/cGDB7tOW/Js7xeGDhsIOr89xMHvICP4hOceZJ6j+NjQkd+dSy+91IUtXX+7g5bYfQMtr6Rf3h0b5Y04zWwF+srsDDZJoBEQ0ICAgICAgLLw8MMPOyWGKen7An7+GAngTHRGlDnayLCnH+0HF4rcMVfkPx1ErmtY4Ijp/fffL48//rgjrlGl3mwUChQCbPwsDGlho5RFlRe7Z4oI/oBwFo+F3V+QRjR+uyZ+3FFDOhjSByg4gHuA5y0u/OyaZ3CjeFl+UZZIg+soLDwGmA2GTBd5akWcPBA/XrK++dBt7EQnQ3nCylkCXx4DZMJPVfbt4sqjZsOGjaqIfiFvvPGWNG7UUtq17SLDPh7uptmfcfo50qf3EZKeVkXj1zopgpywTp66VHKkpCIp2cfJ1Pt4NrNTMgQceVd/yxNk3beHuywDUaW1pByEj820ds9T7dh5eZTXh2e0Fpt2pWwFWlbcefmcb63KverfkydP0vfsZdmRvVUJ/gBNIV/GTxirMt9Crr3uamnYiLWu+Uq0WAcNgYOEleTj+4DJJPLHKKft4wAJYMSTNcSEMYJh8m11bu8C4B7+JrfsnE3nEtN8OUqNTqnSs0Z4lueI3+L8vlBUVCAFhUqGVQZZ/vH112Pl2WdfddPWB596huzYniufjPhccnLy5Jqrr5d27dpLWjrn7bNUKFflMknLkerk0i+z8PViNvUCEY9d7hJM4NgdkDfiwFj7UXfF9acW+1X4jifCafspUV+7dpWSuU9lxIih0rRJQznm2KOUpC6QGTOnSr++PeX888+WFi2baTz+W6dNGwFxf7/tUxoJw0SapIk8ljXMdaRCvJFZYN9S6gfDu2ozvigbfsguYagn5A9/3gP8TIax8cdY/eI228Ja+ANBNB3yQZ4tLfLINengBlwT1sqIG8MzhMMP2/ywedesPkA0Xu5hY8rCwh0iLb8Qabh2lgzvVeTq2t7/0s+Q1t7CysiMiBtuuMHNbLOyE6+Vgz112AgX7ruvOPDWCQgICAgI+JFB1ZKdbFM4ogblwZQMbPywIQHYGMB9jCn8pZ+za2xTSIAdw3MgIA3ii+YFd/QahQaggJE+iogpORjLAzbKE2GsHKY8cg9j6ZkSw/OWJteWF4sDP9wAf5Cbk+vIE3HjFzUHG1b3JXliZD7Tkfl33nlXGjVsIt269ZQPPxym5GK9nHvO+Urm+yl5rKxl4QklzAlesab9GCVPSfYEGlJCVe88zZ764tqTcL101yWG66iJ3vPG4ogaagpClpgYL8mavidhvo1cLvUZ26sggU3MNN/5eYVK8DrIFVdcJbVq1pYvvvjKrU/u33+ALFi42E2FXbNmrSQnKZnX5/z67O+fINFWTCNmyQodb88995w89NBDbmkIJy+wjMWUfyu/EQCufdt42Yq6AeEYESQuzmmfPXt2scyTrslx+ZH5A5Nx8sAoeubWrU5mX3jhRffOnjjoJFm6dIUMG/aJNGzQWK699np3ekVqSpo7E57OoLS0dElOYfM6P6uE5ygroB58nfkylpa3fTVWx/4aOdr5G1ug6ZI+BJZZLYzUF+YXSeVKVWTQoBPl/Asu0vdvg3z66WfunezTp59bIsJ05+XLV2ocRtDIr5mKCeqCJQV8Z5Bjrqlrkycj7fgbmccPmaOugO3ubs9gE4Y6QEYtHM9yHf1um829AwHPYyyv0e83bvtNIS3KZ3nmHm3NPfJrYQBxcT8aBr9o2akz6o9rK/OeQB2wVINnLL+l061o2HOpAgICAgICAnYJfuijsGtTUCBuGJQUgLKB2xQEU/wxKAqYqOJgz+E2JZpn2SWYNA4Ull9LE+CHsbyQDu4oLAwKEvewUSgJSx4tPGG4tjJTTtwYwlgcdm3PRN1RoKCh3ELqyRvG6uTAsXtFDeJbWKhlU6KRqO2YuXWbfP75aHnpxddVAcyVli07yUcffSHbthXJ9UNulV49jnS7x8cVpWhBkiQ5kSmiRZKkRJrpoEz/ZTf6OM07JCMpGaWcsqvBXw3DmcXXaqOP8owzCaWN3qNTQIvhnnEmdh2Lr3gKvtrEHR/vOxLICx0MlA/ClpOT75YGaHMpoeM8+zQlgynSuFErueySa6Vu3SYydNhnWu/J0qF9F/lk+Gfy6itvyNatqgjHlhRUBCCPkHnW3bJc5eqrr5Y33njDjZSxgePTTz/tZoTybgHkKSp/hrLeD56jU2DcuHFOHpFhex8gJFwDi/PAwPNm9g+cSrBpS6bK6Mfyr3//R/OVJOefe7EsWrRKRowcIz16HiVDrrtFunY6QqpUqq6yqyQ+sbIkaLvv2JajcsBMg3j3DUtO9idSUFYvk0bAkS+TwVKmWAbLMtz3hhkrScmQTv8ccfLuWXp0FiUnp0iN6tUlQZKlQJsuPz9OKqVXl5rVG8oxRw2Wm276teRkJ8jbbw+VjMq1lNQfJWPHTZEXXnxVFi1eKgWuPTXyw4DU871jjTvLsKxDmG8eBnCNv6+bEgJq5BU/vrv2Heba5Jk6tQ4nwuDmO86zuAH3DhQWB2mQN75/+PmOTb9ZrN3HkD8LS57tXeIZ3FZGnsUmr5TPdso32N400fd3TyhQOed9Jm+ANKgPe7crInxLBwQEBAQEBOw1VG0qtvmBNxP90UcZwY1ij/ICUFpMITAlJfoMxpQHIwEWHqBomZJVHiB+S8OUoGh+7BqQLvk1xaj0/WhchMXfFEPqgHKZ8mVpASunGcLwvIXh+Wh4NnhiN3w2uSItjNVj+YI0zQCvFLp20zzSvkuXLnMjnWDAgAFKEL90O79fesllSu5Z4+nbi6PnqAOIcnJSyUgUU+5xQ46S1D8vN1+VSJURjY/qxVCsqBsD8XYGd1lGiRD3PRGy5/RaI7HnIWaUCaWVEU8IfUqKJ2qUMT2dtqNuPXHLzclzo7uM1NatV1/OPec8adCgoQwbNkzLlCK9evdxhPmrr0ZLVla2lstViytfWaa8EY3T3Ngo5t98840jRccff7wbeUbJZ5d2praylwMbcXHfZMgIBdfIl8mgyS/3eJfZ0JF1v2zABewexq4Bz9n7cuDYfd2RpqVbGsjf1KnT5OPhn0iNGrXkhOMHyZfaXhMnTpYLzr9QzjzjLElLTdfyF0l2dq6Wa5uTX/JfqVK6I0zZ2Yx2suzHEz7kBlA+L3MxeUPuSpviexqutLF7anw9ajn0j7onfYwH9wqUuDFDydc3xUVOqXYMs0rYBO3KK6+Spk2by8jPRgnH5PXt20/bixMa3pDVq9e4Z2NR7lStu6q/7wPUq508wXpzvqmAd5T65z42xgg+5cLf140vi4UB1KnJelS2bVQcWN1Y3R+o/JIGhnii9WvfbvuNdN/XmB82aVteo+WxMmKsDISno9v8sAlH3LzTmL1B5UqVi+uaeKPpRvNekeBrKCAgICAgIGC/wY+8KRcYYEqQGRQMI7YWxvyjSlPUz5QSu2/X2OWBaNwYu7Y0sM1tJho+GrYsY89jDDwTDWPXFk/0GUvD/EFKaopT0CxtM+UBF4sjBZAyTyhUnfOeuLWdizQtbW0lBOvk9dfekXlzF8uRA4+Xlcs3yKKFy2XwKedIx449pErlGm5Eu7AwURVtntbyJaY6YhEXV1J/kGSQoPEmJSSroQOgUEmJKtlqq0rqDGvr/Wi6H1X3JurG0ImkZMs9q8qxcqASG6Xd+2PiVC9N0vSTlAi5dlCjmZQiLXuiuslvkRsy1fp1HQMQ/BRVihP0fqo0a9pWThx0hpKEyjL662+VQLWUVi3by7PPvCAzZszSuvLvBUq0qzc1NvUVMoxdXiDuqNJtbmx2lmaTLMrIMYxGWti0kU23UNrffvttR/wBpIfnTP4szqis4cemW4z8s0s3G3qZP+lgcOMHyrOsHiaTXi6jgNSRNtn2xtc9HUVTp82QF196TdskXk4ZfJZMmTZHpk2bK2effZEMOuE0JTI1Vc5StX2VNBamSkpSVZUHLYsmo5KjdVPJ1ZdfokG6sTwwE8SLj3uJcBfPIik2Wqcx8917PM89YvD15veqQP6IX9tT0+F+QiKj93Q8+bPrXX3r+xQniZpPbS9934oKk7QMadou7eWccy5WctZUvvhyrOTkxknbtl3lm7ET5dnnXpK1a9ZrWORE5ZT3XZPHnZ9fIksVAcgk3zwIK3VjMmbAj3uEs++K+eE24Oe+OfqsxWP+ZpuxcOUFi9OMpWNliqaJO/oMfhh7FreVrbS/xWVuqxMvtyV1sTvwbNTwnMmD5a2iofxaKiAgICAgIKAYZf3w768ycCiUiL1NIxpuf/JV+pl9TRd7f9LdG0SVtmga+GMgthAApv1/+cWXbufsXj17y/YdWTJ79lw59tgTpGev3pKWmhYjVhoXxFgdjMb7uL5bZru0dIunxTu3+kev7f4uTSw8tsaL2Slu/Ha6NiU45ufuEsBbBu45T1dFzCARadGilZxyyqmOBH3zzRglS+1UcU6VF154yR2BRR1YOtQBijFulPGDBWtDQPpMh2cUHUJkR1Oaos5sD0ZyIefsCG4jeNwzkF8IuZFyysCIPLuBA0b5owq/b2s/GmhuOjCi+TpUIE02O2QWBmv933zjTVm3dr07fm7SxMkyZfJUOfucc6V3777CqLZvn51JkYHW99PpS+5j9D9vE8ZfxkwsTJmyWcpYuJ3C+3h8mjsbN9tE80aq6uP/j6bpE1I5S5KGDRvJySefInVq15NRo77S5xKkY4dOMm3qdBk58nM3mwQ58W1EO/vZB4cjKHtZdkVDNF+7cpcF7luYvX0uGn534Q53HJ4SGxAQEBAQEBBQ3iiKKX+xv2LgVONJGWc4L5SRI76U1JQMqVmjgYwdM0Vq1WosJ518pjRSAlFYyH4HvgOA6cR+/W+MCHmuoYb7RXrfGzfyvpO7MOaGRGJi/vGM0keN9y8xJWExxEM4i89MHNexkVFHjrR8JWv3C9x9yyP+sQD6j9HQZFUgU6VSejXp2eMI6dP7KFm1cr0sW7ZGmrVoI+MnTpURI0e5jaWAEWIIIzgYyrXFB4G2+Ol4gaxDZtnVnum45IN72IzacXzk2rVr3U71Bl8fPgxtjhvSZ0R99OjRrlOC4xlZ/mGjjPac2YB7jBLa9cGGpc2UdDqRILCQ+o8+GiqzZ8+XLl36yo7tRTJr5iLp3WugHH3kCVKjWm03gp+UiNT7fJbIKQa5U6Ny4KbVO+PlyMmY3itLxrzscQ+SjBvZxOY6YhIt3HcNU/XtHdCiOYM8MuOkJA+RvGr2XSeAMFrPsoB0adqkpZx00mmSmlxFvh03RWpWry9VM2rKu+++K1OnzqDWJDmJkX2Vn/yyOmHozPEdOgEBFREq+gEBAQEBAQEBAXtGnGzfvkPefeddJYHrpGWrVjJr1hx3/vWgQScrSaiubr+ZE1PZ2SkeNwQoEbKkZKPEeNJZbGJkxIwfhYw849zeb9fGjzyXxOn9idvZLl7iUtvFSdze35vYcztdl9iuBpwjZorilCRXkr79+kvr1m1kzNixUqlSFber+EsvvyxLly2LhYeQ+SmxAHJc3iPWlk40XnZB37hxo+tYgLxD6IGRdK5Zn0x+mFHgR6h9PABCDwhvU/XnzZsnq1atcmdes66Z8NFwAD8z3DuUI/Skg0lSgkonEvLHvgbMoGjTpp2kpVaWcePGS7u27eSEQSdqGNbBe5Of7zcBsyrANuOvuTA/Xz7vvwdjMudMaZnFmL+FiTxXbJss+rDmxhTnKZIXZI3ZNIRNSkp2u92fdPLJ2h5xMnHSFK2Ltk52n33uOXecIbNM3AZtiSVTvAMCDhcEaQ0ICAgICAgIUDhyUAaUPvg/VfLHjR2vJH6+NGncUomayOo1G6VHj35K8FpLSlKactwERwqSUxNEqZUjizANR1JiI52ecDC6WOhHyt1Io9qJkH/C+PBudDLRm2K/qGHUcicTGyVNtDhjaRbbjLhrOMiTkj1PonCTZvQ+4clLnroZ0WbU2+fb0VK9n69EEXKUlJgiDes3lv79jlTSW0kmT5oh7dp0lMICkU8/HVFMdkvI3852eaAsIo0fBM12qoaQYxzR03vYhMMmj6zvB1FybnHhh806e3a1Z1SezfXoEDDyZ7MPos+5tlfYCP6Bg3LuumPAdR7FygWZp22XLVvq9gioVKmyNGrUXMZ9O03zlShHH3OiNGzYXGUrTbJy8lVE6cxgPwXf/l5mcHu5iE/gdId8vaYuKCN2oR8p12tNSt0Y6rZAbUbfGXn3YbzB32SztInJbvF1LB8YjdvvEYFBRs1NnihzLD/ORg6oJU03MV5y81QQ9Z1MSa2kbdZDBg48TlYsXydz5iyQLl26ytbMbfLhh0P1XfY7vHuUtOHOQDYOTcdMQMC+QF+TgICAgICAgIAAA6TMEbPYn11v2rhRPvn0UyWGKdK8RUtZvGiJpKdXkf79B7ojvuKVeTMyyiZhhOeYMIgzXA+C4YmCJyl+9By3hjHi4ownEiX3jXR7glVMyIvvR82u/MryN+PvR2cAWNqOIDnj80vejeNAYN1a4yL8E9zo7xFaD5z/vWXLNmnfoaMM//hjWb16tSPEkE2MPVtecO1kmVJAaIGRcGCk28Li5j4j+KyHx588uTYr9RzgGn92xMcNmWf9vZUjWjbiMAMIb/EdOPZMJn1ei5SgcmJCrrz33vtuBJqN++bNnSfbt+2QwYPPkBYtWqtk+83FmGrOunMtojr0H+2tNsX38lZy7U5KwG22/udOXGAafkxuvP/Ohqoq7fcd4+Kwa94Lf+3lL2I0fmyXVzW2KZ/5m5vjx/KVqLPkgJkI1arVlF69+kiHDp1k5cpVrk2ZaTF06FBZsGChu/byTKS+Lb+LQOgDKh54HQICAgICAgICAhROh9f/vErvYURv5sxZsmTJUqldu46bdr1m7Xq3KV6DBo2UyKdKdhZHaflz8Vm/zEgmx9FBZvx6Zk968HejmqqFORNzw4/9iKgRJE9EMRAue96vYY65nYnF49yxZ1wY9YsZ8uDW8rvnLR3uQXK59sblzdl+BNaNxkLqsSFMFlYdRUWQZL2QBKlSpZr06NHLjV6P+3aCtGnd1p3Vz+ZxEGdfhpLp6djmPhAY6TKbdABpMc3ejsMiDxBcwkWNm2atlcPUexAlc7ixySdT7Rmh79q1q9SrV8+FYVSf6fSEwxCPpR8tH3EcCpA2afr0imTRosVuvX+DBg1cORctWqb576Xt1EcS4pJVJln+gFxqvlU2XKeNygTsgGJ4WaAeNAyj5s7f7Jis6XPexEh71MTiMX8vgzub74ZFPs1E7pufhrGOJie7xfnxhjzz8nIsIx1NKamMuse5Yxfz84qkXt0GcvTRx0l6WhWZMGGS1K1bTzIyqsnHHw8vbjNXLjUurkDgAw4DqOgHBAQEBAQEBATsBM/rHCBI+QX5boSWs+UhAXOV4DG1vl279uqXJIkJiVKouj+EAHJnxM7tuK2kAH+3yRekI0Y8HGGKEeTia0eUPEHcmaxjyrrelSHOncMWX6tto5gQc2yMz693uPzEiJPzit03MPtA6a4a/V95K8fv0dHRoUMH2bhho+zYvkM6duwob775pixfvtw9Y3ED3NHr8gJthSHuSpUquRFYjqiDfEPqo+lCcjl/HtJfvXp152egU8biYXO9UaNGyTvvvCP/+te/5Fe/+pXceOONcvPNN8vDDz/sdtGfOXOmPPjgg/KXv/xFJk2a5EbskQHsg1HO3QGZY5O7kSM/c2fuc7TeLM1fSkqa9O3TXypXytBAzEiI0/xRRi8MLCmhnbn08XCh94tlwNdHaTkz+XJGw2HvFC5GxHcm6RF/C+fClFyTJn7e9tfkreR+zI6FcfmOhKMDq7Aw33USsEcA5dUA0rJFK+nWrYeT0+XLV0qr1q1kxIgRrtOGd5W19yVtFgh9QMUHoh8QEBAQEBCwD1CVL+byQPkzY9fAyAWmZORs32DPG/YnjgOBpR81Uf+9gZUdA1HiGqKzt3USTUtr2dUv19F4ywMakycHSmAKizR/agqUyBP7mjUbZMqUmVKjeh0lApmyeXOWdO3S003jZS15kTDKmaS5Y0SeUUE/ykesmk3vVkJUJBC8khFPI82OzCgZ8dOXlYwkaoxqWL/OeuHEJH/tdv/Wa4wU5bsz5jFupr/Gnah2UqKGT/AmTpTQaFj2dGPNsUiehiEO4tL7CayVV9utSSYvmj9shmqLErVuTaZ9Xo1gURZH8CBgmmfNsRLGKtK6VWdp2qSNjP5qojRp1FpmzpgvU7Xe8pRg+lkKPM+zjF5Ts2b2D2W9e2ZYM89Z882aNSsm9MgMhvZguj073DMdvUWLFjvFY+Cakfd27drJgAEDnM1meE2aNHHx1q9f33UIYOrWretG79lRn/gtLi8HBwri8jMifJvwDvgZDxy1xpFr1GthzJ43b4GM+uJradiopWzeki3rN2RLx469NO8tlLCSt0SXLzd13rV7zFi7qDwUuXYiKT/aHads25NmH9aP1qtBlp08WzyFboQ8EVnWa2aFJMTSStS6VJ7t/JFX0XfMyy/lohPFy4jF69LBdu+Bxe9lxl27WSQlJj5m27tsJJ53kjJzBn9ycmXp3LmP1KnbTKZOmyMZGbWlcpVq8smnI2VH1g43Vd++K/7b4uvbTHl+c/YGpFX6W2l5iN4zd/TbuidzqBBNr7S7rLwaSvvbvdLu0nFwHa2L/YHFQxy4za8iojy+MAEBAQEBAQFlwJSLKFAQILV7Ugy4X1oRsfjMHCqUTo98YfY2D4SzZ6Iofb030JzslG5pAnZA0KggRBAZiDep4Udy06fPdse01andQBYtWi6VKlWV7t37SFpaZQ0Q2zjNKfyO8bhnHAly2VNCo6zFZdv9B+mAjGhINd4dI6I8DiFRooO/H830xAVCX6ikh+chRZ7Eq8KZn6ckDeKu4Yry9La6CY9RPzYjS9Q4kvR5t6mZlg1/iBPxkh4kzJEl0iRTrhyauCsT4dSH8C5/5IlcuNZwN/UpjT9NCW4zad26s8yfv0LTT5PmzdooqZ/r1nSXyJGmw3PFZv9h7R+VA3NDxJki36lTJ7eOfPHixbH0xU2VZ+YAu+AfffTRjpyjuAPCREk4m98R5pZbbpE77rjDjdDffvvtzlx66aXuLPrmzZvLZZddJldffbW0adOmeCM84onK6/6COHhdWB/vEe18oF498XD1qt5jx42X3LxCqZJRSxYsWql2Pa2HXm6Xe9e2KrN+ZF4vXZtTbz4uZ9TPGQduQup9IMI5pzM8659HJhKTmO7OM8gYnU0aXvOOSdRAcbxfSpj9Rnq+YwkSbvLI824qPvEVG72nfp7Mx9K1olueY3Ls3y38PBISOJ0gXgoLNAxlFk2gKFlq124kHTv30vcpQdZvyJTuPfvKV1+NkfXrN2r4SATFwM/MoYPJTrSDKIqoX/SbHLXNbTC/su4dTETTRFb5HYzmOQr87Z7dN7f5R+OIIvqMgbC7SqsslK5ruy4r7ooAfSUCAgICAgIC9gf60+7t2I+8/dCXtoEp9mXdKwvcjyo8ppB8H0CZIQ+l0zf/vQVhIVk8F1WQ9gVMh3XERZ+nTsu7Tlx9a5SQF9R/0sjKynZHfzVp0tSttc7OzlGi2lzq1qmnZMSfMe/qhwcdIMbEoU5nE9Oe4cpEWBfYxwG5ZgScUdg4JflwbYympgSfdP2IOqOKScmwHp8uBA/5TEykvuMdgSWPycm2kzllM5s0/YwC79YIYvnBadcGLi0sBJNp2/kFPr0aNWq60e601HRZtnyF9OvXT2bMnCVbMrfqc6Z2UjYr58EDeWzUqJGccMIJrl1HjhwpGzZscHXB9OopU6Y4In/iiSdKlSpVfBtquCVLlsgrr7win332mesIMBAf8mvwZfCFiMqxxUN47kfvHQiIh+SIDjfGrX/XdCxNOpG2bdsuY8aMlbZt2rl9HTI3b3NLQ6iL3cEVRc1O7R1zakndfW1yTY8Rd2zv9kbDqHEj8XrtZgwYEYe4q+2PbvRuF4dG4uWRbghmkXB8np8FUBLv7kxMXjGauWh77AmpaenStWsPad68lcyYMVOqV6vuZHnatGlql4zIVgRQJusgct8nzZuVFTffQ8tvaRm1sOa2cMDcUb+DDfIPLO/mpgxWDsuvIRoWO5rfqNuejxpAmlZvewt7nrRL/2ZVROgrExAQEBAQELAv0J/2Ytt+9E15N6BARBV6ri0cyhm2KQ27MqD0dTTOQ4XSeQCWh73JB3k2Y8qV+YO9icPC8IwprNG4ygNWHk/m45UkE3+RrF+/QaZPm64kNVU2xEbwWrduK5XSKwmbivEMU4yBjXJrbHoB4VKZUNv7k38jIrgJ7xVFR0zUxiQqUU9Wcs7IJESHMuKnCbmRTM+LkSncrBVPcURIa0RtJUVuI77Y7ADy4KbE+/K5dfwatJgERfJDeE+mYnkj37E8ebcPQ9HICyOeGlLDqjzrg5zBn5yUJA0aNJRaterKtKkz3BT0pUsWy/JlK920+xJSf2hAmY844gg57rjj3Gj8+++/78j6hx9+6DbNu/jii7UtWxcr7dT1nDlz5IEHHpDXX3/djeKXJhpcA/xM/uweNv6E4Z75HyiIhzzSVkRJ3JYGTcF97rGj+9y582XN6rVa9w1kwfxFKh8Z0qlTF7engMUVNVG4y1i7e1nVy5jMcQ+ZtNF05MjZzvjwSKyG1Lr1HUfUBfJIWEfaUxJVRn28hMcXNzYj7MV1zf3i+C0vasiDywf5If8qf2qKy8K/mNubna8NdAxWr15LmjRpIevXbZRNmzJdpwdr6Xfs2OHyUFFAvslPaUPbmxxEYX6EQSZKP2eweA8VrA28DO/cHl6OfV5wGyyM5T0ah8UTvW9x4B/1I+y+IPps1ETTrEjYt9IFBAQEBAQEFKNkRPa74MffEFWwUAZMecG9K4PiYCTDlBeMKRaHCpae5ceuLQ/kb29BWKsHu47GtTtYOhq62I1N50j5wdc1oI2YpkvWVqxYof4JSrJTZPr0GUpQkqRVq9bOZiSSDchYq2vPAvLGn7l93OqD4V7EOP8YKdGU1faEhXphyjLu1FQlQklK2AryNAwj7RAjOod8mox25ubmK1FBtjTvatzO5dSXmtRUdnxPduVi5kdJ+uQvll+Nqti/OJ8Rv+KwMbnQP9IlDwkclq9qJXmoXLmKq58FC+e759hFfO7cuW59Mnl3dbsXbV4eIH123r/88svlzDPPlPnz58sHH3wgW7ZskQsuuEAGDRrkwpkMkjfCM8We6foZGRkujqicWn1wzfF1AwcOdJ0GtlM+iD6D+8BBXL5tLU6LH/g8+c3wRn/1tbRuxbT/ZFm3boM0bdLckXs6n8rKi3+2pFxeHkuM//bESLTJsLs2mcafa+TBd0hB3tl/wi3niNMrzTfXuPPz81x4KxPPuF3p1cdG/jVZd2154Mq7Y34ubd6ZaBgXytvOzzl3gvnRGZaYkCQtWrSSunXruyP96tdvIOO/Ha91tt7JAbF5UxYOjfwaorJkZQV8k+mYAjvLgpcPYLZvR1fxO4U9VODbb+lHZ5+RB7exaGwWguXdvlW4fVt7f9zYxGdxUA/2fPSasGbvC4iHZ6LPES+mImLfShcQEBAQEBCAGhpzeZgSEf3BR6FA2fCKYYnixP2oIrIrY8qMhY0+b3EeCkQVGku3tKKzJ1hZAfUC8KNslMvKtitE7zOyZs9anFZnBw6bXumv3HTmuARZtmyFNGzYWO8lydZt26RWzdpSpUpVTbPQjUTCTnzdoJyWNp5YUF1uCrIz+HkF1U+xx9g94vLT2CEtBRCPxARHxigixGf79kyZM2eWfKvkY9y4ce5ouCVLFsnGDRskNyfHxbk1c4uG26o5gjxrfUMEyZ+WCfIdzWNJvqlr7ya/Ls8RP0fc1GYEV69cXgnDZncAAqkiq3cS3aZxySnJkpdfIJ06saZ+gcsb1UTnhz6tT5S068ECeUQ2GJ2GeN99993y1FNPyV133eXWvVuHEO1OWMgR58yzW/0ll1zidsnneabpm8zZM4Rnyv5PfvITufXWW93megBZIAxxlo9cehlnKnh0OrgRFa69Edm6dbtMnTpdGiuJ37Y1S9LTM7QtWkmVyjWULLvF7Q5e5owU48Yv6h+9NjdljslCzG2b4Tl/jMqbsDxEJQQyv2nTBpm/YK7mabJMnTZFpkydKCtWrpDMzE2SnbPDydSmTVu0frPcs8maRTZtLJa3WD58fmL+zkTypelamfzsAtI2v5h/saz5+2zOh7zWrlVf66eZLFi42NVPamq6LF261LW1fyb6rIG4zRx80La+vD4f1v5c40beMCYLwL6zdg0sLGXD4I7eP5iwtLEx5BUSTxnsvbIwGPwJE5Vvu2fXZcVROoy5Lb69Bc9ZHQGex1i8FQ17X7KAgICAgIAAB/1p93bsR770D71dowzgNgJg9z1pLK0k7gxTVtipm7CmYNi9PT1fXiBdSy9aRvxN2dkd7BmMKUjEF1Wu9lQWSxPYs1GFNXr/wODjITrSoN0g11MmT5GMqlXVT0mAkvp69epL1YwMt9aetBmlpvMlKdHKsXN5fPFMIff3PFnBj/sxOWLUkWnGsVF5pjZz7BYb2kEot2zZLF988aUS0iflr399SP70pz/Ib5Sg3nnHnfLoI4/IB+9/IMOGDZNPR3wqb731lkwYP16ys7M0Dq/AUz7i9evqY2lavny2it2Wn+Jw6o4FcNd0SjB1mjiN7HKdQAFUvaxTp64S5hayLraL/NSpU90RcSDa9sUJHyTQPuTXRgB5nxh1Zyd6/JBHwmCbfBKO+2yGZ3IA0TfyYDJHWOKrVq2aOx4OmcQQ3u5b+uUFZJDoiNuDdGjfIsnJyZUVy1fIzJmzNe+V3JFsVatWd4SV2SW7qmvXvnrLGx/G/PwoPLY3jkyb211jx8K65+ngyZeNG9Zpm0+SF198Qf72t4fkN7/5jdx9913y29/+Rh577FF59dVXZOTIEe6c/OdfeF7J/nTJzc129aX/Fcfl48emHr3t5dNMiTxGbcu/M/ypHS2+k8GiBG3nStKgfiPNs59p07Vrd/nss89dx0jZKK9vzd6BcgDamzxjXB0puGdyZt9DvkPRUW1k2teLddz4Tktk1J4pkaWDB9KPvm+kD/h2cHyklQlYmQDPWT7NbffMzfPEw3OUFxtDPfAM4D7Xewt7zvJrdYepiPC5DQgICAgICNgvmPJhhusoUAAsDEDhYLovO24zDXlXhqnBrN/dtm2bewYQT+n4DzZQhLZv3+7yO3v2bDd6tWnTJqccmVK2O5gCCTjPm83IZs2a5c7tXrVqlfOzutkVoooU4SGGpqxRH9jloWgRh1uXDoNQFYls5WTny8JFS5ULJGi7bZWaNWtLk8bN9H6C1o0qjWrYCCwpidFpU7RL8lxCREr7xYwm5W1/zag/YYkzrihO0lNT3NT/DRvWy6effiIP/+NhGTr0Yzn/vPPkP0qMXnvtFXn99VflxBMHyfIVy+Shv/1VbrjhBvnjn/4okydPdm3kp+fTBoUxxRclP5Ym6bu0LY8+H97E/GJ5KwnjjUbkNxDUumIds/JK9Y+XZK2LtNQqUr9uQ7fBXEpKsqxcucqtU0Z8IaXAjl/z5uAgKh/UBaQC2cFwr6RNvIEc8L4h86bUEw4/e79xE9bkz/wtnWgY0uT6QMGxe7x3bhq7kkrakPa0KfiusykxSVatXq1toWkWxut3ZKGkp2VItaq19ZrOCF8e8uXhbS7x87ZvZzdV3mQTfycnGOQzX23KR5iYbKjNbvWcorBp8zp58aUX3IkAY8Z8LSedNEiJ/XPy7LP/k8cff9wtfZg5c5Y89NBf5dprr5L77vuTW9aSlAxhQ5a0bjVNZ4iXNLA57cGlQ5q+vYoJvOaN5irxw+2Kpw6ENJbPmB+bOPKOV0rPcKP0tWrUlR3bc6RuvQYybuwE1/7fbTeewe/A23NvQR745tH2lif7ngKrB4BMc49wfGfZC4LfEXNj+PZiFixYIGvWrHFHOdrzBxPkG8N7YW6MkXzyOX36dP1OrHR7GBgsHHnEJqz9Xpg/nWocQUkcixYtcoYym+F3i7JTL3sD6pHvAO8z76+lXZGhol+xQYUGBAQEBARURJiyYeSA3yxT7kGUEAAUA5QzlNe//vWvbg0vO3Czy/aFF14oV111lTNXXnml3HjjjfJ///d/bmOuiRMnOkUIZa00iShPEF/pOMnv119/LX/605/kpz/9qdx7773y0ksvOeXLzvXeEwjDed/vvPOO/PznP3cblFHmP//5z/LNN984gr6reCw/Zq9WwrJw4UKnwOG3N+nvCyxODHXOjvZbtmS6kby83Hwlp6lSpUqGtoOfuk6uCjUcTU1nQFm6PvoyxuCvSxTxEre3ITJ+fwZPZujUGTlihNxzzz2ybNkyufn//T8ZMHCANGzYQGrWrCE1atSQ448/XgnUr5zsMINg6zZfP0RLWcifu1ZSwlp8/F2KsbTdtTMl+QIRZyloPWl8+s/VA/XB0XSMFrMmOjUlxa0vp1MqvZLWXV6e25SOujqUMJINfH14kh0lRYA64p6tR2aKPs/ybgOTs2h8wN5JYPHjRxrl+a6uX7/ejWZDUGzTNssHNiQWkk8nTsdOHZEkyc7KkUaNGru1/aXzwDORYuwE/Ivvx8I4p/OPXXM/Qpy9idN8rpO3337Lfbt27Ngut9/+Czn11JOldu0ampeG7tz+I47oL7feeosMGTJEUpSMbdu6TevdLwdATpAtS9/b3gBnF/s7L2fvFM7/i90reTYKptzTPsxsqK7vDzNKli5dJnXV5t3hm3SgbVZegMzTMQYBt98Y5DIqk4D88s366quv3Hf6/PPPl5NPPllOO+00t4fEddddJ9dff737jnP04j//+U+3OSQEuDTfIq7yLD9tQD7tvbP3ik7dTz/9VG677Tb3m/e3v/1N3njjDdeBTJho29nzFgdlBfxGPfbYY3LuuefKkUceKUcddZRbXsM+GFxj//73v3cdGXtTJr63dCzw+0Z48mD1sSt5+r7hJaACIzU1NeYKCAgICAgoGw0aNIi5Di34YTflih97FG1TrriH4oGNHyMR2BAFdtVmDe/NN9/sFFzWG6PQPPPMM/Lss8/KE088If9PSRukgLW8uBlhYJSOdFBkiKs8FAviM2WfeKMGhebtt9+Wjz/+2JFwlKZrr73WjXiQV5QunsXYM8RjsLhRkDgC7Omnn3aKKfXCPTYnu//+++WTTz4pVqAtHxav1a2Ba+qB+gQ2glJesLXtXmlkvfoOR+QrV8qQxUuWS+aW7UpCUjVPEUVTCW1BAc+g7KH0aTwqBhigxYiRX4g19/WGFsnKSznZGwBPZ+s1Z3Yz9Z5pwCtXLpc333xDVq5Y4Uaj2rRtrfmp5OrJlFxQpUplOfPM01WxPVvfifoSp96OdLl8eGU0QeuL6cWFSv5sdDdav8DXJwRXM67GwnkiRQAfxtcVkfMecE1bJGobMWrGJnwpslpJCJvkUV9uHwAKzv+xdMs2pOfzVx7wefXvobmpMzNWh1G3yZW9t2YDC4cpHbfB3NiEj97bH/D+//rXd8t9993nCBCdghAZZIe4qTfejXlz50rtWrUlOyfbEfmMKhma90Q344NTCQhXAt8RwPNkzxv+8x1AGCfTPKqh/aO+fbC5L8wUKFTi5dqsUGbMmCEfDf1QNm5aqyQ9UTp0bCdJbJqo6bDhnetQUrls3qyJnHH6YBk06HipVatGLF++s8UvOWHmi6av2cGU5E/zFTPu2r1P5JVn8NNrsmn3Y6P5Nmrv1tZr+diboqhQ20USpVJ6Fbdx4yL9nqWmpun7USTr121w75cH5d1ZFr2cxi4OMsgHbU2a9t3zZfJ7d1j7cw9Zg9BC6NkDgu9Fjx493O8Ivy3PPfecPPLII3LRRRe52VbsKfGHP/zByRfp2LcXG3ky985ys+/w9eXjoPOAPGPzO8L3n99CfveOPfZY93vz7rvvuk5gy4OTS4XFYdfc43eXjix+ryivGTrnCEfnL3td1K5du/i53YE4SYe6xA14DnOg9XCwwKsYEBAQEBAQsJ+wH/ooylIazA8lDEWD47y6desmjRs3dmdgs/kWRL9Vq1bSsWNHOeaYY9yICrtwQ4JRdhg1QMEgjqiCdCAgXxafERX8SGfChAny6quvus71Xr16ubxhozCibKF4Ec7iiJbb8odCRgcAG7dddtllLj4IyaOPPurKSKcAyhsKpT1PnBYveYpCY3U298qj/KWxU5zqdqM0qvxDhBl9Zl11pUqVlZRQXh++IN8rwXsPSlF23rUaXdl8VfhOotmzZ8nXX38jOaoAM4Lpz1LPLa4b3Kbo16pVS0455RTp0rkzj7u8JUGSHKEhUohYrK18IjvB2m3/QHy0Cx0tSU6u82IdMJCCzVs2uw4KU9IhgNbWuzJGMg62iaZVlvtQ5qUsgxwyTfrtt9+VO+64061JHzp0aPGoLTvHZ2Vl63u5TjKqZriRz4yMqlJXvzMsh0BuKMOBw7+Txd8gjRPZAkxpnjFjutu7wcgQo++QdNzkAX/fWSJudgnEsnXrVq7TwYVzMnGoZnF4eeXdSUlNkUy3keR2Sdd3fNWq1butr5J39NDA3lnq3PJlbrv27zcde1WkRYsWbu8K3MyU4XcGP4gtvzP8rlxzzTXSs2dPd1Qfs65slJ54aSdrw/3/HpSAOOy9h2wzW4fZWXTqtmnTRrp37+7y26dPH+nfv78j6PxmIDMma7wH0bLiz306g9nI8sknn3S/Lcw6oEy4X3jhBXcCBb9d0VModgutRuKm/FanhtLXFQWB0AcEBAQEBBwgTLHaF6AsQJSjSlNUcULJbNSokQwYMMD5jxkzxq2tBxAkFIvyUC6i6Vp85AfFFsKOzfFd5IWOCEz79u3dTAOUJjY7I7zlp3Q5UMIgF5DM008/3Y0WtWvXzo34Q/BRMpkKSaeFPWv5wI1iFUVhQUldlb5XPiDvvkMDF4TakSEtBwopI88YxgEZnbb14CWwNlG7pBpi4B7mOzdKoLeoM9IkfqbxZ2ZuU7K2Q4lZnGzevEmGfvSR24cBIr99+zb3EFUBEWKtPAQJJbZJ0ybC0XWMyDM6DhBTzioHPqfflSPq1uff8hsF93aT/xiQazZmg4iuWL5c8pQsLF60WNua9ays6Z3rjN8zYl7E7LyXRDDeLFumdZiX7+pz+fIVSlqGym9/e49bhgGBoYMNGdmRleWIPJsT1qpV0+1n4E5McNM1SrdlDNbMpW8zml3c3mpio98JGo/j8G4dOuQPAkTnV5Zkbt0iWa4TrFBW63v//nvvybp165xMQxjdOxvnj6ojO+3bt3Vr7GtrXtkUjxF31tGXwKetlE7T9LZ+ZWL+UZS+jsLCR55Ty74haelpUlXrjGveBd6fHLdBny/f9wnyE/3Occ27hV/0XvQdtu8xZJ6wgLKZP99wyC0kukuXLk52Jk2a5JYzue+ee/9L4iGOaPz7A54nr5YfRs3p3GXzSTqJ2ViS+ywf4tsF4f/iiy9cngB5AVZuyyczF+jgZPlGv379HHHn9wmbjgs6YDt06ODKSRp7VQ4tPuFMHsBePfc9Ik4z+/1K6m5AA9Frgx0QEBAQEFAWHn74YbemGntfwM/ftGnT3JruV155Zadp+3v68X5wocgdyq0f61Ak19TLcwr1gw8+KP/4xz8cYbXR0t0BBZdRaaZGotzcfvvtjrzzLHkzBWb48OFumjuKzp133imXXnppsaJlys3+gnQwxEGcphxCXKlTpkFC6Fk/z1pE8kxYfpdZ6/iREkuWA7A+E8XJVArLE3FCQCD+zEZgVgKjcEzBZ5SG9dW//e1v3Sg9azoh/MSB0md1QFxcD5ku8uRykRuXvy0rPnreTSGlY6A8YWlSD9gQ4cmTpspN/+82ueD8y+SrL8dJw/rN5aKLr5DKVWooseAEgpiyrflkei9V6KcMe8LipwR7N5t6Md0Y8kM/gA/DfQgwU+zVjtf0meouhW60EmL/npKin1w/RNslx9Uf9cj6WDbC69+/n6tLU7p9G8XLV1+NllQlKiizrPvXHLk0gBZN48KOk3wle9j+OEDkgFEwtZXMs7FaAdexMJpj9UN2ta54RpubwVTio+Mh1vwOuTlbVb7HyL1/ulPOOO00ee75/ymJqCTVqkMyvLJs8qK1FDNcRyIJKAYdOIzQe1mirnynCbvrN23aWHr37i2dO3eVp59+Xr8RV8miBau03avKUUedqPcZAU/VtvQkCPm2d90tAVE5hGfFotVrdvpXiYnJKvByLZIYX1A8OwVZQb5TU9kcs1C/Cxvlv/99XO6//z5H3hl1b9O6rRxzzFFyxRVXOJLFMgz3fsQ6w3bsyJLRo79xM5QaNW4sqWmpXu7oc0IGY3LiZcznH3dBIaP+/rtVWGCzBVjW4W0VWSeryKWXTR+XD48/17ynGkiy5Ysvh2vdPSJXX32JrFq1WOrVr6Uk8VolnGnF9W0gHmDLTQ4WEoaJNE4tkrvmPOF+YxhRP/XUU91vBOWw7yTGvllWRvI8atQo95tBh+wvf/lLR3Dxt/zTMczMr1/84hfSt29f+c9//uPIsMkY3xLSKl3+/QXxWWc0S7B+/etfu3Q58tEdc6nfMb53dDCwnp6OIDqs2AfAymn5ApSf+DC8B/xukV/i4DtJOMrE7yu/m8iYyX1ZWLhDpOUXItUWjZdXW250HQt0ONgzVm/7Wh/23Oeff+42LOXbTf7wt3bDppOcDSN5T/YVuy5VQEBAQEBAwG6hak/xjzs/yHtD5A08Z4qCKWdco4TwQ4+f7YYP+LFH2UJZIZytnz1QWBzkxwzxQ7bZiKt69epOWQL4YyDvGMKwYZ9t0gXMNqCkMXLCtE8DI0SmlHEfYm5neEfzgSE+M4DwdkRY6XsHCk+uicsbTV49aSNMgpJtJS56DRHwJJf1/SW7pe8WLl6Di5jK8pcGvdRSu7IxxR+bqet16tRxZIdr0mHpBWth77rrTremmpEsOk7IU0IczyW6Eal2bdtJWmqaEjC/HpwR3pycfClgN34tQ1koqc/YfZfFssLG8k65XNlKh9G2U9EizW1bt2v6CbJk6VI3lXbChIlObnZvJpTh9+M1kPmEhCQ36wGZMNGhw23atBny2mtvyN///ndZsWK563CbMm2yZG7bLGnpzCYpkqzsLPftKBPEFYuv5KIs499JvhmMXtv3wG0Gqe8IS1EaNGgk9es3IKRrfzbxe/nlV1yHHZtgztVrvl3EAyHmO9KzZw8n47zbEH3gpKlYtoDlAWOyFvWLopR/6XdT4yQZ8yYvdK7l5uW46dtc254euEvD5/27/gcL/K5ALI0EYmiD6Lfb/GkPg7ktv3bNt5dn+b4zewp/jnJkjTluM5YeRBn7QEGcfMNIn9+1zZs3u450/CmjpWtHStpu/BB28ss9KzduysQsNxt5J7/kFZtnaEO+jcgWHeJgb8pB3PxGWb0Bq9+KipJWDwgICAgICNhn8IOPkoISgEJqCsCegHKA0sFIlilYxIHhHlMOR44cKf/973/dNevp2UCPtLhG4SBsecAUF+I1w1RHCABEHKWb+5YeNgoXRJ4dmClD9NkoyC9xkF8jpPY8Iycob0z9bNiwoXuW+2XVh8VLxwbrxKlrwtgz5QvS8vGmp6UrKU51u3HDI7Zt3+bajXwx4g0pKS4z+dhTViDSGhyy45+KPRuDltTVe0FMMU1OTnJTgFmyQNmtbqh3Thp4/vkX5He/u8eROUbktmubEAYF3TbOY906MbtZAG40lnYkoz6zJfUXzXzUL+ofxc553wn6SJzWERsIMgXc8g0Zdbd322YW727i/9HBv5/IBuKG3DGDhHrEQOzp1GFZRr16dVVG6fDjxAEvnyzFYMR8z6DOyzCx5mJU3bedlyPkiXyQJzaU69Wzp5w4aJBra8gV+V2/foNbL/3yyy/L3b/+jdsBn301mKKPXEDIkFc27svN0e+hPudItyPzpB2znSkLpfxdXnnO3KWhcavhHaYesZFLOr6oK75TdIrtVkQPEahr6obvI52r0W+otb1vjxLYPfs+8h3BjbFn2RCPTkHWsHfq1EnOOuss952Oxlc63gMB+cDw3cdm9B2wLAA/8ujbIdH93uBmJhed2sh1FIQByBeG3x/yij/1Y6Djk7iaN2/ufmesPvYE8kO+iK90HZRnnZQnwpT7gICAgIDDGt/nlPv/dBC5tkG+DBs2zB1Dx/RFpsuZQrU7oMiyIzTH6Xz77bduRJWRBFO6UGI4TohRlHPOOced6Qyhs04DwplydyAgHvJr6VIv5I0d6TnWiM2TmFbPGnrCkSZKFMsL2JiLafKQSRROwLOmtFnc+GFbOlyjhLERE5t6DR482CmVpE/83AemnBHXkBkiT6+Il78UjZW8bz9200/p4OAZMwcO21md+iXdOFm2dJVc/5Ofy5lnnC9ffjFWCguS5PLLr3HTmFH6CctSYtaqQxS0iGpQmsmT3tVrb3NPlWu7564Jq+RCr5mGznVC7HxvbQUXLiU5RbKzsmX016NVxv/PTdukQ4G0PDQeTYT2YeOrc84+R44+5hhp266dk5V8V5e+Xlk7zyZ57AHAYK3beV4LWlTkR1mZhgyZcmUXJTdqux3x1bZRWO+n9wmjXn7asz6LHx4OHM+4RaZN/VL+/s+/yFVXXCmPPPqwdO7C2tYWejdf4/dh/TO0HQa3GUN5tOvhj6VLlsoHHw7VuuY9xQeCVOg6yqhTNhJr3bqNkrSX5KabbpX//e9lad++m1x26XVSu3YjfY62Q+48CeddBE7+NEJeNWRVW1TtMqbcO3e8pCRp4trYyDthtOU1br93A2bHdk60GCl/+MO9bjNHZBVixDtNfv2MkxrSp28f6dunn5x55tlObr1M+mPK4uNV9mLt7qfLk6T/nniZYykIe4/g1vQL+G5pjWj53JR7lWu3i73aPgz31GggF14NMi9FfD9xZ8mYsZ/Lv//9gJx3/hn6vm2RqtUq63fvZ+6bW4LSssh1ab/yA1Pum6SJPJY1TKZMmeI69VhCQztQT5Qn+t3jmnvY1DebwjGtnY5XZnfRMUB4DNyKvRkgrizp4jtet25dd484ot9gSyea1r6COCweOp9YMkWHAsu5mFLPb5+ly28fx7dyzCm/MTfddJNb88/9kvbzcfFbxO+N5RsQB50BdCBh01nBXi1WBkxZsCn3DdbMlBF9492sMeIGln9LY1/Ac+BgTrkPhD4gICAg4LDG90Ho719QKHfNi3dr6K9rUOA2j3vooYfcaDq7CPPjvKcffhQRRqk4MoiN5ThHnN88ftwBigiEn1FYlDjWFGLbKA2EGKVgfxQMA3VgagDpGoFGIeI4IUbSOC8eQs8aR1OamDLLvT/+8Y/FhB5CCRiRs5ENU1RIg2tsUxRRJqm3tm3bunOCGUExWPhoO7CG/qkVcfKXwrFSNHmEW5Nr0zWJEzsafn9QVMRGdJAULiAMRbJm9Xq54srr5KQTT5e5sxcrQSmSc869SJo1ZT1qrJNCiQMEx6Yhe3JO/lWWtHmcrYY19PB+T6hQ5rxta5i90Wsl8xwrRzyMqnIyWGbmZhk7bowStf/JJ58Md7MbXNrUsSbC6Cbr3Vkn27Zte7nq6ivliAEDpFq1Gi4exApCD8lhJDIvzxMeI/S2hh65JOw+EXq9Jh8mS4TLzFwv48Z+LM88+5g7N/+RR/8pN9/8c+nTr5eSN19XJW1s7WbPY2O4v//y/UPCqM9HyZDrb3D1zMg1nTUQedYgH330UdK1axf3Htxww01y9dVD5N13PpbGTVrJBedfrmSpidY37ck7EiP0KhNg7wm9Jx+JmrY+rvdV5jQMZJ74EpOI2387Nm3cIMOHf6yE7G13goURehcPDyuJJv/16taXgQOPlAsuuNDtH8JeD3QK6Fug8u+Cx2SMDiP/rfLX8ZJfgOx7ufOEXu85+eWZvSD0ri4g9AUaNkvGjftC/vnP++T8C86U7ds2So2aGWUQ+tKySB36ejwYsDX0j+cMd78FJ5xwglueZN9X++4BbF8/vp24x/f1d7/7nev04UQRSLOFYQYWnQTM9GGtOJ3G7P/CFHZ7vuT91FJG3AcC6h7CzvILfmMg9nRUMOvK0uXbRocte4dA6NnLhVkclneLh/xgA367cFt98NvK/iz8TlB2lmlxz+6XhWJCv3amjOyb4Eb2rbMAROPfF1iewxr6gICAgICACoSyFBtTNqL3+KG2H3NgYaJ+gNFtfsgZicDQyQCJZiMjRsjpePjXv/7lFBzih3ShAJSVj31F6bxwTfy2QzIdB1xbOMoEofejxF6RQjnnvimYli97Bj+7D5huiYJKBwbHJjEt0sJi83w0DvMzkAdQHuWPghxApzVFjVzbTslNpcppjsBkZ++QOvXqSLIqx9u2bY/lFyJBHiEIEGvNt4spAh/pLlR/bmAojw8IsXbH5CnZYM2+jUzWqFlDFdNj5Wc/u1F++tMbpH9/NmyqrHWAQkiOVaVTYj537nx5//335V///KeM+PRTJSfbND5PupkuDV/ya/+pV31EyVAcbslRk6XpKlFzzC52n//U7eCuve1HTmkXvdD8axNLnJK+IsoSXyBZ2Vtl/YZV0lJJZ3qlVK23JCUjbaVFi+bOMPrVsiVHa2G4xvijtrxp5RTbkusft+H4Oc7mT05OcPV4/vnnue8DG4qdc8650qFDJyUEGdoOkGeRJk2aSeX0Km6/hMJ8bR/9Y+d734y+7Yrb9TvgHTDZ9teeMvh3Q3myXup3iM4eLlTufXjkQaSmkrPTTz9Dbrzx/8nVV18j/fr3cyn5NNVWEcnLzRNOtnj11ddchyC7rNMZSBps3uceiOUBGzn37zvfEp8vCLvfOC8WFsunpFdYPuBOM/Y1fJy+J7ypcerGpa+55OdygkWaVK9eS+K0Dt2pAK7MUUOspc3BB/Vm3zxg3z1sc0fv23fW7jP7iY1L+U2BHPMbc8stt7hrNsyD+NMZzf4W9izfbOvgtXY7EBBHNF/ED+i4xh8/u5+vvze4KROE2n5fzFi5gHVuALMBssU9SDlEOXpvj4gUN1r2fYrjEMPXZkBAQEBAQMBeA2XQbPuR54cfBYRrTFQRAKaMmBsQzhQxlCeLCxtCzdryK6+8UgYOHOh2u+ecXci0KUDlAeLBGBG3vLGJEKM1bFzEiIrlH0OeMeSRUXI3tTtG+onHlDEDnQL4cZ/pluPGjXNpUb7oqBEG8KzFB6L3GM12dizfIFp3BwJPA4wg6H/KBNIrpUntOjWVbORIlYwqkqkKKDMHyYcfPVbbBS8h9J5A6H/8U+JrCqK7qySixAObelKjbncVC09YiLgPX+iOfUtOSpEBRxyhJO42VchvddNSe/fuI5WrZGgYzQuEzY06xsno0V/Lm2++6WavuHg0iSLXLqw7ZR22T0fcPW5mK+HLVeKvMkzadFLwR5gI3GPkj2y5+7SrKuLx+pwS+oKiXLWV0OdA6FdLxw7tVGa3SUaVypJRtbIjpNZ2xMGU5xKDsm4KuxGoAMDu8BzxduaZZyiR/4UzjPQxldrtcaF/GRnV9F3gXSzQ+q6mZF7fIyWqCfpHP4s1pm/DSMNqNXPl/WN1ju2uuSB2qK+Saf3fhdU/t2s+wbS9rIOHGR0ck4dMMkPkrrt/LTcreTzvvHPl6GOOduHiIcv6IEtWkDN2PKezcvXqVRqzphGLC+Jv+bCZIuTOy67lz8uJ2S6A3nBy5H1cOA2ghnLgkyDxRRh1qugW5Kq87sjW9ytVKlfOkM1btuq7Xt0Re0+VzFiMxTEfdPAuUF6+iXxb7TuNMbd9j+13wcLzXQaEA9y3MHx3mRV24YUXuqn2kHqmuDM6Dixec2MOFK5NY4YN+CDrLCmL/j6QJtfY5ItlVYTjPn6UxcJZniDudo/fAu6zoR7H4fH7ZB0T+1KG0mUmzvKog4MF38IBAQEBAQEB5Q5TClA2TGExmBtlA4UE25QUDOEBig/El3WQjNTb7svRuPYXlhYgbVOKmKLJ0WgoVIymQ8JNKcRG4SI/zCwgbyhc5MfC4Cb/0WtAPIwCoTRyjJ2tgSeclQnDSJ3VxaEE2fTGk1nSp13atmvjNsODuG7bulnWrV+r5WNquld4yb+1HyirZXzZLP6SsjoipI9hO7eGhbzkxc6Kpy7oQNiwcZPr5EhMSpSatWq6pRAcdfjzG2+UCy+6SDp07KgkxNbIahyFBfLtt+NdfXNevUvLkSJfr6TlSRJy6dufcriw6sYPA5ztrmMeCsK6dGIzCDin32XelYcTGja7Hddr1qyheV8vrVq3lEqV2FyR56LqJ21sJmBX4Mgtlt0wKs8RXB21vXcibFp9laukS9WqGW72DH5r1q51m4rFJXiZQK5LEKnvkmbdI7zMlsiRj8WTfL4JELQdO7YR0uWhaZOmcuKgE+Xu3/xGfvmL2+WUU051R+z5/Sf4/vllQ5999rnMnDnL7fGAjOOHbPr3DDLH++AJKR1npOdllPeImGK28+M6iqiHz7N/03hGvzf5fM84iSHOdZwtWbJY6uh312Y0VGT48vuN/PhW8I0wP8oDsJ2MxMA9wO8OS6WYKcVIOVPwsS0OYO1cHiAPxE18LLXi94Nd9m3TO+7z28LvBOmzrwwj7MDyA8xNPMSHTFgeqQN+I+k0ts3wCI+hLNF4fkiIflEDAgICAgICygmmYJRWILhGAUG5MMUJZczCo9RguMagnKPgQJohwChhFs6eKQ8QXxQoW5w9j4LHjsgo66bcQfIhCp07d5Y+ffq4DgDyZXkG0bxxD0VtzJgxbu0862VZk0/ZMaSxYsUKR1ypE9LhGbuPOdjQVDQdbDWQUpcmdoGSpw6yes0K9VdCrTr+ihVL3Jp2v97Xg/JCbi2v0XzHrGIwCmpGn3T34VrYhfqf707wpHyz1vP0mbNlxcrVkqPKKmuDtXokNS3NTcM+99xz5U9/+rP84pe/kNNOO83NIoC2IWPLli2XeXPny8aNW1xacW6df5FToKdMnirvvPO+DB36scyZM9vJGLvh02y+7cwAylKSV5CfTycVhMzLK/5M3ec0AEjRyhUrZdnyZVKtelW3uWOnTh0lLU2Va80/sLopSSeaXkBpsBzh+uuvUzLcs/hd8/XuiQrfEK7btm2n79N2qVWrpr6na5Rgr9M6hwz7+uY5+3Oj3DF4eY1d7AYs2/D0wRum3LtReSXimzZlyrx5C7S9F2tcvoOINmWmT4f2HeT4E06Qh/72NyerRx41UDjmjo3wWCbAM3Nmz3NkrLAgT+PVb6TLky8fszzmz58jkyZPkqzs7VYcBWUgnO+sKJFTsyNBHdRf/7lOO71JcXJysvUd2SCVK1fSvMTJBq0zOkZKfxMrImhP+01ABuy9Iu/8dlB3fHvxt98ZM/jx3mNstpV1zgLCmIyVB4jH8ssykmOPPdbNIOL4U75X3M/X7z+/N7hZ0w8pJ988gw0sLLByWD75tvG9IYzfbDHZ3bNwP1RUfEkNCAgICAg4DIEiZYoHygTKiCkk5ociBVEmHAY/A9cQZ0blOYeaEToImx0BRxzloaBYPKRtShGGHZHZTIj0yAO70ROG0fUJEya4fKOQsXsw4VHE8GODP0ZHrAMAwzOMFL/66qtuCv/8+fPdEWtMtWWjINZ8c7127VpXR3ZMHs8SN/k62IDgMCLHBnOQFn8eNmSiQBo1aqhkZaO2SZ6S6Npatm2OKDGtlz+fT2Lxdec7BPQq1jHgjb/2I/KlrtXtiLy62TQvOdmPUOKfp/VK58miRQtj6ahnDLhRdNkw6tRTT5HbbrtVjhx4pGS4Kfim1PsRL9qHNcPMNJig8sQJAy+88IKbZvvBBx/K+PHjZYu2DaOjEDSXR5e3WF7Jo17jwM9km5pzCrPmOy8/T91xjkBs2LBeqlWtRi5l8qSJ0qxZUye30SUTPBuw96DOqHJX384dO+Kw+DsT7zZFZFlO9RrVJTc/R7Zs3azX+o1ROUbGfZv59jTb/LSpYvDplBgv4679Y/CP+PjseWRs5apVjlB5Eunff0g795ArvmPHHnuMW8PN9wPClRQjazn6DCSUZ3mGI+yQI3bL//DDofLYY4/Liy++qN/F9cXpGjEnC8Xy6uTU8qgwOwLkkM8K7zDH51FHDRrU0/z6UzpqaP0diu9OeYA6RgaoQ74HGPzstwVQLxYOw71ly5a5bznT0+lgPemkk9y3hOft++vf0/IB9YkhfZZ0sT8M3yZOeaFTl/T41o0ePdp1MLDho83iQn44ypXfEfZbQE4ok/2uevkqcP5siMdyAjba4x6weijP8lQkHB6SGhAQEBAQcJgBZcMUQhQVDH4o4Da98YsvvpDFixe7aYeQYMgtJJfz5z/66CN59tlnnQJLGHbrZc20U1hjcZeHchKNw+IGxM+Ux+uvv94pSRzNxzp+yDdKIFN+mfZtChXxoMjfeeedbuOlefPmOSWLsrI+kx3x33jjDbnrrrvcMUXsbMxxdbjZnGnBggVuhAjFi+eIjzxE83Sw4Qb5XHpc+fplN/BmzRtJnbo1lCBtl+bqLijMkYWL5kh2Dp0WzLJglJI688qjg/rh7+NS243AU9eljIVzx4qx+V6eKrnZxfICCVuzerUS73fdDIbsbAgPa+D9jICcHNyFfhS0Qzv55e2/lH79+qlS7qdjJ6hyzpFg7AyeuW27fPnVV/Kvf/9LMrdulQcfeEDuvvvXSsSL1L5bRn420sUFMdfk1R3Ls+Xb8qqGUVXKm+8U6Xw3DRo7OydLMjO3aPvPlY4dOmhZtmkdxithaOQJvWNXvgNJ/wXsJWgLZMK7PTmjDml3SDFuZow0adpIli9f6uq2cqU02bRpvWzbvlnD+1Fve97b/O/b1stn7Nq1d8ytbWXvIIb29un7a+ST8AmadmJyosydN1+/YaOUIOc6WaaTgXZnar3PP/uDVJWBA4+Se+75vTSo39CFzdqRI4lKpFPSUiQ1Ld2t/58/f4G89dY78utf/0Z++tOfyTPPvOBIaHTJBnnwdMaXw4yTW2dTArsGsXzrJfXBiO76DWtk3fo10rxFM3WvlfoN6kq9+vVUvu2Zig9+VygX309mO40dO9bNiKIDlTrDTacpZPnrr/3+GhxLyt4FrKe/7LLLHKFHlqJyBpCt8gB5o7OANNh1nr1h2AeC8+JHjBjh8sfvCx0MdF7ToWzr58kDs7v4TnGEK6Sdjh97D4iXsOzez28pywhsZ3zqxjo6fqgIhD4gICAgIOAgwAi3EVQDo9UoWJzBO3ToULcDL4rIhx9+6I7y4Vze++67z+38DLlnrfkvfvELGTJkiDuyyKZPosiYwnUgII/RjodovlHEjzvuOEe+GXnnqDqUJYg4RJ919oB8QOpR1JiqzzRJRtlRpDgWCSLP2lpGD+kIwFAuNvRiB2ZGU9jAiFEZ6oL0yQt5sDwdCvi1ujbih/H0oGpGhnTp3FnbLtOtA8/Py3XK5bZtW7Xwmj/NL+HJN3ZJ21g8Pi5vYm4IkerNGtQZrhlY9B0kiW4HcUY0UdV2ZGXJlClT5bPPP3cj9oDz5RMSta3cSKPWl0aapWS/WbPmUqNmLZcXFFraqHLlKo7YM+MDmVq4YKGr/1q1aqgyX1U6d+oomzZudEo+7ZREvJQ8lmc34Gn5drYnROZ2G+npNdPtGR1esmSRLFgwPzazYZO0bdta6itBIozbSI1niusoYG9AG/vRRk/aaF8MsHYA1DmEfkfWNmmg7yLtmalyi6wwSs/zmOK/2LM87uwYUYewO9KObEauIe/W0ebfT9+WTLnHzZT5SZMmu/0buO/DsbzIf094Njcv35H2Ro0au/cdUWPEtlFDrpPd6Hxm5lY3Y4dz62vUqOnisvhyc3OcvLv8mR1zu+tYWby/uvGg1LH73q15LszXvORqOmtk1aqVUqtmTddpxlKi9PTU4vqtyKA85NPqFvCNfuKJJxx55xtAmZ5++ml3ROq9994rv//97+Wpp55yU93p/PMnJZzjvr/ROkLeaNvygMVr8XlZFrcpH9//559/3nX68o3it4XfGEi/lzH/G0D+mKrPrDB+X/CzNsImfmYeIEuEIzwwuTHzQ0SFP4ee6RKMBAQEBAQEBJSFf//73+6H+1CeQ//gQpE75or8p4PIdQ0L3Oj1gw8+6JQoSCvPmxICTCmxEQIIPsQnGqb0zzH38DPFBYWNa/wtfpQie748QD6JzxQg3KTFNR0J5Jky2NnM5KE0Abcps0zZp5yE57lo+XATlvzjxjaFlLi45j7PW7mvnxHnzqG/T8ZJ/vjhcvXVV7vOg/JESR49Yc3LZ3MxLb/qoGPGjJP/PvG0tGvbRRbMXy5rVm+Wyy65Wjp26K6kOlVJBKNE1EMJ2XImds63J2T46bUj4ZA0Tcrt7u7dhEtM0npPUOIVqxcI8SuvviR/UGW3deuW8o9//J8Sjg56O95PVY7JlD6tz8fL8mXL5K47f+VG4VCUf3bDjdK1aw9H0Ed+Nkzuufduyc7Kldtu/Y2cfNJpkpOdJ1OnTpELLz7JbSD15uufSdMmLSU5vYqWRcujhWd0U5uXavF+6qZ9ABvgMfqblMR0WpHFSxbI+++/J7PnTNE2Oldef+0lOfXUwXLppRfre5pONl09Q6ioE8r8XeBXlv+PF9QXsuXfGf++2bfA3pu8gnzZsjlTCdEN0rVLH5WPNPnqi7EqByfL8cedpEKWprKnBFph3w171k4XwNufOc899VNZLPbX//BL1ram/WnHpGSImcqImnXr1sojj/xb/vf0UzLwiCPkrl/fIb169dRn2EMjW1JTk/X7wPFwKY6Ub9y4yY3ELl2yzHVYXnXV1Y6s+dFmLyfMRoHsMfOHsjMr6Pe//4O++621/P59Y/YJJzlQL24fC5VP3Pj5TRt3/va4etP8ao3JuvWr5YMP35aJk8fKRRed496Ry6+4WI499mippO+DFv17A+fQN0kTeXTHUPdbdeqppxafQw8oC21DefL1W0mb8L3EzTcXcM/a2Mpufny7iQvDPXu+uI5ihbfnDxTEy28DcZG25R8/m0Jv9ywfGNIH5I9w5I2ZKdwj79y3/BKGsvMtox7wQ24wFsbiK43ic+jXzJTP+vsj73iO8Ja3/QHPgoN5Dn2FJvQ08AknnOCm6wUEBAQEBJQF1uAxsn3eeefFfPYO/PyVB6G/tkG+I/QPPfSQPP7448WEHqBcmAJBelzjxuDPNeC6LPCMxYWbH34UAWywq+f2BaYGkI65mYbKaLsnD16p4j7p4rbycO1G2BS4MfYMsDKanz1vZSAeqyPC4DZ/S8PsIdPloBN6y4sm6ZBfkOvTV/fatevlV7ffJbVrNZQa1evLhG+nSY8e/WXwqWcrwakk+dokEHZPVEvyD6H317F4tTmxMZqUGsJ4N35FSjISEks6Vljb+9prr8pvf/tbVXIT5cSTTlRyfKEc0X+AkqkUJW1JSsD88V9ZWdkqix/L008+4WYNXHnVVUrkTpD0tCoaV7489/xTcvdv75RWLVvLr+/6oxx15PGSl1soU6ZMknPPP17znyhP/fct6dmjn6RnVNO2UGXzO4TeG5RlOjBcu6pb4gpcfU2dOknefPMN6dChhTRrVlPfrRfkr3/9q/Ts2d0tXyghpciUL/d3gWeZN37E8J0gpesGeQXUJ3LKCPmzz74gc2Ytlo4du8q77wyVli3ayMUXXynVa9STgkI/Murl3HcC+Wv/jrNqhH0c8I7nKEJncPvwkPfkJP9e6xOSlqrkUp9VKXCE/tF//1ueePw/bjPEI47oL7/45a3SulVr/Z5AwPKVaFXSZwtl9eo1Mn78BPn9PfdIo0ZN3CgxZ6Izm4QRdd4lzZCbtv/ss8+4adbkj3X3Dz74kNSu3UxlycsTcsrMAd8BxXcmJpf6eTU3xsA3Rt92zXaezJw1Rd59702pkpEibdo2lw8/elvuf+BP0q1bFzfj5PuEEfrHsoa53ypmSpUm9IB6oUzY5gb2DcKU9gfmb2G4T9z2HcZt9y3u/YWlgbF8kQbfAuK1by9+lj9g6Zsb2LNc++/QzqfEWBgM1zblnjCG0nGCXRH6aJioe29haf1oCX1AQEBAQMDBAj9/+0voH1hYJHfOjZNH2xfK1XVz3dpypshD6O3HmDjshxplxX648ce9v4rB/jy3r9jbdEqHK+u5qB9uUPoZA/5cRxUz6gpcN63IEfq/FI2Vwomfuv0EIPQWNhrngcN3PPjDu9XSP0jIs88+J5+PGi1tWneWBfOXybbMPLnssmulRbO2Gt6P5DBWyc7vKIJMHSZfSUkokqpgxu65/DqiT7697YqpRYiLU3Icr8/ppfJr2b59q7z++pvykJJiiFZ6eprUqFlDLr/iKmnbrq3Ur1ffdb6wlIMdo5955hk3cn/VVVdKjx49pVrVDFUek2TZ0pXy+BP/lkce/bu0b9dR7vndX2TggKNky5YsmTptslx0yWBXzrvvfFBOP/08qVqzjhIrFG8tkVaDVrMCGcaG0Odpfiz/1FeerFi1XIYO/VDGfTtWrrnmEpk44QupXr2a/PSnQ/T9qu/q1JfZSEJpFZRSl2c7/pBAXWF8Hdl7E5V7pqEzGPbttxPlt7+5Vwng6TJr5nxHis89+yJp3aarPpCsz3pyjoxiExXvkZdNTzIg9m6EHkKPn7tGSPVa/2eWCaQ7Xu8lJvr7y5evlKeeelJeeflllV02aEuQDh3ay2mnDnb7cTAVOjk5yXXCMh38zbfelubNmsm5557nRvI5B568eZC2l79nnnlabrvtNufLQN9f/vKA1K/fSvMc61hwcsq3RL+1+vq4OPQ6N5flKb6shMOTMuAuKMiR/LxtMvyTj2TY8A81D6fL6jVLZXPmBrnnnrulTp3akqjPeZQQzEMJCH3j1CJ5PGe4+61ijTvLlCiDvUNGaO3aygdMNrCjcrIr+HeybNk6GLD0oijLryxE87qn8KXDIOvmF/VfsL1IWn8VL/VXz5BRA5Klmcom74iFpV6trvcFPA8OJqH/fiQ0ICAgICDgBwB+4PnBt+l/pRWF6A9/9N7+4kCe3RfsbTqlw5X1XNQP956esTBWV9gYgylY1L3V6aEAZKenkg6mCnMcWKtWLdSdraR1vHDslWZE81sS1udflMx7VQtyr6UjmLtXYna+5tnkpCSn4KGsM7rUtGkz+dUdd7ipx88++6Rcd+0Q2bZth/zj7w/LT3/yE7n26mvk17++W2bNmiNnnXWO3HzzLTLgiCOkejVG2Qs1f7laX7Ym3xMzRt6ZieGUfyVAvt7F7STtNt2LEXfyVxYStR30CUfuiMPWIi9atEC6de3ipr3OnsVu08dJtWpVNR6UVp8OedKYXTwB5QNkh/YEkGiIM5tpNm3aWFasXCaTpkxUWcohpLYDhuPacpx8Mcptsy2i8DIZkwFn49A21IdpS4BM5eUVKDnmW5goffv0deu0X3rxJXni8cflxBNPcufh33nnXTJkyE9cR9zPfvYzl/bFF10kP//5jdKnT299T5I1Lp++lxFNGzmx9NXh8+O/s9x3YWJ+Lm8Rg0U4Btk5nYLy8m7R4UFcKanJbkbBwkULpXHjhq5T7JtvvpF+fftK1arIq4/j+4Z/L33b8D2wbx7lMDJv9wgHeL8xvgx7Xwh73tI82Cgrjb1NN5rXPSEaxn97fB3hT/14eSrpROajRv1iLDz3+O0B+1KnhwqB0AcEBAQEBOwjPI3x5BIygyLNj7z94BsRM4XKlAdTvrjniFTATrC6wVBn5mfk3Xt4P6tTU8ow5QU/SqjpF8VMDG3btJaePbrJypVLlRAkSKMmdWXchK9k2YqFEp/IDu92VB/LFlgX6tcCc+3W8bq8+/hZ31tYAHHhHrY3O7JyZdt2JeBMdy9MkIyMmtKjZx85dfCZ0rlrT2nSrL0cP+hUOe30s+T2X/1a/vjn++XeP/5FfvHLO53foBNPlq5du0lCYqrk5cdJfkGCkm1VUPMKJT+WBmlTvqKiRElJTpekRNar+nxu3ZrlNjhz+dRrW5vM6Cc2g+qYREZnlRiyz0BuXpasWbNCJk8aJ1sz10vbts1k+rQJUqt2denRvYukpaUWt6e1oydjsXouNv69CthX+FF0SHxSUqJkVK0sg087xe3YXiWjktSsUU1mTJ8iCxbOdeFoCzpYmDli7xByQf37tt5ZThkB9+vUGQHXdnMyy0iw+qtcFKocFUmiVK5UVbp26yUnnnSS9OjRVXorUT/jjDPksssvkXvu/aPc+4c/yZ/+cp/8+jf3yLnnnSWDTx+s8txSEpLS3PMM87v4NE0Mn0gM7wnyR/78+6Wk1smml08v0/act8k/dYFcIWssG6C8rPnPV4K/fXumTFEZnTFzsrRq1Uw2blyrYQs03/ru0FlB5LywFQC0jwE37WcjxVHDNxASik0d5evvUHl+F38IoJ6sbqx+qE//Tvi64shSfsvN357hfkWtT96OgICAgICAgH1AoVP2PPjBZ3QH25RNFAAUAlO0DKY8mLIQ4GFKktUPsE4S8zN/yD1u6hmYHa3ngwU2amJjqsqV02XmrOnStFljzUucvPfeO0poVyphYINAP3rJaKXfX8Dni2nvFNPKRLbN7a/VVpMQn+SIGcSLncHZ7Z5jvtwUYI0vUclP1WrVpWHDBu6EgE6dukjHTp2lY8dO0rhxEze6yA74bnMwJWSoenFxCVLgCLS4TfSobSPU+EUV/3gN6+9FDXndOb8Qh7y8XOVgvrzzF8yTWTOnS5cunZWA5cncubPlrLPOkMpVKrvwgLYirYCDA0i6P0IwXo4++mjJ0zbiHPfu3bvJxs0b3VKIrGzOJtcw7p2y5SAQFmvnkjb21zsbwmH8jA86JUs6BJipxPntqalpksNO9BqOzTGR3W7dekjnLl3U7ioDBvSXatU57zzJybjrJHCySgcUHU8+bZYQmOxEYXkpy5SA70bJNGls8uRmwOj7xVFpU6dO1velstSoWV0mTpogZ599ljRr1sSR/wS+N4fgm7InUH77xtFmvq79FG2MdXba742Be/hxr6w6/LHDZLys3w38qT9zW/0dit+Y/YXPbUBAQEBAQMBew37Y+aFHYfJEbmdFCzfkxabtWVivBAdEEVWUrK6sTqlLbFWr/H0lLXSgGDG0MOUDbZsi4iUt8kS8jNx4AzFu3ryZ9Duir+Tm7NC23SHt2raURYvmyqQp32rb0tYFSnSZ/koHADM4CjWcn/Lrd9ymjCY7artRRe/HJl6IR062PpPD2uRUvZ8g2TsKJEtNfh55YsfwQhemsEAjLVJCVpSoJE7rJI+OEOrPdyZQl0yHhuBBtpISk/UZTUivlUNJnpIp1hljEhI4yzxJatWu7Ubs2bW/wI10UnZsNbGRT593Rj3jJSkhThYvmi9ffD5SUtOSpH2H1jJt+kTp06e7I27UB22E3Efb0+yA8gMElrPVtXVUTpvIkUcdIfPnz5Nq1TKkdasWsmD+XFm6dJGGK5KcHE6e8MswaE/eJ5pj57a29vaEHcM74N4JJ7M+DLKLDOWxMyTyqDJaVKgkOj9OiTHvapL6+xlK+XlKQlWmc3MT1S9ZEtkoAiKvAkk8KhkuXsSU94X8qajRbeDCYcgTsu3emeJ8miG/3t/uue+D+tFJ6JYY6Ds+ddoEWblqqQw88gj13yGbN290O9snpyQ50q+x6zNq3LcA8/3B3hOXdwqtwLb3CNCG/NYYsc+PfR9LE/0fO6gn6gxZtBlz1imC28JQZ1ZvhMfY/YqIsCleQEBAQMCPEvz8HeimeN2rFMl1DQpk9pzZ8uILL7pN2hjFNSULJQGlgaPnTj75ZMmomuH80Q+jCkOAB2Qd5WrOnDnyzdffFCtQbMA1vv8Q5+795p1yepNKcsUVV0jjxo2dEkt9WwfAgUGVYE1TVT51++UTHrF8aPQQ1CVLl8pzz70ky5aulg7tu8nkSTNk1ep1cs1VP5e2bbupEs2IIEfuxStx8qSpSpVUVcj9qKFre02C+HAjLpb1+ESEwxMJ1t/7OvDPcJa4z4sfNYJUs/EY90iDOAhepKQuLo7OBfXXIrHenR3wn332v/Lgg/dKq9Zt5Vd3/F769zlS8mO73F917Tkuzofu/68cOfB4Sa5cTa+VdPuia1wuWZ8AZIddwpUYLl+2UN555zVZtHiOHHvcQFm/YbXGN1H+8Y+HpE2b5i5vNhLLuwBIx9UBGQ7YS/h2RxYwxe+Gq0NP8phKjvRCimm7hQuXyl13/lbq1WsgjRu1kC+++FZatGwvF154iVSuXNV18HhCT+cKs0jYn0LJi7rZ5M5FrQJAGsioM+618CPzGNbeI8v5+RxH5jvi4p38cuykn9ZPJxX+KoaO9POOk/uEODbO8x0CdDwlQqRdUdTPkelCDSPy/PPPyR13/NLlhV3u//CHP0v9ehxbx2kZWuLYzv1ESlqQePJOFbF+nhukw7nzfJOnTZssr73+nFStmiwDBvaT0aO/lE6d2soNP7tOUtPoZND60z86wiil/xZ416EEm+JRC3+Wb2XkyJHuBIPUlFT3PeQPMEOmZs2a7jg/fn8g8rxn5L1Av1UJ2mB8H8O75oFczZs7T8aMHSMrVqxwMkN9IpPbq9SVCUcMkepLJsioI5L1+9XG1RvvGp3I2Jh9rU97V8Mu9wEBAQEBAeUMfv72l9D/Z2mR3DAzKEjfB+5a976c2ry6dOvWzXWUmDJULkprkVf+nQJfpOTGeSpi0frNtSAGhaqcfamk/mWpUrm6NGncQj799HOpX7e1KmtXSosWLTUs05pVgYRUq7KYns5IpY+HbEJ+XH71nyf53p/RVX8OOKRCSbr+n5IKIUaZzHdT5gnHaB1T9JNTklV5j5NcNt1TZTXBTe1nDTxnw0OmityUZkbmh3/yoTz00B81TLLc/P9+Jccdc5Iox5FJkyfIVdec40bxn3z8DWnTqpMkplfROLROlRxREdSzy7urFY1P87Jjxxb58MO35IsvR0ifPt2kdp3qMmrUJ0q6BspNN/3cTW12zxCFPsZyBFOQo+0WsDfw9e4EhlaIqe9e5n3bIHN5yGhcot5IcG3+6CP/leHDR0jvXv1l8+YcmTlrkQwefLq20fH6hJI9iJ+SbDaJy81h6rY/17uE0NtIsL+O02uIMSO/jGRzFCH3GO1Hpll/7juU/K75IDe3QGUrxcksZ9I7opmoz+qfWx6i8olsQKQh9hAsVz6VMXXKiy++IHfcebsr+THHHuUIfb16bbR8nhSxfl7fInVrTThCr/l0KdOBwJryfPcOUU/Lly+T1994RZYtmydHHtlHVq5aIouXLJT77/+ztG/fStOmgyN2vKiLhbhjHQaHGJWGi+zwTRtwCNEtf5UM75volosY8eYdoLPEy/2+zXqwdzUQ+oCAgICAgHIGP3/7S+i3qwL6xNJCyYooWzzDHyM7BggXyingnq29dyEJvw9KwQ8ZtIWrN6rOqkTd1I+7w301rSonyjm10dj9zAf8UIRM0Trg+ixiB2ywa0JvSWzatEXeeus9+fjjkdK8eWupXrWWfPThl9K8RWe55uprpXr16po31ignOZKSoCSdo+2Aj4O8q0NJkBF6BwiUcgjK5a95lunFlM8TLhRAyu7PvdeYXP14243Y66N+qrvf+ZpnC5W0zZk7TZ7478MybeoMue66m+S0U8/SgPEyadIEueHGS9wa/GeeelsqpdWQQiX9rh4KNWMufqsNlWk1O3ZslVFffiqffPq+NGvaUFq2bCSTJ493Z3lffPF50rp1a027RGGlEuOVJVobER/uA26zHw2ofwz1FSO8uFz9xQi9Em1Is+v0ES8nC+YvkkcffVyysgqkfbteMmnybLdhI0fFtWnT3pHoJCXXLOOIi2PZBYRe28XJILF6Qs+1T4v9GfIlOVmJjRvRJ23aWe/bM+rnSTGj/iwRIby9B7xX5N+v43cb6xXQEQAhR86Ra782vIiOA83LSy89L3fc9StX8mOOPVLuvRdC31af07hc8iS6M6H3MqcOJ4NFkl+QK9tVZocN+1BGjRopXbu1lxrV0+Trb0bJiSedoL8DP3VLZAoL9R135TBCzztL/IceL60U+WIT5fFtXRr2DkXv2/sUvefaL+b/Y8eu6tLAjJBrGxZJ9wy+9yX7L1B/vFt+psm+dfBYmoHQBwQEBAQElDP4+dtfQs+z9mOMzQ+yU1RjP6n2vP1QG7jPPbMDPErXG9cYU3YA93ZVd+VG6N1UYqBtxsi0IeKEzFh+V65cI6+++oZ8/fUY6dO7r15vljFjp8sR/Y50u3vXrl1f4yEko4M4IAwau+qDTiw0Xi2ROtQT4sFopyunenEbh/qLkiNGXN253/oco+7UjSMqbkd6rn35rd5YH2+j9BAelNJt2zcroXlf3nn7HenYsZuS+p9qSeOV4Hwu/3rkITnrzPPkJ0NuUqKWps+jtGpe9H+eJY8JTFvOz5GcnB1KDL+VoUPfk4yqKW5H81mzpmpesuVXv/qFNGrUUNLT0zV9P0qdp/5oAAAg5klEQVRb0oblMIviRw1kpaz6c0Lm3gMnRyor1HWuEhBCjxr1lTz33ItSp24TqVunsXz55TdStWp1ueD8S6Vp06aSnJiihJ9OslQN7zuyivRdoO2Ud7irIo2XtqP5XLsqmUceXdvqNbILkE8MHUq8T4ns20DHZqzd/fuLPPrOpvh41te7W65DQn3Uz7//RRrH1q1b3Aj9Aw/ex9PSv39fuf32O6VDh156nSg52byPcZKclKJxKunKLVCZ950EvBtJyRqjivLWbZv1PR0lwz8ZJjVrVpW27ZrKrBkTpVr1DPnlL2+TJk0aCfsP0JlhMwu89Jv5/mHfHbBzffp2sN8aV3el/C18QNmwuo3Wq8HqED+r432BxXUwCX3C7xUxd0BAQEBAwI8Ka9eulY8++kjOO+88qVKlSsy35Ed9V+C+hcG2H/moP4i6QfSZgBKUVW/Ruip9XRrUf1n++w7aEaNxEZ2Z78AT50qV0pW015Tly5fI1KkT3YZwtfR63Lixkqg8pXbtOm5PBUY9HQlX261/dfJSonQzIujXzRdqzJognQmqAzo9UN2QLAe9hj9BergHUeKK65LwGH2+kPFFRmoTJD+PtcNFkp5WSTIyqmuaSbJkyVJZvXq1LFq0SNav3ygtW7WT0087Tyrre8Ca9wIl9JAit8ZZiY7SIyVYuZKVs0WmTR+vJHGYVK+WJj17dZFlyxZKZuZGOeecM6VvX84UZx8Jey80f47IB1Jx4NhV/eHvDR07zge5UkNHV82a1bWNlsj0GZOlRo0qbmf3aVMnKxnOklYt20qSEnk6cZAbZhUhQ5BqJ4t0cqmVl8/sFB+n89CwcHYfBlnzfi4O50enArMEeFdK5NXb/hm3eR7JxQyxuftqtmzeIuMnTJBPPvlUxowdJ0uXLnNliU9Ilm3bdjjDkptKlVkaQn7JO/sIEBcdAz6vhYX57ljFBYvmyKeffiTJKQludH7VqoWSl7ddLrnkQunatYs+49891pwTj8msK2sFgdW/bwMPc5f2M1N+38YfNqy+DHaNsTqM3t8fLF68WD788EPp2LGjixMQp/0OsE6/Xbt2+o7WcPf2BT62gICAgICAgICAPSKqgGGaN2+uRPYcqV+/vkyePEkVstbSp08P+Wr0KHnv/bdk7bqVSnCYxgtLUKIR70e7iUOph4vDjag6AuRHxdlh3u3YbcRdDde2a3eJ4f53jR/BV+UzjlFKpkwze8QfCdaoURM544wz5eijj5fly1fLipWrlcy3lauuvFaaNmvuCBPpsI6fTobCIs7SZ7SWUc5M+Xr0lzJ06Adu7X7vPj1l48YNsnbtGjnppEFy1FFHatjY6CqsKOCQojR5M9LAUYYcydauXVuZPGWyVK6UJv2P6CvTp09VkjtcMjM3u5F4iDB7I9D2/tqPcrsNFxFXBYQfw6iiN7i/a3h2Zz/i86SeIxT1X6n7Pgy2vlmyY0eWLFICtGTxUrepH0sEzj33fOnVs7ds375D5s9fKJs2ZTrZ9huW+WeTkpganSsFyK3wvhXKgoVz5KOP3tMwedK9R2dZtXq5rFy5Qk48cZD07dtXn/MjpHQYWLn8+xkQcHggTLkPCAgICPhRgp+//Z1yH/DjhCcpnqjiNhUqKytLpkyZIv998mlJq1Rdjuh/lIwZM0YmT5ol/foOkOOPO0UaN2qmIROVDNERkKREg5EflTU1Fi+kGWIBKTd4UfTE366L5XMXYkpcELL8/DwlY6KEhxkChZKTk6tuiAu77/tdyCFB/ugwUX9sNn+KrR3V+3RGsLHY5k3rZMbMqfLee29IRka6DBjQT7Zt2yiLFs2X/v16y6WXXeymjJI1Kw9xhHfp0IE6p77NRpZY9wu4njx5ijz62OOSnZUngwadIhPHT1O/mXLqKWfLcSecIonxqe4Z1rv7NfV+yj3tmahEGXFH4n2bqkst3N6QCnJKAGajRGQ43r8n9r4ofXZ2zHsnEIZH3QZ/uUrMWU6TSEcF5eN4MQxr85lRxWg6csZsEuRd/fUd4lmWAGRlbZPNmzfIG2++JAsWzZYjBvR2y0YmjB8r3bt1lOuHXCN16tRx9cWGkCwtCXIbUN4wuT+YU+5L3raAgICAgICAgIBdwhQwDDACULlyZendu7dce+01SjDyZOTIj1Upay5HDuynxP5Lef75p+Tb8d/IViXAjNAnJNIp4DcXY7M69D2INYSbDcQY3Daj0XtTYCOYPuzuDCOoEHhIjo/H5zshIcmtMc7JYbOxZElJ8WfTszN+cnKKPluyVjQ3N0sKCtkkME9Wr14mL7/yojz33NPSuHEDOeaYo2TuvFluRsKRA4+QM844XesgXZ9n3b4nk2YCDh1oNwz1Tlua2+yePXvIkCFDpHKVym5kvkXL5tKyZTN59/035eNh78uGjWs0Fjp6cpVwIC9G1EVyVTaRLVi8RueIPTYOG7X38qoyqHJnshqVYS+LJYboig3XMYOMIr/JScmSzDFtStzZHR/5TU+vrOQ7zT3P9H46o3Jz8pxhJkluXrYkJbGz/g6ZN3+2/O+Z/8rUaZOkf3+WgsTJt99+o+9qD7nhpz+RevXqOXlnWYzVXfTdDgg4XBAIfUBAQEBAQEDAXsAIan6+39CLURaA8o+7R/eucsUVF8qmTSuVOHwprds0klNPP15WrJovHw17U8aP/1JWrVkiOblbNTyjmDHioCwmOSlBUpLTHNHeaVo90+wLGcVRkkbQvTCso/ZHeSWpO0kJfJxkZ5NeoqaTLkUFKUqANGw+U/0TJa4owY3WZ2Xlan4Yqee5fMnL3yLjvv1Khg59R+bNmy49enaRPr27y+zZ02XFiiVy+hmnygUXnSd169XRvFI/foQWYgWxhyAFHDpARpFLM9Q/08gxgOPiunTtJKeccpJkbt0sEyaMcXsg9FLz4QdvyMcfvy0bNq2S/IIsidP253QFmtCILsfgQdwh9W5nebfEg3QIY/KqfshrAfLql4kUFuDHdHYz3r+gtIk9I0VK3mM77jOrRdRdUICMEobReL0fn6LyS1hIfYoS/xQl5oysF8qWrZtk7vxp8vY7L8mqtYvkpFOOVjJfIF99OUKaNKojgwcfLzVqVtM8lHRg4QbUlV0H+Q04XBA2xQsICAgI+NFifzfFC/hxwpR+Q5QsOajYNG7USLp17yarV66Sd955x+0i3qt3b1mxbIUM/2S4G4GHRKSnV3KdAJAkphVDtojAb8RVFmJEKgq8yuAciC/T5glP/vI1fkYw3XFkGj9kihFYypObl6v+PFWohAjixNFnubJo0SwZO+4beeaZpyUzc5MMPu0UadKkoVuLDGm6/ifXyQknHCuVKqXptT9Cz5NIP0Lvpy2HcaPvC46Ax+QVN6aAa22bRg0bSbVq1WT8t+Nl3br10r17dzdTY9y338qaNWuFY+9q1qjh9knIy/NH4VWqlKxxqLzuluP6TgR4sJfUmLzGnrFHvxOFeuBnzwJkkCUjPrB1nsX7afj6zriOKBWvfNbLFxQIO+Ln5WfLhg1rZfrMqfLWm6+7Ux1OPmWQkv8iGT36S+nQoa1ce+3V0rlTJ//eatzUEQaZtXfZOujC70BAeeJgbooXCH1AQEBAwI8WgdAH7AtsxM4Uf66NLCEzrNtlU7H09FRp266N2xmcqc1JiQlyzNFHut3Gx4z9WhYsmKeEJccR6Oo1qkhqWqrGZuSXuL8rfzYCyj0vnxGDf8TQOQDp8XH65xKYsgwhi/VJQMLZPC8xGaIHKcpR3wJZumyBzJ47TV5+9SmZOGms9OrdVU466QTZsnmdfPrJh9K0WUO58srLpFev7pKuZJ71+G6Hcf1jR3GOM9NMxNKI5S/gkMDk0+zSoK0gwUnJiVKvbh2Vveoybtw3MmXyBBkw8AipW6+2fKPEd8vmjZKmMpySmiwZVTP0GWZ4+Cn3KvEaEzJFOsTq5ctk07kZpec6Zkq7lb54d6G/poMpaiM2ibxXcUl6zVpjldF8iDZr5P2sE5aqaCRqCvSdy5OComxZt36ljBr1ibz33utKiirJ4MGDZNu2DfLZyOEyYEBvufKqK6VZ86YaB6Pw+rT+x7uMsXcZMp/Pun31C78DAeWJQOgDAgICAgIOAgKhD9gXGHnfFWHypCBOkpKS3Qho69ZtpW7dujJr5myZPGmytGzVSvr07etIw+ivRsuECRNl69ZMtw7YrWdPUrLidqQnfpu+7t2GEtGM5mHnMIVF/vx38sroaiGbhLkd9BkBZTo8u5fnOtICGcrO3iHr16+RmTNnyFNPP6EE6BNp3aapDBp0vNSqVUPzOd4Rv+OOO0aGDLlGFdIObmSekU3igyBZHkxR5bKiHfv1YwDfLuSLdsBtMmvEgc4e3Bz51qhRY2nRsoUblf/yq6+kQ/sO0rNnb1mn38UPhw6VZUuXSePGTSUptscC7emlzLcpskicXkbN7W06jLy/v4ftrtWo1MTulcCvz/f3meVRkK9yq5zddQDEwsZrgv58e9yELnQdaDt2ZLp18q+//oqMnzBO+vbtpaaHzJ0zSz77/FM54/TBcsklF/sz95OTXPnZtM+O+APuXYiN1DM678tgnWcBAQeOQOgDAgICAgIOAgKhD9hfmLJvsuJtT2gS4yHmbLaVKk0aN5bmzZtJ5rYt8unwj91U4g7t26ri1kZ2bN8i344bK9OnT5ZNm9YpSylwo/Z+arzf9d6NQCqJ4VxwbyAdjE4y7ZgkmTLsSTpZgEi5kXIURvWD0BOOKfZF6l+gRiRX8vJ3SG7uVlm+fL5MmzZe3nzrRRkx8iNp2Kim9B/QQ/r37S4rVy6VTz4ZqgpmhvzkJ9fJqaeeJA0bNoiRIjo4mKbMSGqp+nD/cAdCf6hB/RuBL26PYngiDTHGn2USderWltatW8qGDevl81GfSeXKlaR3n16Slpqs5HiszJ07T7KzszRcLUlKSiAGfZb4ffvbXgnEBynfOU3ue8JCWm7Dfb3HWnkLZ6TdzRxR2+cNuTGj95yM+04q4qEzqrBoh+TkZsqiRbNlxKcfybvvvaH5K5QTTzxG6tWvKe+//6awu/65550jpyuhd6eYuHyV1E/pejIT9Q8IKC8cTEIfjq0LCAgICPhRgp+/cGxdQHkCmTLlDBsyzcgfU3hXrFop06bOlM9Gfi6TJ0+Ttm07SI/uvTVsoixcsFQmTZ4sq9eskTatO0vfPkdKkyZN3C7caWnpTtEjDsBIaT7xxtaoswYf2x3dpYQqN9fvUJ6o5Cs/z9blQ6byHBHKy8+RdevWyLz5c2TBgrky+utR7txxzs5v3qKpZGRUkY2b1ssIJfItWrSQI48c6HZHh/RBqCgXMwlwQxC1pM7+LniHSkZAAyoC6OzxI9xOJjjWEKIcnyjLV6yUr0ePkTdef0eqVaupbd5XUlMryaeffinz5y+WFs1bSo8evaRXr35SJaO6PkPb+tFsZA+C4kfZVd70Ly8Phu6n+dMRRScTm9nFKSHXxFV+eV9EsrNz9PkkN/0eWaIjik4C1xGl4ZA1+D0dVch2fn6W3o+TJUtny7hxX8voL7+USpVSpF//PtKoUV1ZsHC++o+R7t07yUknn6x2F6lVs2ZMXn2aQKN28QcEHGzwzQQH89i6QOgDAgICAn6U4OcvEPqA8gQa1c5qVQnBL1Q7OztbVixfKVOnTpNPR4yUuXPmS81ataVXjz5SS+116zfIsqVrZMH8pY7c165Vy43mtGjR0h2NV1vDZGRUlSpVWNfsyTXECkKfm8uZ8wWO/GM2btzkyBsbizETZdOmjRrnKpX5SbJ8+VJJS092R+s1adpQatWupuQtWdasWSlDh30o6enpcsYZZ0iXLl2kU4eOmmaGKpy8E5A0/264c/Tde7IrNZJ7nkQFVByw6aGTGyW4EAk2RUSG4pVhb926zZ1VP2rU1zLi0xHSunUH6dmjr7ZwnEyaOFlmzZojaWnVlez3kSOOOMKd4Q4ZxzB9HULPSQp+Tbrv1CpUmUT+3TF0yalOVhGLnBx20mfWSKEkJiU7WdUH9L5IkpIdv5zDLw3Jyc12+WV5yqxZM2TZsiXyxRcqp5VSpXevnu74vcVLFsjYMd9Ipcppcvppp8nAgf2V4DdSkpSupSZ9PzPBy7HzcmkFBBxsIMcgEPqAgICAgIByBj9/gdAHlDeQK8gLChrkAWXNyAk2ZGfbth2yTEn19GnsJD9eZsyYJVs2b5Hu3XsogTpCCVaqZGZmyqpVq2TLli2yYeMGmTN7tqSlVlbykygpqanSrm17R/ghURqtcJY2aULqM7dsVeIzS9PZKnkFeZKVtUNqVK+u5L2R1KxZVerWrS0NGtbVPOXL8pVLZc6cmY4ktWjZVLp27STt27WXzl26umUoqW7tNOSMMhS6+EmHcuz5PQmEvqKB9sMwdZ12dHLpZJalHYWSr7K7ZvU6GfX5VzJ79jyZMnm6dOrUxY3Ob926XWbOXCRTp86Q7Tu2u+nBffv0lWbNWki9evVVPtOVgHtaoVE6pKqscsGRiAkJkBiRBE5YUFkifeU1+oymq8aLE8TbyzSj+sjwypUrZNr0qTJ58kRZu26NNGrYQNNuIO07tNV3ZKUMHz5MNm1e72aTDB58inTt0kVq1Kjm5NPLqE3pZ8ZAicyyiWVAwMGGUe1A6AMC/n9759Zb1XHF8WUbg+8Gm5trg8HOQ5LiUPLSNn1o+wHyEBTlUyTK5TFfJB8gUR6iSFGkVn1LpCgPjVRRqBRBHOyYYBtj8A18xRc6/zVnHW9OudjBpD7494Px7DN7zjn7aK+ZWf89NwCAHUbNH4Iedhrt0x2i1+cYR3qyNwU5b95LmUxseWnZxm9M2ODgVbtw4YINDQ3Z5M0pW1q8ZydPnLRXzp619vZ205z127dTeso/n0TVwuKitbW2+3dI8C8nsaS5+eopPZSEu4TT4sJS+u4Na21rtaNHDtvhI53pu1d98btrP/9kl/7z73RVG3biRLe9+NKL9srAb60rlQHN929LQl5D+tfXJPwkynN5kMeoof9Kk6B/MpSj3YTunx7KbKIecd1fifqUrgy1dW7Dc3N3k61M29//9g9/OHR9dDQJ6RP28svnbF/dfrt165bNzs66zU5NzbndaSTJyy8NeM/9kcPHfNs7PYRSeWhoaMz2s7pm99ZXrLGp0begq022pAdgsik9xFIv/NTtWzYxMWHDQ1ft6tBgOr9mx44dte6e39ipU73W0tJkP/982b777p+2mMrCmYEz9te//NleffWs9fR0+zD9zTJY6zZbY7JZjQhINlmTRwJolAnAsyakNoIeAABgh1Hzh6CHnUQ2JTEk65EN6fV6qSdSyHETEsOaD6w8Es4rKxLat2109Lr9OPijXRsZdUE1PT1tY2NjdqDhgDU3tSRRczyJ82O+h31exLHGh0lLJGnIs4RMc3OLO4tzc3d8MbOJiRt2Y2Lc7q0u29LSvG9ZdjKJ+IOH2pKYP5Gcxz6fr9/Vdczfp+H6uk5dY374kEcZqLddv0O/SWmUkeojz3HPIsJttRzy6Au/r7V5/3Wli7GxiSSer9s333zjI0aGr173XvzfnT1np0+fTra7YpOTU3b71rQtrywnkZ8E+fSMtTS2JRuqt8bGZn8opVEfslfN26+rT7aUxLWEtsrB8PCwzczM+EiSlfQZDcneOzs7fLvH5qYG6znZbYcOHrT5+XkbGRlO1zFmjc01vpPEn157zQZeOWP9fX0+bUTo+jUHX79TwR9CaVqByuF92a5fSg4Az5goSwh6AACAHUbNH4IedpRkUyGMpBZkYy6KJSQSElRKy2JZK9PnRcNEOGPLS0veUzk1NWUjP43YyLURF+capq+HBRL/GsY8eXPSe+0XFhaTM7jPHUKf157ijkMddvTocRdGWtVeQ5fr62uSw9hkJ08lEd/fl8R8jwst9ZTafQk89dCmq1YPrS7M8txnPSjQa09KFMuGCySoGuI+6h7qWLcyp+nm5husnvrV1TUXx2vrsoEkhGtqbWx8zG7evGkX/nXRfvjhqo8MmZ9fcPvuPdnnW+DVmBaA3PCe+6nbM358585iEvUNtr9+v68hobKwUZM+N8USNZovL6Euod/c2Gidhzuso+OQtba2uN3evTNrk7cmfUqIrrG396SL/XPnBnzRxhdeyIs1ZgGvlfvzyBH9pvwgKj+Aclv136nF9xTp4QX2C8+eXL4Q9AAAADuOmj8EPewsEkd5ca+kFlw6bKzrONmT/qc0OW86nRfnUnhQWGk1b9O2dClKKS7iJeZnZmaTUJpzoa8hymNj4zY9NeND7bPo1p7cchBrrL3toHV1dbsoam9vs4OH2pOz2OiCvrlFC5NtPmyQjq+r25/TvAdXPZkSdtpjTNecBZLOxzDmfJ0lkQTVg2xKtzgfpnuYj+J+ivX7ay6OfYu6QmbZou73vZVVm7gxaVeu/OBrPwwNDSf7qbelxWWbm72TxPiR9MG1Vp9sSj342qJOw/El8peXVqwp2WBtfa0tLi36aBB9h9Z/0ND5leVFm52ZScJ/wVburfg1tLdrJIoegpn1nuq1P/7h9z6y5IhPIYn1KjSKpLQ/fbpG/ZYs5vUb8+/zdE8pofKZAsCzJsoRgh4AAGCHiGZP8cWLF+3999+3Tz/91LcIU6MqwrkVamz1upgG8HBkWxLJKS4JetmZTM7tx+0o99SLbFNZTIVdepLkk78vO3w6lc9vimj/jPv6zJzub/Pj/MovIR17ilR7epHn9OeHBfk7tcidhtfX++dnx3Kf5WcNcQ36gMi/KfxE8RiqhNL9LEWJfJ/L97JkQ3mkSRYbCvukqD1LjW+HKDvUmg4aJTI6Om6XLl1K4v4nW1xY9N57rWivufRrqxtJmO+zGzcmvOffe+sbD9jC/Lz3pmvI/fGu4+lYazas2sz0tIqOi5uulD4wcMb6+7Xo3lHf6UHrSeh63ZZTHPPvdf26Tr/C0vFmWYnRJqWHUTmT/ugIYEeRjQXFsvX11197B8Jbb71VtkXFYasIegAAgC2iXsZoSLUQ2QcffGCffPKJ99DLwYxmMRra6JVUo6yg8wrRSAMA7BWiHqxE9aTm02v4vObDa00IrQGhWAvoXbt27QGRHXWoQn9/v3V3d1tHR4d1dnZ60HQQTS3xfehL3xdx1MEAux3ZfEwDCUF//vz58uiU8DMUI+gBAAC2iBZIEmpAY8i9BH1vb6+nyzGV46jzRccxGl2dKzqmAAB7BdWHlfVjCG3Vi1E3Kl3HEjOqU9UTr+NiHSry8P768jlR/A4ReeO98b0Au5WinUZ50JD7t99+215//XVrbGz0fDoXZeZpBD3eCAAA7CnCcVQjKkcz0kQ4idEQi6ITKXSs/IoJBAJhL4XKOjKCzqlejLpRsYS66k/FTU1N3uOu9NhNQUHD6JWmfBGKnxOfXyS+j0DYrSFsVnYs9DqEu8S84p0EQQ8AAHsKifhoWNXwimiAFaKhVb5ohHU+nNN4EBD5CQQCYa+EqDeLQcT5YppQfRl1qELx/covok6O94s4p9ch8EXkIxB2awibLx6HDRdtfSdhyD0AAOwpQoyL77//3t555x37+OOPraenpzz8U0Qj7HsYp7go9IV6mQAA9hKqF0N0FynKiXjwqXyKI015Ii3ETQh8EXkjX4RIiyD0foDdSIj2sHGh46+++sreffdde+ONN9zPkC1HWVHMHHoAAIAtosYzwuXLl30O/Ycffuhz6NWoKsR8TwXlC6eyyMPSAACeZ1Qfiqj/ioK7iF6r/lQc54p1qepZPSzVax0rDvGj4wjx3oiVF2A3EzYv+w1k699++6199NFHPoceQQ8AAPAULC8ve0Oq+ZuDg4P23nvv2d27d8vOY+wPq72RtVqz9keOczSZALCXKYpsURQtIs5JoEjQFxchlWBXfqUrDkEf71EcAudR6Lx4XB6A3YBsW0F2H50DEvLqoY+HXWHvihH0AAAAW0TNnhrQCOPj42WHUuhYjfDS0pJvMzM0NFR2REPsR08SwG5EtvokcP/glyDhIdsJ+ynaUQgYpUmwCI12EhIyqm91PgSM8mmhPG13F++LzwsbDgGvdL2v8vyz5EnfEdcCUCTEu5D9aipflAeVAy0QKduKEIIfQQ8AALBN1PypMY24EjmZX375pV25cqXsSEajHI4pwG5kK7aJ+we/hLCtR9lPZZ0a+SK9khD2QTF/JQ97/7PkYddQ5Ne+HqgOKu1GdhL2H7GC/IniCJbW1lYfji9B/yTbqwRBDwAAUIGaRj1V/+KLL1zQRyOsBljHeqIeT+ABAAAAtoJ8CAl4heJoP/Xcq4e+v7/f82xH1CPoAQAAKgjB/vnnn/s8+xD0EaJBBtiNbMURxP0DeDxPKkeUIfglyG5ilF8xaF2f8+fPW19fn/sXT7K/Igh6AACACtTYStR/9tln3kOvxlW989FkqqGl+QQAAIDtIh9CPobW5YkOBK0n8eabb5aH3G9H0NO9AAAAUIHEuhrZGBYnttO4AgAAAFRSFOsRFzsNJO6322GAoAcAAKhAjawEvZ6Ya/u6eB3nohEGAAAA2A7hR4R413FLS0tZyG/Xx2DIPQAAQAVqGrUo3vDwsE1PT/vr6KkXCHoAAAB4WqKzQHPoT58+bR0dHQ/4G1sBQQ8AAFCBmkaF2FJG89xCxEezud0GFwAAAPY28iHUM1/0IfRa/kb4Ggh6AACAp0RNo4Ia1kohH9BLD7uVh7l2yaI9DquttN94R7L60lGmnL8UAzw/5FKxXrL6uvvprxt6tva1UjmqU6RdSkuFZH1fjuvUPuRDgC0T9bPq4PAzguK5/0GnHmFwCHoAAACA54mNpD7C8UuxtMhGSbSUkyu8P2kZsV5aXimkSuSP/qJ4HeJmM2GTx5wC+L/yoOzZ8LKxmgpDbUre7xarUOs2vFIy4ANrKXU9pWykhBStNKQoFYj6dK4uZwHYWYpmWuQRler2+vMBAAAAoOp4hB+Y0BnJ9/xPjiHOITz/JMVUEk216V/uEX1EKVFybfrjsacA7CowSwAAAIDnCO9tLwVplsJL75n3oOHCChIzhRBHkR/guSTKQSos+Z8kUbJ4FR714msodE7x3ng/re74UjaAX53H2B1D7gEAAAAAAACqEHroAQAAAAAAAKoQBD0AAAAAAABAFYKgBwAAAAAAAKhCEPQAAAAAAAAAVQiCHgAAAAAAAKAKQdADAAAAAAAAVCEIegAAAAAAAIAqBEEPAAAAAAAAUIUg6AEAAAAAAACqEAQ9AAAAAAAAQNVh9l8ni3fYAmXpdgAAAABJRU5ErkJggg==;" vertex="1" parent="1">
          <mxGeometry x="70" y="60" width="836.63" height="520" as="geometry" />
        </mxCell>
        <mxCell id="GG8pMooJ2UvfW2ObNYX2-2" value="0.6*0.8" style="text;html=1;align=center;verticalAlign=middle;whiteSpace=wrap;rounded=0;labelBackgroundColor=default;labelBorderColor=none;fontSize=19;fontStyle=1" vertex="1" parent="1">
          <mxGeometry x="400" y="210" width="80" height="30" as="geometry" />
        </mxCell>
        <mxCell id="GG8pMooJ2UvfW2ObNYX2-3" value="0.4*0.3" style="text;html=1;align=center;verticalAlign=middle;whiteSpace=wrap;rounded=0;labelBackgroundColor=default;labelBorderColor=none;fontSize=19;fontStyle=1" vertex="1" parent="1">
          <mxGeometry x="448.32" y="250" width="80" height="30" as="geometry" />
        </mxCell>
        <mxCell id="GG8pMooJ2UvfW2ObNYX2-4" value="1.0*0.3" style="text;html=1;align=center;verticalAlign=middle;whiteSpace=wrap;rounded=0;labelBackgroundColor=default;labelBorderColor=none;fontSize=19;fontStyle=1" vertex="1" parent="1">
          <mxGeometry x="400" y="290" width="80" height="30" as="geometry" />
        </mxCell>
        <mxCell id="GG8pMooJ2UvfW2ObNYX2-5" value="P(O|λ) = 0.03+0.13=0.16" style="text;html=1;align=center;verticalAlign=middle;whiteSpace=wrap;rounded=0;labelBackgroundColor=default;labelBorderColor=none;fontSize=25;fontColor=#FF3333;" vertex="1" parent="1">
          <mxGeometry x="140" y="410" width="210" height="60" as="geometry" />
        </mxCell>
        <mxCell id="GG8pMooJ2UvfW2ObNYX2-6" value="0.6*0.2" style="text;html=1;align=center;verticalAlign=middle;whiteSpace=wrap;rounded=0;labelBackgroundColor=default;labelBorderColor=none;fontSize=19;fontStyle=1" vertex="1" parent="1">
          <mxGeometry x="640" y="210" width="80" height="30" as="geometry" />
        </mxCell>
        <mxCell id="GG8pMooJ2UvfW2ObNYX2-7" value="0.4*0.7" style="text;html=1;align=center;verticalAlign=middle;whiteSpace=wrap;rounded=0;labelBackgroundColor=default;labelBorderColor=none;fontSize=19;fontStyle=1" vertex="1" parent="1">
          <mxGeometry x="690" y="250" width="80" height="30" as="geometry" />
        </mxCell>
        <mxCell id="GG8pMooJ2UvfW2ObNYX2-8" value="1.0*0.7" style="text;html=1;align=center;verticalAlign=middle;whiteSpace=wrap;rounded=0;labelBackgroundColor=default;labelBorderColor=none;fontSize=19;fontStyle=1" vertex="1" parent="1">
          <mxGeometry x="640" y="290" width="80" height="30" as="geometry" />
        </mxCell>
        <mxCell id="GG8pMooJ2UvfW2ObNYX2-9" value="0.03" style="text;html=1;align=center;verticalAlign=middle;whiteSpace=wrap;rounded=0;labelBackgroundColor=default;labelBorderColor=none;fontSize=19;fontStyle=1" vertex="1" parent="1">
          <mxGeometry x="780" y="200" width="106.67" height="40" as="geometry" />
        </mxCell>
        <mxCell id="GG8pMooJ2UvfW2ObNYX2-10" value="0.09" style="text;html=1;align=center;verticalAlign=middle;whiteSpace=wrap;rounded=0;labelBackgroundColor=default;labelBorderColor=none;fontSize=19;fontStyle=1" vertex="1" parent="1">
          <mxGeometry x="540" y="290" width="80" height="30" as="geometry" />
        </mxCell>
        <mxCell id="GG8pMooJ2UvfW2ObNYX2-11" value="0.13" style="text;html=1;align=center;verticalAlign=middle;whiteSpace=wrap;rounded=0;labelBackgroundColor=default;labelBorderColor=none;fontSize=19;fontStyle=1" vertex="1" parent="1">
          <mxGeometry x="790" y="290" width="80" height="30" as="geometry" />
        </mxCell>
        <mxCell id="GG8pMooJ2UvfW2ObNYX2-12" value="0.23" style="text;html=1;align=center;verticalAlign=middle;whiteSpace=wrap;rounded=0;labelBackgroundColor=default;labelBorderColor=none;fontSize=19;fontStyle=1" vertex="1" parent="1">
          <mxGeometry x="540" y="205" width="80" height="30" as="geometry" />
        </mxCell>
      </root>
    </mxGraphModel>
  </diagram>
</mxfile>
